<svg width="256" height="87" viewBox="0 0 256 87" fill="none" xmlns="http://www.w3.org/2000/svg">
<rect x="254" y="15.5" width="2" height="56" fill="#EEEFF4"/>
<path d="M17.1094 58.1705V29.3636H22.8409V58.1705H17.1094ZM5.58239 46.6222V40.9119H34.3892V46.6222H5.58239ZM60.7138 21.8636V65.5H54.1087V28.4688H53.853L43.4126 35.2869V28.9801L54.3004 21.8636H60.7138ZM87.7095 66.2244C84.343 66.2102 81.4666 65.3224 79.0803 63.5611C76.6939 61.7997 74.8686 59.2358 73.6044 55.8693C72.3402 52.5028 71.7081 48.4474 71.7081 43.7031C71.7081 38.973 72.3402 34.9318 73.6044 31.5795C74.8828 28.2273 76.7152 25.6705 79.1016 23.9091C81.5021 22.1477 84.3714 21.267 87.7095 21.267C91.0476 21.267 93.9098 22.1548 96.2962 23.9304C98.6825 25.6918 100.508 28.2486 101.772 31.6009C103.05 34.9389 103.69 38.973 103.69 43.7031C103.69 48.4616 103.058 52.5241 101.793 55.8906C100.529 59.2429 98.7038 61.8068 96.3175 63.5824C93.9311 65.3438 91.0618 66.2244 87.7095 66.2244ZM87.7095 60.5355C90.6641 60.5355 92.9723 59.0938 94.6342 56.2102C96.3104 53.3267 97.1484 49.1577 97.1484 43.7031C97.1484 40.081 96.7649 37.0199 95.9979 34.5199C95.245 32.0057 94.1584 30.1023 92.7379 28.8097C91.3317 27.5028 89.6555 26.8494 87.7095 26.8494C84.7692 26.8494 82.4609 28.2983 80.7848 31.196C79.1087 34.0937 78.2635 38.2628 78.2493 43.7031C78.2493 47.3395 78.6257 50.4148 79.3786 52.929C80.1456 55.429 81.2322 57.3253 82.6385 58.6179C84.0447 59.8963 85.7351 60.5355 87.7095 60.5355Z" fill="white"/>
<path d="M122.544 36.5H120.447L125.158 23.4091H127.44L132.151 36.5H130.055L126.354 25.7869H126.251L122.544 36.5ZM122.896 31.3736H129.697V33.0355H122.896V31.3736ZM135.8 30.6705V36.5H133.888V26.6818H135.723V28.2798H135.844C136.07 27.7599 136.424 27.3423 136.905 27.027C137.391 26.7116 138.003 26.554 138.74 26.554C139.409 26.554 139.995 26.6946 140.498 26.9759C141.001 27.2528 141.39 27.6662 141.667 28.2159C141.944 28.7656 142.083 29.4453 142.083 30.255V36.5H140.172V30.4851C140.172 29.7734 139.986 29.2173 139.616 28.8168C139.245 28.4119 138.736 28.2095 138.088 28.2095C137.645 28.2095 137.251 28.3054 136.905 28.4972C136.564 28.6889 136.294 28.9702 136.094 29.3409C135.898 29.7074 135.8 30.1506 135.8 30.6705ZM148.782 36.6982C147.861 36.6982 147.058 36.4872 146.372 36.0653C145.686 35.6435 145.153 35.0533 144.774 34.2947C144.395 33.5362 144.205 32.6499 144.205 31.6357C144.205 30.6172 144.395 29.7266 144.774 28.9638C145.153 28.201 145.686 27.6087 146.372 27.1868C147.058 26.7649 147.861 26.554 148.782 26.554C149.702 26.554 150.506 26.7649 151.192 27.1868C151.878 27.6087 152.41 28.201 152.79 28.9638C153.169 29.7266 153.358 30.6172 153.358 31.6357C153.358 32.6499 153.169 33.5362 152.79 34.2947C152.41 35.0533 151.878 35.6435 151.192 36.0653C150.506 36.4872 149.702 36.6982 148.782 36.6982ZM148.788 35.0938C149.385 35.0938 149.879 34.9361 150.271 34.6207C150.663 34.3054 150.953 33.8857 151.14 33.3615C151.332 32.8374 151.428 32.2599 151.428 31.6293C151.428 31.0028 151.332 30.4276 151.14 29.9034C150.953 29.375 150.663 28.951 150.271 28.6314C149.879 28.3118 149.385 28.152 148.788 28.152C148.187 28.152 147.689 28.3118 147.292 28.6314C146.9 28.951 146.608 29.375 146.417 29.9034C146.229 30.4276 146.135 31.0028 146.135 31.6293C146.135 32.2599 146.229 32.8374 146.417 33.3615C146.608 33.8857 146.9 34.3054 147.292 34.6207C147.689 34.9361 148.187 35.0938 148.788 35.0938ZM162.849 29.0788L161.117 29.3857C161.044 29.1641 160.929 28.9531 160.772 28.7528C160.618 28.5526 160.409 28.3885 160.145 28.2607C159.881 28.1328 159.551 28.0689 159.154 28.0689C158.613 28.0689 158.162 28.1903 157.799 28.4332C157.437 28.6719 157.256 28.9808 157.256 29.3601C157.256 29.6882 157.377 29.9524 157.62 30.1527C157.863 30.353 158.255 30.517 158.797 30.6449L160.356 31.0028C161.26 31.2116 161.933 31.5334 162.376 31.968C162.819 32.4027 163.041 32.9673 163.041 33.6619C163.041 34.25 162.87 34.7741 162.529 35.2344C162.193 35.6903 161.722 36.0483 161.117 36.3082C160.516 36.5682 159.819 36.6982 159.027 36.6982C157.927 36.6982 157.03 36.4638 156.336 35.995C155.641 35.522 155.215 34.8509 155.057 33.9815L156.904 33.7003C157.02 34.1818 157.256 34.5462 157.614 34.7933C157.972 35.0362 158.439 35.1577 159.014 35.1577C159.64 35.1577 160.141 35.0277 160.516 34.7678C160.891 34.5036 161.078 34.1818 161.078 33.8026C161.078 33.4957 160.963 33.2379 160.733 33.0291C160.507 32.8203 160.16 32.6626 159.691 32.5561L158.029 32.1918C157.113 31.983 156.436 31.6506 155.997 31.1946C155.562 30.7386 155.345 30.1612 155.345 29.4624C155.345 28.8828 155.507 28.3757 155.831 27.9411C156.154 27.5064 156.602 27.1676 157.173 26.9247C157.744 26.6776 158.398 26.554 159.135 26.554C160.196 26.554 161.032 26.7841 161.641 27.2443C162.25 27.7003 162.653 28.3118 162.849 29.0788ZM173.581 36.6918C172.789 36.6918 172.081 36.4893 171.459 36.0845C170.841 35.6754 170.355 35.0937 170.002 34.3395C169.652 33.581 169.478 32.6712 169.478 31.6101C169.478 30.549 169.654 29.6413 170.008 28.8871C170.366 28.1328 170.856 27.5554 171.478 27.1548C172.1 26.7543 172.806 26.554 173.594 26.554C174.203 26.554 174.694 26.6562 175.064 26.8608C175.439 27.0611 175.729 27.2955 175.934 27.5639C176.142 27.8324 176.304 28.0689 176.419 28.2734H176.534V23.4091H178.446V36.5H176.579V34.9723H176.419C176.304 35.1811 176.138 35.4197 175.921 35.6882C175.708 35.9567 175.414 36.1911 175.039 36.3913C174.664 36.5916 174.178 36.6918 173.581 36.6918ZM174.003 35.0618C174.553 35.0618 175.017 34.9169 175.397 34.6271C175.78 34.3331 176.07 33.9261 176.266 33.4062C176.466 32.8864 176.566 32.2812 176.566 31.5909C176.566 30.9091 176.468 30.3125 176.272 29.8011C176.076 29.2898 175.789 28.8913 175.409 28.6058C175.03 28.3203 174.561 28.1776 174.003 28.1776C173.428 28.1776 172.949 28.3267 172.565 28.625C172.181 28.9233 171.892 29.3303 171.696 29.8459C171.504 30.3615 171.408 30.9432 171.408 31.5909C171.408 32.2472 171.506 32.8374 171.702 33.3615C171.898 33.8857 172.188 34.3011 172.571 34.608C172.959 34.9105 173.436 35.0618 174.003 35.0618ZM185.405 36.6982C184.438 36.6982 183.605 36.4915 182.906 36.0781C182.211 35.6605 181.674 35.0746 181.295 34.3203C180.92 33.5618 180.732 32.6733 180.732 31.6548C180.732 30.6491 180.92 29.7628 181.295 28.9957C181.674 28.2287 182.203 27.63 182.88 27.1996C183.562 26.7692 184.359 26.554 185.271 26.554C185.825 26.554 186.362 26.6456 186.882 26.8288C187.401 27.0121 187.868 27.2997 188.281 27.6918C188.695 28.0838 189.021 28.593 189.259 29.2195C189.498 29.8416 189.617 30.598 189.617 31.4886V32.1662H181.813V30.7344H187.744C187.744 30.2315 187.642 29.7862 187.438 29.3984C187.233 29.0064 186.945 28.6974 186.575 28.4716C186.208 28.2457 185.778 28.1328 185.284 28.1328C184.747 28.1328 184.278 28.2649 183.877 28.5291C183.481 28.7891 183.174 29.13 182.957 29.5518C182.744 29.9695 182.637 30.4233 182.637 30.9134V32.032C182.637 32.6882 182.752 33.2464 182.982 33.7067C183.217 34.1669 183.543 34.5185 183.96 34.7614C184.378 35 184.866 35.1193 185.424 35.1193C185.786 35.1193 186.117 35.0682 186.415 34.9659C186.713 34.8594 186.971 34.7017 187.188 34.4929C187.406 34.2841 187.572 34.0263 187.687 33.7195L189.496 34.0455C189.351 34.5781 189.091 35.0447 188.716 35.4453C188.345 35.8416 187.879 36.1506 187.316 36.3722C186.758 36.5895 186.121 36.6982 185.405 36.6982ZM125.516 64.6982C124.549 64.6982 123.716 64.4915 123.017 64.0781C122.322 63.6605 121.786 63.0746 121.406 62.3203C121.031 61.5618 120.844 60.6733 120.844 59.6548C120.844 58.6491 121.031 57.7628 121.406 56.9957C121.786 56.2287 122.314 55.63 122.991 55.1996C123.673 54.7692 124.47 54.554 125.382 54.554C125.936 54.554 126.473 54.6456 126.993 54.8288C127.513 55.0121 127.979 55.2997 128.393 55.6918C128.806 56.0838 129.132 56.593 129.371 57.2195C129.609 57.8416 129.729 58.598 129.729 59.4886V60.1662H121.924V58.7344H127.856C127.856 58.2315 127.754 57.7862 127.549 57.3984C127.344 57.0064 127.057 56.6974 126.686 56.4716C126.32 56.2457 125.889 56.1328 125.395 56.1328C124.858 56.1328 124.389 56.2649 123.989 56.5291C123.592 56.7891 123.286 57.13 123.068 57.5518C122.855 57.9695 122.749 58.4233 122.749 58.9134V60.032C122.749 60.6882 122.864 61.2464 123.094 61.7067C123.328 62.1669 123.654 62.5185 124.072 62.7614C124.489 63 124.977 63.1193 125.536 63.1193C125.898 63.1193 126.228 63.0682 126.526 62.9659C126.825 62.8594 127.082 62.7017 127.3 62.4929C127.517 62.2841 127.683 62.0263 127.798 61.7195L129.607 62.0455C129.462 62.5781 129.202 63.0447 128.827 63.4453C128.457 63.8416 127.99 64.1506 127.428 64.3722C126.869 64.5895 126.232 64.6982 125.516 64.6982ZM133.129 54.6818L135.296 58.5043L137.482 54.6818H139.572L136.511 59.5909L139.598 64.5H137.508L135.296 60.831L133.091 64.5H130.994L134.05 59.5909L131.033 54.6818H133.129ZM141.535 68.1818V54.6818H143.401V56.2734H143.561C143.672 56.0689 143.832 55.8324 144.04 55.5639C144.249 55.2955 144.539 55.0611 144.91 54.8608C145.281 54.6562 145.771 54.554 146.38 54.554C147.173 54.554 147.88 54.7543 148.502 55.1548C149.124 55.5554 149.612 56.1328 149.966 56.8871C150.324 57.6413 150.503 58.549 150.503 59.6101C150.503 60.6712 150.326 61.581 149.972 62.3395C149.619 63.0937 149.133 63.6754 148.515 64.0845C147.897 64.4893 147.192 64.6918 146.399 64.6918C145.803 64.6918 145.315 64.5916 144.935 64.3913C144.56 64.1911 144.266 63.9567 144.053 63.6882C143.84 63.4197 143.676 63.1811 143.561 62.9723H143.446V68.1818H141.535ZM143.408 59.5909C143.408 60.2812 143.508 60.8864 143.708 61.4062C143.908 61.9261 144.198 62.3331 144.577 62.6271C144.957 62.9169 145.421 63.0618 145.971 63.0618C146.542 63.0618 147.019 62.9105 147.403 62.608C147.786 62.3011 148.076 61.8857 148.272 61.3615C148.472 60.8374 148.572 60.2472 148.572 59.5909C148.572 58.9432 148.474 58.3615 148.278 57.8459C148.087 57.3303 147.797 56.9233 147.409 56.625C147.026 56.3267 146.546 56.1776 145.971 56.1776C145.417 56.1776 144.948 56.3203 144.565 56.6058C144.185 56.8913 143.898 57.2898 143.702 57.8011C143.506 58.3125 143.408 58.9091 143.408 59.5909ZM156.876 64.6982C155.908 64.6982 155.075 64.4915 154.376 64.0781C153.682 63.6605 153.145 63.0746 152.766 62.3203C152.391 61.5618 152.203 60.6733 152.203 59.6548C152.203 58.6491 152.391 57.7628 152.766 56.9957C153.145 56.2287 153.673 55.63 154.351 55.1996C155.033 54.7692 155.83 54.554 156.741 54.554C157.295 54.554 157.832 54.6456 158.352 54.8288C158.872 55.0121 159.339 55.2997 159.752 55.6918C160.165 56.0838 160.491 56.593 160.73 57.2195C160.969 57.8416 161.088 58.598 161.088 59.4886V60.1662H153.283V58.7344H159.215C159.215 58.2315 159.113 57.7862 158.908 57.3984C158.704 57.0064 158.416 56.6974 158.045 56.4716C157.679 56.2457 157.249 56.1328 156.754 56.1328C156.217 56.1328 155.749 56.2649 155.348 56.5291C154.952 56.7891 154.645 57.13 154.428 57.5518C154.214 57.9695 154.108 58.4233 154.108 58.9134V60.032C154.108 60.6882 154.223 61.2464 154.453 61.7067C154.688 62.1669 155.013 62.5185 155.431 62.7614C155.849 63 156.337 63.1193 156.895 63.1193C157.257 63.1193 157.587 63.0682 157.886 62.9659C158.184 62.8594 158.442 62.7017 158.659 62.4929C158.876 62.2841 159.043 62.0263 159.158 61.7195L160.967 62.0455C160.822 62.5781 160.562 63.0447 160.187 63.4453C159.816 63.8416 159.349 64.1506 158.787 64.3722C158.229 64.5895 157.592 64.6982 156.876 64.6982ZM163.209 64.5V54.6818H165.056V56.2415H165.158C165.337 55.7131 165.653 55.2976 166.104 54.995C166.56 54.6882 167.076 54.5348 167.651 54.5348C167.77 54.5348 167.911 54.5391 168.073 54.5476C168.239 54.5561 168.369 54.5668 168.463 54.5795V56.4077C168.386 56.3864 168.25 56.3629 168.054 56.3374C167.858 56.3075 167.662 56.2926 167.466 56.2926C167.014 56.2926 166.611 56.3885 166.258 56.5803C165.908 56.7678 165.631 57.0298 165.427 57.3665C165.222 57.6989 165.12 58.0781 165.12 58.5043V64.5H163.209ZM170.117 64.5V54.6818H172.028V64.5H170.117ZM171.082 53.1669C170.75 53.1669 170.464 53.0561 170.225 52.8345C169.991 52.6087 169.874 52.3402 169.874 52.0291C169.874 51.7138 169.991 51.4453 170.225 51.2237C170.464 50.9979 170.75 50.8849 171.082 50.8849C171.414 50.8849 171.698 50.9979 171.932 51.2237C172.171 51.4453 172.29 51.7138 172.29 52.0291C172.29 52.3402 172.171 52.6087 171.932 52.8345C171.698 53.0561 171.414 53.1669 171.082 53.1669ZM178.831 64.6982C177.863 64.6982 177.03 64.4915 176.331 64.0781C175.637 63.6605 175.1 63.0746 174.721 62.3203C174.346 61.5618 174.158 60.6733 174.158 59.6548C174.158 58.6491 174.346 57.7628 174.721 56.9957C175.1 56.2287 175.628 55.63 176.306 55.1996C176.988 54.7692 177.785 54.554 178.697 54.554C179.251 54.554 179.787 54.6456 180.307 54.8288C180.827 55.0121 181.294 55.2997 181.707 55.6918C182.121 56.0838 182.447 56.593 182.685 57.2195C182.924 57.8416 183.043 58.598 183.043 59.4886V60.1662H175.238V58.7344H181.17C181.17 58.2315 181.068 57.7862 180.863 57.3984C180.659 57.0064 180.371 56.6974 180.001 56.4716C179.634 56.2457 179.204 56.1328 178.709 56.1328C178.172 56.1328 177.704 56.2649 177.303 56.5291C176.907 56.7891 176.6 57.13 176.383 57.5518C176.17 57.9695 176.063 58.4233 176.063 58.9134V60.032C176.063 60.6882 176.178 61.2464 176.408 61.7067C176.643 62.1669 176.969 62.5185 177.386 62.7614C177.804 63 178.292 63.1193 178.85 63.1193C179.212 63.1193 179.542 63.0682 179.841 62.9659C180.139 62.8594 180.397 62.7017 180.614 62.4929C180.831 62.2841 180.998 62.0263 181.113 61.7195L182.922 62.0455C182.777 62.5781 182.517 63.0447 182.142 63.4453C181.771 63.8416 181.305 64.1506 180.742 64.3722C180.184 64.5895 179.547 64.6982 178.831 64.6982ZM187.075 58.6705V64.5H185.164V54.6818H186.998V56.2798H187.12C187.346 55.7599 187.699 55.3423 188.181 55.027C188.667 54.7116 189.278 54.554 190.015 54.554C190.684 54.554 191.27 54.6946 191.773 54.9759C192.276 55.2528 192.666 55.6662 192.943 56.2159C193.22 56.7656 193.358 57.4453 193.358 58.255V64.5H191.447V58.4851C191.447 57.7734 191.262 57.2173 190.891 56.8168C190.52 56.4119 190.011 56.2095 189.363 56.2095C188.92 56.2095 188.526 56.3054 188.181 56.4972C187.84 56.6889 187.569 56.9702 187.369 57.3409C187.173 57.7074 187.075 58.1506 187.075 58.6705ZM200.057 64.6982C199.107 64.6982 198.289 64.483 197.603 64.0526C196.921 63.6179 196.397 63.0192 196.03 62.2564C195.664 61.4936 195.48 60.62 195.48 59.6357C195.48 58.6385 195.668 57.7585 196.043 56.9957C196.418 56.2287 196.946 55.63 197.628 55.1996C198.31 54.7692 199.113 54.554 200.038 54.554C200.784 54.554 201.449 54.6925 202.032 54.9695C202.616 55.2422 203.087 55.6257 203.445 56.12C203.807 56.6143 204.022 57.1918 204.091 57.8523H202.23C202.128 57.392 201.894 56.9957 201.527 56.6634C201.165 56.331 200.679 56.1648 200.07 56.1648C199.537 56.1648 199.071 56.3054 198.67 56.5866C198.274 56.8636 197.965 57.2599 197.743 57.7756C197.522 58.2869 197.411 58.892 197.411 59.5909C197.411 60.3068 197.52 60.9247 197.737 61.4446C197.954 61.9645 198.261 62.3672 198.657 62.6527C199.058 62.9382 199.529 63.081 200.07 63.081C200.432 63.081 200.76 63.0149 201.054 62.8828C201.353 62.7464 201.602 62.5526 201.802 62.3011C202.007 62.0497 202.15 61.7472 202.23 61.3935H204.091C204.022 62.0284 203.816 62.5952 203.471 63.0938C203.125 63.5923 202.663 63.9844 202.083 64.2699C201.508 64.5554 200.833 64.6982 200.057 64.6982ZM206.134 64.5V54.6818H208.046V64.5H206.134ZM207.1 53.1669C206.767 53.1669 206.482 53.0561 206.243 52.8345C206.009 52.6087 205.892 52.3402 205.892 52.0291C205.892 51.7138 206.009 51.4453 206.243 51.2237C206.482 50.9979 206.767 50.8849 207.1 50.8849C207.432 50.8849 207.715 50.9979 207.95 51.2237C208.188 51.4453 208.308 51.7138 208.308 52.0291C208.308 52.3402 208.188 52.6087 207.95 52.8345C207.715 53.0561 207.432 53.1669 207.1 53.1669ZM213.474 64.7173C212.852 64.7173 212.289 64.6023 211.787 64.3722C211.284 64.1378 210.885 63.799 210.591 63.3558C210.301 62.9126 210.157 62.3693 210.157 61.7259C210.157 61.1719 210.263 60.7159 210.476 60.358C210.689 60 210.977 59.7166 211.339 59.5078C211.701 59.299 212.106 59.1413 212.554 59.0348C213.001 58.9283 213.457 58.8473 213.922 58.7919C214.51 58.7237 214.987 58.6683 215.353 58.6257C215.72 58.5788 215.986 58.5043 216.152 58.402C216.319 58.2997 216.402 58.1335 216.402 57.9034V57.8587C216.402 57.3004 216.244 56.8679 215.929 56.5611C215.618 56.2543 215.153 56.1009 214.535 56.1009C213.892 56.1009 213.385 56.2436 213.014 56.5291C212.647 56.8104 212.394 57.1236 212.253 57.4688L210.457 57.0597C210.67 56.4631 210.981 55.9815 211.39 55.6151C211.804 55.2443 212.279 54.9759 212.816 54.8097C213.353 54.6392 213.917 54.554 214.51 54.554C214.902 54.554 215.317 54.6009 215.756 54.6946C216.199 54.7841 216.613 54.9503 216.996 55.1932C217.384 55.4361 217.701 55.7834 217.949 56.2351C218.196 56.6825 218.319 57.2642 218.319 57.9801V64.5H216.453V63.1577H216.376C216.252 63.4048 216.067 63.6477 215.82 63.8864C215.573 64.125 215.255 64.3232 214.868 64.4808C214.48 64.6385 214.015 64.7173 213.474 64.7173ZM213.89 63.1832C214.418 63.1832 214.87 63.0788 215.245 62.87C215.624 62.6612 215.912 62.3885 216.108 62.0518C216.308 61.7109 216.408 61.3466 216.408 60.9588V59.6932C216.34 59.7614 216.208 59.8253 216.012 59.8849C215.82 59.9403 215.6 59.9893 215.353 60.032C215.106 60.0703 214.865 60.1065 214.631 60.1406C214.397 60.1705 214.201 60.196 214.043 60.2173C213.672 60.2642 213.333 60.343 213.027 60.4538C212.724 60.5646 212.481 60.7244 212.298 60.9332C212.119 61.1378 212.029 61.4105 212.029 61.7514C212.029 62.2244 212.204 62.5824 212.554 62.8253C212.903 63.0639 213.348 63.1832 213.89 63.1832Z" fill="white"/>
</svg>
