<svg width="72" height="72" viewBox="0 0 72 72" fill="none" xmlns="http://www.w3.org/2000/svg">
<path d="M14.2286 52.0937V39.6822L25.0869 35.0297L35.9451 39.6857V52.0937L25.0869 56.7428L14.2286 52.0937Z" stroke="#102D58" stroke-width="3.42857" stroke-linecap="round" stroke-linejoin="round"/>
<path d="M14.2286 39.6583L25.0869 44.3108L35.9452 39.6583M25.0869 22.704L35.9417 27.36L46.8 22.7074" stroke="#102D58" stroke-width="3.42857" stroke-linecap="round" stroke-linejoin="round"/>
<path d="M35.9417 39.6583L46.8 44.3109L57.6583 39.6583" stroke="#102D58" stroke-width="3.42857" stroke-linecap="round" stroke-linejoin="round"/>
<path d="M25.0869 44.3177V56.7463M46.8069 44.3177V56.7463M35.9417 27.36V39.7852M25.0937 35.0229V22.6114L35.9486 17.9589L46.8069 22.6114V35.0229L35.9486 39.6754L25.0937 35.0229ZM35.9417 52.0937V39.6823L46.8 35.0297L57.6583 39.6857V52.0937L46.8 56.7429L35.9417 52.0937Z" stroke="#102D58" stroke-width="3.42857" stroke-linecap="round" stroke-linejoin="round"/>
</svg>
