<svg width="72" height="72" viewBox="0 0 72 72" fill="none" xmlns="http://www.w3.org/2000/svg">
<path d="M19.2 18C19.2 17.6818 19.0736 17.3766 18.8485 17.1515C18.6235 16.9265 18.3182 16.8 18 16.8C17.6817 16.8 17.3765 16.9265 17.1515 17.1515C16.9264 17.3766 16.8 17.6818 16.8 18V54C16.8 54.3183 16.9264 54.6235 17.1515 54.8486C17.3765 55.0736 17.6817 55.2001 18 55.2001H54C54.3182 55.2001 54.6235 55.0736 54.8485 54.8486C55.0736 54.6235 55.2 54.3183 55.2 54C55.2 53.6818 55.0736 53.3766 54.8485 53.1515C54.6235 52.9265 54.3182 52.8 54 52.8H50.4V25.2C50.3997 24.9742 50.3356 24.7531 50.2153 24.5621C50.0949 24.371 49.9231 24.2178 49.7195 24.1201C49.516 24.0223 49.289 23.9839 49.0646 24.0094C48.8403 24.0349 48.6276 24.1231 48.4512 24.264L37.0872 33.3528L29.3952 28.9584C29.2317 28.865 29.0486 28.8113 28.8606 28.8017C28.6725 28.7921 28.4849 28.8269 28.3128 28.9032L19.2 32.9544V18ZM19.2 35.58L28.7328 31.3441L36.6048 35.8417C36.8136 35.9607 37.0534 36.0143 37.293 35.9954C37.5327 35.9766 37.7611 35.8862 37.9488 35.736L48 27.696V52.8H19.2V35.58Z" fill="#102D58"/>
</svg>
