<svg width="72" height="72" viewBox="0 0 72 72" fill="none" xmlns="http://www.w3.org/2000/svg">
<path d="M33.516 42.384C34.136 43.0053 34.932 43.288 35.904 43.232C36.876 43.176 37.5847 42.8267 38.03 42.184L48.54 27.54L33.818 37.972C33.1487 38.4173 32.776 39.1093 32.7 40.048C32.624 40.9867 32.8967 41.7667 33.518 42.388M36 22C37.8387 22 39.512 22.224 41.02 22.672C42.528 23.12 44.0313 23.804 45.53 24.724L43.692 25.97C42.5147 25.326 41.296 24.8367 40.036 24.502C38.776 24.1673 37.4307 24 36 24C31.5667 24 27.7913 25.5587 24.674 28.676C21.5567 31.7933 19.9987 35.568 20 40C20 41.4 20.192 42.7833 20.576 44.15C20.96 45.5167 21.5013 46.8 22.2 48H49.8C50.5667 46.7333 51.1253 45.4167 51.476 44.05C51.8267 42.6833 52.0013 41.2667 52 39.8C52 38.6 51.8453 37.3373 51.536 36.012C51.228 34.6867 50.7393 33.452 50.07 32.308L51.316 30.468C52.2893 32.1387 52.978 33.7093 53.382 35.18C53.786 36.652 53.992 38.184 54 39.776C54.008 41.496 53.8167 43.1013 53.426 44.592C53.0367 46.0813 52.43 47.584 51.606 49.1C51.446 49.3667 51.2027 49.5833 50.876 49.75C50.5507 49.9167 50.192 50 49.8 50H22.2C21.8333 50 21.4933 49.91 21.18 49.73C20.868 49.5513 20.6053 49.29 20.392 48.946C19.7307 47.7793 19.1667 46.4633 18.7 44.998C18.2333 43.5327 18 41.8667 18 40C18 37.5413 18.4667 35.2207 19.4 33.038C20.332 30.8553 21.6053 28.944 23.22 27.304C24.8333 25.664 26.74 24.3693 28.94 23.42C31.144 22.4733 33.4973 22 36 22Z" fill="#102D58"/>
</svg>
