<?xml version="1.0" standalone="no"?>
<!DOCTYPE svg PUBLIC "-//W3C//DTD SVG 20010904//EN"
 "http://www.w3.org/TR/2001/REC-SVG-20010904/DTD/svg10.dtd">
<svg version="1.0" xmlns="http://www.w3.org/2000/svg"
 width="3000.000000pt" height="2000.000000pt" viewBox="0 0 3000.000000 2000.000000"
 preserveAspectRatio="xMidYMid meet">

<g transform="translate(0.000000,2000.000000) scale(0.100000,-0.100000)"
fill="#000000" stroke="none">
<path d="M0 10000 l0 -10000 15000 0 15000 0 0 10000 0 10000 -15000 0 -15000
0 0 -10000z m19135 7510 c-4 -11 -8 -34 -10 -51 -4 -27 -2 -29 18 -23 12 5 35
7 52 6 16 -1 32 4 37 10 5 9 9 7 14 -6 4 -10 3 -21 -2 -25 -5 -3 -16 -15 -24
-25 -14 -17 -13 -18 6 -12 19 6 21 3 16 -20 -4 -20 -2 -25 7 -19 7 4 -5 -19
-26 -51 -21 -33 -43 -66 -48 -75 -6 -10 -21 -32 -35 -50 l-25 -34 40 30 c21
17 36 25 32 18 -5 -7 4 -6 23 3 31 16 91 84 105 119 4 13 9 15 12 8 5 -13 86
47 130 97 12 13 24 22 27 20 3 -4 14 -73 15 -104 1 -11 31 14 31 26 0 10 25
38 34 38 12 0 6 -26 -11 -50 -10 -14 -23 -43 -28 -65 -6 -22 -14 -39 -19 -37
-4 1 -21 -23 -37 -54 -16 -31 -36 -65 -45 -76 -26 -28 -4 -21 30 10 l30 27
-17 -27 c-10 -16 -16 -28 -14 -28 16 0 68 35 91 61 19 21 31 28 36 20 4 -8 21
2 48 31 23 24 42 47 42 52 0 5 7 17 15 26 8 9 16 40 17 73 2 39 6 57 15 57 18
0 20 -30 9 -98 -6 -35 -6 -36 10 -17 15 19 15 17 9 -26 -10 -67 8 -69 50 -7
19 29 35 45 35 36 0 -25 -22 -69 -47 -98 -13 -14 -23 -28 -23 -32 0 -13 28 3
34 18 4 9 11 12 18 7 29 -17 86 -4 73 18 -4 5 1 9 10 9 15 0 35 37 35 65 0 8
-10 23 -22 35 -12 11 -18 23 -14 27 4 5 17 -3 28 -17 26 -32 20 -97 -13 -138
-74 -90 -245 -174 -362 -177 -60 -2 -66 -1 -55 14 7 9 -1 4 -18 -11 -34 -32
-56 -38 -30 -9 17 19 16 19 -21 10 -21 -5 -73 -16 -116 -25 -42 -8 -97 -23
-122 -34 -24 -10 -47 -15 -49 -11 -3 4 10 23 29 41 19 18 32 37 29 42 -3 4 2
8 10 8 21 0 69 47 61 59 -3 6 -2 11 3 11 5 0 14 12 21 27 11 23 10 25 -3 13
-28 -22 -17 6 14 38 17 18 30 37 30 44 0 6 3 8 7 5 3 -4 27 11 52 33 25 22 54
47 64 55 9 8 17 20 17 26 0 6 -19 -6 -42 -25 -23 -20 -45 -36 -49 -36 -4 0
-10 -9 -14 -20 -3 -11 -9 -19 -13 -19 -21 3 -31 -5 -60 -45 -18 -24 -32 -54
-32 -67 0 -12 -3 -19 -7 -15 -4 3 -13 -6 -20 -21 -7 -16 -11 -20 -9 -11 9 30
-11 29 -36 -1 -26 -33 -95 -74 -102 -62 -3 5 3 16 14 26 11 10 20 22 20 27 0
5 12 20 28 33 15 13 23 24 17 24 -17 0 -53 -34 -57 -55 -2 -10 -20 -27 -41
-37 -21 -10 -41 -25 -44 -33 -3 -8 -30 -26 -60 -39 -30 -14 -52 -29 -49 -34 3
-5 -3 -7 -14 -4 -11 3 -23 9 -26 14 -3 5 -30 9 -60 9 l-54 0 0 38 c0 20 -3 79
-6 130 -7 126 9 175 84 250 31 30 58 50 60 44 5 -15 52 15 52 33 0 8 12 23 27
34 26 21 26 21 42 2 16 -20 16 -20 39 7 l23 27 -7 -25 -6 -25 28 28 c34 32 48
35 39 7z m113 -237 c-27 -47 -28 -49 -28 -37 0 11 38 74 45 74 2 0 -5 -17 -17
-37z m-10269 3 c8 -6 48 -12 90 -12 59 -1 87 -7 126 -27 54 -26 137 -88 196
-144 30 -29 52 -38 125 -54 333 -74 629 -237 884 -486 l75 -73 1590 -2 1590
-3 67 -33 c74 -36 132 -95 170 -170 l23 -47 0 -490 0 -490 -28 -60 c-35 -76
-110 -146 -185 -177 l-57 -23 -1240 -3 -1240 -2 0 -73 c-1 -86 -24 -137 -91
-203 -55 -53 -133 -84 -212 -84 l-57 0 -73 -142 c-90 -178 -135 -242 -160
-229 -9 5 -36 14 -60 20 -25 7 -48 22 -58 36 -9 14 -20 22 -25 19 -5 -3 -12 2
-16 12 -8 21 21 44 54 44 13 0 23 6 23 15 0 19 -58 29 -127 21 -38 -4 -64 -2
-86 8 -18 8 -44 16 -59 19 -27 4 -28 3 -22 -33 3 -20 -4 -106 -16 -189 -11
-84 -23 -176 -25 -204 -2 -29 -8 -77 -14 -107 -7 -43 -6 -60 5 -77 13 -20 11
-23 -14 -41 -114 -78 -290 -164 -431 -211 -111 -36 -131 -39 -76 -10 22 12 55
32 72 45 18 14 81 50 140 80 60 31 115 62 124 70 22 20 50 17 56 -6 3 -11 10
-20 15 -20 5 0 6 5 3 10 -4 6 -3 35 1 66 5 44 13 61 38 85 l31 29 -25 0 c-14
0 -36 3 -49 7 -22 6 -23 4 -17 -20 6 -24 2 -29 -36 -48 -24 -12 -57 -34 -73
-48 -104 -90 -367 -232 -416 -224 -21 3 -29 0 -29 -10 0 -8 -9 -26 -20 -40
-14 -18 -17 -26 -8 -30 20 -6 -160 -27 -233 -27 l-66 0 5 32 c3 18 13 46 23
63 28 46 24 67 -18 87 -20 10 -39 16 -41 13 -5 -5 -54 -167 -55 -182 0 -8 -14
-13 -33 -13 -29 0 -34 4 -45 38 -23 73 -49 75 -49 5 0 -18 -3 -33 -7 -33 -19
0 -144 22 -205 36 -41 10 -68 21 -68 29 0 14 84 95 100 95 6 0 46 23 90 50 44
28 84 50 89 50 17 0 22 19 11 40 -6 11 -15 18 -20 15 -5 -3 -10 0 -13 7 -2 7
-2 3 0 -9 6 -40 -61 -25 -83 18 -12 25 -18 28 -34 19 -22 -12 -27 -1 -7 19 10
11 6 12 -20 6 -27 -5 -33 -3 -33 10 0 9 -4 14 -9 11 -19 -12 -104 96 -100 127
0 4 -7 19 -15 33 -9 13 -14 24 -11 24 4 0 -1 10 -9 22 -9 12 -16 30 -16 40 0
9 -6 32 -14 50 -43 103 -160 459 -181 553 -30 131 -35 145 -53 145 -15 -1 -15
-2 -2 -13 9 -7 17 -25 18 -40 2 -25 -1 -28 -21 -21 -21 6 -21 6 -5 -13 10 -11
23 -46 28 -79 26 -152 32 -178 55 -251 14 -43 25 -93 25 -112 0 -21 27 -92 69
-185 39 -83 73 -163 77 -179 3 -15 10 -30 15 -33 5 -3 9 -10 9 -16 0 -7 -12 0
-27 14 -16 14 -77 53 -138 87 -60 34 -115 68 -121 76 -6 8 -18 15 -26 15 -8 0
-23 7 -34 15 -18 14 -18 14 9 15 15 0 27 5 27 10 0 16 25 11 53 -10 26 -20 47
-26 47 -12 -1 4 -23 18 -50 31 -28 13 -50 27 -50 31 0 3 -30 21 -66 40 -55 28
-69 32 -85 22 -28 -18 -49 -15 -49 7 0 14 -5 18 -20 14 -19 -5 -20 -3 -9 21
l12 26 27 -25 c32 -30 40 -32 33 -5 -4 16 0 20 21 20 14 0 26 -4 26 -9 0 -5
10 -7 21 -4 14 4 25 0 30 -9 5 -10 24 -16 49 -16 22 0 44 -4 50 -7 20 -12 9
13 -15 36 -13 13 -25 30 -25 37 0 7 -4 11 -9 7 -5 -3 -12 -1 -16 5 -4 6 -11 8
-16 5 -16 -10 -10 7 7 20 14 10 12 15 -16 39 -30 24 -34 25 -50 11 -9 -8 -20
-12 -25 -8 -4 5 -5 -1 -1 -12 6 -16 1 -14 -23 9 -17 17 -31 26 -31 21 0 -4 -2
-6 -5 -3 -3 3 4 26 15 52 11 27 18 52 14 57 -3 5 -1 9 4 9 10 0 48 92 56 139
3 18 22 60 42 93 39 64 37 78 -13 78 -12 0 -73 13 -135 28 -62 16 -165 41
-228 57 -154 37 -201 53 -226 76 -23 22 -45 9 -25 -14 15 -19 -2 -82 -20 -71
-5 3 -6 -2 -3 -11 4 -9 21 -22 39 -29 37 -16 73 -65 132 -181 45 -88 143 -308
143 -321 0 -4 -14 5 -32 22 l-31 29 24 -33 c13 -18 34 -46 46 -62 22 -32 21
-70 -3 -70 -8 0 -14 -3 -14 -6 0 -3 29 -43 64 -89 75 -96 83 -111 91 -154 5
-31 -9 -42 -31 -22 -16 15 -127 50 -171 54 -47 4 -59 16 -160 156 -73 101
-190 324 -226 431 -72 210 -101 387 -100 610 1 380 109 717 331 1034 146 208
381 417 602 536 98 52 103 56 165 144 67 97 150 183 200 209 59 30 180 61 242
62 45 0 63 4 63 13 0 13 11 10 39 -12z m10828 -351 c51 -27 80 -51 72 -59 -4
-4 -40 8 -94 29 -20 8 -20 8 -1 -14 20 -22 20 -22 0 -15 -10 4 -24 11 -31 16
-6 5 -20 9 -30 8 -32 -4 -89 2 -70 7 23 6 22 23 -3 23 -27 0 -70 21 -64 32 3
5 42 7 87 4 64 -3 94 -10 134 -31z m-1002 9 c11 -5 13 -9 5 -14 -15 -9 -61 0
-54 11 6 11 26 12 49 3z m-25 -34 c0 -5 -8 -10 -17 -10 -15 0 -16 2 -3 10 19
12 20 12 20 0z m270 -84 c0 -2 -8 -10 -17 -17 -16 -13 -17 -12 -4 4 13 16 21
21 21 13z m-218 -168 c-21 -21 -13 -32 11 -12 22 19 22 19 6 -1 -9 -11 -31
-47 -47 -80 -17 -33 -31 -56 -32 -52 0 4 11 30 25 57 29 58 31 67 8 49 -15
-12 -16 -12 -8 1 11 21 37 50 44 50 3 0 0 -5 -7 -12z m-108 -147 c-14 -29 -28
-51 -30 -48 -5 5 15 53 36 84 25 38 22 18 -6 -36z m-313 -190 c21 -11 37 -15
33 -10 -3 5 -3 9 1 9 14 0 21 -45 9 -57 -16 -16 -28 -17 -18 -1 4 7 3 8 -5 4
-6 -4 -26 3 -44 15 -17 12 -33 23 -35 24 -4 3 9 35 15 35 2 0 22 -9 44 -19z
m69 -80 c0 -5 -6 -12 -12 -14 -7 -3 -1 -6 14 -6 15 -1 38 -5 52 -11 20 -7 24
-6 19 6 -4 10 0 12 13 8 11 -4 24 -11 30 -15 6 -5 13 -6 16 -3 9 8 131 -16
148 -29 13 -10 13 -10 2 5 -10 13 -10 17 0 21 7 3 3 6 -9 6 -25 1 -31 16 -10
24 7 3 24 -8 36 -24 13 -16 29 -29 37 -29 20 0 17 10 -8 31 -11 11 -16 19 -11
19 6 0 16 -7 23 -15 7 -9 18 -14 24 -12 6 3 24 -3 39 -12 18 -10 30 -12 35 -6
9 13 38 12 35 -1 -1 -6 39 -10 97 -11 54 -1 108 -7 119 -12 11 -6 34 -13 51
-15 17 -2 40 -13 51 -25 11 -11 28 -21 37 -21 18 0 52 -33 52 -49 0 -6 8 -12
18 -15 11 -4 17 -16 17 -35 0 -16 -3 -27 -7 -25 -4 2 -10 -1 -14 -7 -4 -8 -9
-7 -15 2 -9 15 -9 13 -13 -53 -2 -30 -16 -52 -16 -25 0 10 -4 17 -10 17 -5 0
-10 -9 -10 -19 0 -29 -11 -51 -24 -51 -6 0 -12 -9 -12 -20 0 -13 6 -19 16 -17
8 1 14 10 12 19 -1 9 2 19 8 23 6 4 9 1 8 -7 -2 -7 3 -12 10 -11 10 3 15 -16
11 -43 0 -4 4 -10 10 -14 8 -4 3 -16 -13 -35 -28 -33 -31 -81 -5 -81 17 0 14
25 -4 37 -5 3 -1 9 9 13 10 4 15 4 12 0 -12 -11 12 -46 27 -40 25 9 26 -12 3
-33 -23 -22 -10 -28 23 -11 20 11 28 -3 9 -15 -21 -13 -9 -24 15 -15 22 8 25
8 18 -8 -13 -27 -9 -50 10 -64 12 -9 16 -20 11 -32 -6 -16 -15 -18 -62 -13
-64 7 -115 -1 -105 -16 4 -6 0 -8 -10 -4 -10 3 -17 3 -17 -2 0 -5 -10 -11 -22
-14 -59 -14 -174 -50 -182 -57 -5 -5 -14 -6 -21 -4 -7 3 -20 -4 -28 -16 -8
-12 -24 -22 -36 -23 -15 -1 -21 -8 -21 -25 0 -13 -5 -33 -11 -45 -7 -11 -12
-45 -12 -74 0 -30 -4 -56 -8 -59 -5 -3 -9 -15 -9 -28 0 -28 -18 -46 -38 -39
-10 5 -13 2 -8 -6 5 -7 14 -10 22 -7 7 3 16 1 19 -4 4 -6 3 -10 -2 -10 -4 0
-6 -30 -5 -66 3 -54 9 -72 28 -92 32 -36 41 -100 19 -146 -10 -20 -21 -36 -26
-36 -5 0 -9 -9 -9 -20 0 -11 6 -20 13 -20 8 0 7 -3 -3 -10 -13 -8 -12 -11 5
-24 11 -9 38 -21 59 -27 22 -6 49 -17 61 -25 12 -8 24 -12 27 -9 3 3 24 8 46
11 33 5 42 3 42 -9 0 -9 6 -18 13 -20 24 -11 -14 -24 -86 -31 -39 -4 -76 -11
-81 -16 -6 -6 -16 -10 -24 -10 -8 0 -21 -8 -28 -17 -10 -15 -15 -16 -25 -5
-17 16 -29 15 -29 -2 0 -21 72 -32 152 -22 16 2 33 -3 39 -10 16 -20 2 -63
-25 -75 -38 -18 -28 -39 18 -40 31 0 36 -2 21 -8 -14 -6 -1 -10 45 -12 36 -3
68 0 71 5 4 4 11 2 15 -5 13 -21 53 -41 66 -33 17 11 24 -12 22 -76 -1 -41 -6
-65 -17 -73 -19 -15 -32 -57 -18 -57 6 0 11 5 11 11 0 5 4 8 8 5 4 -2 28 6 52
18 25 13 58 26 75 30 l30 8 -28 -23 -29 -22 51 -26 c28 -14 70 -44 93 -65 47
-44 102 -55 150 -30 41 21 54 17 68 -18 6 -18 16 -40 20 -49 5 -9 7 -33 5 -53
-1 -20 1 -36 6 -36 5 0 10 -61 11 -136 3 -147 0 -138 63 -166 17 -8 30 -21 30
-31 0 -17 70 -87 87 -87 5 0 21 8 35 18 19 12 25 13 19 3 -7 -11 -4 -13 11 -9
11 3 31 -1 44 -8 13 -7 19 -13 13 -14 -7 0 -15 -8 -18 -17 -5 -13 0 -11 18 6
14 13 23 27 20 32 -2 4 4 7 14 6 14 -1 17 -7 14 -31 -3 -17 -13 -37 -23 -44
-20 -14 -27 -38 -7 -26 18 11 -3 -19 -24 -34 -18 -13 -18 -15 -2 -27 24 -17
25 -50 2 -66 -21 -15 -24 -31 -5 -23 16 6 20 -35 5 -54 -9 -10 -9 -15 1 -22 8
-4 10 -13 7 -19 -4 -7 1 -11 13 -11 28 0 36 17 11 25 -20 6 -28 35 -10 35 6 0
10 10 11 23 0 12 3 16 6 10 3 -10 8 -10 19 1 20 21 17 29 -10 24 -20 -4 -23
-1 -22 19 0 12 7 23 14 23 6 0 12 5 12 11 0 6 7 8 16 5 12 -5 15 -2 10 10 -5
13 -4 14 7 6 15 -13 27 -6 27 14 0 7 10 34 22 61 11 26 21 58 22 70 1 12 4 25
9 29 12 13 8 24 -8 18 -8 -4 -15 -1 -15 5 0 6 5 11 11 11 5 0 8 4 5 9 -4 5 7
21 24 34 30 26 30 26 30 134 0 59 7 151 15 203 8 52 15 113 15 135 0 64 18 27
25 -55 10 -102 9 -160 -3 -172 -7 -7 -5 -21 6 -44 19 -41 29 -43 42 -9 5 14
20 36 33 49 13 13 30 45 37 70 7 26 18 45 24 43 16 -5 36 -48 36 -79 0 -15 4
-29 8 -32 10 -6 8 56 -2 73 -6 9 1 11 29 5 31 -6 36 -4 33 11 -2 10 2 20 9 22
14 5 62 -142 92 -282 12 -55 26 -116 32 -136 5 -20 9 -52 9 -72 0 -20 4 -39
10 -42 6 -4 8 7 4 27 l-5 33 15 -30 c14 -29 14 -28 10 35 -3 36 -9 106 -14
155 -5 50 -12 122 -15 160 -7 78 -19 134 -42 182 -8 18 -13 39 -10 48 9 23 54
30 72 11 15 -14 15 -16 1 -16 -9 0 -16 -2 -16 -4 0 -2 -3 -13 -6 -23 -4 -11
-3 -14 3 -6 11 16 47 -36 69 -102 9 -27 24 -64 32 -82 l16 -31 14 26 c20 38
42 121 35 137 -2 8 3 28 14 45 15 27 16 32 3 40 -49 31 80 -10 161 -51 35 -17
78 -36 94 -40 72 -19 195 -77 231 -110 22 -19 91 -63 154 -97 112 -60 158 -95
210 -157 13 -16 3 -10 -23 15 -26 24 -47 39 -47 33 0 -7 4 -14 8 -17 5 -3 7
-20 4 -37 l-5 -32 -14 27 c-18 33 -23 29 -33 -23 -5 -26 -3 -42 4 -44 6 -2 10
-16 8 -30 -3 -40 13 -33 24 10 9 37 44 57 44 26 0 -12 -3 -13 -13 -4 -11 8
-13 6 -12 -12 1 -12 -3 -25 -8 -29 -16 -10 -10 -70 8 -80 8 -5 13 -13 10 -18
-3 -5 -1 -19 5 -31 7 -11 13 -37 15 -56 2 -19 8 -40 14 -46 6 -6 11 -24 11
-39 0 -15 4 -28 8 -28 14 0 32 23 32 42 0 10 4 18 10 18 12 0 30 65 30 110 0
19 -7 57 -15 84 -16 52 -20 99 -7 81 4 -6 28 -23 53 -37 61 -36 69 -47 85
-121 16 -74 19 -180 4 -157 -11 17 -13 6 -3 -28 6 -24 6 -24 132 -17 109 5
505 43 627 60 39 6 42 9 49 43 11 59 39 82 101 82 49 0 55 -2 69 -30 19 -36
19 -51 1 -44 -9 4 -20 -6 -31 -25 -11 -23 -22 -31 -43 -31 -47 0 -288 -39
-318 -51 -16 -7 -40 -14 -54 -16 -26 -4 -53 -30 -45 -43 3 -4 7 -54 10 -111 2
-57 7 -129 11 -159 4 -30 8 -84 9 -120 2 -36 3 -65 4 -65 1 0 3 -49 5 -110 2
-60 7 -192 11 -291 9 -214 5 -244 -33 -262 -15 -7 -124 -24 -242 -38 -326 -37
-309 -35 -280 -46 14 -5 39 -7 55 -4 43 8 258 19 338 18 82 -2 94 -7 71 -33
-10 -11 -12 -19 -6 -19 7 0 12 -7 12 -15 0 -8 9 -24 19 -34 19 -19 19 -20 1
-39 -11 -12 -17 -31 -15 -48 2 -20 -4 -35 -21 -51 l-24 -22 25 -7 c35 -9 22
-22 -20 -20 -40 2 -42 -1 -17 -20 16 -12 15 -13 -5 -14 -14 0 -23 -6 -23 -15
0 -8 5 -15 10 -15 6 0 10 -7 10 -16 0 -8 5 -12 10 -9 6 3 10 -1 10 -9 0 -8 -8
-19 -17 -25 -12 -6 -17 -22 -17 -50 0 -25 -3 -36 -8 -29 -4 7 -8 9 -8 3 0 -5
-5 -3 -11 5 -8 12 -9 11 -4 -6 4 -17 0 -23 -20 -28 -22 -6 -24 -9 -15 -26 9
-17 8 -20 -10 -20 -11 0 -20 -4 -20 -10 0 -5 5 -10 10 -10 6 0 10 -16 10 -35
0 -31 -3 -35 -27 -35 -14 0 -35 8 -46 17 -18 17 -19 17 -16 -2 2 -11 11 -25
19 -32 41 -32 -47 -35 -188 -7 -28 5 -34 3 -39 -15 -3 -11 -13 -21 -22 -21
-14 0 -14 -2 -1 -10 23 -15 50 -12 50 5 0 19 39 20 46 2 3 -9 16 -12 34 -9 18
3 30 0 30 -7 0 -6 7 -11 15 -11 8 0 19 -9 25 -20 6 -11 17 -20 25 -20 8 0 15
-3 16 -7 6 -60 5 -63 -25 -63 l-29 0 27 -25 c14 -13 26 -28 26 -34 0 -9 -32
-24 -52 -26 -12 0 -10 -20 2 -21 6 -1 14 -2 19 -3 5 0 8 -20 6 -43 -2 -32 -8
-44 -24 -50 -12 -4 -21 -12 -21 -18 0 -6 -4 -9 -8 -6 -4 2 -14 1 -22 -4 -11
-7 -11 -11 -1 -24 22 -26 -4 -43 -36 -23 -15 9 -19 1 -18 -45 0 -25 -5 -38
-13 -38 -9 0 -11 -7 -7 -20 5 -15 2 -20 -10 -20 -11 0 -15 -5 -11 -15 8 -21
-6 -19 -36 5 -14 10 -28 16 -32 13 -3 -3 -6 -2 -6 3 0 15 -58 12 -64 -2 -3 -8
-11 -14 -18 -14 -7 0 -14 -11 -14 -25 -1 -16 3 -25 13 -25 10 0 12 -6 8 -20
-4 -12 -2 -20 5 -20 6 0 8 5 5 10 -3 6 -2 10 3 10 5 0 9 -13 9 -29 0 -27 -2
-28 -29 -21 -32 10 -35 5 -13 -17 22 -21 1 -47 -25 -33 -27 15 -32 13 -28 -12
2 -16 -1 -22 -12 -19 -8 2 -32 6 -53 8 -31 5 -35 8 -25 20 9 11 9 16 -3 24 -8
5 -12 9 -9 10 3 0 15 2 28 5 14 2 22 -1 22 -11 0 -8 9 -19 20 -25 16 -9 20 -8
21 7 0 10 2 26 4 35 2 14 -1 15 -20 8 -14 -5 -26 -5 -34 3 -15 15 -61 -11 -61
-35 0 -10 -4 -18 -8 -18 -5 0 -14 -11 -21 -24 -13 -23 -14 -23 -32 -5 -24 24
-40 24 -46 0 -3 -11 -13 -21 -24 -24 -10 -3 -17 -1 -13 4 3 5 -6 14 -20 21
-35 15 -33 30 3 26 16 -1 36 3 44 10 13 11 20 11 39 1 22 -12 22 -11 8 6 -8
10 -28 24 -44 30 l-29 12 22 22 c21 21 21 24 6 47 -18 27 -11 30 25 9 41 -23
58 -17 26 9 -37 29 -45 71 -16 79 13 3 20 13 20 30 0 14 5 29 12 33 15 10 -19
34 -49 34 -24 0 -31 -14 -13 -25 6 -4 7 -12 3 -18 -4 -7 -6 -23 -4 -35 2 -18
-2 -23 -16 -20 -10 2 -18 10 -18 18 0 11 -12 15 -42 17 -24 1 -43 -3 -43 -8 0
-5 -8 -9 -19 -9 -10 0 -24 -6 -30 -14 -12 -14 -69 -12 -84 3 -12 12 1 33 14
25 11 -7 38 24 39 44 0 6 -4 12 -10 12 -5 0 -10 -7 -10 -15 0 -17 -25 -20 -35
-5 -7 12 -25 4 -25 -11 0 -6 5 -7 12 -3 7 4 8 3 4 -4 -4 -6 -14 -8 -24 -5 -13
5 -12 1 6 -19 12 -13 22 -32 22 -42 0 -15 5 -17 31 -12 30 6 31 5 24 -22 -4
-15 -7 -27 -8 -27 -1 0 -11 -5 -22 -11 -27 -15 -30 -41 -6 -49 24 -7 24 -43 1
-61 -11 -9 -12 -15 -2 -26 19 -24 -7 -70 -36 -65 -12 2 -25 0 -28 -4 -3 -5 0
-9 5 -9 17 0 13 -37 -4 -44 -8 -3 -15 -13 -15 -23 0 -10 -13 -24 -30 -31 -18
-8 -30 -21 -30 -33 0 -23 -25 -25 -46 -4 -16 16 -47 9 -41 -9 4 -11 7 -12 42
-15 13 -1 14 -5 5 -21 -6 -11 -15 -18 -21 -15 -5 4 -9 1 -9 -5 0 -6 -5 -8 -12
-4 -9 5 -9 2 1 -9 7 -9 20 -17 28 -17 10 0 12 -6 8 -20 -5 -15 -2 -20 12 -20
15 0 16 2 3 10 -12 8 -11 10 8 10 23 0 28 -15 13 -39 -14 -22 -64 -5 -58 19 6
24 -17 59 -27 42 -11 -17 -57 -14 -78 5 -27 25 -22 -2 7 -31 15 -15 21 -27 14
-31 -6 -4 -13 -4 -16 -1 -4 3 -14 -1 -24 -10 -16 -15 -19 -14 -31 5 -13 22
-58 29 -58 10 0 -6 -8 -8 -17 -5 -17 5 -54 -9 -43 -16 47 -30 72 -35 68 -14
-4 18 2 21 29 12 37 -12 38 -38 2 -68 -18 -15 -37 -26 -43 -25 -5 1 -10 -5
-11 -13 0 -8 -15 -21 -32 -29 -19 -9 -33 -22 -33 -32 0 -22 -18 -29 -47 -18
-32 12 -30 -8 2 -23 27 -12 30 -19 15 -34 -17 -17 -2 -39 34 -52 47 -17 62
-16 46 3 -17 20 -5 32 15 15 13 -10 15 -9 15 8 0 13 -11 27 -27 36 -27 15 -27
15 -5 16 12 0 25 -7 28 -15 7 -17 44 -21 44 -4 0 5 4 8 9 5 5 -4 11 -1 13 6 5
13 36 20 61 12 12 -4 15 -10 8 -21 -11 -21 27 -80 57 -86 12 -2 22 0 22 5 0 5
9 4 20 -2 11 -6 20 -19 20 -30 0 -27 14 -32 27 -11 9 15 8 23 -8 39 -10 12
-27 25 -36 31 -29 16 -7 24 24 9 18 -9 27 -20 25 -32 -2 -10 0 -16 5 -13 12 7
53 -11 53 -24 0 -6 -7 -9 -15 -5 -19 7 -20 -10 0 -21 10 -6 11 -13 5 -23 -5
-8 -10 -10 -10 -4 0 7 -9 14 -20 17 -19 5 -37 -22 -32 -50 2 -6 -7 -14 -18
-18 -15 -5 -19 -12 -15 -23 4 -10 8 -23 8 -29 0 -7 5 -13 11 -13 6 0 4 -4 -4
-9 -8 -6 -18 -7 -22 -5 -4 3 -8 -2 -8 -10 0 -20 -42 -15 -65 7 -9 9 -23 17
-32 17 -10 0 -13 6 -9 16 3 9 6 22 6 29 0 8 7 11 18 8 12 -3 22 4 30 21 6 14
18 26 27 26 8 0 15 4 15 9 0 13 -30 35 -37 27 -4 -4 -1 -11 7 -16 8 -6 11 -10
5 -10 -19 0 -38 18 -31 29 4 6 1 11 -8 11 -8 0 -16 -5 -18 -10 -2 -6 -18 -13
-36 -15 -19 -2 -30 0 -27 5 4 6 -3 10 -14 10 -14 0 -21 -6 -21 -18 0 -26 -9
-33 -30 -20 -23 15 -58 2 -41 -15 6 -6 19 -12 29 -12 12 0 16 -8 15 -27 -2
-28 19 -39 33 -17 3 6 17 9 29 7 18 -4 22 -1 18 11 -3 12 -2 12 7 -2 6 -9 9
-21 6 -26 -7 -11 63 -83 74 -76 4 3 13 -2 20 -10 11 -13 10 -14 -4 -9 -9 3
-16 1 -16 -5 0 -12 -29 -3 -48 16 -18 18 -33 16 -26 -2 5 -12 2 -13 -12 -8
-18 7 -18 6 -1 -20 18 -28 8 -38 -13 -12 -16 19 -30 19 -30 1 0 -8 -5 -16 -12
-18 -8 -3 -8 -9 0 -24 6 -10 13 -18 16 -16 3 1 13 2 22 2 30 0 3 -18 -37 -25
-33 -6 -44 -3 -58 12 -10 10 -16 23 -14 29 2 5 -4 19 -13 29 -15 20 -15 20
-11 -2 3 -12 0 -24 -6 -26 -12 -4 21 -40 52 -57 27 -14 27 -36 -1 -52 -13 -7
-23 -20 -23 -28 0 -8 -10 -16 -22 -18 -14 -2 -20 -8 -16 -18 6 -18 -23 -19
-34 -1 -4 6 -17 17 -28 23 -11 6 -22 21 -23 34 -3 17 -6 19 -12 10 -8 -14 7
-71 18 -68 13 4 52 -27 52 -41 0 -13 -12 -13 -60 0 -19 5 -20 -22 -1 -45 9
-11 12 -17 6 -14 -5 3 -18 8 -29 12 -15 5 -16 9 -6 21 10 12 10 15 -2 15 -20
0 -58 -29 -38 -30 21 0 -40 -49 -62 -50 -21 0 -24 -25 -5 -34 6 -4 2 -4 -10
-2 -26 5 -30 -6 -8 -24 12 -10 15 -10 16 1 0 13 17 -17 18 -33 2 -19 -38 -5
-69 22 -40 35 -38 35 -36 13 0 -10 -4 -17 -11 -16 -6 1 -14 -4 -17 -12 -3 -9
0 -15 9 -15 15 0 30 -18 22 -26 -3 -3 -15 0 -27 6 -20 11 -21 10 -11 -9 14
-25 14 -31 1 -31 -6 0 -15 11 -21 24 -10 20 -26 33 -73 54 -5 3 -6 0 -2 -7 18
-29 14 -49 -10 -55 -14 -4 -29 -4 -35 0 -5 3 -26 -2 -45 -11 -28 -13 -35 -21
-31 -37 6 -23 -17 -35 -37 -19 -7 6 -16 8 -19 4 -4 -3 -12 -1 -19 4 -19 15
-78 4 -78 -15 0 -8 -8 -20 -17 -27 -16 -12 -16 -14 0 -29 9 -10 17 -22 17 -27
0 -17 -39 -9 -60 14 -20 21 -22 21 -34 5 -7 -10 -23 -18 -35 -18 -23 0 -27
-10 -9 -28 24 -24 -1 -22 -37 3 -46 30 -55 31 -55 5 0 -13 -7 -21 -20 -21 -11
-1 -26 -2 -32 -3 -17 -1 -38 -21 -38 -35 0 -6 -4 -11 -9 -11 -5 0 -7 -9 -4
-20 3 -12 0 -20 -8 -20 -7 0 -10 3 -6 6 9 10 -21 36 -33 29 -6 -4 -8 -9 -6
-13 2 -4 -2 -16 -10 -27 -18 -24 -36 -9 -41 35 -2 25 5 40 42 79 27 29 58 51
75 55 26 5 30 10 30 41 0 19 4 35 10 35 5 0 17 15 25 33 15 31 60 96 118 170
35 44 62 137 44 150 -7 5 -4 6 9 3 24 -7 57 23 59 54 1 11 14 34 31 52 20 22
43 75 72 163 24 72 56 148 70 170 15 22 35 55 44 73 10 18 32 51 48 74 17 23
30 49 30 60 0 10 5 18 10 18 6 0 10 7 10 15 0 8 4 15 9 15 5 0 12 7 15 16 6
15 4 15 -11 3 -10 -8 -24 -23 -32 -33 -8 -11 -23 -28 -33 -38 -10 -10 -16 -18
-14 -18 2 0 -13 -18 -34 -40 -21 -22 -40 -40 -44 -40 -7 0 -38 -30 -93 -93
-24 -26 -43 -45 -43 -41 0 4 -8 1 -18 -7 -10 -8 -7 -4 6 9 13 12 20 22 16 22
-3 0 12 20 35 45 58 63 55 68 -14 21 l-30 -20 20 24 20 23 -45 -25 c-165 -92
-161 -89 -155 -118 13 -57 -68 -193 -123 -206 -32 -8 -106 -49 -145 -81 -41
-33 -106 -49 -125 -29 -19 18 -31 89 -31 185 -1 59 -5 79 -20 95 -16 17 -22
47 -31 160 -6 76 -9 149 -6 163 6 21 4 23 -18 17 -13 -3 -27 -1 -30 5 -5 7 4
11 24 11 34 0 33 -2 91 149 33 86 79 150 173 241 25 24 46 47 46 50 0 3 -13 7
-30 8 -31 2 -231 53 -264 67 -11 5 -17 5 -14 -1 3 -5 2 -31 -2 -59 l-7 -50 -3
50 c-2 45 -3 47 -10 20 -6 -23 -8 -25 -9 -9 -1 31 -58 34 -184 11 -147 -27
-358 -32 -550 -14 -89 8 -180 14 -202 13 -22 0 -50 3 -63 7 -19 7 -29 2 -56
-26 -36 -38 -62 -113 -42 -121 6 -3 2 -7 -9 -11 -21 -6 -65 -62 -65 -82 0 -14
-61 -77 -82 -86 -9 -3 -36 -34 -59 -69 -61 -90 -123 -148 -204 -192 -39 -21
-96 -52 -127 -69 -34 -18 -54 -35 -49 -40 14 -14 237 36 233 52 -1 7 2 10 8 6
5 -3 10 -1 10 5 0 6 4 9 9 5 5 -3 12 -1 16 5 4 6 -6 10 -22 11 -23 0 -25 2 -9
8 15 6 16 10 7 15 -22 14 25 49 55 42 15 -4 23 -3 20 3 -3 5 6 9 22 8 71 -1
82 3 102 36 l20 32 0 -27 c0 -28 22 -39 35 -18 3 6 -1 10 -9 10 -22 0 -20 17
4 42 17 19 20 19 26 5 3 -10 16 -17 28 -16 11 0 16 3 9 5 -7 3 -9 12 -6 20 8
20 23 17 23 -5 0 -10 7 -21 15 -25 8 -3 15 -1 15 4 0 6 -4 10 -10 10 -5 0 -10
4 -10 8 0 12 39 12 46 0 4 -7 9 -6 14 1 5 9 14 9 34 1 15 -5 32 -7 38 -4 7 4
8 2 4 -4 -4 -7 -2 -12 5 -12 6 0 9 8 6 20 -3 13 0 20 9 20 17 0 17 -1 4 -35
-8 -22 -13 -24 -29 -15 -13 7 -22 7 -26 0 -3 -5 -26 -10 -51 -10 -37 0 -44 -3
-44 -20 0 -21 20 -29 20 -7 0 6 5 4 11 -6 6 -9 14 -15 18 -13 4 3 8 -2 8 -10
0 -8 -5 -13 -11 -10 -47 19 -46 19 -46 -15 0 -45 -8 -54 -48 -56 -40 -1 -52
-10 -32 -24 13 -9 12 -10 -2 -6 -9 3 -18 1 -20 -5 -2 -6 -18 -11 -36 -12 -33
-1 -42 -10 -19 -20 6 -3 1 -5 -13 -4 -14 2 -31 -2 -39 -6 -10 -7 -12 -6 -6 4
6 10 4 12 -11 6 -37 -15 -74 -18 -74 -5 0 7 -3 9 -6 6 -4 -4 -1 -13 5 -21 10
-12 9 -14 -8 -9 -12 3 -21 10 -21 15 0 6 -10 8 -22 5 -14 -4 -29 0 -40 10 -10
9 -18 12 -18 7 1 -16 43 -39 105 -58 33 -10 72 -25 87 -32 14 -8 32 -14 40
-14 8 0 35 -13 61 -30 26 -16 47 -26 47 -22 0 4 4 2 8 -4 4 -6 57 -18 119 -28
61 -9 149 -30 195 -47 45 -17 106 -38 133 -47 53 -17 75 -29 75 -43 0 -5 -9
-9 -19 -9 -11 0 -22 -8 -24 -17 -2 -10 -3 -8 -2 5 3 29 -8 35 -45 27 -22 -5
-30 -12 -30 -28 0 -18 -2 -19 -10 -7 -5 8 -7 24 -4 34 6 17 2 18 -26 12 -19
-3 -38 -1 -46 5 -21 17 -74 1 -74 -22 0 -10 -5 -19 -11 -19 -8 0 -9 11 -5 31
l6 32 -39 -7 c-27 -4 -42 -2 -51 9 -15 19 -60 -1 -60 -27 0 -10 -5 -18 -10
-18 -17 0 -24 31 -9 41 10 6 11 11 3 19 -8 8 -31 9 -68 5 -44 -6 -61 -13 -77
-33 -17 -22 -22 -24 -29 -12 -6 8 -10 21 -10 28 0 19 -16 14 -41 -12 -23 -24
-24 -24 -37 -5 -7 10 -10 24 -7 29 12 19 -12 10 -38 -14 -22 -20 -28 -22 -37
-11 -7 8 -9 19 -5 25 8 13 2 13 -30 -2 -14 -6 -25 -17 -25 -25 0 -25 -20 -13
-28 18 l-8 32 -32 -32 c-26 -27 -33 -30 -38 -17 -3 9 -4 23 0 31 9 24 -18 18
-49 -11 -30 -27 -47 -19 -38 17 4 15 1 18 -11 13 -9 -3 -16 -10 -16 -15 0 -5
-7 -9 -15 -9 -8 0 -15 -7 -15 -15 0 -19 -9 -19 -30 0 -15 13 -20 13 -47 0 -44
-22 -48 -42 -14 -60 66 -34 32 -72 -49 -54 -24 6 -57 7 -74 3 -52 -11 -58 -44
-8 -44 14 0 44 -6 67 -14 22 -8 59 -20 83 -27 24 -7 47 -19 51 -27 7 -12 16
-12 52 -4 24 6 82 20 129 31 143 35 253 43 363 26 95 -14 157 -36 157 -55 0
-6 11 -10 24 -10 24 0 28 -13 13 -37 -5 -7 -5 -17 -2 -23 3 -5 1 -10 -4 -10
-7 0 -9 -15 -6 -39 6 -49 -16 -74 -33 -36 -10 21 -15 23 -43 15 -36 -11 -56
-26 -22 -18 13 4 24 0 27 -8 3 -8 1 -14 -3 -14 -5 0 -7 -10 -3 -22 4 -18 2
-20 -16 -16 -12 3 -22 2 -24 -2 -2 -5 -16 -11 -33 -13 -27 -3 -30 -7 -30 -38
0 -34 -17 -55 -35 -44 -6 3 -10 0 -10 -7 0 -8 -3 -9 -8 -3 -4 6 -16 17 -26 25
-18 14 -19 14 -6 -10 19 -34 22 -149 5 -173 -8 -11 -11 -26 -8 -33 3 -8 -1
-14 -8 -14 -11 0 -11 -3 1 -10 11 -7 12 -10 2 -10 -9 0 -13 -11 -11 -32 2 -33
-4 -57 -22 -90 -5 -11 -5 -19 1 -23 6 -3 10 -11 10 -16 0 -6 -4 -8 -9 -4 -5 3
-12 -4 -16 -15 -3 -11 -15 -20 -25 -20 -23 0 -52 -79 -43 -121 3 -17 1 -29 -5
-29 -16 0 -26 -59 -12 -75 10 -12 10 -15 -1 -15 -11 0 -11 -2 0 -9 12 -8 12
-12 2 -25 -7 -8 -13 -30 -13 -48 -1 -18 -4 -35 -8 -38 -15 -10 -18 -89 -4
-101 17 -14 18 -34 1 -51 -6 -7 -13 -25 -14 -41 -1 -31 -21 -60 -34 -51 -5 3
-9 -11 -9 -31 0 -30 -3 -36 -17 -31 -22 9 -49 -23 -45 -52 2 -13 -1 -36 -7
-50 -6 -15 -12 -40 -13 -56 -2 -15 -9 -31 -18 -34 -8 -3 -21 -12 -28 -19 -8
-7 -24 -11 -37 -9 -19 4 -22 1 -17 -16 5 -22 -5 -22 -75 -2 -22 6 -22 5 -12
-25 6 -17 14 -29 17 -28 8 2 12 -7 12 -24 0 -6 -7 -9 -15 -5 -8 3 -15 0 -15
-6 0 -6 -3 -8 -7 -5 -3 4 -12 2 -20 -4 -9 -9 -19 -8 -35 3 -13 9 -40 17 -60
20 -33 3 -39 1 -54 -28 -22 -41 -12 -89 16 -81 11 3 20 1 20 -4 0 -5 -5 -9
-10 -9 -6 0 -23 -12 -37 -26 -16 -16 -40 -28 -62 -30 -22 -2 -43 -12 -54 -25
-13 -16 -21 -19 -29 -11 -8 8 -6 15 5 27 19 18 11 49 -10 41 -8 -3 -21 -6 -29
-6 -8 0 -11 -6 -7 -17 5 -11 3 -14 -6 -8 -10 5 -11 2 -7 -13 6 -17 0 -24 -24
-37 -18 -9 -30 -22 -27 -29 3 -6 -1 -19 -8 -29 -11 -16 -13 -15 -30 3 -10 11
-24 20 -32 20 -8 0 -11 5 -8 10 9 15 -1 12 -18 -4 -20 -21 -35 -6 -39 39 -2
22 -9 46 -15 53 -15 16 -17 42 -3 42 6 0 10 11 10 25 0 20 5 25 24 25 31 0 56
25 56 55 0 17 8 26 30 33 18 7 32 7 35 1 4 -5 11 -9 18 -9 6 0 3 6 -7 13 -17
12 -31 71 -15 61 5 -3 9 1 9 9 0 8 8 17 18 19 18 5 27 38 10 38 -12 0 -10 44
4 58 7 7 20 12 30 12 15 0 17 3 8 19 -11 22 -13 38 -4 28 4 -4 20 5 36 18 16
14 36 25 44 25 8 0 14 7 14 15 0 8 7 15 15 15 34 0 3 33 -33 35 -7 0 -18 11
-25 25 -7 15 -24 27 -40 30 -26 5 -27 6 -12 27 12 17 30 24 75 29 33 4 60 11
60 16 0 5 4 7 8 4 10 -6 87 28 97 44 14 23 -14 32 -99 31 -50 -1 -86 3 -86 8
0 6 -9 19 -21 30 l-20 19 29 30 c16 16 45 37 65 47 45 21 147 116 147 137 0
16 -20 28 -46 28 -20 0 -51 34 -46 50 3 8 0 10 -9 5 -8 -5 -11 -4 -6 1 5 5 14
9 20 9 8 0 11 23 10 75 -1 41 -2 101 -2 132 0 48 -3 58 -21 68 -22 12 -22 12
-2 26 11 8 23 28 27 44 4 17 10 30 14 30 4 0 24 16 45 35 22 20 50 38 63 41
42 11 53 66 11 58 -10 -2 -24 -5 -32 -7 -8 -2 -20 -8 -28 -15 -18 -15 -28 -6
-28 25 0 18 -6 23 -24 23 -13 0 -29 -7 -37 -16 -17 -21 -69 -47 -69 -35 0 6 8
14 17 20 16 8 16 12 3 37 l-15 28 -3 -28 c-3 -22 -7 -26 -25 -21 -12 4 -17 3
-12 -2 9 -7 10 -15 6 -48 0 -5 -13 -11 -27 -11 -18 -2 -31 6 -42 25 -20 31
-45 34 -50 6 -2 -11 -11 -28 -20 -38 -16 -18 -16 -18 -23 0 -3 10 -1 26 5 35
8 13 7 21 -2 30 -9 9 -12 7 -12 -11 0 -20 -2 -21 -15 -11 -8 7 -15 19 -15 26
0 22 -17 16 -24 -8 -10 -37 -7 -43 24 -56 26 -12 29 -18 24 -40 -9 -38 -23
-62 -36 -62 -7 0 -7 4 0 13 7 8 7 18 1 27 -8 13 -10 13 -18 0 -16 -24 -25 14
-10 41 12 23 12 23 -14 6 -32 -21 -41 -21 -34 -3 3 8 -1 20 -9 27 -12 10 -13
9 -8 -5 10 -27 -16 -18 -51 17 -18 18 -38 31 -44 29 -6 -2 -11 0 -11 5 0 9 72
138 105 187 l20 29 -54 -29 c-51 -28 -55 -33 -75 -94 -12 -36 -28 -76 -38 -90
-22 -33 -46 -107 -54 -167 -3 -26 -11 -57 -17 -68 -5 -10 -16 -40 -23 -65 -7
-25 -17 -60 -23 -77 -12 -42 -5 -43 12 -2 12 31 13 31 12 -24 0 -32 -4 -57 -9
-57 -5 0 -6 -18 -3 -40 3 -22 1 -40 -4 -40 -5 0 -9 -20 -9 -45 0 -29 4 -45 13
-45 9 0 9 -2 0 -8 -9 -6 -10 -32 -6 -97 13 -171 10 -192 -27 -228 l-32 -32 8
35 c5 19 9 85 9 145 0 102 -3 119 -40 229 -22 65 -41 111 -43 102 -2 -9 10
-72 27 -140 35 -141 36 -160 17 -271 -18 -103 -23 -113 -60 -153 -19 -21 -24
-31 -13 -27 10 5 17 2 17 -5 0 -7 -10 -10 -27 -6 -23 5 -34 0 -61 -28 -41 -42
-67 -47 -241 -45 -77 0 -144 -1 -149 -4 -4 -4 -22 -4 -38 -2 -16 2 -32 4 -36
4 -5 1 -8 7 -8 15 0 18 159 106 192 106 12 1 40 13 61 28 44 31 40 10 52 287
8 177 0 236 -55 445 -16 63 -30 124 -30 135 0 11 -7 39 -15 62 -13 38 -13 47
5 98 22 63 27 71 131 185 41 45 83 96 93 113 11 18 40 57 66 87 59 70 124 166
143 213 58 137 171 270 283 333 35 20 64 39 64 42 -1 11 -71 56 -127 81 -78
36 -114 96 -183 312 -23 75 -67 166 -90 189 -36 36 -40 364 -6 458 10 26 14
57 10 80 -4 27 3 63 26 131 39 120 45 130 86 166 27 24 35 40 42 85 9 59 -6
166 -33 233 -22 55 -18 142 11 253 49 183 64 277 74 469 11 213 58 494 114
679 l15 49 -40 71 c-59 102 -119 230 -119 250 0 9 9 35 21 57 19 39 32 46 342
198 387 191 536 261 551 261 7 0 18 6 25 13 6 6 16 13 22 13 5 1 11 3 14 4 3
1 8 3 13 4 4 1 21 9 37 18 17 8 57 24 90 36 65 22 109 31 240 48 128 16 435
96 482 125 42 26 70 74 76 127 3 34 -1 51 -22 81 -14 22 -52 78 -85 127 -32
48 -62 92 -67 98 -17 21 -59 87 -59 93 0 14 -54 63 -69 63 -23 1 -103 43 -103
55 1 14 -28 44 -53 57 -17 9 -16 6 5 -19 14 -16 6 -10 -17 14 -42 43 -86 114
-98 156 -5 17 -4 19 4 7 9 -12 11 -10 11 11 0 26 -21 54 -32 43 -3 -3 -9 8
-13 23 -8 33 -33 63 -51 63 -19 0 -34 33 -34 77 0 35 9 49 82 128 45 50 94
103 108 119 14 17 36 40 49 53 l23 22 -6 208 c-4 114 -9 219 -12 233 -2 14 4
42 15 64 11 21 18 43 15 48 -3 5 -1 22 6 37 8 21 17 27 30 24 15 -4 18 1 16
26 -2 24 2 31 15 31 10 0 21 5 24 10 8 13 35 13 35 1z m900 -163 c0 -13 -23
-5 -28 10 -2 7 2 10 12 6 9 -3 16 -11 16 -16z m450 -707 c0 -5 -11 -16 -25
-25 -22 -15 -25 -15 -25 -1 0 12 21 28 48 34 1 1 2 -3 2 -8z m-545 -91 c0 -22
5 -26 40 -29 l40 -5 -39 -5 c-42 -6 -59 -27 -29 -33 12 -3 6 -8 -19 -15 -25
-8 -51 -8 -80 -1 -24 5 -64 7 -90 4 -52 -6 -61 -1 -25 14 18 8 15 9 -13 4 -19
-3 -55 -18 -80 -32 -31 -18 -41 -20 -31 -8 20 24 91 55 157 68 34 7 50 14 43
19 -10 6 -10 11 0 23 15 17 42 24 91 22 30 -1 35 -4 35 -26z m433 -41 c2 -24
-3 -41 -18 -57 -25 -26 -42 -29 -33 -5 5 13 2 15 -11 10 -10 -4 -15 -3 -11 4
4 5 15 7 24 4 10 -3 24 1 31 10 20 25 7 26 -35 5 -43 -22 -65 -25 -65 -10 0 5
-10 8 -22 7 -33 -2 -153 13 -185 24 -22 7 -18 8 17 3 25 -3 84 -8 132 -10 l86
-4 11 30 c9 26 14 30 43 26 29 -3 33 -7 36 -37z m-351 -35 c-3 -3 -12 -4 -19
-1 -8 3 -5 6 6 6 11 1 17 -2 13 -5z m249 -30 c12 5 15 2 10 -10 -4 -9 -2 -22
4 -29 5 -6 8 -26 6 -43 -2 -19 1 -29 7 -25 5 3 7 0 3 -8 -3 -8 -9 -22 -12 -31
-4 -10 -11 -18 -16 -18 -5 0 -6 5 -3 10 3 6 2 10 -3 10 -14 0 -26 -94 -13 -98
7 -2 7 -12 0 -29 -5 -13 -7 -29 -3 -34 3 -5 0 -9 -5 -9 -6 0 -11 -7 -11 -15 0
-7 -6 -18 -12 -22 -7 -4 -18 -17 -24 -28 -6 -11 -17 -21 -25 -21 -8 -1 -18 -3
-24 -4 -5 -1 -13 -2 -17 -1 -5 0 -8 -6 -8 -15 0 -10 -6 -14 -14 -11 -10 4 -12
0 -9 -14 3 -10 10 -19 15 -19 5 0 8 -6 5 -12 -2 -7 5 -26 17 -43 41 -58 48
-79 41 -123 -10 -68 -69 -109 -97 -68 -11 16 -10 66 2 66 6 0 10 5 10 10 0 6
-8 10 -19 10 -30 0 -81 21 -81 34 0 15 -65 50 -79 42 -6 -4 -11 -2 -11 3 0 6
6 11 13 11 8 0 12 13 11 35 -2 29 1 35 20 36 11 0 -7 7 -40 14 -67 14 -157 56
-136 62 6 3 10 9 6 14 -8 13 7 11 36 -6 14 -8 33 -14 43 -15 14 0 8 12 -27 52
-25 29 -46 60 -46 70 0 12 -5 15 -16 11 -12 -4 -14 0 -9 20 6 24 -17 82 -39
98 -4 4 -3 10 3 13 6 4 9 12 6 17 -4 5 1 12 9 15 13 5 14 15 9 48 -3 22 -11
44 -17 48 -8 6 -7 8 1 8 6 0 14 -4 17 -9 3 -5 15 -7 26 -4 14 4 19 1 15 -8 -3
-9 9 -22 32 -34 21 -11 40 -23 43 -27 16 -21 195 -9 262 17 9 4 26 2 37 -4 14
-8 22 -8 27 0 4 8 9 7 15 -2 5 -9 7 -4 5 14 -1 15 -6 30 -9 33 -3 4 -2 15 4
26 10 19 12 19 29 3 11 -10 26 -15 36 -11z m-613 -24 c-36 -35 -46 -78 -33
-135 11 -49 6 -58 -8 -13 -27 88 -27 96 16 138 22 22 43 40 48 40 4 0 -6 -14
-23 -30z m1218 -73 c-10 -9 -11 -8 -5 6 3 10 9 15 12 12 3 -3 0 -11 -7 -18z
m-12488 -113 c33 -8 86 -28 117 -44 31 -16 86 -38 121 -50 35 -12 72 -29 81
-37 12 -11 29 -14 57 -10 64 8 68 0 41 -90 -22 -74 -134 -313 -146 -313 -4 0
-4 6 -1 13 3 8 -7 21 -24 31 -16 9 -29 23 -29 30 0 8 -7 16 -15 19 -8 3 -24
28 -36 54 -12 26 -29 59 -37 72 -9 13 -17 29 -18 35 -3 20 -96 168 -146 233
-26 35 -48 65 -48 68 0 8 19 6 83 -11z m11357 -73 c0 -28 -20 4 -25 39 l-5 35
14 -30 c9 -16 15 -37 16 -44z m1007 -213 c-3 -7 -5 -2 -5 12 0 14 2 19 5 13 2
-7 2 -19 0 -25z m-1029 15 c-16 -2 -40 -2 -55 0 -16 2 -3 4 27 4 30 0 43 -2
28 -4z m1039 -75 c-3 -7 -5 -2 -5 12 0 14 2 19 5 13 2 -7 2 -19 0 -25z m-827
-7 c0 -5 -7 -11 -15 -15 -15 -5 -20 5 -8 17 9 10 23 9 23 -2z m-11194 -88 c-8
-15 -15 -25 -16 -21 0 12 23 58 27 54 3 -2 -2 -17 -11 -33z m12041 5 c-3 -8
-6 -5 -6 6 -1 11 2 17 5 13 3 -3 4 -12 1 -19z m10 -40 c-3 -8 -6 -5 -6 6 -1
11 2 17 5 13 3 -3 4 -12 1 -19z m-12076 -21 c-10 -9 -11 -8 -5 6 3 10 9 15 12
12 3 -3 0 -11 -7 -18z m12119 -36 c12 -12 10 -11 -9 0 -14 9 -27 22 -29 30 -3
11 -2 11 9 -1 8 -8 21 -21 29 -29z m-12080 -6 c14 -18 13 -19 -1 -8 -9 7 -19
10 -22 6 -4 -3 -7 -2 -7 4 0 9 12 26 14 21 1 -2 8 -12 16 -23z m-10 -55 c5 0
10 -5 10 -10 0 -6 -8 -5 -20 2 -11 7 -20 22 -19 33 0 18 1 18 9 -2 5 -13 14
-23 20 -23z m155 -10 c3 -5 -3 -10 -15 -10 -12 0 -18 5 -15 10 3 6 10 10 15
10 5 0 12 -4 15 -10z m-69 -92 c11 -17 -34 -50 -54 -39 -24 13 -25 43 -1 36
11 -4 19 -2 19 4 0 15 27 14 36 -1z m11199 -29 c-2 -10 -8 -26 -13 -35 -8 -15
-10 -15 -15 0 -3 8 -2 18 3 21 6 4 10 18 10 33 0 20 3 23 9 13 5 -8 8 -22 6
-32z m-11134 -10 c20 -10 20 -11 2 -24 -19 -15 -55 -19 -67 -8 -4 4 3 15 16
25 28 21 24 21 49 7z m-241 -306 c29 -20 49 -40 70 -68 17 -22 -70 38 -97 67
-20 23 -5 23 27 1z m12559 -73 c0 -10 -3 -8 -9 5 -12 27 -12 43 0 25 5 -8 9
-22 9 -30z m-319 -440 c0 -5 -4 -10 -10 -10 -5 0 -10 5 -10 10 0 6 5 10 10 10
6 0 10 -4 10 -10z m5 -40 c-3 -5 -14 -10 -23 -9 -14 0 -13 2 3 9 27 11 27 11
20 0z m-15 -68 c0 -5 -9 -17 -21 -28 -21 -19 -21 -19 -8 9 12 26 29 37 29 19z
m2377 -325 c-2 -7 0 -20 4 -29 6 -10 5 -19 -1 -23 -7 -4 -8 -11 -1 -18 5 -7 9
-23 10 -37 1 -69 20 -278 27 -302 3 -10 0 -18 -6 -18 -7 0 -8 -6 -1 -18 5 -10
9 -24 9 -32 -3 -51 4 -91 19 -106 19 -18 27 -74 12 -74 -5 0 -9 -8 -9 -18 0
-10 -3 -22 -6 -25 -4 -4 -6 -82 -6 -174 1 -92 -1 -181 -4 -196 -7 -33 -28 -31
-31 4 -2 41 -15 291 -17 344 -1 28 -4 55 -7 60 -3 6 -5 28 -4 50 1 22 -2 76
-7 120 -4 44 -10 103 -13 130 -3 28 -8 70 -11 95 -18 150 -20 266 -3 286 13
16 53 0 46 -19z m524 -82 c46 -17 114 -63 105 -73 -3 -3 10 -25 29 -48 20 -24
48 -69 63 -101 24 -51 27 -70 27 -158 0 -93 -3 -104 -32 -160 -41 -79 -110
-144 -207 -196 -75 -40 -156 -65 -156 -48 0 4 30 22 66 41 75 37 176 131 216
199 63 108 69 203 20 308 -50 108 -146 174 -282 193 -44 6 -80 14 -80 18 0 7
35 26 80 43 22 9 102 -1 151 -18z m1070 -132 c13 -16 12 -17 -3 -4 -17 13 -22
21 -14 21 2 0 10 -8 17 -17z m-1381 -2 c0 -5 16 -12 36 -16 34 -6 35 -7 20
-24 -9 -10 -16 -33 -16 -52 0 -19 -7 -44 -15 -56 -13 -19 -19 -21 -40 -11 -38
17 -59 71 -45 113 6 19 19 39 28 45 21 12 32 12 32 1z m1436 -54 l16 -32 -26
30 c-26 31 -34 51 -16 40 6 -3 17 -21 26 -38z m-8794 -138 c169 -55 291 -201
320 -385 5 -36 8 -267 6 -550 l-3 -489 -26 -66 c-49 -126 -129 -212 -255 -271
l-69 -33 -227 -3 -226 -4 21 -46 c30 -65 30 -172 0 -227 -29 -54 -78 -99 -138
-127 -40 -18 -67 -23 -130 -22 -113 1 -181 29 -261 108 -88 87 -122 188 -95
284 l10 32 -1463 0 c-1599 0 -1517 -3 -1630 58 -78 42 -153 123 -195 211 l-36
76 0 565 0 565 37 78 c60 125 181 227 306 256 20 5 910 9 2014 10 1971 1 1978
1 2040 -20z m8888 -63 c0 -26 -6 -18 -14 19 -5 22 -4 26 4 15 5 -8 10 -24 10
-34z m13 -126 c3 -41 2 -54 -3 -35 -8 31 -13 112 -6 104 2 -2 6 -33 9 -69z
m-1578 30 c3 -5 17 -10 31 -10 24 0 34 -23 14 -35 -5 -3 -10 -17 -10 -30 0
-36 -21 -75 -41 -75 -10 0 -31 12 -48 26 -49 41 -39 105 19 127 23 8 28 8 35
-3z m138 -10 c5 -21 -1 -24 -27 -14 -22 9 -20 34 3 34 10 0 21 -9 24 -20z
m4467 -60 c-19 -4 -44 -10 -55 -14 -13 -5 -11 -2 5 8 14 8 39 15 55 14 29 0
29 0 -5 -8z m-3033 -77 c-3 -10 -5 -2 -5 17 0 19 2 27 5 18 2 -10 2 -26 0 -35z
m-1490 -225 c29 -27 29 -55 1 -85 -28 -29 -44 -29 -64 2 -19 29 -11 80 14 95
23 13 23 13 49 -12z m4304 -246 c-5 -9 -19 -26 -32 -37 -17 -15 -15 -10 7 17
32 41 40 48 25 20z m-4596 -112 c3 -5 1 -10 -4 -10 -6 0 -11 5 -11 10 0 6 2
10 4 10 3 0 8 -4 11 -10z m121 -18 c1 -7 0 -8 -2 -3 -3 6 -12 7 -20 4 -8 -3
-14 0 -14 7 0 15 33 9 36 -8z m-151 -21 c-5 -12 -3 -13 6 -4 6 6 18 9 26 6 12
-5 12 -7 1 -14 -22 -14 -35 -10 -51 15 -15 23 -15 24 4 19 14 -4 18 -11 14
-22z m89 -9 c3 -5 -1 -9 -9 -9 -8 0 -12 4 -9 9 3 4 7 8 9 8 2 0 6 -4 9 -8z
m-94 -42 c0 -5 -2 -10 -4 -10 -3 0 -8 5 -11 10 -3 6 -1 10 4 10 6 0 11 -4 11
-10z m-25 -30 c3 -5 1 -10 -4 -10 -6 0 -11 5 -11 10 0 6 2 10 4 10 3 0 8 -4
11 -10z m185 -20 c0 -5 -2 -10 -4 -10 -3 0 -8 5 -11 10 -3 6 -1 10 4 10 6 0
11 -4 11 -10z m-160 -54 c0 -3 -4 -8 -10 -11 -5 -3 -10 -1 -10 4 0 6 5 11 10
11 6 0 10 -2 10 -4z m4295 -115 c-4 -15 -15 -21 -36 -21 -18 0 -28 4 -24 10 3
6 17 10 31 10 27 0 28 3 13 33 -11 21 -10 21 6 6 11 -11 15 -24 10 -38z m-95
-16 c0 -9 -82 -56 -88 -51 -7 8 -5 9 43 34 45 24 45 24 45 17z m117 -17 c-3
-8 -6 -5 -6 6 -1 11 2 17 5 13 3 -3 4 -12 1 -19z m-282 -117 c3 -6 -10 -7 -32
-4 -50 8 -55 13 -10 13 20 0 38 -4 42 -9z m109 -289 c-4 -20 -17 -68 -29 -107
-22 -67 -23 -68 -20 -25 3 42 18 121 31 163 10 32 25 6 18 -31z m-1080 19 c4
-5 -3 -7 -14 -4 -23 6 -26 13 -6 13 8 0 17 -4 20 -9z m199 -50 c-15 -28 -29
-48 -31 -46 -5 5 47 95 54 95 3 0 -7 -22 -23 -49z m-296 -119 c55 -114 62
-142 35 -142 -25 0 -117 38 -110 46 3 3 29 -4 57 -15 28 -10 51 -17 51 -14 0
3 -9 20 -19 37 -11 17 -25 50 -31 72 -8 25 -22 47 -35 54 -33 17 -40 50 -12
50 18 0 31 -18 64 -88z m39 -10 c-3 -5 6 -32 19 -60 31 -67 23 -68 -10 -2 -22
44 -26 70 -9 70 3 0 3 -4 0 -8z m-426 -16 c0 -2 -8 -10 -17 -17 -16 -13 -17
-12 -4 4 13 16 21 21 21 13z m1503 -31 c-3 -9 -8 -14 -10 -11 -3 3 -2 9 2 15
9 16 15 13 8 -4z m-32 -91 c-12 -26 -24 -45 -27 -42 -3 3 5 29 18 56 13 28 24
46 26 42 2 -5 -6 -30 -17 -56z m-5150 -118 c-7 -13 -11 -29 -7 -34 6 -10 -34
-25 -43 -16 -3 2 3 18 13 34 9 17 14 35 11 40 -12 20 7 33 23 16 13 -13 14
-19 3 -40z m66 1 c-11 -4 -27 -5 -34 -3 -16 7 -17 27 -1 24 7 -2 13 3 14 10 1
6 2 15 3 18 0 3 10 -4 20 -17 19 -24 19 -24 -2 -32z m13 -87 c0 -5 -5 -10 -11
-10 -5 0 -7 5 -4 10 3 6 8 10 11 10 2 0 4 -4 4 -10z m5150 -5 c0 -8 -38 -21
-82 -29 -52 -10 -48 9 5 21 50 12 77 15 77 8z m-9983 -61 c-3 -3 -12 -4 -19
-1 -8 3 -5 6 6 6 11 1 17 -2 13 -5z m4693 -21 c0 -21 -3 -24 -9 -14 -5 8 -7
20 -4 28 8 21 13 15 13 -14z m-4767 10 c-7 -2 -21 -2 -30 0 -10 3 -4 5 12 5
17 0 24 -2 18 -5z m-76 -9 c-3 -3 -12 -4 -19 -1 -8 3 -5 6 6 6 11 1 17 -2 13
-5z m2882 -29 c3 -16 1 -17 -11 -8 -9 8 -29 10 -51 6 -32 -5 -37 -3 -31 11 10
26 87 18 93 -9z m6995 -37 c13 -9 -65 -167 -96 -195 -38 -34 -29 0 21 76 50
76 52 81 42 118 -16 55 -13 73 6 38 9 -16 21 -33 27 -37z m-4693 31 c14 -7 20
-19 18 -37 -2 -15 3 -37 10 -50 l12 -23 -31 16 c-32 17 -66 10 -36 -7 30 -17
1 -103 -30 -91 -8 3 -14 0 -14 -6 0 -6 -7 -11 -15 -11 -8 0 -15 6 -15 14 0 23
28 40 43 27 8 -6 17 -8 20 -4 4 3 -1 12 -10 18 -14 11 -15 16 -5 28 11 13 9
18 -8 30 -27 19 -17 51 14 42 35 -10 41 -10 46 0 3 6 -5 11 -17 13 -13 2 -23
7 -23 12 0 5 -3 15 -6 24 -7 19 17 22 47 5z m-2281 -14 c0 -8 -4 -15 -10 -15
-5 0 -7 7 -4 15 4 8 8 15 10 15 2 0 4 -7 4 -15z m-3253 -1 c-3 -3 -12 -4 -19
-1 -8 3 -5 6 6 6 11 1 17 -2 13 -5z m5442 -35 c-5 -11 -15 -16 -21 -13 -6 4
-17 -1 -25 -11 -12 -18 -13 -18 -13 4 0 12 -3 20 -7 18 -5 -3 -14 1 -21 9 -15
17 -8 18 20 3 16 -9 23 -7 35 11 12 16 18 18 29 9 10 -8 11 -16 3 -30z m-118
7 c5 3 9 0 9 -6 0 -7 -6 -10 -12 -8 -7 3 -19 -2 -27 -9 -21 -22 -26 -6 -5 18
10 11 20 16 22 10 2 -6 8 -9 13 -5z m-2106 -69 c8 -28 15 -55 15 -61 0 -20
-20 19 -20 39 0 12 -9 38 -19 58 -13 25 -15 34 -5 26 8 -6 21 -34 29 -62z m41
46 c-6 -15 -9 -15 -16 -3 -6 9 -5 17 3 22 16 10 21 2 13 -19z m1894 -3 c0 -5
-4 -10 -10 -10 -5 0 -10 5 -10 10 0 6 5 10 10 10 6 0 10 -4 10 -10z m4445 -20
c3 -5 -1 -10 -9 -10 -9 0 -16 5 -16 10 0 6 4 10 9 10 6 0 13 -4 16 -10z
m-6345 -10 c0 -5 -5 -10 -11 -10 -5 0 -7 5 -4 10 3 6 8 10 11 10 2 0 4 -4 4
-10z m2129 -39 c-2 -6 -10 2 -17 17 -11 25 -11 25 4 10 9 -9 15 -21 13 -27z
m-3186 23 c7 -7 -27 -66 -53 -89 -11 -10 -20 -22 -20 -27 0 -13 -106 -118
-119 -118 -17 0 29 57 51 65 10 4 21 17 24 31 3 13 12 24 20 24 8 0 14 5 14
10 0 21 2 25 17 43 9 9 22 17 30 17 9 0 12 7 7 25 -4 18 -2 25 8 25 8 0 17 -3
21 -6z m3102 -3 c3 -5 1 -12 -4 -15 -5 -3 -11 1 -15 9 -6 16 9 21 19 6z
m-2999 -12 c3 -6 19 -9 34 -5 20 4 30 1 34 -11 5 -11 2 -14 -10 -9 -9 4 -27 0
-40 -9 -21 -13 -23 -13 -18 0 4 9 0 15 -8 15 -8 0 -23 7 -34 15 -18 14 -18 14
8 15 15 0 30 -5 34 -11z m2942 -5 c30 -20 26 -58 -5 -62 -13 -2 -23 -10 -23
-18 0 -8 3 -13 8 -13 23 4 52 -2 52 -11 0 -7 -17 -9 -45 -6 -35 4 -45 2 -45
-9 0 -19 -31 -19 -56 0 -25 19 -34 19 -34 0 0 -8 -7 -15 -15 -15 -21 0 -14
-43 9 -55 27 -14 32 -35 7 -35 -22 0 -40 20 -19 21 10 0 10 2 1 6 -22 8 -73
57 -73 69 0 7 6 14 13 17 9 3 9 8 -2 21 -13 15 -12 16 14 6 23 -9 26 -8 21 6
-5 13 -2 15 18 10 19 -5 30 1 48 22 16 19 32 27 53 26 40 -1 49 5 34 22 -16
20 10 19 39 -2z m372 6 c0 -5 -2 -10 -4 -10 -3 0 -8 5 -11 10 -3 6 -1 10 4 10
6 0 11 -4 11 -10z m-3377 -37 c-4 -11 -3 -14 5 -9 11 6 13 2 11 -21 0 -5 -6
-7 -13 -6 -18 4 -17 -34 1 -42 9 -3 20 0 24 7 5 8 8 5 6 -9 -1 -17 -4 -20 -19
-12 -10 6 -23 7 -28 4 -6 -3 -10 5 -10 19 0 25 -15 45 -18 23 -9 -69 -17 -82
-20 -33 -2 22 5 41 23 62 14 16 25 33 25 37 0 5 4 6 10 2 5 -3 6 -13 3 -22z
m3167 20 c-1 -14 -30 -47 -36 -41 -3 4 3 15 13 26 21 23 23 25 23 15z m200
-13 c0 -5 -5 -10 -11 -10 -5 0 -7 5 -4 10 3 6 8 10 11 10 2 0 4 -4 4 -10z
m5737 -26 c-3 -3 -12 -4 -19 -1 -8 3 -5 6 6 6 11 1 17 -2 13 -5z m-5987 -35
c0 -21 -4 -27 -15 -23 -11 4 -13 13 -9 28 5 16 4 18 -6 9 -7 -6 -19 -9 -26 -6
-25 9 -15 19 21 20 32 1 35 -1 35 -28z m-2146 -46 c-10 -32 -24 -74 -33 -93
-17 -41 -25 -80 -15 -80 4 0 17 8 28 17 12 10 18 14 15 10 -4 -5 4 -20 18 -33
23 -23 25 -31 20 -87 -7 -85 -31 -150 -84 -224 -24 -35 -42 -67 -38 -73 4 -6
3 -25 -1 -43 l-7 -32 -9 39 c-7 33 -4 46 17 82 14 24 30 46 35 49 38 24 82
195 62 240 -11 24 -52 36 -52 15 0 -5 -7 -7 -15 -4 -8 4 -15 2 -15 -4 0 -5
-11 -7 -25 -5 -21 5 -24 2 -20 -17 2 -13 1 -19 -3 -16 -7 7 -8 11 -11 37 0 7
-12 9 -26 7 -14 -3 -28 -1 -31 4 -4 6 15 8 50 5 54 -5 56 -4 56 19 0 14 8 41
17 62 9 20 17 42 18 47 1 6 8 24 15 40 7 17 13 33 12 38 -1 4 3 7 8 7 6 0 10
11 10 23 0 13 3 27 7 30 15 16 14 -5 -3 -60z m-1051 -3 c-3 -13 0 -20 8 -20 8
-1 3 -7 -11 -15 -14 -7 -25 -19 -25 -26 0 -7 -6 -14 -13 -17 -7 -2 -10 2 -6
11 4 12 0 14 -18 10 -19 -4 -17 -1 9 15 17 12 37 30 43 41 14 27 20 27 13 1z
m2992 -20 c3 -5 2 -10 -4 -10 -5 0 -13 5 -16 10 -3 6 -2 10 4 10 5 0 13 -4 16
-10z m185 2 c0 -13 -12 -22 -22 -16 -10 6 -1 24 13 24 5 0 9 -4 9 -8z m155
-22 c3 -5 -1 -10 -9 -10 -9 0 -16 5 -16 10 0 6 4 10 9 10 6 0 13 -4 16 -10z
m-2259 -36 c-4 -9 -9 -15 -11 -12 -3 3 -3 13 1 22 4 9 9 15 11 12 3 -3 3 -13
-1 -22z m2068 1 c3 -9 0 -12 -10 -8 -7 3 -14 0 -14 -6 0 -6 -4 -11 -8 -11 -4
0 -8 8 -8 18 0 21 32 27 40 7z m4489 -48 c4 3 7 -2 7 -12 0 -16 -4 -14 -30 10
-16 16 -30 31 -30 34 0 2 10 -5 23 -17 13 -12 27 -19 30 -15z m-7430 16 c-25
-5 -33 -47 -10 -56 7 -3 5 -6 -5 -6 -13 -1 -18 7 -18 27 0 34 7 42 34 41 19
-2 19 -2 -1 -6z m31 -19 c-7 -3 -10 -15 -7 -27 5 -22 5 -22 -10 -2 -17 23 -13
35 11 34 9 0 12 -3 6 -5z m-140 -97 c-7 -18 -24 -23 -24 -8 0 22 13 42 22 33
5 -5 6 -16 2 -25z m2630 24 c3 -4 3 -11 0 -14 -8 -8 -34 3 -34 14 0 11 27 12
34 0z m-56 -55 c3 -12 -1 -17 -10 -14 -7 3 -15 13 -16 22 -3 12 1 17 10 14 7
-3 15 -13 16 -22z m-2542 -1 c-3 -20 -16 -31 -16 -13 0 13 8 28 16 28 1 0 1
-7 0 -15z m-82 -17 c11 18 33 14 39 -7 3 -14 1 -18 -9 -14 -8 3 -14 10 -14 16
0 7 -10 -3 -22 -20 -28 -40 -37 -41 -31 -5 8 49 14 59 22 38 5 -14 10 -16 15
-8z m2790 -10 c-3 -4 -11 -5 -19 -1 -21 7 -19 12 4 10 11 0 18 -5 15 -9z
m-2755 -41 c8 -10 7 -14 -4 -14 -8 0 -15 6 -15 14 0 7 2 13 4 13 2 0 9 -6 15
-13z m626 -30 c7 -7 4 -8 -8 -3 -10 3 -30 6 -43 6 -13 0 -24 5 -24 11 0 13 60
2 75 -14z m75 13 c0 -5 -2 -10 -4 -10 -3 0 -8 5 -11 10 -3 6 -1 10 4 10 6 0
11 -4 11 -10z m-1013 -76 c-3 -3 -12 -4 -19 -1 -8 3 -5 6 6 6 11 1 17 -2 13
-5z m33 -4 c0 -5 -2 -10 -4 -10 -3 0 -8 5 -11 10 -3 6 -1 10 4 10 6 0 11 -4
11 -10z m208 -46 c-13 -7 -17 -14 -9 -18 6 -4 11 -2 11 3 0 6 4 11 10 11 5 0
7 -7 4 -15 -12 -31 -42 -13 -34 20 1 6 3 15 3 22 0 8 5 8 18 0 18 -11 17 -12
-3 -23z m47 6 c-3 -5 0 -10 8 -10 10 0 13 -7 10 -19 -3 -12 -11 -17 -19 -14
-14 5 -19 35 -7 46 10 10 15 8 8 -3z m7915 -30 c0 -6 16 -33 35 -61 35 -50 36
-50 8 -32 -15 10 -32 23 -36 30 -15 25 -25 13 -17 -19 15 -55 19 -88 11 -88
-4 0 -22 7 -40 16 -32 16 -61 54 -41 54 5 0 10 -5 10 -11 0 -6 9 -8 23 -3 30
9 30 8 18 49 -7 25 -7 44 0 56 10 20 29 26 29 9z m-5060 -20 c8 -16 8 -18 -4
-14 -17 6 -30 34 -16 34 5 0 14 -9 20 -20z m-290 -10 c0 -5 -2 -10 -4 -10 -3
0 -8 5 -11 10 -3 6 -1 10 4 10 6 0 11 -4 11 -10z m251 -33 c-1 -4 -1 -14 -1
-23 0 -8 -4 -12 -10 -9 -13 8 -13 48 1 43 6 -2 10 -7 10 -11z m-1817 -5 c2 -4
1 -14 -4 -21 -6 -11 -12 -11 -30 2 -20 14 -20 16 -3 20 29 8 32 7 37 -1z m76
-6 c0 -2 -7 -6 -15 -10 -8 -3 -15 -1 -15 4 0 6 7 10 15 10 8 0 15 -2 15 -4z
m-220 -16 c0 -5 -9 -10 -20 -10 -11 0 -20 5 -20 10 0 6 9 10 20 10 11 0 20 -4
20 -10z m7164 -67 c10 -6 11 -15 5 -31 l-8 -22 -26 22 c-15 13 -21 24 -16 26
6 2 11 13 11 25 1 20 2 20 11 5 5 -10 16 -21 23 -25z m-8140 -12 c8 -13 -4
-42 -15 -35 -12 7 -12 44 0 44 6 0 12 -4 15 -9z m163 -26 c8 -22 -6 -33 -17
-15 -13 20 -12 30 0 30 6 0 13 -7 17 -15z m163 -27 c0 -19 -2 -20 -10 -8 -13
19 -13 30 0 30 6 0 10 -10 10 -22z m250 -34 c0 -14 -4 -23 -10 -19 -5 3 -10
15 -10 26 0 10 5 19 10 19 6 0 10 -12 10 -26z m426 -2 c-3 -5 2 -57 10 -116 8
-60 14 -122 12 -140 -2 -18 -8 6 -15 59 -25 181 -26 205 -14 205 7 0 10 -4 7
-8z m537 -9 c4 -3 -8 -17 -26 -30 -27 -20 -33 -21 -35 -8 -7 31 40 60 61 38z
m5777 -15 c-73 -17 -144 -36 -200 -54 -8 -3 -1 3 15 13 42 24 182 62 230 61
32 0 23 -4 -45 -20z m360 12 c0 -6 -26 -10 -57 -10 -41 0 -54 3 -43 10 20 13
100 13 100 0z m-5870 -80 c0 -5 -7 -10 -16 -10 -8 0 -12 5 -9 10 3 6 10 10 16
10 5 0 9 -4 9 -10z m-783 -232 c-3 -7 -5 -2 -5 12 0 14 2 19 5 13 2 -7 2 -19
0 -25z m0 -60 c-3 -8 -6 -5 -6 6 -1 11 2 17 5 13 3 -3 4 -12 1 -19z m6722 -48
c-4 -30 -13 -86 -18 -125 -12 -84 -44 -206 -71 -275 -11 -28 -20 -61 -20 -74
0 -15 -7 -26 -20 -29 -11 -3 -20 -2 -20 2 0 7 110 454 131 535 15 56 28 31 18
-34z m-9039 -66 c57 -22 69 -30 133 -90 29 -27 69 -62 89 -78 21 -15 49 -51
62 -79 24 -50 25 -51 26 -20 0 17 -4 34 -9 37 -5 3 -12 21 -15 39 -3 18 -15
41 -27 50 -24 21 -22 59 3 63 10 1 17 -1 17 -4 -1 -4 0 -10 1 -14 2 -8 6 -21
9 -34 0 -3 16 6 34 20 l32 25 -3 -47 c-2 -26 3 -79 11 -119 8 -40 15 -105 16
-145 1 -40 7 -78 13 -85 16 -20 -1 -71 -34 -98 -35 -30 -48 -32 -48 -6 0 11
-9 23 -21 26 -18 6 -20 12 -15 43 4 25 1 41 -9 52 -14 15 -13 21 1 56 15 36
15 43 0 91 -13 40 -22 53 -37 53 -11 0 -19 7 -19 16 0 21 -59 96 -70 89 -5 -3
-11 4 -15 15 -3 11 -12 20 -20 20 -7 0 -16 7 -19 16 -3 9 -13 14 -21 11 -8 -4
-16 2 -20 14 -4 10 -11 17 -16 14 -5 -4 -12 1 -15 10 -4 9 -13 14 -20 11 -7
-3 -16 -1 -19 4 -3 5 -14 7 -25 5 -14 -3 -20 2 -20 16 0 10 -4 19 -10 19 -11
0 -14 43 -3 54 4 4 14 -2 23 -13 8 -11 35 -27 60 -37z m266 12 c-6 -26 -27
-51 -48 -59 -10 -3 -10 -9 -1 -25 10 -16 9 -20 -2 -18 -25 4 -27 14 -11 47 9
18 16 36 16 41 0 5 7 20 16 34 20 30 40 18 30 -20z m1014 19 c-7 -8 -16 -15
-21 -15 -5 0 -9 7 -9 15 0 9 9 15 21 15 18 0 19 -2 9 -15z m2218 2 c8 -9 8
-17 0 -27 -8 -12 -9 -12 -4 2 3 10 -2 22 -12 27 -9 6 -12 11 -6 11 6 0 16 -6
22 -13z m6107 -12 c6 -2 -27 -4 -72 -4 -45 -1 -112 -8 -149 -16 -85 -20 -94
-13 -12 8 85 22 187 27 233 12z m-5995 -25 c0 -5 -2 -10 -4 -10 -3 0 -8 5 -11
10 -3 6 -1 10 4 10 6 0 11 -4 11 -10z m-360 -30 c0 -5 -2 -10 -4 -10 -3 0 -8
5 -11 10 -3 6 -1 10 4 10 6 0 11 -4 11 -10z m-2933 -25 c-4 -8 -11 -15 -17
-15 -14 0 -13 27 3 33 16 6 21 1 14 -18z m2999 -12 c-7 -7 -26 7 -26 19 0 6 6
6 15 -2 9 -7 13 -15 11 -17z m-2052 -1 c2 -4 -7 -12 -20 -19 -26 -12 -32 -5
-12 15 14 14 25 15 32 4z m-1284 -122 c0 -5 -5 -10 -11 -10 -5 0 -7 5 -4 10 3
6 8 10 11 10 2 0 4 -4 4 -10z m465 -51 c11 -17 -4 -59 -21 -59 -12 0 -15 6
-10 23 3 12 6 28 6 35 0 15 16 16 25 1z m9653 -54 c-3 -3 -9 2 -12 12 -6 14
-5 15 5 6 7 -7 10 -15 7 -18z m-9877 -121 c13 -15 16 -104 4 -123 -3 -6 -14
-41 -24 -79 -14 -56 -16 -78 -7 -125 10 -55 18 -68 31 -47 3 6 15 10 26 10 14
0 19 7 19 26 0 16 5 24 13 21 20 -7 14 -51 -12 -74 -13 -13 -27 -21 -31 -18
-15 9 -32 -52 -21 -73 19 -36 14 -55 -13 -48 -16 4 -30 0 -40 -10 -20 -20 -20
-32 0 -69 9 -16 21 -50 26 -75 20 -98 21 -110 7 -111 -58 -3 -66 -11 -85 -85
-8 -32 -20 -76 -25 -96 -5 -21 -16 -38 -23 -38 -18 0 -67 -96 -59 -118 3 -9
12 -24 20 -33 7 -9 12 -27 9 -40 -2 -13 1 -30 6 -36 18 -22 -37 -15 -57 7 -13
14 -22 17 -30 10 -17 -14 -48 -117 -41 -136 3 -9 13 -48 21 -86 13 -62 13 -73
0 -91 -21 -30 -20 -81 1 -73 9 3 18 6 20 6 8 0 4 28 -4 32 -5 2 -6 14 -2 27
l6 25 22 -24 c12 -13 22 -32 22 -42 0 -17 40 -35 66 -30 12 2 16 -24 7 -48
-12 -30 -14 -46 -13 -78 1 -34 -23 -68 -40 -57 -5 3 -10 14 -10 24 0 9 -15 31
-32 48 -29 27 -35 30 -50 19 -20 -15 -24 -46 -8 -62 7 -7 4 -10 -12 -9 -20 1
-23 7 -21 36 4 58 5 64 15 76 11 14 1 36 -12 28 -5 -3 -16 3 -26 12 -13 13
-19 14 -22 5 -2 -7 -10 -19 -18 -26 -7 -8 -13 -29 -13 -48 0 -18 -2 -48 -4
-66 -2 -19 3 -41 11 -50 13 -16 13 -16 8 1 -4 11 1 20 11 24 9 4 19 1 21 -5 2
-7 9 -9 15 -5 7 4 6 -1 -2 -10 -9 -11 -10 -17 -2 -17 6 0 11 -4 11 -10 0 -5
-9 -10 -20 -10 -10 0 -24 -9 -30 -20 -14 -27 -32 -25 -60 4 -12 14 -35 28 -51
31 -43 10 -153 142 -169 203 -6 26 -24 74 -38 106 -23 51 -27 71 -26 150 1
111 18 150 101 231 53 50 177 125 209 125 11 0 88 34 136 61 10 5 31 9 47 9
34 0 54 17 80 69 17 33 20 74 12 169 -1 6 -8 12 -16 12 -9 0 -15 9 -15 25 0
14 -4 25 -9 25 -5 0 -11 11 -13 24 -5 26 20 46 32 26 5 -7 11 -6 20 5 9 11 10
18 1 29 -7 8 -8 17 -3 20 13 8 -19 73 -39 79 -24 6 -21 70 3 79 14 6 17 14 12
33 -5 21 -3 25 14 25 24 0 37 16 22 25 -8 5 -7 11 1 21 15 18 24 18 44 -3 14
-14 18 -14 26 -2 6 10 1 16 -21 22 -20 5 -30 14 -30 26 0 32 11 51 31 51 13 0
20 10 25 34 3 19 3 39 0 44 -3 5 4 22 15 36 14 18 19 35 15 50 -9 36 11 48 35
20z m-81 2 c0 -3 -4 -8 -10 -11 -5 -3 -10 -1 -10 4 0 6 5 11 10 11 6 0 10 -2
10 -4z m-69 -28 c1 -13 0 -32 -1 -43 -1 -11 -4 -29 -5 -40 -1 -11 -3 -26 -4
-34 -1 -16 -14 -7 -17 12 -1 7 -5 20 -9 30 -4 10 -3 17 5 17 7 0 9 8 5 19 -3
11 -1 22 4 25 6 4 8 13 4 21 -3 8 0 15 6 15 6 0 12 -10 12 -22z m8971 -149 c2
-6 28 -14 58 -18 l55 -7 -85 -6 c-47 -3 -87 -3 -90 -1 -5 5 40 42 52 43 3 0 8
-5 10 -11z m-8752 -54 c0 -16 -6 -25 -15 -25 -9 0 -15 9 -15 25 0 16 6 25 15
25 9 0 15 -9 15 -25z m-49 -46 c-5 -13 -10 -19 -10 -12 -1 15 10 45 15 40 3
-2 0 -15 -5 -28z m7154 -8 c-3 -6 -11 -11 -17 -11 -6 0 -6 6 2 15 14 17 26 13
15 -4z m-7520 -91 c3 -5 1 -10 -4 -10 -6 0 -11 5 -11 10 0 6 2 10 4 10 3 0 8
-4 11 -10z m8200 -49 c-3 -5 4 -13 16 -16 24 -8 89 -63 89 -76 0 -5 -8 -9 -18
-9 -18 0 -55 -31 -50 -41 2 -3 -7 6 -19 20 -12 13 -29 42 -39 63 -14 30 -14
40 -4 53 13 16 35 21 25 6z m-8190 -11 c3 -5 -1 -10 -10 -10 -9 0 -13 5 -10
10 3 6 8 10 10 10 2 0 7 -4 10 -10z m55 -12 c0 -14 -15 -16 -27 -3 -10 11 -9
13 7 12 11 -1 20 -5 20 -9z m8906 -104 c-3 -9 -6 -20 -6 -25 0 -5 -4 -9 -9 -9
-4 0 -6 11 -3 25 2 14 9 25 14 25 6 0 7 -7 4 -16z m-8846 -20 c0 -8 -4 -12
-10 -9 -5 3 -10 10 -10 16 0 5 5 9 10 9 6 0 10 -7 10 -16z m9600 -71 l25 -14
-25 7 c-41 11 -70 23 -70 29 0 8 39 -4 70 -22z m-9627 -3 c-3 -11 -7 -20 -9
-20 -2 0 -4 9 -4 20 0 11 4 20 9 20 5 0 7 -9 4 -20z m8784 -122 c-3 -8 -6 -5
-6 6 -1 11 2 17 5 13 3 -3 4 -12 1 -19z m-8167 -254 c0 -16 -16 -19 -25 -4 -8
13 4 32 16 25 5 -4 9 -13 9 -21z m-530 -84 c0 -5 -2 -10 -4 -10 -3 0 -8 5 -11
10 -3 6 -1 10 4 10 6 0 11 -4 11 -10z m8613 -97 c3 -5 1 -18 -4 -31 -7 -19
-11 -21 -22 -10 -11 10 -12 17 -3 30 12 19 22 23 29 11z m-8586 -19 c-3 -3
-12 -4 -19 -1 -8 3 -5 6 6 6 11 1 17 -2 13 -5z m-23 -69 c-5 -11 -11 -12 -25
-4 -25 13 -24 14 6 17 18 1 23 -2 19 -13z m100 -44 c9 -14 -4 -41 -20 -41 -8
0 -14 10 -14 25 0 25 23 35 34 16z m-135 -44 c8 -10 7 -14 -2 -14 -8 0 -14 6
-14 14 0 7 1 13 2 13 2 0 8 -6 14 -13z m8911 -187 c3 -3 39 -28 80 -55 91 -59
85 -54 77 -61 -12 -12 -143 70 -199 124 -32 31 -58 60 -58 65 0 8 83 -53 100
-73z m-300 -104 c-19 -24 -26 -19 -27 20 l-1 37 21 -21 c17 -17 18 -23 7 -36z
m453 -143 c-7 -2 -21 -2 -30 0 -10 3 -4 5 12 5 17 0 24 -2 18 -5z m-8973 -12
c0 -5 -7 -11 -15 -15 -9 -3 -15 0 -15 9 0 8 7 15 15 15 8 0 15 -4 15 -9z
m8857 3 c-3 -3 -12 -4 -19 -1 -8 3 -5 6 6 6 11 1 17 -2 13 -5z m-8966 -47 c-1
-4 -1 -14 -1 -22 0 -8 -5 -15 -11 -15 -6 0 -9 7 -5 15 3 8 1 15 -5 15 -6 0 -7
5 -4 11 7 11 27 8 26 -4z m119 -3 c0 -8 -5 -12 -10 -9 -6 4 -8 11 -5 16 9 14
15 11 15 -7z m8150 5 c13 -9 13 -10 0 -7 -28 4 -85 -12 -110 -32 l-25 -20 46
0 c53 0 114 -19 102 -31 -4 -4 -26 -4 -47 1 -54 12 -133 -3 -206 -40 -79 -40
-70 -23 14 24 34 19 69 43 77 52 14 17 105 64 124 64 6 0 17 -5 25 -11z
m-8143 -69 c-6 -25 9 -36 28 -20 8 7 15 11 16 9 6 -32 7 -45 1 -53 -11 -19
-13 -78 -2 -91 10 -12 6 -12 -19 -2 -35 13 -47 43 -20 50 12 3 19 14 19 29 0
32 -8 40 -31 27 -19 -10 -26 0 -11 15 7 8 8 13 11 41 0 8 4 15 7 15 4 0 4 -9
1 -20z m8208 -18 c-8 -8 -25 10 -25 26 0 13 2 13 14 -4 8 -10 13 -21 11 -22z
m-8355 4 c0 -3 -4 -8 -10 -11 -5 -3 -10 -1 -10 4 0 6 5 11 10 11 6 0 10 -2 10
-4z m8478 -93 c15 -3 44 -17 65 -30 40 -25 67 -25 67 1 0 8 4 17 9 21 13 7 6
-84 -7 -97 -7 -7 -21 0 -44 23 -19 19 -61 49 -93 67 -33 19 -52 31 -42 28 11
-3 31 -9 45 -13z m-8689 -30 c0 -25 -1 -26 -9 -8 -12 27 -12 35 0 35 6 0 10
-12 9 -27z m8201 -42 c-29 -42 -152 -121 -251 -163 -97 -41 -155 -56 -145 -39
4 6 12 11 17 11 5 0 27 11 49 25 22 14 45 25 51 25 6 0 22 9 35 19 14 11 42
22 62 26 21 3 51 18 67 33 98 89 158 122 115 63z m1624 -20 c-2 -3 -12 3 -22
13 -16 17 -16 18 5 5 12 -7 20 -15 17 -18z m-9470 -34 c-13 -35 -23 -13 -15
33 1 2 6 -1 11 -6 6 -6 8 -18 4 -27z m9501 3 c10 -11 16 -20 13 -20 -3 0 -13
9 -23 20 -10 11 -16 20 -13 20 3 0 13 -9 23 -20z m-9529 -67 c-2 -16 -4 -32
-5 -37 -2 -15 -16 4 -16 22 0 14 14 40 22 42 1 0 0 -12 -1 -27z m-50 -25 c-2
-23 0 -55 5 -71 7 -23 5 -28 -6 -23 -8 3 -15 1 -15 -4 0 -6 5 -10 10 -10 6 0
10 -7 10 -15 0 -8 4 -15 9 -15 4 0 8 -10 7 -22 -1 -17 -11 -26 -36 -35 -25 -9
-29 -12 -13 -12 32 -1 37 -17 16 -51 -12 -21 -23 -28 -35 -24 -10 3 -18 1 -18
-5 0 -6 4 -11 10 -11 5 0 7 -7 4 -15 -4 -8 -2 -15 4 -15 12 0 24 -42 14 -50
-8 -5 -36 -153 -34 -183 1 -13 -4 -16 -19 -12 -13 4 -19 2 -19 -8 0 -9 5 -17
11 -19 6 -2 11 -22 11 -43 0 -22 5 -43 11 -47 9 -6 8 -11 -3 -18 -8 -5 -11
-10 -7 -10 5 0 5 -6 0 -12 -11 -19 -14 -48 -4 -48 5 0 7 -9 4 -20 -4 -14 -1
-20 8 -18 7 2 14 -6 16 -17 3 -15 2 -17 -5 -6 -6 7 -15 10 -21 6 -9 -5 -8 -13
3 -31 9 -13 16 -34 16 -47 0 -17 9 -26 35 -35 22 -9 32 -18 29 -27 -3 -7 4
-23 15 -34 34 -34 21 -90 -14 -61 -10 8 -15 9 -15 2 0 -6 9 -16 21 -22 11 -6
18 -17 16 -23 -2 -7 0 -20 5 -31 7 -13 7 -16 -1 -12 -6 4 -11 2 -11 -3 0 -6 5
-11 10 -11 11 0 3 -50 -9 -60 -4 -3 -6 -18 -6 -33 1 -19 -3 -26 -12 -23 -14 6
-14 5 -18 -34 -1 -13 -7 -26 -13 -28 -7 -2 -6 -13 1 -33 9 -23 9 -34 -1 -50
-8 -13 -9 -18 -2 -14 17 10 39 -13 33 -35 -3 -11 -14 -20 -24 -20 -11 0 -19
-7 -19 -15 0 -8 -6 -15 -12 -16 -10 0 -10 -2 0 -6 6 -2 12 -11 12 -19 0 -8 6
-14 14 -14 16 0 30 -98 16 -115 -5 -6 -5 -16 0 -25 13 -20 13 -70 0 -70 -6 0
-6 -9 0 -25 8 -21 7 -25 -10 -25 -10 0 -21 4 -24 9 -3 5 -16 11 -30 13 -22 4
-23 3 -15 -24 4 -16 29 -48 54 -72 51 -47 58 -82 17 -80 -19 0 -22 -5 -22 -37
0 -21 5 -41 11 -44 13 -8 29 -51 34 -87 4 -32 -20 -57 -37 -40 -7 7 -18 12
-26 12 -8 0 -24 10 -37 22 -27 26 -65 31 -65 9 0 -27 48 -71 79 -71 17 0 38
-11 56 -30 16 -16 35 -30 42 -30 7 0 13 -9 13 -21 0 -17 -4 -19 -22 -13 -13 5
-33 8 -44 7 -14 0 -26 8 -33 24 -6 13 -24 29 -40 34 -15 6 -34 22 -41 37 -11
22 -14 24 -17 10 -6 -22 39 -80 74 -98 16 -8 43 -27 61 -42 18 -15 45 -31 60
-34 15 -4 34 -13 43 -21 22 -19 90 -53 106 -53 7 0 13 -4 13 -8 0 -13 -102 5
-158 27 -56 22 -110 57 -167 108 -22 20 -50 46 -63 57 l-23 20 7 -44 c3 -25
14 -56 24 -70 9 -14 20 -36 24 -48 9 -27 30 -24 34 5 4 24 37 21 46 -4 4 -11
1 -13 -14 -8 -16 5 -20 2 -20 -17 0 -13 7 -31 14 -41 15 -19 56 -32 56 -16 0
5 5 9 10 9 6 0 9 -6 8 -12 -2 -7 3 -12 10 -10 6 1 12 -2 12 -7 0 -5 3 -16 6
-24 4 -12 0 -14 -15 -10 -12 3 -21 1 -21 -4 0 -19 198 -102 290 -123 130 -29
124 -26 149 -81 12 -29 19 -59 16 -68 -4 -9 -9 -36 -11 -61 -6 -68 -8 -76 -26
-94 -12 -11 -16 -27 -13 -51 4 -26 1 -35 -10 -35 -17 0 -20 -16 -5 -25 7 -4 6
-13 -1 -26 -5 -11 -9 -27 -8 -37 4 -28 -13 -106 -27 -127 -8 -11 -14 -28 -14
-38 0 -10 -6 -39 -14 -65 -20 -69 -35 -128 -52 -207 -8 -38 -19 -79 -24 -90
-5 -11 -9 -31 -10 -45 0 -24 -2 -50 -15 -175 -8 -79 -8 -174 0 -258 6 -58 4
-72 -12 -89 -10 -12 -13 -18 -6 -14 8 4 15 -3 19 -21 4 -15 14 -35 24 -43 10
-8 21 -36 24 -61 6 -42 4 -48 -19 -63 -22 -14 -23 -19 -13 -36 10 -16 10 -24
0 -40 -6 -11 -12 -26 -12 -35 0 -15 34 -38 43 -29 3 3 15 1 26 -6 28 -14 27
-46 -3 -65 -16 -11 -22 -22 -19 -35 4 -14 0 -20 -11 -20 -10 0 -16 9 -16 25 0
20 -5 25 -24 25 -26 0 -51 -24 -41 -39 9 -16 -38 -90 -60 -93 -12 -2 -19 -10
-19 -21 2 -15 -8 -21 -28 -18 -4 0 -5 -12 -2 -27 4 -21 0 -30 -17 -40 -18 -12
-23 -12 -30 -1 -16 26 -30 -4 -19 -41 14 -49 14 -49 -25 -66 -43 -18 -120 -17
-255 1 -58 8 -133 15 -168 15 -35 0 -75 6 -90 14 -15 7 -47 16 -72 20 -33 5
-55 17 -82 44 -21 20 -38 40 -38 44 0 5 -16 31 -35 59 -19 28 -37 67 -41 87
-4 20 -20 57 -37 81 -16 24 -34 60 -38 80 -15 60 -11 180 10 296 11 61 23 148
26 194 8 88 14 107 75 236 51 106 90 201 90 217 0 35 104 331 158 448 168 368
232 552 232 668 0 87 16 166 41 208 16 26 20 56 23 155 3 118 23 226 46 254 6
7 10 28 9 46 0 19 2 59 5 89 41 472 40 453 27 643 -14 201 -19 270 -26 337
-15 132 -25 233 -30 299 -3 41 -9 91 -14 112 -5 21 -4 43 1 53 5 10 7 25 3 34
-5 13 -3 14 5 6 15 -15 50 -6 50 12 0 8 5 14 10 14 6 0 10 -6 10 -14 0 -7 6
-19 14 -25 11 -9 15 -7 19 9 3 13 13 20 30 20 19 0 27 7 31 26 4 15 2 32 -3
37 -8 8 -11 7 -11 -1 0 -7 -4 -12 -10 -12 -5 0 -10 7 -10 15 0 14 12 19 33 16
11 -2 8 17 -4 24 -6 4 -4 12 8 20 12 9 18 28 19 54 1 22 9 47 18 56 9 9 14 21
11 26 -7 11 2 29 15 29 5 0 7 -19 6 -42z m8567 -24 c-3 -8 -12 -13 -19 -10 -9
4 -14 -9 -17 -47 l-3 -52 -2 62 c-1 34 3 73 10 87 l11 26 13 -25 c7 -14 10
-32 7 -41z m-8728 -34 c3 -5 1 -10 -4 -10 -6 0 -11 5 -11 10 0 6 2 10 4 10 3
0 8 -4 11 -10z m-6 -52 c6 -18 13 -49 16 -68 3 -19 11 -40 17 -47 21 -26 0
-24 -31 2 -30 26 -44 75 -21 75 5 0 9 11 8 25 -1 14 -8 25 -16 25 -7 0 -10 5
-7 10 11 18 23 10 34 -22z m96 12 c3 -5 -1 -10 -10 -10 -9 0 -13 5 -10 10 3 6
8 10 10 10 2 0 7 -4 10 -10z m-170 -120 c3 -5 1 -10 -4 -10 -6 0 -11 5 -11 10
0 6 2 10 4 10 3 0 8 -4 11 -10z m145 -5 c0 -8 -2 -15 -4 -15 -2 0 -6 7 -10 15
-3 8 -1 15 4 15 6 0 10 -7 10 -15z m-338 -47 c-7 -7 -12 -8 -12 -2 0 14 12 26
19 19 2 -3 -1 -11 -7 -17z m8978 -52 c0 -8 -4 -18 -10 -21 -5 -3 -10 3 -10 14
0 12 5 21 10 21 6 0 10 -6 10 -14z m-8440 -278 c0 -12 -28 -9 -36 3 -3 6 0 15
7 20 13 7 28 -5 29 -23z m-100 12 c0 -5 -4 -10 -10 -10 -5 0 -7 -7 -4 -15 4
-8 2 -15 -4 -15 -10 0 -22 23 -22 41 0 5 9 9 20 9 11 0 20 -4 20 -10z m40 -72
c0 -12 -14 -10 -27 3 -6 6 -9 18 -6 27 5 13 8 12 20 -4 7 -10 13 -21 13 -26z
m-9 -112 c5 3 9 0 9 -6 0 -15 -23 -7 -26 8 -1 7 0 8 3 2 2 -5 9 -8 14 -4z m-1
-47 c0 -5 -4 -7 -10 -4 -14 9 -13 -8 2 -23 9 -9 6 -12 -15 -12 -15 0 -27 2
-27 4 0 2 -3 11 -6 19 -5 14 -1 17 49 26 4 0 7 -4 7 -10z m8518 -289 c20 0 14
-34 -8 -48 -41 -25 -90 36 -60 73 12 14 15 13 35 -5 12 -11 27 -20 33 -20z
m-62 -437 c34 -32 31 -46 -8 -38 -18 4 -34 9 -36 10 -2 2 0 25 4 52 6 34 9 41
12 23 2 -13 15 -35 28 -47z m-26 -178 c-7 -8 -11 -35 -8 -65 1 -27 0 -50 -3
-50 -3 0 -9 -32 -13 -72 -3 -39 -9 -81 -12 -93 l-5 -22 -72 24 c-83 27 -118
43 -113 52 3 4 -20 22 -50 41 -53 33 -54 35 -54 81 0 26 4 50 9 53 5 3 73 11
151 18 122 11 144 15 148 30 2 10 11 18 19 18 13 0 13 -3 3 -15z m345 -35
c220 -17 439 -77 473 -128 14 -21 7 -96 -8 -87 -5 3 -30 -6 -57 -19 -69 -34
-190 -74 -249 -81 -40 -6 -52 -4 -57 8 -4 11 -20 14 -68 11 -35 -1 -68 1 -74
5 -5 5 -26 11 -46 15 -21 4 -42 13 -49 21 -13 16 -40 20 -40 7 0 -4 5 -13 12
-20 9 -9 8 -13 -4 -17 -23 -9 -67 12 -68 32 -11 180 -11 245 0 259 9 10 25 13
59 9 25 -3 105 -9 176 -15z m-734 -64 c-12 -12 -20 -24 -19 -27 2 -2 -2 1 -8
8 -8 9 -29 11 -71 7 -42 -5 -62 -3 -68 5 -10 18 -6 20 86 39 71 15 85 16 92 4
6 -9 2 -21 -12 -36z m-231 4 c-20 -13 -33 -13 -25 0 3 6 14 10 23 10 15 0 15
-2 2 -10z m-159 -71 c-39 -27 -42 -33 -36 -62 4 -18 14 -40 23 -49 20 -24 5
-23 -35 2 -33 19 -46 60 -20 60 8 0 7 3 -3 10 -13 8 -13 11 2 27 17 17 70 39
97 42 8 0 -5 -13 -28 -30z m266 -205 c-3 -3 -12 -4 -19 -1 -8 3 -5 6 6 6 11 1
17 -2 13 -5z m40 -10 c-3 -3 -12 -4 -19 -1 -8 3 -5 6 6 6 11 1 17 -2 13 -5z"/>
<path d="M18919 17202 c-2 -52 -3 -55 -18 -60 -10 -3 -12 0 -7 14 4 12 4 15
-2 9 -15 -16 -31 -71 -23 -82 17 -27 35 -17 63 35 33 64 34 73 8 97 -20 18
-20 17 -21 -13z"/>
<path d="M18817 17078 c-11 -31 40 -67 57 -40 8 13 -11 35 -23 28 -6 -4 -10
-2 -9 5 4 16 -19 23 -25 7z"/>
<path d="M19525 17069 c-11 -17 1 -21 15 -4 8 9 8 15 2 15 -6 0 -14 -5 -17
-11z"/>
<path d="M18874 17019 c-3 -6 -2 -15 4 -21 6 -6 11 -2 15 11 5 22 -7 29 -19
10z"/>
<path d="M9378 17024 c28 -21 29 -38 1 -23 -15 8 -19 8 -15 0 4 -7 -1 -11 -13
-11 -12 0 -21 -5 -21 -11 0 -5 3 -8 8 -6 4 2 15 -5 25 -15 18 -19 18 -19 0
-17 -24 3 -93 -11 -93 -20 0 -6 18 -17 80 -46 19 -9 55 -41 79 -71 47 -59 103
-159 94 -168 -3 -3 0 -12 7 -21 7 -8 8 -15 3 -15 -14 0 6 -139 24 -170 8 -14
12 -17 9 -7 -3 9 -1 17 5 17 7 0 9 -13 4 -37 -4 -21 -7 -42 -8 -48 -1 -5 4 -9
12 -7 12 3 12 0 2 -12 -9 -11 -10 -41 -1 -138 6 -68 15 -127 19 -131 13 -14
34 149 27 206 -4 29 -9 73 -10 98 -2 26 -9 64 -16 85 -10 28 -10 39 -1 42 14
5 14 62 0 99 -6 15 -12 43 -15 62 -2 19 -20 64 -39 100 -31 59 -33 63 -10 39
14 -16 28 -28 30 -28 12 0 -79 175 -91 175 -16 1 -70 34 -55 35 8 0 23 -8 34
-17 16 -14 19 -15 15 -3 -2 8 -14 20 -26 26 -12 6 -30 18 -39 26 -10 8 -25 18
-33 22 -8 4 -5 -1 8 -10z"/>
<path d="M8737 16994 c-37 -19 -73 -43 -79 -54 -7 -11 -16 -20 -21 -20 -4 0
-5 5 -1 12 4 6 -9 -1 -29 -16 -20 -16 -37 -33 -37 -39 0 -5 10 -2 22 9 15 13
12 7 -7 -18 -17 -20 -34 -37 -39 -37 -5 -1 -3 6 4 14 7 9 11 17 8 20 -5 5
-107 -124 -128 -163 -30 -55 -62 -103 -66 -99 -3 2 9 30 25 61 17 31 25 56 20
56 -6 0 -26 -35 -46 -77 -20 -43 -38 -73 -40 -66 -2 7 0 20 5 30 5 10 6 29 2
43 -8 29 -7 31 -50 -98 -47 -140 -110 -419 -103 -453 3 -17 1 -29 -5 -29 -5 0
-12 -13 -14 -30 -6 -37 -1 -38 13 -4 19 52 19 15 -1 -87 -25 -130 -39 -179
-84 -301 -20 -54 -33 -98 -30 -98 3 0 19 15 36 33 l31 32 -18 -30 c-10 -16
-27 -41 -39 -55 -12 -14 -30 -41 -40 -60 l-19 -35 54 48 c30 26 61 53 69 61 8
7 23 23 33 35 10 13 24 20 32 18 9 -4 20 14 36 55 13 34 25 56 27 50 2 -6 -6
-38 -17 -70 -23 -64 -26 -85 -10 -62 8 11 9 9 3 -10 -9 -32 -41 -77 -77 -108
-15 -14 -25 -27 -22 -31 3 -3 35 25 70 63 50 53 69 83 84 130 29 87 42 193 34
283 l-6 78 24 -20 c13 -11 28 -24 32 -30 5 -6 6 0 3 14 -2 13 -1 20 3 15 15
-18 90 -200 96 -234 5 -31 1 -28 -33 30 -22 36 -45 82 -52 103 -16 50 -23 43
-8 -9 24 -85 10 -261 -28 -343 -29 -64 -29 -67 -6 -50 16 13 16 13 0 -7 -13
-15 -15 -23 -6 -32 6 -6 13 -43 14 -82 2 -38 6 -75 9 -80 5 -8 45 -15 45 -7 0
1 -4 17 -9 35 -8 28 -7 36 11 54 18 18 22 18 35 5 22 -21 35 -91 23 -122 -15
-40 -12 -43 10 -10 17 27 20 27 26 10 14 -46 36 -104 61 -162 19 -46 29 -60
41 -55 12 4 14 1 8 -13 -7 -18 -6 -18 14 0 18 16 20 17 20 1 0 -14 4 -15 20
-6 17 9 19 8 13 -7 -6 -16 -5 -16 10 -4 15 12 17 11 17 -3 0 -23 15 -20 28 7
10 19 11 17 7 -18 -3 -35 -2 -37 7 -17 12 24 31 31 22 7 -3 -8 -2 -20 2 -27 5
-7 14 10 26 47 l18 60 -6 -60 c-3 -43 -2 -56 5 -45 6 8 11 25 11 37 0 12 5 25
10 28 6 3 10 -3 10 -15 0 -12 5 -18 10 -15 6 3 10 15 10 26 0 10 4 19 10 19 5
0 7 -6 5 -12 -10 -29 -13 -138 -4 -138 6 0 9 6 7 13 -1 6 2 35 7 62 4 28 9 58
10 67 1 10 5 21 9 25 4 4 4 -32 0 -80 -4 -49 -3 -87 2 -87 5 0 10 19 11 43 3
84 23 130 23 52 0 -27 3 -45 7 -42 8 8 16 68 17 120 1 20 4 37 9 37 4 0 6 -59
4 -131 -1 -72 1 -133 5 -135 4 -3 8 25 9 63 0 128 7 254 13 260 5 6 11 -128 7
-169 -1 -9 3 -19 9 -23 6 -4 10 16 11 57 1 144 3 168 11 168 4 0 8 -37 8 -82
0 -115 8 -93 11 30 3 114 19 142 19 33 0 -39 4 -72 9 -75 5 -4 9 31 9 79 l-1
84 -176 -5 c-97 -3 -184 -10 -194 -16 -32 -16 -106 4 -145 40 -7 6 -20 12 -28
12 -8 0 -12 5 -9 10 4 6 2 17 -5 25 -6 7 -13 26 -16 42 -3 15 -7 37 -10 48 -6
19 -5 19 9 -1 9 -11 19 -33 23 -49 15 -61 126 -133 166 -109 18 11 57 16 108
15 25 -1 81 1 125 4 66 5 81 10 82 23 5 61 17 99 34 111 11 8 26 29 34 47 7
18 36 49 64 70 27 21 48 41 45 45 -8 14 -79 30 -82 19 -2 -6 -8 -8 -13 -4 -5
3 -9 0 -9 -5 0 -16 -62 -13 -85 2 -20 14 -108 39 -122 35 -17 -4 -53 14 -53
27 0 7 -20 40 -44 72 -58 80 -62 89 -71 157 -8 67 8 70 25 5 19 -70 60 -96
108 -70 20 11 72 -12 53 -23 -6 -4 -11 -3 -11 2 0 6 -7 13 -16 16 -33 13 8
-25 43 -39 47 -20 159 -16 203 6 19 10 68 47 109 83 41 36 80 66 88 66 7 0 16
1 20 3 4 1 10 -11 13 -28 6 -29 7 -29 38 32 18 34 32 67 32 73 0 26 -147 160
-175 160 -8 0 25 -61 54 -99 14 -19 24 -35 22 -35 -2 -1 -1 -12 4 -25 12 -39
-7 -45 -79 -26 -56 15 -72 16 -104 6 -28 -10 -48 -10 -76 -3 -29 9 -53 7 -108
-7 -39 -10 -80 -16 -90 -13 -28 7 -18 44 16 61 25 12 33 11 63 -3 40 -19 79
-20 132 -4 33 10 40 18 44 43 6 41 2 48 -38 69 -32 17 -36 18 -75 2 -22 -9
-50 -16 -62 -16 -18 0 -20 4 -15 38 l6 37 -20 -25 c-87 -110 -158 -146 -221
-114 -27 14 -32 14 -54 -1 -13 -8 -24 -12 -24 -8 0 4 -8 -9 -19 -29 -19 -38
-22 -126 -6 -196 12 -58 -42 -53 -85 7 -21 31 -37 91 -64 246 -39 228 -44 293
-26 341 10 25 198 244 210 244 13 0 111 97 123 120 8 15 46 41 103 70 57 28
90 50 87 58 -3 8 1 10 13 5 12 -5 15 -3 9 7 -6 9 -23 11 -64 6 -56 -7 -75 -16
-141 -65 -19 -14 -38 -26 -42 -26 -4 0 -46 -37 -95 -83 -48 -45 -108 -101
-133 -124 -24 -22 -39 -39 -33 -37 19 7 114 91 185 163 37 39 68 65 68 59 0
-32 -306 -293 -344 -293 -8 0 -18 -5 -22 -12 -5 -8 -2 -9 10 -5 10 4 15 3 11
-3 -6 -10 -65 -14 -65 -4 0 27 34 143 40 139 5 -3 28 20 51 51 23 32 58 75 77
97 23 25 32 41 25 45 -8 5 -5 15 8 32 20 24 20 24 9 2 -6 -13 -10 -25 -8 -27
2 -3 35 27 73 66 61 62 141 128 201 166 35 22 9 12 -59 -23z m-349 -654 c10
-16 10 -20 -1 -20 -14 0 -37 20 -37 32 0 16 25 8 38 -12z m10 -197 c6 -9 6
-29 1 -45 -5 -20 -4 -28 4 -27 25 3 38 -1 32 -11 -10 -16 -62 -12 -79 6 -20
19 -20 28 -1 44 8 7 15 21 15 31 0 23 16 25 28 2z m72 -253 c28 -55 25 -64 -5
-11 -26 44 -28 51 -20 51 2 0 14 -18 25 -40z m762 -22 c-10 -10 -75 -27 -106
-28 -30 0 -5 21 36 29 48 11 81 10 70 -1z m-149 -25 c-7 -2 -21 -2 -30 0 -10
3 -4 5 12 5 17 0 24 -2 18 -5z m112 -33 c-3 -5 -15 -10 -26 -10 -10 0 -19 5
-19 10 0 6 12 10 26 10 14 0 23 -4 19 -10z m-330 -20 c3 -5 2 -10 -4 -10 -5 0
-13 5 -16 10 -3 6 -2 10 4 10 5 0 13 -4 16 -10z m122 -712 c-3 -8 -6 -5 -6 6
-1 11 2 17 5 13 3 -3 4 -12 1 -19z m-200 -60 c-3 -8 -6 -5 -6 6 -1 11 2 17 5
13 3 -3 4 -12 1 -19z m100 0 c-3 -8 -6 -5 -6 6 -1 11 2 17 5 13 3 -3 4 -12 1
-19z m-27 -2 c0 -3 -4 -8 -10 -11 -5 -3 -10 -1 -10 4 0 6 5 11 10 11 6 0 10
-2 10 -4z"/>
<path d="M8770 16973 c-89 -50 -304 -268 -243 -246 43 15 203 152 203 174 0 5
-6 7 -12 4 -7 -4 5 9 27 29 22 20 52 43 68 51 15 9 27 18 27 20 0 7 0 7 -70
-32z"/>
<path d="M8619 16983 c-13 -16 -12 -17 4 -4 16 13 21 21 13 21 -2 0 -10 -8
-17 -17z"/>
<path d="M8754 16904 c-18 -14 -18 -15 4 -4 12 6 22 13 22 15 0 8 -5 6 -26
-11z"/>
<path d="M8711 16842 c-41 -31 -96 -76 -123 -100 -28 -24 -54 -40 -61 -36 -7
4 -9 4 -5 -1 9 -9 -9 -35 -24 -35 -6 0 -4 8 3 18 11 14 10 14 -8 -2 -13 -10
-21 -22 -18 -26 2 -4 -9 -20 -25 -35 -16 -15 -27 -32 -25 -36 3 -4 -15 -24
-40 -44 -25 -21 -45 -42 -45 -47 0 -12 23 6 150 117 56 50 106 89 110 88 12
-3 91 68 85 77 -2 4 20 31 51 60 30 29 54 54 52 56 -2 2 -37 -22 -77 -54z
m-31 -65 c0 -2 -19 -18 -42 -36 l-43 -32 39 35 c37 34 46 40 46 33z m-210
-150 c0 -2 -10 -12 -22 -23 l-23 -19 19 23 c18 21 26 27 26 19z"/>
<path d="M8386 16753 c-6 -14 -5 -15 5 -6 7 7 10 15 7 18 -3 3 -9 -2 -12 -12z"/>
<path d="M9303 16526 c-29 -7 -56 -10 -59 -7 -4 3 -5 -1 -1 -10 4 -13 1 -16
-14 -12 -10 3 -19 0 -19 -6 0 -6 -7 -11 -16 -11 -8 0 -13 -4 -10 -9 3 -5 -1
-14 -9 -21 -9 -8 -13 -26 -11 -55 3 -47 39 -89 101 -122 34 -18 96 -21 128 -5
12 5 30 13 39 16 11 3 15 11 12 21 -4 9 1 22 12 30 26 20 0 19 -31 -1 -27 -17
-106 -16 -112 3 -2 6 9 15 24 20 28 10 28 10 5 17 -22 7 -22 8 -5 22 16 12 15
13 -19 14 -21 0 -38 3 -38 8 0 4 23 21 50 38 36 23 66 34 112 39 45 4 59 3 48
-4 -13 -9 -13 -11 3 -11 25 0 21 15 -9 39 -31 24 -98 27 -181 7z"/>
<path d="M8875 16520 c-11 -4 -58 -6 -105 -4 -48 1 -90 -2 -97 -8 -7 -6 -13
-7 -13 -4 0 4 -15 -4 -33 -18 -27 -21 -33 -31 -29 -55 3 -23 -1 -30 -17 -36
-43 -13 -13 -79 42 -90 17 -4 44 -21 58 -37 35 -38 111 -48 190 -25 30 8 76
21 104 29 58 16 75 40 75 108 0 42 -3 47 -35 64 -19 11 -35 26 -35 34 0 9 -3
13 -6 9 -3 -3 -14 2 -25 11 -11 9 -23 17 -27 17 -4 0 -11 3 -17 6 -5 4 -19 3
-30 -1z m-42 -157 c-7 -2 -21 -2 -30 0 -10 3 -4 5 12 5 17 0 24 -2 18 -5z m4
-48 c-18 -13 -65 -8 -50 5 9 9 55 18 63 12 3 -2 -3 -10 -13 -17z"/>
<path d="M9177 16062 c-23 -25 -21 -31 6 -25 43 11 65 43 29 43 -11 0 -26 -8
-35 -18z"/>
<path d="M10347 16051 c-3 -11 -2 -22 1 -25 3 -3 731 -6 1619 -6 l1613 0 0 25
0 25 -1614 0 c-1589 0 -1614 0 -1619 -19z"/>
<path d="M8411 15835 c0 -5 8 -26 19 -45 11 -19 19 -30 19 -25 0 6 -8 26 -19
45 -11 19 -19 31 -19 25z"/>
<path d="M9492 15797 c-13 -24 -52 -76 -88 -115 -56 -61 -66 -78 -74 -124 -22
-136 -60 -245 -101 -294 -14 -18 -10 -18 33 0 46 20 54 31 73 102 8 32 20 75
27 94 l11 35 9 -30 c4 -16 11 -61 13 -100 9 -120 15 -157 35 -245 25 -105 31
-152 19 -144 -11 7 0 -27 16 -46 7 -8 23 -35 36 -60 21 -41 23 -59 25 -203 1
-87 4 -161 8 -164 7 -8 64 -8 71 -1 7 6 7 93 1 133 -2 17 -7 71 -11 120 -11
168 -16 200 -31 222 -17 27 -12 29 22 7 29 -20 40 -14 25 14 -6 10 -13 33 -16
50 -3 17 -20 53 -37 79 -37 54 -91 164 -84 170 2 3 32 -28 65 -69 42 -50 66
-90 77 -126 9 -29 22 -56 30 -59 8 -3 30 -27 50 -54 20 -27 40 -47 45 -43 29
18 -17 121 -128 282 -34 51 -63 95 -63 97 0 9 36 -10 64 -32 16 -13 42 -27 58
-30 16 -3 36 -15 43 -27 13 -19 31 -23 87 -17 4 1 3 11 -1 24 -5 12 -14 21
-20 19 -7 -1 -22 19 -34 45 -12 27 -30 59 -40 73 l-19 25 7 -25 c6 -24 5 -24
-10 -6 -8 11 -13 28 -10 37 3 10 -3 35 -14 57 -11 21 -23 63 -27 91 -8 61 -24
49 -18 -13 3 -33 2 -36 -5 -16 -5 14 -9 38 -10 53 -1 16 -5 26 -10 23 -10 -6
-36 29 -44 59 -4 17 -5 17 -6 -3 -1 -15 -5 -21 -12 -16 -8 4 -10 30 -7 73 3
36 2 78 -1 94 -6 27 -6 27 -29 -16z m266 -562 c-3 -3 -9 2 -12 12 -6 14 -5 15
5 6 7 -7 10 -15 7 -18z"/>
<path d="M10350 15720 c0 -20 7 -20 1615 -20 1608 0 1615 0 1615 20 0 20 -7
20 -1615 20 -1608 0 -1615 0 -1615 -20z"/>
<path d="M8186 15532 c-10 -24 -11 -31 -3 -19 8 9 19 17 26 17 13 0 15 26 3
34 -5 3 -16 -12 -26 -32z"/>
<path d="M10350 15405 l0 -25 1615 0 1615 0 0 25 0 25 -1615 0 -1615 0 0 -25z"/>
<path d="M8262 15361 c-46 -37 -60 -42 -175 -63 l-124 -22 34 -19 c19 -10 40
-16 46 -14 7 3 1 10 -13 16 -20 8 -11 9 45 6 39 -2 77 -4 86 -5 9 0 16 -7 15
-17 0 -10 10 -19 28 -24 39 -11 47 -4 42 38 -3 30 3 44 40 89 24 30 40 54 35
54 -5 0 -32 -18 -59 -39z"/>
<path d="M8075 15340 c-8 -13 5 -13 25 0 13 8 13 10 -2 10 -9 0 -20 -4 -23
-10z"/>
<path d="M9155 15198 c-4 -18 -5 -56 -3 -83 3 -49 3 -48 13 28 11 76 2 120
-10 55z"/>
<path d="M9187 15217 c-4 -10 -7 -42 -6 -70 l1 -52 9 44 c9 48 19 65 19 35 0
-16 2 -17 10 -4 8 13 10 12 10 -4 0 -12 -5 -16 -15 -12 -12 4 -15 -3 -14 -32
2 -30 3 -32 6 -9 2 15 9 25 14 22 5 -4 12 7 15 24 4 17 10 28 15 25 5 -3 6 2
3 10 -3 9 -10 14 -14 11 -5 -3 -11 1 -13 7 -4 10 -8 10 -15 -1 -8 -11 -11 -10
-14 5 -3 18 -4 18 -11 1z"/>
<path d="M9122 15140 c0 -96 14 -100 16 -5 1 37 5 71 8 76 3 5 -1 9 -9 9 -12
0 -15 -16 -15 -80z"/>
<path d="M9183 15055 c0 -22 2 -30 4 -17 2 12 2 30 0 40 -3 9 -5 -1 -4 -23z"/>
<path d="M9241 15044 c0 -11 3 -14 6 -6 3 7 2 16 -1 19 -3 4 -6 -2 -5 -13z"/>
<path d="M9096 15000 c8 -56 14 -64 14 -19 0 19 -5 41 -10 49 -7 10 -8 1 -4
-30z"/>
<path d="M9132 15000 c0 -14 2 -19 5 -12 2 6 2 18 0 25 -3 6 -5 1 -5 -13z"/>
<path d="M9182 14980 c0 -14 2 -19 5 -12 2 6 2 18 0 25 -3 6 -5 1 -5 -13z"/>
<path d="M9162 14960 c0 -19 2 -27 5 -17 2 9 2 25 0 35 -3 9 -5 1 -5 -18z"/>
<path d="M9073 14920 c0 -30 2 -43 4 -27 2 15 2 39 0 55 -2 15 -4 2 -4 -28z"/>
<path d="M8851 14924 c0 -11 3 -14 6 -6 3 7 2 16 -1 19 -3 4 -6 -2 -5 -13z"/>
<path d="M9765 14920 c3 -5 11 -10 16 -10 6 0 7 5 4 10 -3 6 -11 10 -16 10 -6
0 -7 -4 -4 -10z"/>
<path d="M9027 14889 c-3 -12 -2 -31 2 -42 6 -17 8 -12 8 21 0 47 -2 52 -10
21z"/>
<path d="M8950 14843 c0 -25 2 -44 4 -42 8 10 13 89 5 89 -5 0 -9 -21 -9 -47z"/>
<path d="M8265 14860 c3 -5 8 -10 11 -10 2 0 4 5 4 10 0 6 -5 10 -11 10 -5 0
-7 -4 -4 -10z"/>
<path d="M8220 14796 c0 -2 7 -9 15 -16 9 -7 15 -8 15 -2 0 5 -7 12 -15 16 -8
3 -15 4 -15 2z"/>
<path d="M8986 14745 c4 -8 13 -15 21 -15 12 0 12 2 -1 15 -8 8 -17 15 -20 15
-3 0 -3 -7 0 -15z"/>
<path d="M10533 14694 c-7 -3 -83 -18 -170 -33 -145 -25 -158 -29 -161 -49 -3
-18 2 -22 22 -22 13 0 37 -5 53 -11 39 -15 82 -4 122 31 19 17 46 33 60 36 14
3 31 7 38 9 20 6 23 -8 11 -54 -8 -33 -8 -45 2 -54 10 -9 11 -9 6 1 -4 6 -3
12 2 12 5 0 7 11 4 26 -3 16 2 33 16 47 26 29 38 67 20 66 -7 0 -18 -3 -25 -5z"/>
<path d="M10010 14668 c0 -7 11 -23 25 -38 32 -34 20 -60 -17 -36 -25 16 -26
16 -62 -29 -33 -40 -35 -45 -17 -45 12 0 21 4 21 9 0 5 30 14 68 21 37 7 77
17 90 21 40 15 22 69 -23 69 -12 0 -30 9 -40 20 -20 22 -45 27 -45 8z"/>
<path d="M8110 14496 c0 -7 11 -21 24 -29 20 -14 25 -14 29 -2 3 7 -5 20 -18
29 -30 20 -35 20 -35 2z"/>
<path d="M9901 14370 c-76 -11 -91 -30 -98 -122 -5 -72 -5 -76 18 -88 27 -15
215 -15 253 0 34 13 45 37 52 118 6 65 5 70 -17 86 -25 17 -110 20 -208 6z"/>
<path d="M8806 14245 c3 -16 14 -48 24 -70 10 -22 20 -49 23 -60 3 -11 4 13 2
54 -2 43 -9 77 -16 81 -6 4 -9 12 -5 18 4 6 -2 10 -14 9 -18 -1 -20 -6 -14
-32z"/>
<path d="M8881 14134 c1 -16 5 -40 9 -54 6 -19 7 -13 6 23 -3 51 -17 80 -15
31z"/>
<path d="M9255 14140 c-4 -6 -6 -20 -4 -33 3 -43 -13 -89 -37 -99 -13 -6 -24
-20 -24 -30 0 -11 -12 -36 -27 -55 l-28 -36 70 6 c64 6 72 10 102 44 30 34 33
42 33 103 0 38 -5 73 -12 82 -16 20 -65 32 -73 18z"/>
<path d="M8350 14120 c0 -5 9 -10 21 -10 11 0 17 5 14 10 -3 6 -13 10 -21 10
-8 0 -14 -4 -14 -10z"/>
<path d="M9778 14115 c-3 -3 -27 -12 -54 -19 -91 -26 -279 -98 -294 -112 -24
-24 28 -17 89 11 29 14 82 32 118 40 35 8 81 26 101 40 20 14 45 25 55 25 10
0 15 5 12 10 -7 11 -19 13 -27 5z"/>
<path d="M9999 14044 c-22 -27 -77 -46 -111 -39 -24 6 -35 2 -59 -21 -26 -25
-32 -27 -51 -15 -22 14 -34 7 -40 -23 -4 -25 -119 -93 -171 -102 -24 -4 -43
-2 -50 5 -18 18 -37 12 -37 -12 0 -35 -19 -47 -76 -47 -35 0 -56 -5 -65 -16
-16 -19 -83 -54 -104 -54 -8 0 -15 -3 -15 -7 1 -21 20 -31 73 -36 76 -7 139
12 245 74 105 62 197 108 287 144 40 16 88 44 113 67 26 24 49 37 58 34 9 -3
12 -1 9 4 -3 6 -2 10 3 10 14 0 24 32 14 42 -5 5 -15 2 -23 -8z"/>
<path d="M8975 14000 c-3 -5 -1 -10 4 -10 6 0 11 5 11 10 0 6 -2 10 -4 10 -3
0 -8 -4 -11 -10z"/>
<path d="M9021 13924 c0 -11 3 -14 6 -6 3 7 2 16 -1 19 -3 4 -6 -2 -5 -13z"/>
<path d="M8982 13880 c0 -14 2 -19 5 -12 2 6 2 18 0 25 -3 6 -5 1 -5 -13z"/>
<path d="M9900 13881 c0 -5 5 -13 10 -16 6 -3 10 -2 10 4 0 5 -4 13 -10 16 -5
3 -10 2 -10 -4z"/>
<path d="M19360 15990 c0 -5 5 -10 10 -10 6 0 10 5 10 10 0 6 -4 10 -10 10 -5
0 -10 -4 -10 -10z"/>
<path d="M19305 15770 c-3 -5 -1 -10 4 -10 6 0 11 5 11 10 0 6 -2 10 -4 10 -3
0 -8 -4 -11 -10z"/>
<path d="M19255 15750 c-3 -5 -1 -10 4 -10 6 0 11 5 11 10 0 6 -2 10 -4 10 -3
0 -8 -4 -11 -10z"/>
<path d="M19300 15720 c-9 -6 -10 -10 -3 -10 6 0 15 5 18 10 8 12 4 12 -15 0z"/>
<path d="M18285 15404 c-62 -78 -105 -138 -101 -142 3 -2 49 -1 104 3 90 7
101 10 106 28 4 15 -3 28 -26 47 -18 15 -36 44 -42 64 l-11 38 -30 -38z"/>
<path d="M18436 15401 c-8 -13 20 -38 54 -49 201 -65 259 -75 189 -33 -19 11
-40 25 -47 31 -31 28 -186 68 -196 51z"/>
<path d="M18160 15325 c-13 -14 -19 -25 -13 -25 6 0 18 11 27 25 9 14 15 25
13 25 -2 0 -14 -11 -27 -25z"/>
<path d="M18644 15269 c-2 -3 -23 -10 -46 -14 l-43 -7 47 -19 c26 -10 66 -30
88 -44 39 -24 41 -25 59 -8 22 21 13 59 -16 70 -10 4 -21 11 -25 16 -7 12 -57
16 -64 6z"/>
<path d="M18093 15205 c-3 -9 -3 -18 -1 -21 3 -3 8 4 11 16 6 23 -1 27 -10 5z"/>
<path d="M18575 15212 c-3 -3 16 -16 42 -29 26 -12 58 -30 71 -39 16 -12 21
-13 17 -3 -12 28 -116 85 -130 71z"/>
<path d="M18271 15200 c-18 -4 -37 -14 -42 -22 -5 -7 -7 -45 -4 -85 4 -76 25
-129 76 -195 27 -34 115 -95 125 -86 2 3 -6 38 -17 79 -13 45 -24 121 -28 194
l-6 120 -35 2 c-19 1 -50 -2 -69 -7z"/>
<path d="M18445 15185 c2 -18 -2 -25 -13 -25 -10 -1 1 -7 22 -15 22 -8 43 -12
47 -9 12 7 38 -7 35 -19 -1 -7 -1 -9 1 -4 8 14 33 7 33 -9 0 -10 6 -14 15 -10
8 3 15 1 15 -4 0 -6 7 -10 16 -10 8 0 13 4 9 9 -3 6 4 8 15 6 12 -2 24 3 30
15 8 15 5 22 -18 38 -34 24 -68 35 -106 34 -16 0 -42 6 -57 14 -39 20 -47 18
-44 -11z"/>
<path d="M18110 15186 c0 -2 7 -6 15 -10 8 -3 15 -1 15 4 0 6 -7 10 -15 10 -8
0 -15 -2 -15 -4z"/>
<path d="M18750 15022 c0 -5 7 -9 15 -9 8 0 15 4 15 9 0 4 -7 8 -15 8 -8 0
-15 -4 -15 -8z"/>
<path d="M18390 14780 c19 -11 40 -19 45 -19 6 0 -6 8 -25 19 -19 11 -39 19
-45 19 -5 0 6 -8 25 -19z"/>
<path d="M19035 14290 c-17 -7 -14 -9 13 -9 20 -1 31 3 27 9 -7 12 -13 12 -40
0z"/>
<path d="M18870 14058 c0 -32 -15 -105 -36 -178 -20 -69 -40 -141 -45 -160
-12 -50 7 -339 27 -413 19 -70 24 -79 41 -69 14 9 16 54 10 230 -5 116 -3 136
11 151 51 54 50 51 57 248 l7 188 -36 28 -36 28 0 -53z"/>
<path d="M21067 13863 c-15 -15 -6 -52 17 -67 23 -15 25 -14 34 14 9 25 8 31
-13 44 -28 18 -29 19 -38 9z"/>
<path d="M21232 13788 c-7 -7 -12 -24 -12 -38 0 -14 -4 -30 -10 -36 -5 -5 -12
-32 -16 -59 -3 -28 -17 -96 -31 -153 -23 -97 -24 -108 -14 -222 6 -65 11 -148
11 -185 l0 -66 24 18 c14 11 27 34 32 58 10 51 9 173 -1 251 -9 75 5 145 47
226 31 60 37 97 24 160 -8 42 -35 65 -54 46z"/>
<path d="M17764 13745 c-3 -19 -9 -35 -13 -36 -3 0 -19 -2 -36 -3 -16 -2 -48
-10 -70 -20 -84 -35 -514 -251 -515 -259 0 -4 10 -21 22 -37 18 -24 24 -27 37
-18 13 10 14 10 4 -2 -16 -17 -17 -34 -2 -24 8 4 9 0 4 -15 -4 -12 -2 -21 4
-21 6 0 11 -7 11 -15 0 -8 4 -15 9 -15 4 0 6 -11 4 -24 -4 -18 -10 -23 -22
-18 -13 5 -14 3 -4 -9 6 -8 13 -18 15 -24 1 -5 6 -9 9 -8 5 2 5 -16 0 -51 0
-4 -8 -6 -16 -2 -8 3 -15 1 -15 -4 0 -5 -8 -7 -17 -3 -10 3 -15 3 -12 -1 12
-14 52 -15 70 -2 10 7 16 16 12 19 -3 4 -1 7 5 7 7 0 12 -5 12 -12 0 -6 10 -2
23 10 13 12 36 22 51 22 19 0 25 4 20 13 -6 10 -4 10 7 0 7 -7 19 -13 26 -13
14 0 73 37 84 54 4 4 9 3 13 -2 6 -10 72 16 146 58 14 8 30 15 35 15 14 1 50
17 158 69 97 46 123 47 134 5 3 -10 9 -19 14 -19 15 0 10 -84 -6 -107 -8 -12
-39 -29 -68 -38 -28 -9 -65 -26 -81 -37 -16 -12 -26 -16 -22 -9 10 15 0 14
-17 -3 -8 -8 -43 -28 -78 -45 -35 -16 -83 -41 -106 -55 -24 -14 -43 -22 -43
-18 0 4 -4 2 -8 -3 -4 -6 -32 -23 -62 -39 -94 -49 -100 -53 -93 -60 4 -3 -2
-12 -12 -20 -20 -15 -29 -60 -10 -53 6 3 11 -5 11 -18 0 -13 -4 -21 -8 -19 -4
3 -3 -7 2 -22 7 -19 7 -30 -1 -40 -9 -11 -6 -14 17 -15 16 0 45 -6 64 -13 33
-12 33 -13 13 -20 -38 -12 -53 -35 -53 -80 0 -62 -24 -86 -124 -125 -119 -46
-144 -87 -70 -111 18 -6 37 -16 40 -22 4 -7 2 -8 -4 -4 -7 4 -12 2 -12 -3 0
-6 8 -11 18 -11 10 0 22 -4 28 -9 5 -5 34 -12 64 -15 43 -5 62 -3 90 12 160
85 257 132 272 132 7 0 -4 -17 -24 -37 -41 -45 -67 -115 -57 -161 5 -24 3 -32
-7 -32 -8 0 -14 -6 -14 -14 0 -15 -32 -39 -98 -72 -34 -18 -83 -29 -154 -34
-3 0 -15 -16 -26 -35 -13 -20 -36 -41 -59 -50 -35 -15 -37 -17 -18 -28 11 -6
78 -12 155 -14 74 -1 145 -5 157 -8 22 -5 22 -6 6 -25 -10 -11 -21 -20 -26
-20 -5 0 -31 -10 -58 -21 -34 -15 -48 -26 -45 -36 3 -8 -3 -17 -16 -22 -20 -7
-19 -9 14 -29 29 -18 45 -21 90 -16 51 6 55 5 66 -21 7 -14 12 -30 12 -35 0
-18 -46 -58 -70 -62 -23 -3 -25 -7 -23 -50 2 -26 -2 -50 -7 -53 -6 -3 -10 -14
-10 -24 0 -18 -39 -61 -56 -61 -6 0 -21 12 -35 28 -30 33 -134 207 -144 242
-4 14 -16 40 -25 58 l-18 33 2 -41 c1 -23 7 -44 13 -48 6 -4 25 -36 43 -72 48
-96 115 -196 144 -215 24 -16 24 -16 7 -48 -10 -18 -29 -65 -42 -105 -19 -62
-21 -75 -9 -82 10 -6 20 2 37 33 13 23 27 48 31 56 4 8 16 15 25 17 22 3 22
-24 0 -56 -10 -14 -17 -27 -15 -30 4 -10 -11 -45 -22 -52 -6 -4 -11 -11 -11
-15 -1 -4 -6 -18 -13 -29 -6 -12 -9 -24 -5 -27 3 -3 2 -14 -2 -24 -5 -10 -9
-22 -10 -28 -3 -22 -18 -71 -25 -80 -13 -19 -19 -57 -11 -79 5 -11 5 -30 1
-41 -4 -11 -3 -26 2 -32 8 -9 6 -13 -5 -13 -10 0 -17 -15 -21 -53 -4 -29 -10
-58 -15 -65 -4 -7 -4 -35 -1 -63 4 -27 3 -52 -2 -55 -15 -10 -8 -23 10 -17 14
6 15 4 5 -8 -10 -12 -10 -18 0 -28 9 -10 8 -15 -5 -25 -11 -8 -14 -17 -7 -27
7 -11 9 -10 10 6 0 19 1 18 11 -2 7 -14 20 -23 34 -23 12 0 30 -7 38 -16 12
-12 16 -12 16 -2 0 8 4 7 11 -4 5 -10 17 -18 24 -18 9 0 15 -9 15 -22 0 -17 3
-19 12 -10 18 18 28 15 21 -5 -6 -15 -4 -16 8 -6 12 10 15 8 16 -7 1 -11 -3
-17 -11 -14 -7 3 -13 -2 -13 -11 0 -9 6 -14 13 -11 10 4 10 -3 -1 -34 -30 -85
-80 -151 -129 -168 -47 -17 -147 -75 -116 -68 14 4 57 9 95 12 68 6 71 8 120
58 28 28 77 77 110 107 61 58 78 81 114 157 11 23 27 45 35 48 11 4 14 14 10
29 -3 13 -1 26 4 29 17 11 24 -43 7 -60 -8 -9 -15 -30 -15 -48 0 -33 -82 -215
-103 -228 -6 -4 -9 -10 -5 -13 4 -4 20 13 37 37 58 84 72 98 114 110 50 14 57
22 57 69 0 35 45 139 60 139 4 0 10 13 13 29 5 22 19 37 54 57 54 31 93 67 93
86 0 7 -19 32 -41 56 l-41 43 22 70 c17 52 20 75 13 92 -10 22 -10 21 -25 -8
-8 -17 -18 -69 -22 -116 -7 -107 -29 -180 -72 -241 -19 -26 -40 -63 -48 -83
-8 -19 -20 -35 -25 -35 -17 0 -13 66 4 80 14 11 14 15 1 29 -22 24 -46 96 -56
166 -4 33 -19 91 -33 128 -22 60 -25 87 -26 207 -1 77 3 187 9 245 7 59 10
109 7 111 -3 3 -22 -6 -42 -21 -41 -27 -70 -32 -81 -13 -4 7 -3 8 4 4 7 -4 12
-3 12 3 0 6 6 8 13 5 22 -8 100 76 85 91 -8 8 -48 -8 -48 -19 -1 -15 -29 -51
-35 -44 -3 3 3 21 14 39 23 40 72 72 95 63 20 -8 21 -20 1 -28 -8 -3 -15 -11
-15 -17 0 -7 8 -5 20 6 16 15 20 31 20 90 0 67 2 74 39 124 21 28 44 65 51 81
7 17 36 45 68 66 30 20 81 62 114 92 32 31 68 62 79 70 29 20 69 109 69 153 0
56 54 119 132 154 70 31 122 64 114 73 -4 3 0 15 7 26 28 45 14 121 -38 206
-12 19 -48 85 -80 145 -32 61 -109 197 -172 303 -63 105 -127 218 -144 250
-38 74 -94 166 -145 239 -22 32 -51 77 -64 100 -31 56 -48 61 -56 18z m37
-129 c5 3 9 2 8 -3 -3 -12 12 -44 30 -65 18 -21 23 -48 9 -48 -6 0 -8 7 -4 15
3 9 0 15 -9 15 -8 0 -15 7 -15 15 0 8 -4 15 -10 15 -5 0 -10 9 -10 20 0 11 -7
23 -15 26 -8 4 -12 11 -8 17 5 8 8 7 11 -1 2 -7 8 -10 13 -6z m-551 -361 c-7
-9 -15 -13 -19 -10 -3 3 1 10 9 15 21 14 24 12 10 -5z m360 -540 c0 -21 -47
-64 -77 -71 -51 -13 -72 45 -25 70 37 21 102 21 102 1z m204 -237 c-43 -52
-80 -87 -91 -88 -21 0 -24 19 -8 49 19 39 52 61 89 61 29 0 29 0 10 -22z m196
-177 c0 -10 -84 -62 -104 -65 -23 -3 -116 -76 -116 -90 0 -8 -7 -17 -16 -20
-19 -7 -94 -8 -94 -1 0 17 82 75 125 89 27 8 84 34 125 56 85 45 80 43 80 31z
m-350 -760 c0 -5 -7 -14 -15 -21 -12 -10 -15 -10 -15 2 0 8 3 18 7 21 9 10 23
9 23 -2z m135 -931 c3 -5 1 -10 -4 -10 -6 0 -11 5 -11 10 0 6 2 10 4 10 3 0 8
-4 11 -10z"/>
<path d="M21400 13722 c0 -4 5 -13 11 -19 6 -6 9 -38 7 -77 -1 -36 0 -66 3
-66 4 0 9 -10 12 -22 6 -22 6 -22 28 -2 11 10 30 36 40 56 l19 37 -52 51 c-51
48 -68 59 -68 42z"/>
<path d="M19380 13619 c-11 -8 -12 -12 -2 -16 21 -8 42 -34 36 -44 -3 -6 -1
-15 4 -22 6 -7 15 -39 21 -71 11 -59 50 -126 74 -126 31 1 35 12 29 90 -2 24
-25 60 -64 102 -10 10 -18 25 -18 33 0 8 -7 15 -15 15 -9 0 -12 6 -9 15 4 9 0
15 -10 15 -9 0 -16 5 -16 10 0 13 -11 12 -30 -1z"/>
<path d="M20030 13375 c-10 -12 -10 -15 4 -15 9 0 16 7 16 15 0 8 -2 15 -4 15
-2 0 -9 -7 -16 -15z"/>
<path d="M20085 13270 c-3 -5 1 -10 9 -10 9 0 16 5 16 10 0 6 -4 10 -9 10 -6
0 -13 -4 -16 -10z"/>
<path d="M20781 13264 c0 -11 3 -14 6 -6 3 7 2 16 -1 19 -3 4 -6 -2 -5 -13z"/>
<path d="M20792 13210 c0 -14 2 -19 5 -12 2 6 2 18 0 25 -3 6 -5 1 -5 -13z"/>
<path d="M20100 13210 c0 -5 5 -10 11 -10 5 0 7 5 4 10 -3 6 -8 10 -11 10 -2
0 -4 -4 -4 -10z"/>
<path d="M20205 13190 c-3 -5 -1 -10 4 -10 6 0 11 5 11 10 0 6 -2 10 -4 10 -3
0 -8 -4 -11 -10z"/>
<path d="M18875 13155 c49 -115 68 -194 68 -285 1 -97 -8 -135 -49 -225 -36
-79 -94 -218 -94 -225 0 -6 54 -40 65 -40 3 0 3 5 0 10 -3 6 11 45 33 88 22
42 44 100 50 127 6 28 22 86 36 130 15 44 26 98 26 120 0 48 -37 116 -51 94
-6 -10 -9 -6 -10 16 -1 17 -1 35 0 42 1 6 -3 14 -9 18 -5 3 -10 17 -10 30 0
13 -4 26 -9 30 -5 3 -12 18 -16 34 -3 16 -14 36 -23 43 -14 11 -15 11 -7 -7z"/>
<path d="M21391 13122 c0 -7 -5 -11 -10 -8 -5 3 -21 -18 -36 -47 -51 -99 -81
-149 -105 -176 l-24 -26 -8 40 c-5 22 -8 64 -6 93 3 57 -6 70 -16 21 -3 -17
-10 -28 -16 -24 -7 5 -11 -59 -10 -202 0 -114 -4 -237 -10 -273 -6 -36 -17
-126 -25 -200 -8 -74 -19 -171 -25 -215 -12 -88 -3 -395 11 -395 5 0 9 -6 9
-13 0 -17 171 -157 192 -157 4 0 0 16 -8 35 -16 40 -7 133 26 244 10 36 24
113 29 171 6 58 15 132 20 165 5 33 12 103 16 155 4 52 10 101 15 110 8 15 13
53 11 80 -1 8 -24 -31 -52 -87 -29 -61 -56 -103 -64 -103 -11 0 -13 5 -6 18 4
9 13 31 18 47 6 17 14 38 18 48 5 12 3 17 -8 17 -12 0 -14 16 -12 93 3 90 13
196 21 208 2 4 10 53 19 110 8 57 22 137 31 177 8 40 13 80 11 90 -3 9 -5 11
-6 4z m-201 -492 c0 -5 -5 -10 -11 -10 -5 0 -7 5 -4 10 3 6 8 10 11 10 2 0 4
-4 4 -10z m102 -352 c-7 -7 -12 -8 -12 -2 0 14 12 26 19 19 2 -3 -1 -11 -7
-17z m-21 -51 c-10 -9 -11 -8 -5 6 3 10 9 15 12 12 3 -3 0 -11 -7 -18z m-44
-309 c-3 -8 -6 -5 -6 6 -1 11 2 17 5 13 3 -3 4 -12 1 -19z m43 -159 c0 -5 -4
-9 -10 -9 -5 0 -10 7 -10 16 0 8 5 12 10 9 6 -3 10 -10 10 -16z m10 -58 c0
-43 -17 -47 -22 -6 -3 24 0 35 9 35 8 0 13 -12 13 -29z"/>
<path d="M18390 12799 c7 -11 14 -19 16 -16 7 7 -7 37 -17 37 -6 0 -5 -9 1
-21z"/>
<path d="M21733 12590 c-13 -10 -23 -24 -23 -32 0 -8 -5 -19 -12 -26 -7 -7 -8
-12 -3 -12 4 0 0 -9 -10 -20 -26 -29 -22 -67 12 -103 17 -18 33 -43 37 -57 6
-26 69 -77 74 -61 5 15 -38 315 -46 323 -4 4 -17 -2 -29 -12z"/>
<path d="M19384 12281 c5 -7 -7 -9 -38 -5 -34 4 -46 2 -46 -8 0 -18 -53 -40
-76 -32 -15 4 -16 4 -5 -4 11 -8 10 -11 -5 -14 -13 -3 -6 -8 24 -17 65 -18
216 -39 225 -31 11 10 -1 52 -13 45 -4 -3 -12 14 -16 37 -4 24 -9 37 -11 31
-4 -10 -10 -10 -25 -2 -15 8 -18 8 -14 0z"/>
<path d="M18744 12250 c-27 -10 -38 -38 -23 -56 17 -21 38 -17 50 10 15 32 1
56 -27 46z"/>
<path d="M19150 12239 c0 -5 5 -7 10 -4 6 3 10 8 10 11 0 2 -4 4 -10 4 -5 0
-10 -5 -10 -11z"/>
<path d="M21708 12106 c-42 -56 -93 -129 -113 -162 -21 -32 -51 -79 -66 -103
-16 -25 -29 -55 -29 -68 0 -40 -48 -221 -66 -248 -28 -43 -39 -25 -37 61 l3
79 -14 -60 c-8 -33 -17 -72 -21 -86 -5 -21 -1 -31 26 -53 32 -27 32 -28 16
-56 -23 -38 -21 -42 9 -28 22 10 25 17 23 52 -2 39 1 55 22 101 5 11 21 49 37
85 40 95 77 161 109 197 36 41 115 83 142 76 14 -3 23 0 27 11 3 9 10 16 14
16 22 0 79 47 79 65 1 57 -57 226 -77 225 -4 0 -41 -47 -84 -104z"/>
<path d="M18713 12157 c-4 -8 -15 -16 -24 -19 -9 -4 -20 -23 -24 -45 -4 -21
-12 -41 -18 -45 -6 -3 -12 -17 -14 -30 -2 -13 -8 -25 -13 -26 -6 -2 -8 -8 -4
-13 3 -5 0 -9 -6 -9 -6 0 -8 -5 -5 -11 4 -5 0 -18 -8 -27 -21 -24 -26 -44 -16
-64 6 -12 5 -20 -5 -25 -8 -4 -24 -50 -36 -102 -13 -52 -29 -109 -36 -127 -45
-107 -59 -463 -29 -749 8 -82 18 -190 22 -240 5 -85 7 -90 29 -91 23 -2 40 24
83 129 7 19 26 34 57 47 l46 20 -17 26 c-9 14 -15 40 -14 59 2 19 1 37 -2 40
-9 8 17 79 30 83 15 5 14 35 -1 50 -9 9 -8 12 5 12 16 0 16 3 3 35 -13 31 -13
36 2 45 11 6 13 12 6 17 -5 5 -10 32 -10 62 0 33 -5 56 -12 59 -7 2 -12 8 -12
14 0 6 7 8 15 4 19 -7 19 -1 -2 31 -10 15 -13 24 -6 20 22 -14 25 14 3 31 -21
17 -21 19 -4 32 13 12 18 12 21 3 7 -20 23 -15 23 6 0 11 -10 27 -22 35 -18
13 -19 16 -5 16 16 0 16 2 -1 38 -9 20 -21 39 -25 40 -4 2 -3 10 4 18 9 11 6
19 -17 39 -28 24 -28 24 -8 46 18 21 18 22 0 16 -16 -6 -17 -4 -12 19 4 14 2
31 -3 38 -9 11 -11 136 -1 136 3 0 6 26 8 58 6 142 41 278 77 304 6 5 6 8 -2
8 -7 0 -16 -6 -20 -13z"/>
<path d="M17315 12140 c3 -5 8 -10 11 -10 2 0 4 5 4 10 0 6 -5 10 -11 10 -5 0
-7 -4 -4 -10z"/>
<path d="M22410 11721 c0 -6 5 -13 10 -16 6 -3 10 1 10 9 0 9 -4 16 -10 16 -5
0 -10 -4 -10 -9z"/>
<path d="M21401 11694 c0 -11 3 -14 6 -6 3 7 2 16 -1 19 -3 4 -6 -2 -5 -13z"/>
<path d="M21640 11445 c-6 -8 -22 -17 -33 -21 -12 -4 -32 -17 -44 -30 -12 -13
-32 -24 -43 -24 -13 0 -24 -8 -27 -20 -4 -16 -11 -19 -32 -14 l-26 6 23 -16
c28 -22 28 -32 -3 -60 l-25 -24 36 -7 c29 -5 41 -2 59 15 31 29 40 10 13 -26
-12 -16 -22 -30 -23 -32 -1 -1 -18 5 -38 13 -56 23 -76 19 -127 -27 -26 -24
-66 -58 -89 -76 -23 -19 -54 -53 -68 -75 -14 -23 -30 -45 -34 -48 -11 -7 -119
-220 -139 -274 -8 -21 -29 -68 -46 -102 -19 -40 -26 -63 -18 -63 6 0 15 7 18
16 12 33 97 150 145 203 43 46 47 54 31 58 -60 16 85 248 177 284 45 17 33
-23 -14 -50 -15 -8 -14 -13 10 -50 15 -22 27 -45 27 -50 0 -21 30 -34 53 -23
12 6 16 11 10 11 -7 1 -13 8 -13 16 0 8 -9 15 -20 15 -11 0 -23 8 -27 18 -3 9
-13 25 -21 35 -20 23 -9 33 12 12 19 -20 51 -12 42 10 -8 21 15 31 26 11 9
-17 53 -22 62 -7 5 8 29 13 140 28 21 3 47 14 57 24 11 11 31 20 47 21 15 0
41 3 57 4 17 2 51 4 78 5 33 1 50 6 57 18 15 29 -2 38 -80 44 -86 7 -201 -12
-240 -41 -20 -15 -82 -42 -96 -42 -2 0 -4 5 -4 12 0 24 35 48 123 82 58 23
106 49 129 71 20 19 40 35 43 35 4 0 21 12 39 26 17 14 47 35 66 48 42 26 46
51 8 51 -14 -1 -24 3 -22 7 3 4 -2 8 -10 8 -9 0 -16 -4 -16 -10 0 -5 -11 -10
-25 -10 -13 0 -41 -11 -61 -25 -20 -14 -43 -25 -50 -25 -7 0 -17 -6 -21 -13
-12 -21 -94 -77 -112 -77 -9 0 -23 4 -31 10 -11 7 -7 15 23 42 59 53 65 58 82
58 8 0 15 5 15 10 0 6 7 10 15 10 8 0 15 9 15 20 0 24 -41 28 -60 5z m-216
-312 c-4 -16 -12 -34 -20 -42 -11 -12 -14 -10 -20 13 -7 28 9 56 32 56 11 0
13 -8 8 -27z"/>
<path d="M21311 11274 c-13 -17 -21 -41 -21 -65 0 -40 5 -45 29 -30 10 6 10
10 2 16 -9 5 -8 13 3 31 9 13 23 35 32 49 16 24 15 25 -4 25 -11 0 -30 -12
-41 -26z"/>
<path d="M21400 11249 c0 -5 5 -7 10 -4 6 3 10 8 10 11 0 2 -4 4 -10 4 -5 0
-10 -5 -10 -11z"/>
<path d="M21340 11220 c-8 -5 -12 -12 -9 -15 4 -3 12 1 19 10 14 17 11 19 -10
5z"/>
<path d="M17923 11128 c-15 -54 -15 -176 -1 -184 6 -4 8 -3 5 3 -3 5 -2 27 4
48 8 29 8 40 -3 46 -10 7 -9 9 5 9 9 0 17 5 17 10 0 6 11 16 25 22 14 6 25 15
25 19 0 9 -52 69 -60 69 -3 0 -11 -19 -17 -42z"/>
<path d="M21830 11081 c0 -11 26 -22 34 -14 3 3 3 10 0 14 -7 12 -34 11 -34 0z"/>
<path d="M21905 11077 c-16 -13 -16 -14 -1 -20 10 -4 19 -1 23 9 8 21 -1 26
-22 11z"/>
<path d="M21071 11005 c-64 -47 -74 -70 -43 -98 25 -22 28 -22 64 12 24 23 33
41 38 80 3 28 5 51 4 51 -1 0 -29 -20 -63 -45z"/>
<path d="M21267 10939 c-10 -11 -21 -18 -26 -15 -9 6 -35 -44 -26 -52 3 -3 -2
-14 -12 -24 -25 -28 3 -21 32 8 15 15 24 33 21 41 -4 11 -2 13 9 9 9 -3 19 3
26 15 15 30 -3 43 -24 18z"/>
<path d="M22180 10870 c0 -5 5 -10 11 -10 5 0 7 5 4 10 -3 6 -8 10 -11 10 -2
0 -4 -4 -4 -10z"/>
<path d="M16751 10844 c0 -11 3 -14 6 -6 3 7 2 16 -1 19 -3 4 -6 -2 -5 -13z"/>
<path d="M21745 10799 c-4 -6 -5 -13 -2 -16 7 -7 27 6 27 18 0 12 -17 12 -25
-2z"/>
<path d="M21225 10790 c-3 -5 1 -10 10 -10 9 0 13 5 10 10 -3 6 -8 10 -10 10
-2 0 -7 -4 -10 -10z"/>
<path d="M21705 10761 c-3 -5 -1 -12 5 -16 12 -7 30 2 30 16 0 12 -27 12 -35
0z"/>
<path d="M16774 10735 c2 -16 19 -75 36 -130 28 -90 31 -108 25 -181 l-7 -82
48 -33 c27 -18 71 -56 99 -83 28 -28 62 -60 76 -72 13 -11 32 -35 41 -53 17
-30 20 -32 55 -25 51 10 107 34 98 42 -4 4 -10 7 -13 8 -75 6 -126 42 -200
143 -31 42 -64 85 -74 96 -11 11 -30 42 -43 70 -65 136 -100 215 -122 270 -14
35 -22 48 -19 30z"/>
<path d="M21755 10740 c3 -5 8 -10 11 -10 2 0 4 5 4 10 0 6 -5 10 -11 10 -5 0
-7 -4 -4 -10z"/>
<path d="M21895 10721 c-11 -10 -4 -42 9 -47 8 -3 12 -12 9 -21 -3 -8 0 -19 8
-24 12 -8 12 -11 -1 -19 -10 -6 -11 -10 -2 -10 6 0 12 -5 12 -11 0 -17 32 -38
58 -39 12 0 22 -5 22 -11 0 -6 7 -3 16 6 20 20 13 28 -26 28 -16 0 -32 7 -35
15 -5 12 3 14 46 9 46 -6 50 -5 33 7 -10 8 -22 12 -25 10 -7 -4 -21 21 -24 41
-2 16 16 35 27 29 5 -4 8 4 6 16 -2 18 -11 24 -40 27 -29 3 -38 0 -38 -12 0
-8 7 -15 16 -15 8 0 12 -4 9 -10 -10 -17 -24 -11 -30 13 -5 20 -37 32 -50 18z"/>
<path d="M21663 10702 c-25 -4 -27 -10 -14 -30 8 -14 61 -7 61 8 0 14 -25 26
-47 22z"/>
<path d="M21790 10651 c0 -5 11 -11 25 -13 28 -6 34 6 9 16 -22 8 -34 7 -34
-3z"/>
<path d="M20930 10520 c0 -5 5 -10 10 -10 6 0 10 5 10 10 0 6 -4 10 -10 10 -5
0 -10 -4 -10 -10z"/>
<path d="M21608 10513 c7 -3 16 -2 19 1 4 3 -2 6 -13 5 -11 0 -14 -3 -6 -6z"/>
<path d="M18490 10493 c0 -10 -9 -37 -19 -60 l-19 -42 46 20 c51 22 75 39 67
47 -2 3 3 11 12 17 15 11 13 14 -22 24 -54 15 -65 14 -65 -6z"/>
<path d="M20955 10480 c-3 -5 1 -10 10 -10 9 0 13 5 10 10 -3 6 -8 10 -10 10
-2 0 -7 -4 -10 -10z"/>
<path d="M21680 10450 c0 -5 5 -10 11 -10 5 0 7 5 4 10 -3 6 -8 10 -11 10 -2
0 -4 -4 -4 -10z"/>
<path d="M20825 10321 c-7 -12 12 -24 25 -16 11 7 4 25 -10 25 -5 0 -11 -4
-15 -9z"/>
<path d="M20780 10251 c0 -5 5 -13 10 -16 6 -3 10 -2 10 4 0 5 -4 13 -10 16
-5 3 -10 2 -10 -4z"/>
<path d="M20875 10110 c3 -5 8 -10 11 -10 2 0 4 5 4 10 0 6 -5 10 -11 10 -5 0
-7 -4 -4 -10z"/>
<path d="M20625 10070 c-8 -13 3 -30 21 -30 18 0 18 14 0 29 -10 8 -16 9 -21
1z"/>
<path d="M20830 9925 c-9 -10 -9 -15 -1 -15 6 0 11 5 11 11 0 5 5 7 12 3 7 -4
8 -3 4 4 -9 15 -11 15 -26 -3z"/>
<path d="M20890 9885 c0 -9 5 -15 11 -13 6 2 11 8 11 13 0 5 -5 11 -11 13 -6
2 -11 -4 -11 -13z"/>
<path d="M20470 9836 c0 -9 5 -16 10 -16 6 0 10 4 10 9 0 6 -4 13 -10 16 -5 3
-10 -1 -10 -9z"/>
<path d="M18260 9832 c0 -4 9 -8 20 -9 11 -1 20 2 20 8 0 5 -9 9 -20 9 -11 0
-20 -4 -20 -8z"/>
<path d="M18320 9830 c0 -6 -10 -15 -22 -20 -23 -9 -23 -9 2 -9 19 -1 26 4 27
19 1 11 0 20 -3 20 -2 0 -4 -5 -4 -10z"/>
<path d="M18180 9811 c0 -6 4 -11 10 -11 5 0 7 -7 4 -15 -4 -8 -4 -15 -1 -15
13 0 14 30 1 40 -10 9 -14 9 -14 1z"/>
<path d="M18222 9787 c2 -19 7 -23 25 -19 12 2 20 8 18 13 -3 4 -13 5 -22 2
-10 -4 -14 -2 -9 5 3 6 2 13 -4 17 -6 3 -9 -4 -8 -18z"/>
<path d="M18310 9779 c0 -6 -7 -9 -15 -5 -20 7 -19 0 5 -24 l20 -20 0 30 c0
17 -2 30 -5 30 -3 0 -5 -5 -5 -11z"/>
<path d="M18244 9748 c-4 -7 -3 -8 5 -4 6 4 18 2 26 -4 9 -7 15 -8 15 -2 0 5
-7 13 -16 16 -21 8 -22 8 -30 -6z"/>
<path d="M18145 9740 c3 -5 8 -10 11 -10 2 0 4 5 4 10 0 6 -5 10 -11 10 -5 0
-7 -4 -4 -10z"/>
<path d="M20620 9718 c0 -7 9 -19 20 -26 17 -10 20 -10 20 3 0 8 -9 19 -20 25
-15 8 -20 8 -20 -2z"/>
<path d="M20980 9699 c0 -5 5 -7 10 -4 6 3 10 8 10 11 0 2 -4 4 -10 4 -5 0
-10 -5 -10 -11z"/>
<path d="M20735 9676 c2 -13 -5 -33 -14 -43 -26 -27 -35 -82 -15 -90 8 -3 20
-1 27 6 6 6 20 11 30 11 13 0 17 5 13 15 -4 11 1 15 19 15 14 0 25 -4 25 -10
0 -5 8 -10 18 -10 25 0 29 65 4 74 -9 3 -32 15 -49 26 -18 11 -33 17 -33 14 0
-4 -6 -1 -14 5 -11 9 -13 6 -11 -13z m95 -66 c0 -5 -2 -10 -4 -10 -3 0 -8 5
-11 10 -3 6 -1 10 4 10 6 0 11 -4 11 -10z"/>
<path d="M17995 9680 c-3 -5 1 -10 10 -10 9 0 13 5 10 10 -3 6 -8 10 -10 10
-2 0 -7 -4 -10 -10z"/>
<path d="M21002 9666 c9 -9 19 -16 23 -16 4 0 13 -7 22 -15 17 -18 35 -11 27
10 -4 8 -11 12 -16 9 -6 -4 -13 -2 -17 3 -3 6 -17 14 -31 18 -22 7 -23 6 -8
-9z"/>
<path d="M17685 9616 c-17 -13 -54 -36 -82 -51 -29 -15 -53 -29 -53 -32 0 -2
44 -4 98 -4 53 1 117 -2 141 -5 33 -5 42 -3 36 6 -4 6 -16 10 -26 7 -11 -3
-19 -1 -19 5 0 6 -7 8 -15 5 -8 -4 -17 -1 -21 4 -3 6 -14 9 -24 6 -23 -6 -24
29 -3 55 23 26 0 29 -32 4z"/>
<path d="M17720 9585 c0 -8 4 -15 10 -15 5 0 7 7 4 15 -4 8 -8 15 -10 15 -2 0
-4 -7 -4 -15z"/>
<path d="M20670 9580 c0 -5 5 -10 11 -10 5 0 7 5 4 10 -3 6 -8 10 -11 10 -2 0
-4 -4 -4 -10z"/>
<path d="M20640 9544 c0 -15 27 -30 45 -24 19 7 19 7 -2 18 -23 13 -43 16 -43
6z"/>
<path d="M20787 9514 c6 -15 23 -19 23 -5 0 5 -7 11 -14 14 -10 4 -13 1 -9 -9z"/>
<path d="M20849 9518 c-1 -2 -3 -12 -4 -24 -2 -18 1 -19 20 -10 18 8 20 13 9
23 -12 12 -22 16 -25 11z"/>
<path d="M20247 9494 c-4 -4 -7 -16 -7 -26 0 -20 25 -25 36 -7 8 13 -19 43
-29 33z"/>
<path d="M20670 9490 c0 -5 7 -10 16 -10 8 0 12 5 9 10 -3 6 -10 10 -16 10 -5
0 -9 -4 -9 -10z"/>
<path d="M20720 9484 c0 -9 62 -65 67 -60 10 9 -25 53 -46 59 -12 3 -21 3 -21
1z"/>
<path d="M20881 9455 c-1 -13 19 -35 31 -35 4 0 8 5 8 10 0 6 -6 10 -14 10 -8
0 -17 6 -19 13 -3 6 -6 7 -6 2z"/>
<path d="M18270 9419 c0 -5 5 -7 10 -4 6 3 10 8 10 11 0 2 -4 4 -10 4 -5 0
-10 -5 -10 -11z"/>
<path d="M17640 9409 c0 -5 5 -7 10 -4 6 3 10 8 10 11 0 2 -4 4 -10 4 -5 0
-10 -5 -10 -11z"/>
<path d="M20806 9409 c3 -6 15 -9 25 -6 11 3 19 1 19 -5 0 -5 5 -6 10 -3 18
11 0 25 -31 25 -19 0 -28 -4 -23 -11z"/>
<path d="M20700 9391 c14 -27 21 -30 49 -20 23 9 24 10 5 24 -10 8 -29 15 -42
15 -19 0 -21 -3 -12 -19z"/>
<path d="M20865 9381 c-3 -5 -1 -12 5 -16 6 -4 8 -11 5 -16 -4 -5 3 -9 14 -9
30 0 32 13 6 33 -13 9 -26 13 -30 8z"/>
<path d="M20647 9368 c-16 -9 -16 -11 7 -29 31 -24 46 -24 46 1 0 25 -30 41
-53 28z"/>
<path d="M20767 9363 c-11 -11 -8 -20 8 -20 8 0 16 6 19 14 5 13 -15 18 -27 6z"/>
<path d="M19590 9315 c-7 -8 -10 -21 -7 -29 3 -7 0 -19 -6 -25 -8 -8 -8 -11 2
-11 7 0 9 -5 5 -12 -4 -7 6 -1 21 14 22 20 26 32 21 52 -7 29 -18 33 -36 11z"/>
<path d="M17212 9264 l-47 -46 50 38 c70 53 71 54 56 54 -7 0 -33 -21 -59 -46z"/>
<path d="M20757 9266 c-4 -10 -1 -13 8 -9 8 3 12 9 9 14 -7 12 -11 11 -17 -5z"/>
<path d="M20825 9260 c3 -5 8 -10 11 -10 2 0 4 5 4 10 0 6 -5 10 -11 10 -5 0
-7 -4 -4 -10z"/>
<path d="M20627 9254 c-3 -5 1 -15 9 -22 16 -14 18 -5 5 17 -5 7 -11 9 -14 5z"/>
<path d="M20850 9234 c0 -8 5 -12 10 -9 6 4 8 11 5 16 -9 14 -15 11 -15 -7z"/>
<path d="M20825 9199 c-4 -6 -5 -12 -2 -15 2 -3 7 2 10 11 7 17 1 20 -8 4z"/>
<path d="M20632 9163 c15 -15 31 -23 35 -19 9 8 -32 46 -50 46 -7 0 1 -12 15
-27z"/>
<path d="M20510 9141 c0 -5 9 -13 20 -16 11 -3 20 -11 20 -16 0 -5 5 -9 10 -9
6 0 3 11 -6 25 -16 24 -44 34 -44 16z"/>
<path d="M20584 9133 c10 -11 36 -12 36 -2 0 5 -10 9 -22 9 -12 0 -18 -3 -14
-7z"/>
<path d="M20630 9112 c0 -16 28 -34 34 -23 4 6 -3 15 -14 21 -11 6 -20 7 -20
2z"/>
<path d="M20040 9071 c0 -12 5 -21 10 -21 6 0 10 6 10 14 0 8 -4 18 -10 21 -5
3 -10 -3 -10 -14z"/>
<path d="M20445 9080 c-9 -15 -1 -23 21 -18 15 3 16 4 1 16 -11 9 -17 10 -22
2z"/>
<path d="M17653 9019 c-13 -5 -23 -13 -23 -18 0 -5 -13 -14 -30 -20 -16 -5
-30 -15 -30 -20 0 -6 -7 -11 -15 -11 -13 0 -12 -3 2 -19 12 -15 21 -17 34 -10
23 12 52 12 44 -1 -7 -12 5 -13 21 -2 6 4 10 16 8 26 -1 11 2 28 7 38 16 30 8
47 -18 37z"/>
<path d="M18233 9007 c4 -11 1 -17 -8 -17 -8 0 -15 -4 -15 -9 0 -18 15 -18 31
-1 14 14 14 18 0 30 -13 12 -14 12 -8 -3z"/>
<path d="M20360 8997 c0 -9 68 -74 83 -80 28 -11 20 13 -19 49 -29 28 -64 45
-64 31z"/>
<path d="M20445 8990 c-3 -6 1 -13 10 -16 19 -8 30 0 20 15 -8 14 -22 14 -30
1z"/>
<path d="M20540 8969 c0 -5 5 -7 10 -4 6 3 10 8 10 11 0 2 -4 4 -10 4 -5 0
-10 -5 -10 -11z"/>
<path d="M20481 8961 c-8 -5 -10 -14 -6 -21 6 -9 10 -8 17 4 12 21 7 28 -11
17z"/>
<path d="M18078 8929 c-6 -4 -9 -21 -6 -38 3 -24 1 -31 -9 -27 -7 3 -13 1 -13
-5 0 -6 -11 -20 -25 -31 -29 -23 -31 -74 -4 -89 17 -9 22 -6 57 35 15 18 16
66 2 66 -7 0 -6 5 1 13 16 17 49 19 66 5 10 -8 13 -7 13 5 0 8 4 17 9 19 5 2
7 15 4 30 -5 25 -9 27 -45 25 -22 -1 -44 -5 -50 -8z"/>
<path d="M17525 8920 c-11 -17 5 -31 19 -17 14 12 12 27 -4 27 -5 0 -12 -4
-15 -10z"/>
<path d="M17206 8903 c-6 -14 -5 -15 5 -6 7 7 10 15 7 18 -3 3 -9 -2 -12 -12z"/>
<path d="M16994 8885 c-9 -37 -1 -38 18 -4 14 24 15 29 3 29 -8 0 -17 -11 -21
-25z"/>
<path d="M20352 8891 c-11 -7 -11 -9 2 -14 10 -4 16 -1 16 8 0 17 -1 17 -18 6z"/>
<path d="M20210 8861 c0 -5 7 -11 14 -14 10 -4 13 -1 9 9 -6 15 -23 19 -23 5z"/>
<path d="M16655 8250 c4 -14 12 -29 17 -35 7 -7 8 -2 3 15 -4 14 -12 30 -17
35 -7 7 -8 2 -3 -15z"/>
<path d="M16678 8127 c-3 -19 -2 -25 4 -19 6 6 8 18 6 28 -3 14 -5 12 -10 -9z"/>
<path d="M17368 8088 c-16 -17 -28 -37 -28 -45 0 -21 50 -8 72 18 13 16 15 25
8 40 -14 25 -20 24 -52 -13z"/>
<path d="M17243 7424 c-3 -9 2 -23 12 -32 10 -9 15 -12 11 -5 -3 6 -2 14 3 18
12 7 3 35 -10 35 -5 0 -12 -7 -16 -16z"/>
<path d="M17176 7255 c-6 -18 0 -35 13 -35 9 0 8 36 -1 45 -3 3 -8 -1 -12 -10z"/>
<path d="M17150 7200 c0 -14 5 -18 18 -13 31 11 34 15 21 24 -23 14 -39 10
-39 -11z"/>
<path d="M19605 15111 c-3 -5 -1 -12 4 -15 5 -3 11 1 15 9 6 16 -9 21 -19 6z"/>
<path d="M19540 14962 c0 -40 4 -61 10 -57 13 8 13 85 0 105 -7 11 -10 -4 -10
-48z"/>
<path d="M19136 14771 c5 -5 23 -12 39 -16 30 -6 30 -6 -4 10 -38 17 -49 19
-35 6z"/>
<path d="M19387 14638 c4 -7 8 -20 10 -28 1 -8 11 -22 22 -31 11 -9 17 -20 13
-24 -4 -5 -2 -5 4 -2 6 3 20 -2 32 -13 21 -19 21 -19 27 0 9 29 -10 56 -59 85
-47 28 -61 31 -49 13z"/>
<path d="M19368 14573 c7 -3 16 -2 19 1 4 3 -2 6 -13 5 -11 0 -14 -3 -6 -6z"/>
<path d="M11510 12045 l0 -25 1910 0 1910 0 0 25 0 25 -1910 0 -1910 0 0 -25z"/>
<path d="M11510 11665 l0 -25 1910 0 1910 0 0 25 0 25 -1910 0 -1910 0 0 -25z"/>
<path d="M11570 11305 l0 -25 1280 0 1280 0 0 25 0 25 -1280 0 -1280 0 0 -25z"/>
<path d="M21306 10095 c-15 -12 -17 -18 -8 -27 15 -15 66 6 59 25 -6 18 -29
19 -51 2z"/>
<path d="M19377 9849 c7 -7 15 -10 18 -7 3 3 -2 9 -12 12 -14 6 -15 5 -6 -5z"/>
<path d="M17287 8379 c17 -35 28 -32 19 6 -4 14 -13 25 -20 25 -12 0 -12 -5 1
-31z"/>
<path d="M17290 8287 c0 -23 11 -47 22 -47 14 0 5 53 -9 58 -7 2 -13 -3 -13
-11z"/>
<path d="M16820 7019 c-17 -16 -65 -49 -95 -64 -11 -6 -27 -30 -35 -55 -8 -25
-22 -55 -31 -68 -13 -18 -14 -31 -7 -65 5 -23 9 -59 9 -80 -1 -24 2 -36 9 -32
5 3 10 0 10 -7 0 -8 14 -19 32 -26 35 -13 48 -5 48 31 0 10 9 35 20 57 11 22
20 54 20 71 0 18 9 66 21 106 11 40 19 90 17 110 -3 32 -5 35 -18 22z"/>
<path d="M16920 5822 c0 -5 7 -13 16 -16 10 -4 14 -1 12 6 -5 15 -28 23 -28
10z"/>
<path d="M16920 5791 c0 -5 5 -13 10 -16 10 -6 8 -22 -7 -62 -3 -6 2 -10 11
-9 17 2 34 16 20 16 -5 0 -9 16 -9 37 0 20 -6 38 -12 40 -7 3 -13 0 -13 -6z"/>
<path d="M17020 5070 c0 -5 5 -10 10 -10 6 0 10 5 10 10 0 6 -4 10 -10 10 -5
0 -10 -4 -10 -10z"/>
<path d="M16980 4448 c0 -9 5 -20 10 -23 13 -8 13 5 0 25 -8 13 -10 13 -10 -2z"/>
<path d="M16900 4340 c0 -5 5 -10 11 -10 5 0 7 5 4 10 -3 6 -8 10 -11 10 -2 0
-4 -4 -4 -10z"/>
<path d="M16810 4175 c0 -28 15 -34 24 -9 10 25 7 34 -9 34 -9 0 -15 -9 -15
-25z"/>
</g>
</svg>
