<svg width="250" height="326" viewBox="0 0 250 326" fill="none" xmlns="http://www.w3.org/2000/svg">
<mask id="path-1-inside-1_213_3" fill="white">
<path d="M0 0H200V55.23H0V0Z"/>
</mask>
<path d="M200 54.23H0V56.23H200V54.23Z" fill="#EEEFF4" mask="url(#path-1-inside-1_213_3)"/>
<path d="M1.55 19.775C1.55 16.9083 2.01667 14.675 2.95 13.075C3.88333 11.4583 5.51667 10.65 7.85 10.65C10.1667 10.65 11.7917 11.4583 12.725 13.075C13.6583 14.675 14.125 16.9083 14.125 19.775C14.125 22.6917 13.6583 24.9583 12.725 26.575C11.7917 28.1917 10.1667 29 7.85 29C5.51667 29 3.88333 28.1917 2.95 26.575C2.01667 24.9583 1.55 22.6917 1.55 19.775ZM11.875 19.775C11.875 18.325 11.775 17.1 11.575 16.1C11.3917 15.0833 11 14.2667 10.4 13.65C9.81667 13.0333 8.96667 12.725 7.85 12.725C6.71667 12.725 5.85 13.0333 5.25 13.65C4.66667 14.2667 4.275 15.0833 4.075 16.1C3.89167 17.1 3.8 18.325 3.8 19.775C3.8 21.275 3.89167 22.5333 4.075 23.55C4.275 24.5667 4.66667 25.3833 5.25 26C5.85 26.6167 6.71667 26.925 7.85 26.925C8.96667 26.925 9.81667 26.6167 10.4 26C11 25.3833 11.3917 24.5667 11.575 23.55C11.775 22.5333 11.875 21.275 11.875 19.775ZM18.3482 29.15C17.9149 29.15 17.5482 29 17.2482 28.7C16.9482 28.4 16.7982 28.0333 16.7982 27.6C16.7982 27.1667 16.9482 26.8 17.2482 26.5C17.5482 26.2 17.9149 26.05 18.3482 26.05C18.7649 26.05 19.1149 26.2 19.3982 26.5C19.6982 26.8 19.8482 27.1667 19.8482 27.6C19.8482 28.0333 19.6982 28.4 19.3982 28.7C19.1149 29 18.7649 29.15 18.3482 29.15Z" fill="#EEEFF4"/>
<path d="M34.172 29.098C33.528 29.098 32.9493 28.986 32.436 28.762C31.932 28.5287 31.5353 28.2113 31.246 27.81C30.9567 27.3993 30.8073 26.928 30.798 26.396H32.156C32.2027 26.8533 32.3893 27.2407 32.716 27.558C33.052 27.866 33.5373 28.02 34.172 28.02C34.7787 28.02 35.2547 27.8707 35.6 27.572C35.9547 27.264 36.132 26.872 36.132 26.396C36.132 26.0227 36.0293 25.7193 35.824 25.486C35.6187 25.2527 35.362 25.0753 35.054 24.954C34.746 24.8327 34.3307 24.702 33.808 24.562C33.164 24.394 32.646 24.226 32.254 24.058C31.8713 23.89 31.54 23.6287 31.26 23.274C30.9893 22.91 30.854 22.4247 30.854 21.818C30.854 21.286 30.9893 20.8147 31.26 20.404C31.5307 19.9933 31.9087 19.676 32.394 19.452C32.8887 19.228 33.4533 19.116 34.088 19.116C35.0027 19.116 35.7493 19.3447 36.328 19.802C36.916 20.2593 37.2473 20.866 37.322 21.622H35.922C35.8753 21.2487 35.6793 20.922 35.334 20.642C34.9887 20.3527 34.5313 20.208 33.962 20.208C33.43 20.208 32.996 20.348 32.66 20.628C32.324 20.8987 32.156 21.2813 32.156 21.776C32.156 22.1307 32.254 22.42 32.45 22.644C32.6553 22.868 32.9027 23.0407 33.192 23.162C33.4907 23.274 33.906 23.4047 34.438 23.554C35.082 23.7313 35.6 23.9087 35.992 24.086C36.384 24.254 36.72 24.52 37 24.884C37.28 25.2387 37.42 25.724 37.42 26.34C37.42 26.816 37.294 27.264 37.042 27.684C36.79 28.104 36.4167 28.4447 35.922 28.706C35.4273 28.9673 34.844 29.098 34.172 29.098ZM42.6408 29.126C41.9221 29.126 41.2688 28.9627 40.6808 28.636C40.1021 28.3093 39.6448 27.8473 39.3088 27.25C38.9821 26.6433 38.8188 25.9433 38.8188 25.15C38.8188 24.366 38.9868 23.6753 39.3228 23.078C39.6681 22.4713 40.1348 22.0093 40.7228 21.692C41.3108 21.3653 41.9688 21.202 42.6968 21.202C43.4248 21.202 44.0828 21.3653 44.6708 21.692C45.2588 22.0093 45.7208 22.4667 46.0568 23.064C46.4021 23.6613 46.5748 24.3567 46.5748 25.15C46.5748 25.9433 46.3975 26.6433 46.0428 27.25C45.6975 27.8473 45.2261 28.3093 44.6288 28.636C44.0315 28.9627 43.3688 29.126 42.6408 29.126ZM42.6408 28.006C43.0981 28.006 43.5275 27.8987 43.9288 27.684C44.3301 27.4693 44.6521 27.1473 44.8948 26.718C45.1468 26.2887 45.2728 25.766 45.2728 25.15C45.2728 24.534 45.1515 24.0113 44.9088 23.582C44.6661 23.1527 44.3488 22.8353 43.9568 22.63C43.5648 22.4153 43.1401 22.308 42.6828 22.308C42.2161 22.308 41.7868 22.4153 41.3948 22.63C41.0121 22.8353 40.7041 23.1527 40.4708 23.582C40.2375 24.0113 40.1208 24.534 40.1208 25.15C40.1208 25.7753 40.2328 26.3027 40.4568 26.732C40.6901 27.1613 40.9981 27.4833 41.3808 27.698C41.7635 27.9033 42.1835 28.006 42.6408 28.006ZM49.5239 18.64V29H48.2499V18.64H49.5239ZM58.4992 21.328V29H57.2252V27.866C56.9825 28.258 56.6419 28.566 56.2032 28.79C55.7739 29.0047 55.2979 29.112 54.7752 29.112C54.1779 29.112 53.6412 28.9907 53.1652 28.748C52.6892 28.496 52.3112 28.1227 52.0312 27.628C51.7605 27.1333 51.6252 26.5313 51.6252 25.822V21.328H52.8852V25.654C52.8852 26.41 53.0765 26.9933 53.4592 27.404C53.8419 27.8053 54.3645 28.006 55.0272 28.006C55.7085 28.006 56.2452 27.796 56.6372 27.376C57.0292 26.956 57.2252 26.3447 57.2252 25.542V21.328H58.4992ZM63.9123 28.048C64.4723 28.048 64.9389 27.9173 65.3123 27.656C65.6856 27.3947 65.9423 27.0213 66.0823 26.536H67.4543C67.2676 27.264 66.8989 27.8613 66.3483 28.328C65.8069 28.7853 65.1256 29.0467 64.3043 29.112V29.812C64.8549 29.8027 65.2936 29.9193 65.6203 30.162C65.9469 30.4047 66.1103 30.75 66.1103 31.198C66.1103 31.6367 65.9516 31.9867 65.6343 32.248C65.3169 32.5093 64.9063 32.64 64.4023 32.64H62.7923V31.814H64.1503C64.4583 31.814 64.6823 31.7673 64.8223 31.674C64.9716 31.5807 65.0463 31.422 65.0463 31.198C65.0463 30.9833 64.9716 30.8293 64.8223 30.736C64.6823 30.6427 64.4583 30.596 64.1503 30.596H63.4503V29.098C62.8063 29.0327 62.2369 28.832 61.7423 28.496C61.2476 28.1507 60.8603 27.6933 60.5803 27.124C60.3096 26.5453 60.1743 25.8873 60.1743 25.15C60.1743 24.3567 60.3329 23.666 60.6503 23.078C60.9676 22.4807 61.4063 22.0187 61.9663 21.692C62.5356 21.3653 63.1843 21.202 63.9123 21.202C64.8549 21.202 65.6296 21.4307 66.2363 21.888C66.8523 22.3453 67.2583 22.98 67.4543 23.792H66.0823C65.9516 23.3253 65.6949 22.9567 65.3123 22.686C64.9389 22.4153 64.4723 22.28 63.9123 22.28C63.1843 22.28 62.5963 22.532 62.1483 23.036C61.7003 23.5307 61.4763 24.2353 61.4763 25.15C61.4763 26.074 61.7003 26.788 62.1483 27.292C62.5963 27.796 63.1843 28.048 63.9123 28.048ZM72.5002 29.126C71.7815 29.126 71.1282 28.9627 70.5402 28.636C69.9615 28.3093 69.5042 27.8473 69.1682 27.25C68.8415 26.6433 68.6782 25.9433 68.6782 25.15C68.6782 24.366 68.8462 23.6753 69.1822 23.078C69.5275 22.4713 69.9942 22.0093 70.5822 21.692C71.1702 21.3653 71.8282 21.202 72.5562 21.202C73.2842 21.202 73.9422 21.3653 74.5302 21.692C75.1182 22.0093 75.5802 22.4667 75.9162 23.064C76.2615 23.6613 76.4342 24.3567 76.4342 25.15C76.4342 25.9433 76.2568 26.6433 75.9022 27.25C75.5568 27.8473 75.0855 28.3093 74.4882 28.636C73.8908 28.9627 73.2282 29.126 72.5002 29.126ZM72.5002 28.006C72.9575 28.006 73.3868 27.8987 73.7882 27.684C74.1895 27.4693 74.5115 27.1473 74.7542 26.718C75.0062 26.2887 75.1322 25.766 75.1322 25.15C75.1322 24.534 75.0108 24.0113 74.7682 23.582C74.5255 23.1527 74.2082 22.8353 73.8162 22.63C73.4242 22.4153 72.9995 22.308 72.5422 22.308C72.0755 22.308 71.6462 22.4153 71.2542 22.63C70.8715 22.8353 70.5635 23.1527 70.3302 23.582C70.0968 24.0113 69.9802 24.534 69.9802 25.15C69.9802 25.7753 70.0922 26.3027 70.3162 26.732C70.5495 27.1613 70.8575 27.4833 71.2402 27.698C71.6228 27.9033 72.0428 28.006 72.5002 28.006ZM70.5122 20.404C70.5775 19.928 70.7315 19.564 70.9742 19.312C71.2262 19.06 71.5388 18.934 71.9122 18.934C72.0895 18.934 72.2388 18.9667 72.3602 19.032C72.4908 19.088 72.6448 19.172 72.8222 19.284C72.9528 19.3773 73.0695 19.452 73.1722 19.508C73.2748 19.5547 73.3868 19.578 73.5082 19.578C73.6668 19.578 73.8022 19.5267 73.9142 19.424C74.0262 19.3213 74.0962 19.172 74.1242 18.976H74.8522C74.7962 19.4427 74.6422 19.802 74.3902 20.054C74.1382 20.306 73.8255 20.432 73.4522 20.432C73.2748 20.432 73.1162 20.404 72.9762 20.348C72.8455 20.2827 72.6962 20.1893 72.5282 20.068C72.3788 19.9747 72.2575 19.9047 72.1642 19.858C72.0802 19.8113 71.9775 19.788 71.8562 19.788C71.6975 19.788 71.5622 19.8393 71.4502 19.942C71.3475 20.0447 71.2822 20.1987 71.2542 20.404H70.5122ZM85.1093 24.87C85.1093 25.1127 85.0953 25.3693 85.0673 25.64H78.9353C78.9819 26.396 79.2386 26.9887 79.7053 27.418C80.1813 27.838 80.7553 28.048 81.4273 28.048C81.9779 28.048 82.4353 27.922 82.7993 27.67C83.1726 27.4087 83.4339 27.0633 83.5833 26.634H84.9553C84.7499 27.3713 84.3393 27.9733 83.7233 28.44C83.1073 28.8973 82.3419 29.126 81.4273 29.126C80.6993 29.126 80.0459 28.9627 79.4673 28.636C78.8979 28.3093 78.4499 27.8473 78.1233 27.25C77.7966 26.6433 77.6333 25.9433 77.6333 25.15C77.6333 24.3567 77.7919 23.6613 78.1093 23.064C78.4266 22.4667 78.8699 22.0093 79.4393 21.692C80.0179 21.3653 80.6806 21.202 81.4273 21.202C82.1553 21.202 82.7993 21.3607 83.3593 21.678C83.9193 21.9953 84.3486 22.434 84.6473 22.994C84.9553 23.5447 85.1093 24.17 85.1093 24.87ZM83.7933 24.604C83.7933 24.1187 83.6859 23.7033 83.4713 23.358C83.2566 23.0033 82.9626 22.7373 82.5893 22.56C82.2253 22.3733 81.8193 22.28 81.3713 22.28C80.7273 22.28 80.1766 22.4853 79.7193 22.896C79.2713 23.3067 79.0146 23.876 78.9493 24.604H83.7933ZM89.5069 29.126C88.9189 29.126 88.3916 29.028 87.9249 28.832C87.4582 28.6267 87.0896 28.3467 86.8189 27.992C86.5482 27.628 86.3989 27.2127 86.3709 26.746H87.6869C87.7242 27.1287 87.9016 27.4413 88.2189 27.684C88.5456 27.9267 88.9702 28.048 89.4929 28.048C89.9782 28.048 90.3609 27.9407 90.6409 27.726C90.9209 27.5113 91.0609 27.2407 91.0609 26.914C91.0609 26.578 90.9116 26.3307 90.6129 26.172C90.3142 26.004 89.8522 25.8407 89.2269 25.682C88.6576 25.5327 88.1909 25.3833 87.8269 25.234C87.4722 25.0753 87.1642 24.8467 86.9029 24.548C86.6509 24.24 86.5249 23.8387 86.5249 23.344C86.5249 22.952 86.6416 22.5927 86.8749 22.266C87.1082 21.9393 87.4396 21.6827 87.8689 21.496C88.2982 21.3 88.7882 21.202 89.3389 21.202C90.1882 21.202 90.8742 21.4167 91.3969 21.846C91.9196 22.2753 92.1996 22.8633 92.2369 23.61H90.9629C90.9349 23.2087 90.7716 22.8867 90.4729 22.644C90.1836 22.4013 89.7916 22.28 89.2969 22.28C88.8396 22.28 88.4756 22.378 88.2049 22.574C87.9342 22.77 87.7989 23.0267 87.7989 23.344C87.7989 23.596 87.8782 23.806 88.0369 23.974C88.2049 24.1327 88.4102 24.2633 88.6529 24.366C88.9049 24.4593 89.2502 24.5667 89.6889 24.688C90.2396 24.8373 90.6876 24.9867 91.0329 25.136C91.3782 25.276 91.6722 25.4907 91.9149 25.78C92.1669 26.0693 92.2976 26.4473 92.3069 26.914C92.3069 27.334 92.1902 27.712 91.9569 28.048C91.7236 28.384 91.3922 28.65 90.9629 28.846C90.5429 29.0327 90.0576 29.126 89.5069 29.126ZM104.362 22.098C104.362 22.91 104.082 23.5867 103.522 24.128C102.971 24.66 102.126 24.926 100.988 24.926H99.1118V29H97.8378V19.242H100.988C102.089 19.242 102.924 19.508 103.494 20.04C104.072 20.572 104.362 21.258 104.362 22.098ZM100.988 23.876C101.697 23.876 102.22 23.722 102.556 23.414C102.892 23.106 103.06 22.6673 103.06 22.098C103.06 20.894 102.369 20.292 100.988 20.292H99.1118V23.876H100.988ZM112.945 24.87C112.945 25.1127 112.931 25.3693 112.903 25.64H106.771C106.818 26.396 107.075 26.9887 107.541 27.418C108.017 27.838 108.591 28.048 109.263 28.048C109.814 28.048 110.271 27.922 110.635 27.67C111.009 27.4087 111.27 27.0633 111.419 26.634H112.791C112.586 27.3713 112.175 27.9733 111.559 28.44C110.943 28.8973 110.178 29.126 109.263 29.126C108.535 29.126 107.882 28.9627 107.303 28.636C106.734 28.3093 106.286 27.8473 105.959 27.25C105.633 26.6433 105.469 25.9433 105.469 25.15C105.469 24.3567 105.628 23.6613 105.945 23.064C106.263 22.4667 106.706 22.0093 107.275 21.692C107.854 21.3653 108.517 21.202 109.263 21.202C109.991 21.202 110.635 21.3607 111.195 21.678C111.755 21.9953 112.185 22.434 112.483 22.994C112.791 23.5447 112.945 24.17 112.945 24.87ZM111.629 24.604C111.629 24.1187 111.522 23.7033 111.307 23.358C111.093 23.0033 110.799 22.7373 110.425 22.56C110.061 22.3733 109.655 22.28 109.207 22.28C108.563 22.28 108.013 22.4853 107.555 22.896C107.107 23.3067 106.851 23.876 106.785 24.604H111.629ZM115.901 22.574C116.125 22.1353 116.442 21.7947 116.853 21.552C117.273 21.3093 117.781 21.188 118.379 21.188V22.504H118.043C116.615 22.504 115.901 23.2787 115.901 24.828V29H114.627V21.328H115.901V22.574ZM122.565 29.126C121.977 29.126 121.45 29.028 120.983 28.832C120.517 28.6267 120.148 28.3467 119.877 27.992C119.607 27.628 119.457 27.2127 119.429 26.746H120.745C120.783 27.1287 120.96 27.4413 121.277 27.684C121.604 27.9267 122.029 28.048 122.551 28.048C123.037 28.048 123.419 27.9407 123.699 27.726C123.979 27.5113 124.119 27.2407 124.119 26.914C124.119 26.578 123.97 26.3307 123.671 26.172C123.373 26.004 122.911 25.8407 122.285 25.682C121.716 25.5327 121.249 25.3833 120.885 25.234C120.531 25.0753 120.223 24.8467 119.961 24.548C119.709 24.24 119.583 23.8387 119.583 23.344C119.583 22.952 119.7 22.5927 119.933 22.266C120.167 21.9393 120.498 21.6827 120.927 21.496C121.357 21.3 121.847 21.202 122.397 21.202C123.247 21.202 123.933 21.4167 124.455 21.846C124.978 22.2753 125.258 22.8633 125.295 23.61H124.021C123.993 23.2087 123.83 22.8867 123.531 22.644C123.242 22.4013 122.85 22.28 122.355 22.28C121.898 22.28 121.534 22.378 121.263 22.574C120.993 22.77 120.857 23.0267 120.857 23.344C120.857 23.596 120.937 23.806 121.095 23.974C121.263 24.1327 121.469 24.2633 121.711 24.366C121.963 24.4593 122.309 24.5667 122.747 24.688C123.298 24.8373 123.746 24.9867 124.091 25.136C124.437 25.276 124.731 25.4907 124.973 25.78C125.225 26.0693 125.356 26.4473 125.365 26.914C125.365 27.334 125.249 27.712 125.015 28.048C124.782 28.384 124.451 28.65 124.021 28.846C123.601 29.0327 123.116 29.126 122.565 29.126ZM130.51 29.126C129.791 29.126 129.138 28.9627 128.55 28.636C127.971 28.3093 127.514 27.8473 127.178 27.25C126.851 26.6433 126.688 25.9433 126.688 25.15C126.688 24.366 126.856 23.6753 127.192 23.078C127.537 22.4713 128.004 22.0093 128.592 21.692C129.18 21.3653 129.838 21.202 130.566 21.202C131.294 21.202 131.952 21.3653 132.54 21.692C133.128 22.0093 133.59 22.4667 133.926 23.064C134.271 23.6613 134.444 24.3567 134.444 25.15C134.444 25.9433 134.267 26.6433 133.912 27.25C133.567 27.8473 133.095 28.3093 132.498 28.636C131.901 28.9627 131.238 29.126 130.51 29.126ZM130.51 28.006C130.967 28.006 131.397 27.8987 131.798 27.684C132.199 27.4693 132.521 27.1473 132.764 26.718C133.016 26.2887 133.142 25.766 133.142 25.15C133.142 24.534 133.021 24.0113 132.778 23.582C132.535 23.1527 132.218 22.8353 131.826 22.63C131.434 22.4153 131.009 22.308 130.552 22.308C130.085 22.308 129.656 22.4153 129.264 22.63C128.881 22.8353 128.573 23.1527 128.34 23.582C128.107 24.0113 127.99 24.534 127.99 25.15C127.99 25.7753 128.102 26.3027 128.326 26.732C128.559 27.1613 128.867 27.4833 129.25 27.698C129.633 27.9033 130.053 28.006 130.51 28.006ZM139.857 21.188C140.79 21.188 141.546 21.4727 142.125 22.042C142.704 22.602 142.993 23.414 142.993 24.478V29H141.733V24.66C141.733 23.8947 141.542 23.3113 141.159 22.91C140.776 22.4993 140.254 22.294 139.591 22.294C138.919 22.294 138.382 22.504 137.981 22.924C137.589 23.344 137.393 23.9553 137.393 24.758V29H136.119V21.328H137.393V22.42C137.645 22.028 137.986 21.7247 138.415 21.51C138.854 21.2953 139.334 21.188 139.857 21.188ZM144.598 25.136C144.598 24.352 144.757 23.666 145.074 23.078C145.391 22.4807 145.825 22.0187 146.376 21.692C146.936 21.3653 147.557 21.202 148.238 21.202C148.91 21.202 149.493 21.3467 149.988 21.636C150.483 21.9253 150.851 22.2893 151.094 22.728V21.328H152.382V29H151.094V27.572C150.842 28.02 150.464 28.3933 149.96 28.692C149.465 28.9813 148.887 29.126 148.224 29.126C147.543 29.126 146.927 28.958 146.376 28.622C145.825 28.286 145.391 27.8147 145.074 27.208C144.757 26.6013 144.598 25.9107 144.598 25.136ZM151.094 25.15C151.094 24.5713 150.977 24.0673 150.744 23.638C150.511 23.2087 150.193 22.882 149.792 22.658C149.4 22.4247 148.966 22.308 148.49 22.308C148.014 22.308 147.58 22.42 147.188 22.644C146.796 22.868 146.483 23.1947 146.25 23.624C146.017 24.0533 145.9 24.5573 145.9 25.136C145.9 25.724 146.017 26.2373 146.25 26.676C146.483 27.1053 146.796 27.4367 147.188 27.67C147.58 27.894 148.014 28.006 148.49 28.006C148.966 28.006 149.4 27.894 149.792 27.67C150.193 27.4367 150.511 27.1053 150.744 26.676C150.977 26.2373 151.094 25.7287 151.094 25.15ZM155.809 18.64V29H154.535V18.64H155.809ZM158.638 20.082C158.396 20.082 158.19 19.998 158.022 19.83C157.854 19.662 157.77 19.4567 157.77 19.214C157.77 18.9713 157.854 18.766 158.022 18.598C158.19 18.43 158.396 18.346 158.638 18.346C158.872 18.346 159.068 18.43 159.226 18.598C159.394 18.766 159.478 18.9713 159.478 19.214C159.478 19.4567 159.394 19.662 159.226 19.83C159.068 19.998 158.872 20.082 158.638 20.082ZM159.254 21.328V29H157.98V21.328H159.254ZM162.378 27.95H166.144V29H160.922V27.95L164.646 22.364H160.95V21.328H166.116V22.364L162.378 27.95ZM167.321 25.136C167.321 24.352 167.479 23.666 167.797 23.078C168.114 22.4807 168.548 22.0187 169.099 21.692C169.659 21.3653 170.279 21.202 170.961 21.202C171.633 21.202 172.216 21.3467 172.711 21.636C173.205 21.9253 173.574 22.2893 173.817 22.728V21.328H175.105V29H173.817V27.572C173.565 28.02 173.187 28.3933 172.683 28.692C172.188 28.9813 171.609 29.126 170.947 29.126C170.265 29.126 169.649 28.958 169.099 28.622C168.548 28.286 168.114 27.8147 167.797 27.208C167.479 26.6013 167.321 25.9107 167.321 25.136ZM173.817 25.15C173.817 24.5713 173.7 24.0673 173.467 23.638C173.233 23.2087 172.916 22.882 172.515 22.658C172.123 22.4247 171.689 22.308 171.213 22.308C170.737 22.308 170.303 22.42 169.911 22.644C169.519 22.868 169.206 23.1947 168.973 23.624C168.739 24.0533 168.623 24.5573 168.623 25.136C168.623 25.724 168.739 26.2373 168.973 26.676C169.206 27.1053 169.519 27.4367 169.911 27.67C170.303 27.894 170.737 28.006 171.213 28.006C171.689 28.006 172.123 27.894 172.515 27.67C172.916 27.4367 173.233 27.1053 173.467 26.676C173.7 26.2373 173.817 25.7287 173.817 25.15ZM176.782 25.136C176.782 24.352 176.94 23.666 177.258 23.078C177.575 22.4807 178.009 22.0187 178.56 21.692C179.12 21.3653 179.745 21.202 180.436 21.202C181.033 21.202 181.588 21.342 182.102 21.622C182.615 21.8927 183.007 22.252 183.278 22.7V18.64H184.566V29H183.278V27.558C183.026 28.0153 182.652 28.3933 182.158 28.692C181.663 28.9813 181.084 29.126 180.422 29.126C179.74 29.126 179.12 28.958 178.56 28.622C178.009 28.286 177.575 27.8147 177.258 27.208C176.94 26.6013 176.782 25.9107 176.782 25.136ZM183.278 25.15C183.278 24.5713 183.161 24.0673 182.928 23.638C182.694 23.2087 182.377 22.882 181.976 22.658C181.584 22.4247 181.15 22.308 180.674 22.308C180.198 22.308 179.764 22.42 179.372 22.644C178.98 22.868 178.667 23.1947 178.434 23.624C178.2 24.0533 178.084 24.5573 178.084 25.136C178.084 25.724 178.2 26.2373 178.434 26.676C178.667 27.1053 178.98 27.4367 179.372 27.67C179.764 27.894 180.198 28.006 180.674 28.006C181.15 28.006 181.584 27.894 181.976 27.67C182.377 27.4367 182.694 27.1053 182.928 26.676C183.161 26.2373 183.278 25.7287 183.278 25.15ZM186.243 25.136C186.243 24.352 186.401 23.666 186.719 23.078C187.036 22.4807 187.47 22.0187 188.021 21.692C188.581 21.3653 189.201 21.202 189.883 21.202C190.555 21.202 191.138 21.3467 191.633 21.636C192.127 21.9253 192.496 22.2893 192.739 22.728V21.328H194.027V29H192.739V27.572C192.487 28.02 192.109 28.3933 191.605 28.692C191.11 28.9813 190.531 29.126 189.869 29.126C189.187 29.126 188.571 28.958 188.021 28.622C187.47 28.286 187.036 27.8147 186.719 27.208C186.401 26.6013 186.243 25.9107 186.243 25.136ZM192.739 25.15C192.739 24.5713 192.622 24.0673 192.389 23.638C192.155 23.2087 191.838 22.882 191.437 22.658C191.045 22.4247 190.611 22.308 190.135 22.308C189.659 22.308 189.225 22.42 188.833 22.644C188.441 22.868 188.128 23.1947 187.895 23.624C187.661 24.0533 187.545 24.5573 187.545 25.136C187.545 25.724 187.661 26.2373 187.895 26.676C188.128 27.1053 188.441 27.4367 188.833 27.67C189.225 27.894 189.659 28.006 190.135 28.006C190.611 28.006 191.045 27.894 191.437 27.67C191.838 27.4367 192.155 27.1053 192.389 26.676C192.622 26.2373 192.739 25.7287 192.739 25.15ZM198.896 29.126C198.308 29.126 197.78 29.028 197.314 28.832C196.847 28.6267 196.478 28.3467 196.208 27.992C195.937 27.628 195.788 27.2127 195.76 26.746H197.076C197.113 27.1287 197.29 27.4413 197.608 27.684C197.934 27.9267 198.359 28.048 198.882 28.048C199.367 28.048 199.75 27.9407 200.03 27.726C200.31 27.5113 200.45 27.2407 200.45 26.914C200.45 26.578 200.3 26.3307 200.002 26.172C199.703 26.004 199.241 25.8407 198.616 25.682C198.046 25.5327 197.58 25.3833 197.216 25.234C196.861 25.0753 196.553 24.8467 196.292 24.548C196.04 24.24 195.914 23.8387 195.914 23.344C195.914 22.952 196.03 22.5927 196.264 22.266C196.497 21.9393 196.828 21.6827 197.258 21.496C197.687 21.3 198.177 21.202 198.728 21.202C199.577 21.202 200.263 21.4167 200.786 21.846C201.308 22.2753 201.588 22.8633 201.626 23.61H200.352C200.324 23.2087 200.16 22.8867 199.862 22.644C199.572 22.4013 199.18 22.28 198.686 22.28C198.228 22.28 197.864 22.378 197.594 22.574C197.323 22.77 197.188 23.0267 197.188 23.344C197.188 23.596 197.267 23.806 197.426 23.974C197.594 24.1327 197.799 24.2633 198.042 24.366C198.294 24.4593 198.639 24.5667 199.078 24.688C199.628 24.8373 200.076 24.9867 200.422 25.136C200.767 25.276 201.061 25.4907 201.304 25.78C201.556 26.0693 201.686 26.4473 201.696 26.914C201.696 27.334 201.579 27.712 201.346 28.048C201.112 28.384 200.781 28.65 200.352 28.846C199.932 29.0327 199.446 29.126 198.896 29.126Z" fill="#EEEFF4"/>
<mask id="path-5-inside-2_213_3" fill="white">
<path d="M0 90.23H200V145.46H0V90.23Z"/>
</mask>
<path d="M200 144.46H0V146.46H200V144.46Z" fill="#EEEFF4" mask="url(#path-5-inside-2_213_3)"/>
<path d="M0.95 103.23V101.155H5.65V119.23H3.35V103.23H0.95ZM10.6578 119.38C10.2245 119.38 9.85781 119.23 9.55781 118.93C9.25781 118.63 9.10781 118.263 9.10781 117.83C9.10781 117.397 9.25781 117.03 9.55781 116.73C9.85781 116.43 10.2245 116.28 10.6578 116.28C11.0745 116.28 11.4245 116.43 11.7078 116.73C12.0078 117.03 12.1578 117.397 12.1578 117.83C12.1578 118.263 12.0078 118.63 11.7078 118.93C11.4245 119.23 11.0745 119.38 10.6578 119.38Z" fill="#EEEFF4"/>
<path d="M27.352 110.278V113.54H30.908V114.59H27.352V117.95H31.328V119H26.078V109.228H31.328V110.278H27.352ZM37.2597 119L35.4397 116.144L33.6897 119H32.3597L34.8377 115.192L32.3597 111.328H33.8017L35.6217 114.17L37.3577 111.328H38.6877L36.2237 115.122L38.7017 119H37.2597ZM41.229 112.742C41.481 112.303 41.8543 111.939 42.349 111.65C42.853 111.351 43.4363 111.202 44.099 111.202C44.7803 111.202 45.3963 111.365 45.947 111.692C46.507 112.019 46.9456 112.481 47.263 113.078C47.5803 113.666 47.739 114.352 47.739 115.136C47.739 115.911 47.5803 116.601 47.263 117.208C46.9456 117.815 46.507 118.286 45.947 118.622C45.3963 118.958 44.7803 119.126 44.099 119.126C43.4456 119.126 42.867 118.981 42.363 118.692C41.8683 118.393 41.4903 118.025 41.229 117.586V122.64H39.955V111.328H41.229V112.742ZM46.437 115.136C46.437 114.557 46.3203 114.053 46.087 113.624C45.8536 113.195 45.5363 112.868 45.135 112.644C44.743 112.42 44.309 112.308 43.833 112.308C43.3663 112.308 42.9323 112.425 42.531 112.658C42.139 112.882 41.8216 113.213 41.579 113.652C41.3456 114.081 41.229 114.581 41.229 115.15C41.229 115.729 41.3456 116.237 41.579 116.676C41.8216 117.105 42.139 117.437 42.531 117.67C42.9323 117.894 43.3663 118.006 43.833 118.006C44.309 118.006 44.743 117.894 45.135 117.67C45.5363 117.437 45.8536 117.105 46.087 116.676C46.3203 116.237 46.437 115.724 46.437 115.136ZM56.4159 114.87C56.4159 115.113 56.4019 115.369 56.3739 115.64H50.2419C50.2886 116.396 50.5452 116.989 51.0119 117.418C51.4879 117.838 52.0619 118.048 52.7339 118.048C53.2846 118.048 53.7419 117.922 54.1059 117.67C54.4792 117.409 54.7406 117.063 54.8899 116.634H56.2619C56.0566 117.371 55.6459 117.973 55.0299 118.44C54.4139 118.897 53.6486 119.126 52.7339 119.126C52.0059 119.126 51.3526 118.963 50.7739 118.636C50.2046 118.309 49.7566 117.847 49.4299 117.25C49.1032 116.643 48.9399 115.943 48.9399 115.15C48.9399 114.357 49.0986 113.661 49.4159 113.064C49.7332 112.467 50.1766 112.009 50.7459 111.692C51.3246 111.365 51.9872 111.202 52.7339 111.202C53.4619 111.202 54.1059 111.361 54.6659 111.678C55.2259 111.995 55.6552 112.434 55.9539 112.994C56.2619 113.545 56.4159 114.17 56.4159 114.87ZM55.0999 114.604C55.0999 114.119 54.9926 113.703 54.7779 113.358C54.5632 113.003 54.2692 112.737 53.8959 112.56C53.5319 112.373 53.1259 112.28 52.6779 112.28C52.0339 112.28 51.4832 112.485 51.0259 112.896C50.5779 113.307 50.3212 113.876 50.2559 114.604H55.0999ZM59.3715 112.574C59.5955 112.135 59.9129 111.795 60.3235 111.552C60.7435 111.309 61.2522 111.188 61.8495 111.188V112.504H61.5135C60.0855 112.504 59.3715 113.279 59.3715 114.828V119H58.0975V111.328H59.3715V112.574ZM63.9782 110.082C63.7355 110.082 63.5302 109.998 63.3622 109.83C63.1942 109.662 63.1102 109.457 63.1102 109.214C63.1102 108.971 63.1942 108.766 63.3622 108.598C63.5302 108.43 63.7355 108.346 63.9782 108.346C64.2115 108.346 64.4075 108.43 64.5662 108.598C64.7342 108.766 64.8182 108.971 64.8182 109.214C64.8182 109.457 64.7342 109.662 64.5662 109.83C64.4075 109.998 64.2115 110.082 63.9782 110.082ZM64.5942 111.328V119H63.3202V111.328H64.5942ZM73.7655 114.87C73.7655 115.113 73.7515 115.369 73.7235 115.64H67.5915C67.6382 116.396 67.8948 116.989 68.3615 117.418C68.8375 117.838 69.4115 118.048 70.0835 118.048C70.6342 118.048 71.0915 117.922 71.4555 117.67C71.8288 117.409 72.0902 117.063 72.2395 116.634H73.6115C73.4062 117.371 72.9955 117.973 72.3795 118.44C71.7635 118.897 70.9982 119.126 70.0835 119.126C69.3555 119.126 68.7022 118.963 68.1235 118.636C67.5542 118.309 67.1062 117.847 66.7795 117.25C66.4528 116.643 66.2895 115.943 66.2895 115.15C66.2895 114.357 66.4482 113.661 66.7655 113.064C67.0828 112.467 67.5262 112.009 68.0955 111.692C68.6742 111.365 69.3368 111.202 70.0835 111.202C70.8115 111.202 71.4555 111.361 72.0155 111.678C72.5755 111.995 73.0048 112.434 73.3035 112.994C73.6115 113.545 73.7655 114.17 73.7655 114.87ZM72.4495 114.604C72.4495 114.119 72.3422 113.703 72.1275 113.358C71.9128 113.003 71.6188 112.737 71.2455 112.56C70.8815 112.373 70.4755 112.28 70.0275 112.28C69.3835 112.28 68.8328 112.485 68.3755 112.896C67.9275 113.307 67.6708 113.876 67.6055 114.604H72.4495ZM70.0415 109.452L68.0955 110.642V109.634L70.0415 108.472L71.9735 109.634V110.642L70.0415 109.452ZM79.1851 111.188C80.1185 111.188 80.8745 111.473 81.4531 112.042C82.0318 112.602 82.3211 113.414 82.3211 114.478V119H81.0611V114.66C81.0611 113.895 80.8698 113.311 80.4871 112.91C80.1045 112.499 79.5818 112.294 78.9191 112.294C78.2471 112.294 77.7105 112.504 77.3091 112.924C76.9171 113.344 76.7211 113.955 76.7211 114.758V119H75.4471V111.328H76.7211V112.42C76.9731 112.028 77.3138 111.725 77.7431 111.51C78.1818 111.295 78.6625 111.188 79.1851 111.188ZM83.9262 115.15C83.9262 114.357 84.0849 113.666 84.4022 113.078C84.7196 112.481 85.1582 112.019 85.7182 111.692C86.2876 111.365 86.9362 111.202 87.6642 111.202C88.6069 111.202 89.3816 111.431 89.9882 111.888C90.6042 112.345 91.0102 112.98 91.2062 113.792H89.8342C89.7036 113.325 89.4469 112.957 89.0642 112.686C88.6909 112.415 88.2242 112.28 87.6642 112.28C86.9362 112.28 86.3482 112.532 85.9002 113.036C85.4522 113.531 85.2282 114.235 85.2282 115.15C85.2282 116.074 85.4522 116.788 85.9002 117.292C86.3482 117.796 86.9362 118.048 87.6642 118.048C88.2242 118.048 88.6909 117.917 89.0642 117.656C89.4376 117.395 89.6942 117.021 89.8342 116.536H91.2062C91.0009 117.32 90.5902 117.95 89.9742 118.426C89.3582 118.893 88.5882 119.126 87.6642 119.126C86.9362 119.126 86.2876 118.963 85.7182 118.636C85.1582 118.309 84.7196 117.847 84.4022 117.25C84.0849 116.653 83.9262 115.953 83.9262 115.15ZM93.5641 110.082C93.3215 110.082 93.1161 109.998 92.9481 109.83C92.7801 109.662 92.6961 109.457 92.6961 109.214C92.6961 108.971 92.7801 108.766 92.9481 108.598C93.1161 108.43 93.3215 108.346 93.5641 108.346C93.7975 108.346 93.9935 108.43 94.1521 108.598C94.3201 108.766 94.4041 108.971 94.4041 109.214C94.4041 109.457 94.3201 109.662 94.1521 109.83C93.9935 109.998 93.7975 110.082 93.5641 110.082ZM94.1801 111.328V119H92.9061V111.328H94.1801ZM95.8754 115.136C95.8754 114.352 96.0341 113.666 96.3514 113.078C96.6688 112.481 97.1028 112.019 97.6534 111.692C98.2134 111.365 98.8341 111.202 99.5154 111.202C100.187 111.202 100.771 111.347 101.265 111.636C101.76 111.925 102.129 112.289 102.371 112.728V111.328H103.659V119H102.371V117.572C102.119 118.02 101.741 118.393 101.237 118.692C100.743 118.981 100.164 119.126 99.5014 119.126C98.8201 119.126 98.2041 118.958 97.6534 118.622C97.1028 118.286 96.6688 117.815 96.3514 117.208C96.0341 116.601 95.8754 115.911 95.8754 115.136ZM102.371 115.15C102.371 114.571 102.255 114.067 102.021 113.638C101.788 113.209 101.471 112.882 101.069 112.658C100.677 112.425 100.243 112.308 99.7674 112.308C99.2914 112.308 98.8574 112.42 98.4654 112.644C98.0734 112.868 97.7608 113.195 97.5274 113.624C97.2941 114.053 97.1774 114.557 97.1774 115.136C97.1774 115.724 97.2941 116.237 97.5274 116.676C97.7608 117.105 98.0734 117.437 98.4654 117.67C98.8574 117.894 99.2914 118.006 99.7674 118.006C100.243 118.006 100.677 117.894 101.069 117.67C101.471 117.437 101.788 117.105 102.021 116.676C102.255 116.237 102.371 115.729 102.371 115.15ZM109.069 115.136C109.069 114.352 109.227 113.666 109.545 113.078C109.862 112.481 110.296 112.019 110.847 111.692C111.407 111.365 112.032 111.202 112.723 111.202C113.32 111.202 113.875 111.342 114.389 111.622C114.902 111.893 115.294 112.252 115.565 112.7V108.64H116.853V119H115.565V117.558C115.313 118.015 114.939 118.393 114.445 118.692C113.95 118.981 113.371 119.126 112.709 119.126C112.027 119.126 111.407 118.958 110.847 118.622C110.296 118.286 109.862 117.815 109.545 117.208C109.227 116.601 109.069 115.911 109.069 115.136ZM115.565 115.15C115.565 114.571 115.448 114.067 115.215 113.638C114.981 113.209 114.664 112.882 114.263 112.658C113.871 112.425 113.437 112.308 112.961 112.308C112.485 112.308 112.051 112.42 111.659 112.644C111.267 112.868 110.954 113.195 110.721 113.624C110.487 114.053 110.371 114.557 110.371 115.136C110.371 115.724 110.487 116.237 110.721 116.676C110.954 117.105 111.267 117.437 111.659 117.67C112.051 117.894 112.485 118.006 112.961 118.006C113.437 118.006 113.871 117.894 114.263 117.67C114.664 117.437 114.981 117.105 115.215 116.676C115.448 116.237 115.565 115.729 115.565 115.15ZM122.352 119.126C121.633 119.126 120.98 118.963 120.392 118.636C119.813 118.309 119.356 117.847 119.02 117.25C118.693 116.643 118.53 115.943 118.53 115.15C118.53 114.366 118.698 113.675 119.034 113.078C119.379 112.471 119.846 112.009 120.434 111.692C121.022 111.365 121.68 111.202 122.408 111.202C123.136 111.202 123.794 111.365 124.382 111.692C124.97 112.009 125.432 112.467 125.768 113.064C126.113 113.661 126.286 114.357 126.286 115.15C126.286 115.943 126.108 116.643 125.754 117.25C125.408 117.847 124.937 118.309 124.34 118.636C123.742 118.963 123.08 119.126 122.352 119.126ZM122.352 118.006C122.809 118.006 123.238 117.899 123.64 117.684C124.041 117.469 124.363 117.147 124.606 116.718C124.858 116.289 124.984 115.766 124.984 115.15C124.984 114.534 124.862 114.011 124.62 113.582C124.377 113.153 124.06 112.835 123.668 112.63C123.276 112.415 122.851 112.308 122.394 112.308C121.927 112.308 121.498 112.415 121.106 112.63C120.723 112.835 120.415 113.153 120.182 113.582C119.948 114.011 119.832 114.534 119.832 115.15C119.832 115.775 119.944 116.303 120.168 116.732C120.401 117.161 120.709 117.483 121.092 117.698C121.474 117.903 121.894 118.006 122.352 118.006ZM131.217 114.114C131.217 113.162 131.432 112.308 131.861 111.552C132.291 110.787 132.874 110.189 133.611 109.76C134.358 109.331 135.184 109.116 136.089 109.116C137.153 109.116 138.082 109.373 138.875 109.886C139.669 110.399 140.247 111.127 140.611 112.07H139.085C138.815 111.482 138.423 111.029 137.909 110.712C137.405 110.395 136.799 110.236 136.089 110.236C135.408 110.236 134.797 110.395 134.255 110.712C133.714 111.029 133.289 111.482 132.981 112.07C132.673 112.649 132.519 113.33 132.519 114.114C132.519 114.889 132.673 115.57 132.981 116.158C133.289 116.737 133.714 117.185 134.255 117.502C134.797 117.819 135.408 117.978 136.089 117.978C136.799 117.978 137.405 117.824 137.909 117.516C138.423 117.199 138.815 116.746 139.085 116.158H140.611C140.247 117.091 139.669 117.815 138.875 118.328C138.082 118.832 137.153 119.084 136.089 119.084C135.184 119.084 134.358 118.874 133.611 118.454C132.874 118.025 132.291 117.432 131.861 116.676C131.432 115.92 131.217 115.066 131.217 114.114ZM143.782 108.64V119H142.508V108.64H143.782ZM146.611 110.082C146.368 110.082 146.163 109.998 145.995 109.83C145.827 109.662 145.743 109.457 145.743 109.214C145.743 108.971 145.827 108.766 145.995 108.598C146.163 108.43 146.368 108.346 146.611 108.346C146.844 108.346 147.04 108.43 147.199 108.598C147.367 108.766 147.451 108.971 147.451 109.214C147.451 109.457 147.367 109.662 147.199 109.83C147.04 109.998 146.844 110.082 146.611 110.082ZM147.227 111.328V119H145.953V111.328H147.227ZM156.398 114.87C156.398 115.113 156.384 115.369 156.356 115.64H150.224C150.271 116.396 150.528 116.989 150.994 117.418C151.47 117.838 152.044 118.048 152.716 118.048C153.267 118.048 153.724 117.922 154.088 117.67C154.462 117.409 154.723 117.063 154.872 116.634H156.244C156.039 117.371 155.628 117.973 155.012 118.44C154.396 118.897 153.631 119.126 152.716 119.126C151.988 119.126 151.335 118.963 150.756 118.636C150.187 118.309 149.739 117.847 149.412 117.25C149.086 116.643 148.922 115.943 148.922 115.15C148.922 114.357 149.081 113.661 149.398 113.064C149.716 112.467 150.159 112.009 150.728 111.692C151.307 111.365 151.97 111.202 152.716 111.202C153.444 111.202 154.088 111.361 154.648 111.678C155.208 111.995 155.638 112.434 155.936 112.994C156.244 113.545 156.398 114.17 156.398 114.87ZM155.082 114.604C155.082 114.119 154.975 113.703 154.76 113.358C154.546 113.003 154.252 112.737 153.878 112.56C153.514 112.373 153.108 112.28 152.66 112.28C152.016 112.28 151.466 112.485 151.008 112.896C150.56 113.307 150.304 113.876 150.238 114.604H155.082ZM161.818 111.188C162.751 111.188 163.507 111.473 164.086 112.042C164.665 112.602 164.954 113.414 164.954 114.478V119H163.694V114.66C163.694 113.895 163.503 113.311 163.12 112.91C162.737 112.499 162.215 112.294 161.552 112.294C160.88 112.294 160.343 112.504 159.942 112.924C159.55 113.344 159.354 113.955 159.354 114.758V119H158.08V111.328H159.354V112.42C159.606 112.028 159.947 111.725 160.376 111.51C160.815 111.295 161.295 111.188 161.818 111.188ZM168.589 112.378V116.9C168.589 117.273 168.668 117.539 168.827 117.698C168.986 117.847 169.261 117.922 169.653 117.922H170.591V119H169.443C168.734 119 168.202 118.837 167.847 118.51C167.492 118.183 167.315 117.647 167.315 116.9V112.378H166.321V111.328H167.315V109.396H168.589V111.328H170.591V112.378H168.589ZM179.135 114.87C179.135 115.113 179.121 115.369 179.093 115.64H172.961C173.007 116.396 173.264 116.989 173.731 117.418C174.207 117.838 174.781 118.048 175.453 118.048C176.003 118.048 176.461 117.922 176.825 117.67C177.198 117.409 177.459 117.063 177.609 116.634H178.981C178.775 117.371 178.365 117.973 177.749 118.44C177.133 118.897 176.367 119.126 175.453 119.126C174.725 119.126 174.071 118.963 173.493 118.636C172.923 118.309 172.475 117.847 172.149 117.25C171.822 116.643 171.659 115.943 171.659 115.15C171.659 114.357 171.817 113.661 172.135 113.064C172.452 112.467 172.895 112.009 173.465 111.692C174.043 111.365 174.706 111.202 175.453 111.202C176.181 111.202 176.825 111.361 177.385 111.678C177.945 111.995 178.374 112.434 178.673 112.994C178.981 113.545 179.135 114.17 179.135 114.87ZM177.819 114.604C177.819 114.119 177.711 113.703 177.497 113.358C177.282 113.003 176.988 112.737 176.615 112.56C176.251 112.373 175.845 112.28 175.397 112.28C174.753 112.28 174.202 112.485 173.745 112.896C173.297 113.307 173.04 113.876 172.975 114.604H177.819ZM191.073 112.098C191.073 112.91 190.793 113.587 190.233 114.128C189.682 114.66 188.837 114.926 187.699 114.926H185.823V119H184.549V109.242H187.699C188.8 109.242 189.635 109.508 190.205 110.04C190.783 110.572 191.073 111.258 191.073 112.098ZM187.699 113.876C188.408 113.876 188.931 113.722 189.267 113.414C189.603 113.106 189.771 112.667 189.771 112.098C189.771 110.894 189.08 110.292 187.699 110.292H185.823V113.876H187.699ZM193.93 112.574C194.154 112.135 194.471 111.795 194.882 111.552C195.302 111.309 195.811 111.188 196.408 111.188V112.504H196.072C194.644 112.504 193.93 113.279 193.93 114.828V119H192.656V111.328H193.93V112.574ZM198.537 110.082C198.294 110.082 198.089 109.998 197.921 109.83C197.753 109.662 197.669 109.457 197.669 109.214C197.669 108.971 197.753 108.766 197.921 108.598C198.089 108.43 198.294 108.346 198.537 108.346C198.77 108.346 198.966 108.43 199.125 108.598C199.293 108.766 199.377 108.971 199.377 109.214C199.377 109.457 199.293 109.662 199.125 109.83C198.966 109.998 198.77 110.082 198.537 110.082ZM199.153 111.328V119H197.879V111.328H199.153ZM204.67 119.126C203.951 119.126 203.298 118.963 202.71 118.636C202.131 118.309 201.674 117.847 201.338 117.25C201.011 116.643 200.848 115.943 200.848 115.15C200.848 114.366 201.016 113.675 201.352 113.078C201.697 112.471 202.164 112.009 202.752 111.692C203.34 111.365 203.998 111.202 204.726 111.202C205.454 111.202 206.112 111.365 206.7 111.692C207.288 112.009 207.75 112.467 208.086 113.064C208.431 113.661 208.604 114.357 208.604 115.15C208.604 115.943 208.427 116.643 208.072 117.25C207.727 117.847 207.255 118.309 206.658 118.636C206.061 118.963 205.398 119.126 204.67 119.126ZM204.67 118.006C205.127 118.006 205.557 117.899 205.958 117.684C206.359 117.469 206.681 117.147 206.924 116.718C207.176 116.289 207.302 115.766 207.302 115.15C207.302 114.534 207.181 114.011 206.938 113.582C206.695 113.153 206.378 112.835 205.986 112.63C205.594 112.415 205.169 112.308 204.712 112.308C204.245 112.308 203.816 112.415 203.424 112.63C203.041 112.835 202.733 113.153 202.5 113.582C202.267 114.011 202.15 114.534 202.15 115.15C202.15 115.775 202.262 116.303 202.486 116.732C202.719 117.161 203.027 117.483 203.41 117.698C203.793 117.903 204.213 118.006 204.67 118.006ZM211.553 112.574C211.777 112.135 212.095 111.795 212.505 111.552C212.925 111.309 213.434 111.188 214.031 111.188V112.504H213.695C212.267 112.504 211.553 113.279 211.553 114.828V119H210.279V111.328H211.553V112.574ZM216.16 110.082C215.917 110.082 215.712 109.998 215.544 109.83C215.376 109.662 215.292 109.457 215.292 109.214C215.292 108.971 215.376 108.766 215.544 108.598C215.712 108.43 215.917 108.346 216.16 108.346C216.393 108.346 216.589 108.43 216.748 108.598C216.916 108.766 217 108.971 217 109.214C217 109.457 216.916 109.662 216.748 109.83C216.589 109.998 216.393 110.082 216.16 110.082ZM216.776 111.328V119H215.502V111.328H216.776ZM220.501 112.378V116.9C220.501 117.273 220.58 117.539 220.739 117.698C220.898 117.847 221.173 117.922 221.565 117.922H222.503V119H221.355C220.646 119 220.114 118.837 219.759 118.51C219.404 118.183 219.227 117.647 219.227 116.9V112.378H218.233V111.328H219.227V109.396H220.501V111.328H222.503V112.378H220.501ZM223.571 115.136C223.571 114.352 223.729 113.666 224.047 113.078C224.364 112.481 224.798 112.019 225.349 111.692C225.909 111.365 226.529 111.202 227.211 111.202C227.883 111.202 228.466 111.347 228.961 111.636C229.455 111.925 229.824 112.289 230.067 112.728V111.328H231.355V119H230.067V117.572C229.815 118.02 229.437 118.393 228.933 118.692C228.438 118.981 227.859 119.126 227.197 119.126C226.515 119.126 225.899 118.958 225.349 118.622C224.798 118.286 224.364 117.815 224.047 117.208C223.729 116.601 223.571 115.911 223.571 115.136ZM230.067 115.15C230.067 114.571 229.95 114.067 229.717 113.638C229.483 113.209 229.166 112.882 228.765 112.658C228.373 112.425 227.939 112.308 227.463 112.308C226.987 112.308 226.553 112.42 226.161 112.644C225.769 112.868 225.456 113.195 225.223 113.624C224.989 114.053 224.873 114.557 224.873 115.136C224.873 115.724 224.989 116.237 225.223 116.676C225.456 117.105 225.769 117.437 226.161 117.67C226.553 117.894 226.987 118.006 227.463 118.006C227.939 118.006 228.373 117.894 228.765 117.67C229.166 117.437 229.483 117.105 229.717 116.676C229.95 116.237 230.067 115.729 230.067 115.15ZM229.073 109.158L226.091 110.754V109.802L229.073 108.052V109.158ZM234.782 112.574C235.006 112.135 235.323 111.795 235.734 111.552C236.154 111.309 236.662 111.188 237.26 111.188V112.504H236.924C235.496 112.504 234.782 113.279 234.782 114.828V119H233.508V111.328H234.782V112.574ZM239.388 110.082C239.146 110.082 238.94 109.998 238.772 109.83C238.604 109.662 238.52 109.457 238.52 109.214C238.52 108.971 238.604 108.766 238.772 108.598C238.94 108.43 239.146 108.346 239.388 108.346C239.622 108.346 239.818 108.43 239.976 108.598C240.144 108.766 240.228 108.971 240.228 109.214C240.228 109.457 240.144 109.662 239.976 109.83C239.818 109.998 239.622 110.082 239.388 110.082ZM240.004 111.328V119H238.73V111.328H240.004ZM241.7 115.136C241.7 114.352 241.858 113.666 242.176 113.078C242.493 112.481 242.927 112.019 243.478 111.692C244.038 111.365 244.658 111.202 245.34 111.202C246.012 111.202 246.595 111.347 247.09 111.636C247.584 111.925 247.953 112.289 248.196 112.728V111.328H249.484V119H248.196V117.572C247.944 118.02 247.566 118.393 247.062 118.692C246.567 118.981 245.988 119.126 245.326 119.126C244.644 119.126 244.028 118.958 243.478 118.622C242.927 118.286 242.493 117.815 242.176 117.208C241.858 116.601 241.7 115.911 241.7 115.136ZM248.196 115.15C248.196 114.571 248.079 114.067 247.846 113.638C247.612 113.209 247.295 112.882 246.894 112.658C246.502 112.425 246.068 112.308 245.592 112.308C245.116 112.308 244.682 112.42 244.29 112.644C243.898 112.868 243.585 113.195 243.352 113.624C243.118 114.053 243.002 114.557 243.002 115.136C243.002 115.724 243.118 116.237 243.352 116.676C243.585 117.105 243.898 117.437 244.29 117.67C244.682 117.894 245.116 118.006 245.592 118.006C246.068 118.006 246.502 117.894 246.894 117.67C247.295 117.437 247.612 117.105 247.846 116.676C248.079 116.237 248.196 115.729 248.196 115.15Z" fill="#EEEFF4"/>
<mask id="path-9-inside-3_213_3" fill="white">
<path d="M0 180.47H200V235.7H0V180.47Z"/>
</mask>
<path d="M200 234.7H0V236.7H200V234.7Z" fill="#EEEFF4" mask="url(#path-9-inside-3_213_3)"/>
<path d="M1.275 207.645C3.39167 205.945 5.05 204.553 6.25 203.47C7.45 202.37 8.45833 201.228 9.275 200.045C10.1083 198.845 10.525 197.67 10.525 196.52C10.525 195.436 10.2583 194.586 9.725 193.97C9.20833 193.336 8.36667 193.02 7.2 193.02C6.06667 193.02 5.18333 193.378 4.55 194.095C3.93333 194.795 3.6 195.736 3.55 196.92H1.35C1.41667 195.053 1.98333 193.611 3.05 192.595C4.11667 191.578 5.49167 191.07 7.175 191.07C8.89167 191.07 10.25 191.545 11.25 192.495C12.2667 193.445 12.775 194.753 12.775 196.42C12.775 197.803 12.3583 199.153 11.525 200.47C10.7083 201.77 9.775 202.92 8.725 203.92C7.675 204.903 6.33333 206.053 4.7 207.37H13.3V209.27H1.275V207.645ZM17.0299 209.62C16.5965 209.62 16.2299 209.47 15.9299 209.17C15.6299 208.87 15.4799 208.503 15.4799 208.07C15.4799 207.636 15.6299 207.27 15.9299 206.97C16.2299 206.67 16.5965 206.52 17.0299 206.52C17.4465 206.52 17.7965 206.67 18.0799 206.97C18.3799 207.27 18.5299 207.636 18.5299 208.07C18.5299 208.503 18.3799 208.87 18.0799 209.17C17.7965 209.47 17.4465 209.62 17.0299 209.62Z" fill="#EEEFF4"/>
<path d="M32.3344 204.114C32.3344 203.162 32.5491 202.308 32.9784 201.552C33.4078 200.787 33.9911 200.189 34.7284 199.76C35.4751 199.331 36.3011 199.116 37.2064 199.116C38.2704 199.116 39.1991 199.373 39.9924 199.886C40.7858 200.399 41.3644 201.127 41.7284 202.07H40.2024C39.9318 201.482 39.5398 201.029 39.0264 200.712C38.5224 200.395 37.9158 200.236 37.2064 200.236C36.5251 200.236 35.9138 200.395 35.3724 200.712C34.8311 201.029 34.4064 201.482 34.0984 202.07C33.7904 202.649 33.6364 203.33 33.6364 204.114C33.6364 204.889 33.7904 205.57 34.0984 206.158C34.4064 206.737 34.8311 207.185 35.3724 207.502C35.9138 207.819 36.5251 207.978 37.2064 207.978C37.9158 207.978 38.5224 207.824 39.0264 207.516C39.5398 207.199 39.9318 206.746 40.2024 206.158H41.7284C41.3644 207.091 40.7858 207.815 39.9924 208.328C39.1991 208.832 38.2704 209.084 37.2064 209.084C36.3011 209.084 35.4751 208.874 34.7284 208.454C33.9911 208.025 33.4078 207.432 32.9784 206.676C32.5491 205.92 32.3344 205.066 32.3344 204.114ZM46.9709 209.126C46.2522 209.126 45.5989 208.963 45.0109 208.636C44.4322 208.309 43.9749 207.847 43.6389 207.25C43.3122 206.643 43.1489 205.943 43.1489 205.15C43.1489 204.366 43.3169 203.675 43.6529 203.078C43.9982 202.471 44.4649 202.009 45.0529 201.692C45.6409 201.365 46.2989 201.202 47.0269 201.202C47.7549 201.202 48.4129 201.365 49.0009 201.692C49.5889 202.009 50.0509 202.467 50.3869 203.064C50.7322 203.661 50.9049 204.357 50.9049 205.15C50.9049 205.943 50.7275 206.643 50.3729 207.25C50.0275 207.847 49.5562 208.309 48.9589 208.636C48.3615 208.963 47.6989 209.126 46.9709 209.126ZM46.9709 208.006C47.4282 208.006 47.8575 207.899 48.2589 207.684C48.6602 207.469 48.9822 207.147 49.2249 206.718C49.4769 206.289 49.6029 205.766 49.6029 205.15C49.6029 204.534 49.4815 204.011 49.2389 203.582C48.9962 203.153 48.6789 202.835 48.2869 202.63C47.8949 202.415 47.4702 202.308 47.0129 202.308C46.5462 202.308 46.1169 202.415 45.7249 202.63C45.3422 202.835 45.0342 203.153 44.8009 203.582C44.5675 204.011 44.4509 204.534 44.4509 205.15C44.4509 205.775 44.5629 206.303 44.7869 206.732C45.0202 207.161 45.3282 207.483 45.7109 207.698C46.0935 207.903 46.5135 208.006 46.9709 208.006ZM61.806 201.188C62.4033 201.188 62.9353 201.314 63.402 201.566C63.8686 201.809 64.2373 202.177 64.508 202.672C64.7786 203.167 64.914 203.769 64.914 204.478V209H63.654V204.66C63.654 203.895 63.4626 203.311 63.08 202.91C62.7066 202.499 62.198 202.294 61.554 202.294C60.8913 202.294 60.364 202.509 59.972 202.938C59.58 203.358 59.384 203.969 59.384 204.772V209H58.124V204.66C58.124 203.895 57.9326 203.311 57.55 202.91C57.1766 202.499 56.668 202.294 56.024 202.294C55.3613 202.294 54.834 202.509 54.442 202.938C54.05 203.358 53.854 203.969 53.854 204.772V209H52.58V201.328H53.854V202.434C54.106 202.033 54.442 201.725 54.862 201.51C55.2913 201.295 55.7626 201.188 56.276 201.188C56.92 201.188 57.4893 201.333 57.984 201.622C58.4786 201.911 58.8473 202.336 59.09 202.896C59.3046 202.355 59.6593 201.935 60.154 201.636C60.6486 201.337 61.1993 201.188 61.806 201.188ZM73.8078 201.328V209H72.5338V207.866C72.2911 208.258 71.9504 208.566 71.5118 208.79C71.0824 209.005 70.6064 209.112 70.0838 209.112C69.4864 209.112 68.9498 208.991 68.4738 208.748C67.9978 208.496 67.6198 208.123 67.3398 207.628C67.0691 207.133 66.9338 206.531 66.9338 205.822V201.328H68.1938V205.654C68.1938 206.41 68.3851 206.993 68.7678 207.404C69.1504 207.805 69.6731 208.006 70.3358 208.006C71.0171 208.006 71.5538 207.796 71.9458 207.376C72.3378 206.956 72.5338 206.345 72.5338 205.542V201.328H73.8078ZM79.6969 201.188C80.6302 201.188 81.3862 201.473 81.9649 202.042C82.5435 202.602 82.8329 203.414 82.8329 204.478V209H81.5729V204.66C81.5729 203.895 81.3815 203.311 80.9989 202.91C80.6162 202.499 80.0935 202.294 79.4309 202.294C78.7589 202.294 78.2222 202.504 77.8209 202.924C77.4289 203.344 77.2329 203.955 77.2329 204.758V209H75.9589V201.328H77.2329V202.42C77.4849 202.028 77.8255 201.725 78.2549 201.51C78.6935 201.295 79.1742 201.188 79.6969 201.188ZM85.5719 200.082C85.3293 200.082 85.1239 199.998 84.9559 199.83C84.7879 199.662 84.7039 199.457 84.7039 199.214C84.7039 198.971 84.7879 198.766 84.9559 198.598C85.1239 198.43 85.3293 198.346 85.5719 198.346C85.8053 198.346 86.0013 198.43 86.1599 198.598C86.3279 198.766 86.4119 198.971 86.4119 199.214C86.4119 199.457 86.3279 199.662 86.1599 199.83C86.0013 199.998 85.8053 200.082 85.5719 200.082ZM86.1879 201.328V209H84.9139V201.328H86.1879ZM87.8833 205.15C87.8833 204.357 88.0419 203.666 88.3593 203.078C88.6766 202.481 89.1153 202.019 89.6753 201.692C90.2446 201.365 90.8933 201.202 91.6213 201.202C92.5639 201.202 93.3386 201.431 93.9453 201.888C94.5613 202.345 94.9673 202.98 95.1633 203.792H93.7913C93.6606 203.325 93.4039 202.957 93.0213 202.686C92.6479 202.415 92.1813 202.28 91.6213 202.28C90.8933 202.28 90.3053 202.532 89.8573 203.036C89.4093 203.531 89.1853 204.235 89.1853 205.15C89.1853 206.074 89.4093 206.788 89.8573 207.292C90.3053 207.796 90.8933 208.048 91.6213 208.048C92.1813 208.048 92.6479 207.917 93.0213 207.656C93.3946 207.395 93.6513 207.021 93.7913 206.536H95.1633C94.9579 207.32 94.5473 207.95 93.9313 208.426C93.3153 208.893 92.5453 209.126 91.6213 209.126C90.8933 209.126 90.2446 208.963 89.6753 208.636C89.1153 208.309 88.6766 207.847 88.3593 207.25C88.0419 206.653 87.8833 205.953 87.8833 205.15ZM96.3872 205.136C96.3872 204.352 96.5458 203.666 96.8632 203.078C97.1805 202.481 97.6145 202.019 98.1652 201.692C98.7252 201.365 99.3458 201.202 100.027 201.202C100.699 201.202 101.282 201.347 101.777 201.636C102.272 201.925 102.64 202.289 102.883 202.728V201.328H104.171V209H102.883V207.572C102.631 208.02 102.253 208.393 101.749 208.692C101.254 208.981 100.676 209.126 100.013 209.126C99.3318 209.126 98.7158 208.958 98.1652 208.622C97.6145 208.286 97.1805 207.815 96.8632 207.208C96.5458 206.601 96.3872 205.911 96.3872 205.136ZM102.883 205.15C102.883 204.571 102.766 204.067 102.533 203.638C102.3 203.209 101.982 202.882 101.581 202.658C101.189 202.425 100.755 202.308 100.279 202.308C99.8032 202.308 99.3692 202.42 98.9772 202.644C98.5852 202.868 98.2725 203.195 98.0392 203.624C97.8058 204.053 97.6892 204.557 97.6892 205.136C97.6892 205.724 97.8058 206.237 98.0392 206.676C98.2725 207.105 98.5852 207.437 98.9772 207.67C99.3692 207.894 99.8032 208.006 100.279 208.006C100.755 208.006 101.189 207.894 101.581 207.67C101.982 207.437 102.3 207.105 102.533 206.676C102.766 206.237 102.883 205.729 102.883 205.15ZM109.586 208.048C110.146 208.048 110.613 207.917 110.986 207.656C111.359 207.395 111.616 207.021 111.756 206.536H113.128C112.941 207.264 112.573 207.861 112.022 208.328C111.481 208.785 110.799 209.047 109.978 209.112V209.812C110.529 209.803 110.967 209.919 111.294 210.162C111.621 210.405 111.784 210.75 111.784 211.198C111.784 211.637 111.625 211.987 111.308 212.248C110.991 212.509 110.58 212.64 110.076 212.64H108.466V211.814H109.824C110.132 211.814 110.356 211.767 110.496 211.674C110.645 211.581 110.72 211.422 110.72 211.198C110.72 210.983 110.645 210.829 110.496 210.736C110.356 210.643 110.132 210.596 109.824 210.596H109.124V209.098C108.48 209.033 107.911 208.832 107.416 208.496C106.921 208.151 106.534 207.693 106.254 207.124C105.983 206.545 105.848 205.887 105.848 205.15C105.848 204.357 106.007 203.666 106.324 203.078C106.641 202.481 107.08 202.019 107.64 201.692C108.209 201.365 108.858 201.202 109.586 201.202C110.529 201.202 111.303 201.431 111.91 201.888C112.526 202.345 112.932 202.98 113.128 203.792H111.756C111.625 203.325 111.369 202.957 110.986 202.686C110.613 202.415 110.146 202.28 109.586 202.28C108.858 202.28 108.27 202.532 107.822 203.036C107.374 203.531 107.15 204.235 107.15 205.15C107.15 206.074 107.374 206.788 107.822 207.292C108.27 207.796 108.858 208.048 109.586 208.048ZM114.352 205.136C114.352 204.352 114.511 203.666 114.828 203.078C115.145 202.481 115.579 202.019 116.13 201.692C116.69 201.365 117.311 201.202 117.992 201.202C118.664 201.202 119.247 201.347 119.742 201.636C120.237 201.925 120.605 202.289 120.848 202.728V201.328H122.136V209H120.848V207.572C120.596 208.02 120.218 208.393 119.714 208.692C119.219 208.981 118.641 209.126 117.978 209.126C117.297 209.126 116.681 208.958 116.13 208.622C115.579 208.286 115.145 207.815 114.828 207.208C114.511 206.601 114.352 205.911 114.352 205.136ZM120.848 205.15C120.848 204.571 120.731 204.067 120.498 203.638C120.265 203.209 119.947 202.882 119.546 202.658C119.154 202.425 118.72 202.308 118.244 202.308C117.768 202.308 117.334 202.42 116.942 202.644C116.55 202.868 116.237 203.195 116.004 203.624C115.771 204.053 115.654 204.557 115.654 205.136C115.654 205.724 115.771 206.237 116.004 206.676C116.237 207.105 116.55 207.437 116.942 207.67C117.334 207.894 117.768 208.006 118.244 208.006C118.72 208.006 119.154 207.894 119.546 207.67C119.947 207.437 120.265 207.105 120.498 206.676C120.731 206.237 120.848 205.729 120.848 205.15ZM116.438 200.502C116.503 200.026 116.657 199.662 116.9 199.41C117.152 199.158 117.465 199.032 117.838 199.032C118.015 199.032 118.165 199.065 118.286 199.13C118.417 199.186 118.571 199.27 118.748 199.382C118.879 199.475 118.995 199.55 119.098 199.606C119.201 199.653 119.313 199.676 119.434 199.676C119.593 199.676 119.728 199.625 119.84 199.522C119.952 199.419 120.022 199.27 120.05 199.074H120.778C120.722 199.541 120.568 199.9 120.316 200.152C120.064 200.404 119.751 200.53 119.378 200.53C119.201 200.53 119.042 200.502 118.902 200.446C118.771 200.381 118.622 200.287 118.454 200.166C118.305 200.073 118.183 200.003 118.09 199.956C118.006 199.909 117.903 199.886 117.782 199.886C117.623 199.886 117.488 199.937 117.376 200.04C117.273 200.143 117.208 200.297 117.18 200.502H116.438ZM127.635 209.126C126.916 209.126 126.263 208.963 125.675 208.636C125.096 208.309 124.639 207.847 124.303 207.25C123.976 206.643 123.813 205.943 123.813 205.15C123.813 204.366 123.981 203.675 124.317 203.078C124.662 202.471 125.129 202.009 125.717 201.692C126.305 201.365 126.963 201.202 127.691 201.202C128.419 201.202 129.077 201.365 129.665 201.692C130.253 202.009 130.715 202.467 131.051 203.064C131.396 203.661 131.569 204.357 131.569 205.15C131.569 205.943 131.392 206.643 131.037 207.25C130.692 207.847 130.22 208.309 129.623 208.636C129.026 208.963 128.363 209.126 127.635 209.126ZM127.635 208.006C128.092 208.006 128.522 207.899 128.923 207.684C129.324 207.469 129.646 207.147 129.889 206.718C130.141 206.289 130.267 205.766 130.267 205.15C130.267 204.534 130.146 204.011 129.903 203.582C129.66 203.153 129.343 202.835 128.951 202.63C128.559 202.415 128.134 202.308 127.677 202.308C127.21 202.308 126.781 202.415 126.389 202.63C126.006 202.835 125.698 203.153 125.465 203.582C125.232 204.011 125.115 204.534 125.115 205.15C125.115 205.775 125.227 206.303 125.451 206.732C125.684 207.161 125.992 207.483 126.375 207.698C126.758 207.903 127.178 208.006 127.635 208.006ZM136.5 204.114C136.5 203.162 136.715 202.308 137.144 201.552C137.574 200.787 138.157 200.189 138.894 199.76C139.641 199.331 140.467 199.116 141.372 199.116C142.436 199.116 143.365 199.373 144.158 199.886C144.952 200.399 145.53 201.127 145.894 202.07H144.368C144.098 201.482 143.706 201.029 143.192 200.712C142.688 200.395 142.082 200.236 141.372 200.236C140.691 200.236 140.08 200.395 139.538 200.712C138.997 201.029 138.572 201.482 138.264 202.07C137.956 202.649 137.802 203.33 137.802 204.114C137.802 204.889 137.956 205.57 138.264 206.158C138.572 206.737 138.997 207.185 139.538 207.502C140.08 207.819 140.691 207.978 141.372 207.978C142.082 207.978 142.688 207.824 143.192 207.516C143.706 207.199 144.098 206.746 144.368 206.158H145.894C145.53 207.091 144.952 207.815 144.158 208.328C143.365 208.832 142.436 209.084 141.372 209.084C140.467 209.084 139.641 208.874 138.894 208.454C138.157 208.025 137.574 207.432 137.144 206.676C136.715 205.92 136.5 205.066 136.5 204.114ZM149.065 198.64V209H147.791V198.64H149.065ZM150.76 205.136C150.76 204.352 150.919 203.666 151.236 203.078C151.554 202.481 151.988 202.019 152.538 201.692C153.098 201.365 153.719 201.202 154.4 201.202C155.072 201.202 155.656 201.347 156.15 201.636C156.645 201.925 157.014 202.289 157.256 202.728V201.328H158.544V209H157.256V207.572C157.004 208.02 156.626 208.393 156.122 208.692C155.628 208.981 155.049 209.126 154.386 209.126C153.705 209.126 153.089 208.958 152.538 208.622C151.988 208.286 151.554 207.815 151.236 207.208C150.919 206.601 150.76 205.911 150.76 205.136ZM157.256 205.15C157.256 204.571 157.14 204.067 156.906 203.638C156.673 203.209 156.356 202.882 155.954 202.658C155.562 202.425 155.128 202.308 154.652 202.308C154.176 202.308 153.742 202.42 153.35 202.644C152.958 202.868 152.646 203.195 152.412 203.624C152.179 204.053 152.062 204.557 152.062 205.136C152.062 205.724 152.179 206.237 152.412 206.676C152.646 207.105 152.958 207.437 153.35 207.67C153.742 207.894 154.176 208.006 154.652 208.006C155.128 208.006 155.562 207.894 155.954 207.67C156.356 207.437 156.673 207.105 156.906 206.676C157.14 206.237 157.256 205.729 157.256 205.15ZM161.971 202.574C162.195 202.135 162.512 201.795 162.923 201.552C163.343 201.309 163.852 201.188 164.449 201.188V202.504H164.113C162.685 202.504 161.971 203.279 161.971 204.828V209H160.697V201.328H161.971V202.574ZM165.444 205.136C165.444 204.352 165.602 203.666 165.92 203.078C166.237 202.481 166.671 202.019 167.222 201.692C167.782 201.365 168.402 201.202 169.084 201.202C169.756 201.202 170.339 201.347 170.834 201.636C171.328 201.925 171.697 202.289 171.94 202.728V201.328H173.228V209H171.94V207.572C171.688 208.02 171.31 208.393 170.806 208.692C170.311 208.981 169.732 209.126 169.07 209.126C168.388 209.126 167.772 208.958 167.222 208.622C166.671 208.286 166.237 207.815 165.92 207.208C165.602 206.601 165.444 205.911 165.444 205.136ZM171.94 205.15C171.94 204.571 171.823 204.067 171.59 203.638C171.356 203.209 171.039 202.882 170.638 202.658C170.246 202.425 169.812 202.308 169.336 202.308C168.86 202.308 168.426 202.42 168.034 202.644C167.642 202.868 167.329 203.195 167.096 203.624C166.862 204.053 166.746 204.557 166.746 205.136C166.746 205.724 166.862 206.237 167.096 206.676C167.329 207.105 167.642 207.437 168.034 207.67C168.426 207.894 168.86 208.006 169.336 208.006C169.812 208.006 170.246 207.894 170.638 207.67C171.039 207.437 171.356 207.105 171.59 206.676C171.823 206.237 171.94 205.729 171.94 205.15ZM186.113 204.87C186.113 205.113 186.099 205.369 186.071 205.64H179.939C179.986 206.396 180.242 206.989 180.709 207.418C181.185 207.838 181.759 208.048 182.431 208.048C182.982 208.048 183.439 207.922 183.803 207.67C184.176 207.409 184.438 207.063 184.587 206.634H185.959C185.754 207.371 185.343 207.973 184.727 208.44C184.111 208.897 183.346 209.126 182.431 209.126C181.703 209.126 181.05 208.963 180.471 208.636C179.902 208.309 179.454 207.847 179.127 207.25C178.8 206.643 178.637 205.943 178.637 205.15C178.637 204.357 178.796 203.661 179.113 203.064C179.43 202.467 179.874 202.009 180.443 201.692C181.022 201.365 181.684 201.202 182.431 201.202C183.159 201.202 183.803 201.361 184.363 201.678C184.923 201.995 185.352 202.434 185.651 202.994C185.959 203.545 186.113 204.17 186.113 204.87ZM184.797 204.604C184.797 204.119 184.69 203.703 184.475 203.358C184.26 203.003 183.966 202.737 183.593 202.56C183.229 202.373 182.823 202.28 182.375 202.28C181.731 202.28 181.18 202.485 180.723 202.896C180.275 203.307 180.018 203.876 179.953 204.604H184.797ZM195.951 209.098C195.046 209.098 194.22 208.888 193.473 208.468C192.727 208.039 192.134 207.446 191.695 206.69C191.266 205.925 191.051 205.066 191.051 204.114C191.051 203.162 191.266 202.308 191.695 201.552C192.134 200.787 192.727 200.194 193.473 199.774C194.22 199.345 195.046 199.13 195.951 199.13C196.866 199.13 197.697 199.345 198.443 199.774C199.19 200.194 199.778 200.782 200.207 201.538C200.637 202.294 200.851 203.153 200.851 204.114C200.851 205.075 200.637 205.934 200.207 206.69C199.778 207.446 199.19 208.039 198.443 208.468C197.697 208.888 196.866 209.098 195.951 209.098ZM195.951 207.992C196.633 207.992 197.244 207.833 197.785 207.516C198.336 207.199 198.765 206.746 199.073 206.158C199.391 205.57 199.549 204.889 199.549 204.114C199.549 203.33 199.391 202.649 199.073 202.07C198.765 201.482 198.341 201.029 197.799 200.712C197.258 200.395 196.642 200.236 195.951 200.236C195.261 200.236 194.645 200.395 194.103 200.712C193.562 201.029 193.133 201.482 192.815 202.07C192.507 202.649 192.353 203.33 192.353 204.114C192.353 204.889 192.507 205.57 192.815 206.158C193.133 206.746 193.562 207.199 194.103 207.516C194.654 207.833 195.27 207.992 195.951 207.992ZM203.807 202.756C204.068 202.299 204.451 201.925 204.955 201.636C205.459 201.347 206.033 201.202 206.677 201.202C207.368 201.202 207.988 201.365 208.539 201.692C209.09 202.019 209.524 202.481 209.841 203.078C210.158 203.666 210.317 204.352 210.317 205.136C210.317 205.911 210.158 206.601 209.841 207.208C209.524 207.815 209.085 208.286 208.525 208.622C207.974 208.958 207.358 209.126 206.677 209.126C206.014 209.126 205.431 208.981 204.927 208.692C204.432 208.403 204.059 208.034 203.807 207.586V209H202.533V198.64H203.807V202.756ZM209.015 205.136C209.015 204.557 208.898 204.053 208.665 203.624C208.432 203.195 208.114 202.868 207.713 202.644C207.321 202.42 206.887 202.308 206.411 202.308C205.944 202.308 205.51 202.425 205.109 202.658C204.717 202.882 204.4 203.213 204.157 203.652C203.924 204.081 203.807 204.581 203.807 205.15C203.807 205.729 203.924 206.237 204.157 206.676C204.4 207.105 204.717 207.437 205.109 207.67C205.51 207.894 205.944 208.006 206.411 208.006C206.887 208.006 207.321 207.894 207.713 207.67C208.114 207.437 208.432 207.105 208.665 206.676C208.898 206.237 209.015 205.724 209.015 205.136ZM212.68 200.082C212.437 200.082 212.232 199.998 212.064 199.83C211.905 199.662 211.826 199.457 211.826 199.214C211.826 198.971 211.905 198.766 212.064 198.598C212.232 198.43 212.437 198.346 212.68 198.346C212.923 198.346 213.123 198.43 213.282 198.598C213.45 198.766 213.534 198.971 213.534 199.214C213.534 199.457 213.45 199.662 213.282 199.83C213.123 199.998 212.923 200.082 212.68 200.082ZM213.31 210.666C213.31 211.347 213.137 211.847 212.792 212.164C212.447 212.481 211.943 212.64 211.28 212.64H210.538V211.562H211.07C211.425 211.562 211.672 211.492 211.812 211.352C211.961 211.212 212.036 210.974 212.036 210.638V201.328H213.31V210.666ZM222.467 204.87C222.467 205.113 222.453 205.369 222.425 205.64H216.293C216.339 206.396 216.596 206.989 217.063 207.418C217.539 207.838 218.113 208.048 218.785 208.048C219.335 208.048 219.793 207.922 220.157 207.67C220.53 207.409 220.791 207.063 220.941 206.634H222.313C222.107 207.371 221.697 207.973 221.081 208.44C220.465 208.897 219.699 209.126 218.785 209.126C218.057 209.126 217.403 208.963 216.825 208.636C216.255 208.309 215.807 207.847 215.481 207.25C215.154 206.643 214.991 205.943 214.991 205.15C214.991 204.357 215.149 203.661 215.467 203.064C215.784 202.467 216.227 202.009 216.797 201.692C217.375 201.365 218.038 201.202 218.785 201.202C219.513 201.202 220.157 201.361 220.717 201.678C221.277 201.995 221.706 202.434 222.005 202.994C222.313 203.545 222.467 204.17 222.467 204.87ZM221.151 204.604C221.151 204.119 221.043 203.703 220.829 203.358C220.614 203.003 220.32 202.737 219.947 202.56C219.583 202.373 219.177 202.28 218.729 202.28C218.085 202.28 217.534 202.485 217.077 202.896C216.629 203.307 216.372 203.876 216.307 204.604H221.151ZM225.702 202.378V206.9C225.702 207.273 225.782 207.539 225.94 207.698C226.099 207.847 226.374 207.922 226.766 207.922H227.704V209H226.556C225.847 209 225.315 208.837 224.96 208.51C224.606 208.183 224.428 207.647 224.428 206.9V202.378H223.434V201.328H224.428V199.396H225.702V201.328H227.704V202.378H225.702ZM229.906 200.082C229.663 200.082 229.458 199.998 229.29 199.83C229.122 199.662 229.038 199.457 229.038 199.214C229.038 198.971 229.122 198.766 229.29 198.598C229.458 198.43 229.663 198.346 229.906 198.346C230.139 198.346 230.335 198.43 230.494 198.598C230.662 198.766 230.746 198.971 230.746 199.214C230.746 199.457 230.662 199.662 230.494 199.83C230.335 199.998 230.139 200.082 229.906 200.082ZM230.522 201.328V209H229.248V201.328H230.522ZM235.549 207.824L237.929 201.328H239.287L236.277 209H234.793L231.783 201.328H233.155L235.549 207.824ZM240.065 205.136C240.065 204.352 240.224 203.666 240.541 203.078C240.858 202.481 241.292 202.019 241.843 201.692C242.403 201.365 243.024 201.202 243.705 201.202C244.377 201.202 244.96 201.347 245.455 201.636C245.95 201.925 246.318 202.289 246.561 202.728V201.328H247.849V209H246.561V207.572C246.309 208.02 245.931 208.393 245.427 208.692C244.932 208.981 244.354 209.126 243.691 209.126C243.01 209.126 242.394 208.958 241.843 208.622C241.292 208.286 240.858 207.815 240.541 207.208C240.224 206.601 240.065 205.911 240.065 205.136ZM246.561 205.15C246.561 204.571 246.444 204.067 246.211 203.638C245.978 203.209 245.66 202.882 245.259 202.658C244.867 202.425 244.433 202.308 243.957 202.308C243.481 202.308 243.047 202.42 242.655 202.644C242.263 202.868 241.95 203.195 241.717 203.624C241.484 204.053 241.367 204.557 241.367 205.136C241.367 205.724 241.484 206.237 241.717 206.676C241.95 207.105 242.263 207.437 242.655 207.67C243.047 207.894 243.481 208.006 243.957 208.006C244.433 208.006 244.867 207.894 245.259 207.67C245.66 207.437 245.978 207.105 246.211 206.676C246.444 206.237 246.561 205.729 246.561 205.15Z" fill="#EEEFF4"/>
<mask id="path-13-inside-4_213_3" fill="white">
<path d="M0 271H200V326H0V271Z"/>
</mask>
<path d="M200 325H0V327H200V325Z" fill="#EEEFF4" mask="url(#path-13-inside-4_213_3)"/>
<path d="M1.5 286.475C1.61667 284.942 2.20833 283.742 3.275 282.875C4.34167 282.008 5.725 281.575 7.425 281.575C8.55833 281.575 9.53333 281.783 10.35 282.2C11.1833 282.6 11.8083 283.15 12.225 283.85C12.6583 284.55 12.875 285.342 12.875 286.225C12.875 287.258 12.575 288.15 11.975 288.9C11.3917 289.65 10.625 290.133 9.675 290.35V290.475C10.7583 290.742 11.6167 291.267 12.25 292.05C12.8833 292.833 13.2 293.858 13.2 295.125C13.2 296.075 12.9833 296.933 12.55 297.7C12.1167 298.45 11.4667 299.042 10.6 299.475C9.73333 299.908 8.69167 300.125 7.475 300.125C5.70833 300.125 4.25833 299.667 3.125 298.75C1.99167 297.817 1.35833 296.5 1.225 294.8H3.425C3.54167 295.8 3.95 296.617 4.65 297.25C5.35 297.883 6.28333 298.2 7.45 298.2C8.61667 298.2 9.5 297.9 10.1 297.3C10.7167 296.683 11.025 295.892 11.025 294.925C11.025 293.675 10.6083 292.775 9.775 292.225C8.94167 291.675 7.68333 291.4 6 291.4H5.425V289.5H6.025C7.55833 289.483 8.71667 289.233 9.5 288.75C10.2833 288.25 10.675 287.483 10.675 286.45C10.675 285.567 10.3833 284.858 9.8 284.325C9.23333 283.792 8.41667 283.525 7.35 283.525C6.31667 283.525 5.48333 283.792 4.85 284.325C4.21667 284.858 3.84167 285.575 3.725 286.475H1.5ZM17.3717 300.15C16.9383 300.15 16.5717 300 16.2717 299.7C15.9717 299.4 15.8217 299.033 15.8217 298.6C15.8217 298.167 15.9717 297.8 16.2717 297.5C16.5717 297.2 16.9383 297.05 17.3717 297.05C17.7883 297.05 18.1383 297.2 18.4217 297.5C18.7217 297.8 18.8717 298.167 18.8717 298.6C18.8717 299.033 18.7217 299.4 18.4217 299.7C18.1383 300 17.7883 300.15 17.3717 300.15Z" fill="#EEEFF4"/>
<path d="M39.3344 293.098C39.3344 293.91 39.0544 294.587 38.4944 295.128C37.9438 295.66 37.0991 295.926 35.9604 295.926H34.0844V300H32.8104V290.242H35.9604C37.0618 290.242 37.8971 290.508 38.4664 291.04C39.0451 291.572 39.3344 292.258 39.3344 293.098ZM35.9604 294.876C36.6698 294.876 37.1924 294.722 37.5284 294.414C37.8644 294.106 38.0324 293.667 38.0324 293.098C38.0324 291.894 37.3418 291.292 35.9604 291.292H34.0844V294.876H35.9604ZM42.1918 293.574C42.4158 293.135 42.7332 292.795 43.1438 292.552C43.5638 292.309 44.0725 292.188 44.6698 292.188V293.504H44.3338C42.9058 293.504 42.1918 294.279 42.1918 295.828V300H40.9178V292.328H42.1918V293.574ZM49.4865 300.126C48.7678 300.126 48.1145 299.963 47.5265 299.636C46.9478 299.309 46.4905 298.847 46.1545 298.25C45.8278 297.643 45.6645 296.943 45.6645 296.15C45.6645 295.366 45.8325 294.675 46.1685 294.078C46.5138 293.471 46.9805 293.009 47.5685 292.692C48.1565 292.365 48.8145 292.202 49.5425 292.202C50.2705 292.202 50.9285 292.365 51.5165 292.692C52.1045 293.009 52.5665 293.467 52.9025 294.064C53.2478 294.661 53.4205 295.357 53.4205 296.15C53.4205 296.943 53.2432 297.643 52.8885 298.25C52.5432 298.847 52.0718 299.309 51.4745 299.636C50.8772 299.963 50.2145 300.126 49.4865 300.126ZM49.4865 299.006C49.9438 299.006 50.3732 298.899 50.7745 298.684C51.1758 298.469 51.4978 298.147 51.7405 297.718C51.9925 297.289 52.1185 296.766 52.1185 296.15C52.1185 295.534 51.9972 295.011 51.7545 294.582C51.5118 294.153 51.1945 293.835 50.8025 293.63C50.4105 293.415 49.9858 293.308 49.5285 293.308C49.0618 293.308 48.6325 293.415 48.2405 293.63C47.8578 293.835 47.5498 294.153 47.3165 294.582C47.0832 295.011 46.9665 295.534 46.9665 296.15C46.9665 296.775 47.0785 297.303 47.3025 297.732C47.5358 298.161 47.8438 298.483 48.2265 298.698C48.6092 298.903 49.0292 299.006 49.4865 299.006ZM54.6196 296.136C54.6196 295.352 54.7782 294.666 55.0956 294.078C55.4129 293.481 55.8469 293.019 56.3976 292.692C56.9576 292.365 57.5829 292.202 58.2736 292.202C58.8709 292.202 59.4262 292.342 59.9396 292.622C60.4529 292.893 60.8449 293.252 61.1156 293.7V289.64H62.4036V300H61.1156V298.558C60.8636 299.015 60.4902 299.393 59.9956 299.692C59.5009 299.981 58.9222 300.126 58.2596 300.126C57.5782 300.126 56.9576 299.958 56.3976 299.622C55.8469 299.286 55.4129 298.815 55.0956 298.208C54.7782 297.601 54.6196 296.911 54.6196 296.136ZM61.1156 296.15C61.1156 295.571 60.9989 295.067 60.7656 294.638C60.5322 294.209 60.2149 293.882 59.8136 293.658C59.4216 293.425 58.9876 293.308 58.5116 293.308C58.0356 293.308 57.6016 293.42 57.2096 293.644C56.8176 293.868 56.5049 294.195 56.2716 294.624C56.0382 295.053 55.9216 295.557 55.9216 296.136C55.9216 296.724 56.0382 297.237 56.2716 297.676C56.5049 298.105 56.8176 298.437 57.2096 298.67C57.6016 298.894 58.0356 299.006 58.5116 299.006C58.9876 299.006 59.4216 298.894 59.8136 298.67C60.2149 298.437 60.5322 298.105 60.7656 297.676C60.9989 297.237 61.1156 296.729 61.1156 296.15ZM71.3605 292.328V300H70.0865V298.866C69.8438 299.258 69.5032 299.566 69.0645 299.79C68.6352 300.005 68.1592 300.112 67.6365 300.112C67.0392 300.112 66.5025 299.991 66.0265 299.748C65.5505 299.496 65.1725 299.123 64.8925 298.628C64.6218 298.133 64.4865 297.531 64.4865 296.822V292.328H65.7465V296.654C65.7465 297.41 65.9378 297.993 66.3205 298.404C66.7032 298.805 67.2258 299.006 67.8885 299.006C68.5698 299.006 69.1065 298.796 69.4985 298.376C69.8905 297.956 70.0865 297.345 70.0865 296.542V292.328H71.3605ZM75.0656 293.378V297.9C75.0656 298.273 75.1449 298.539 75.3036 298.698C75.4623 298.847 75.7376 298.922 76.1296 298.922H77.0676V300H75.9196C75.2103 300 74.6783 299.837 74.3236 299.51C73.9689 299.183 73.7916 298.647 73.7916 297.9V293.378H72.7976V292.328H73.7916V290.396H75.0656V292.328H77.0676V293.378H75.0656ZM79.2692 291.082C79.0265 291.082 78.8212 290.998 78.6532 290.83C78.4852 290.662 78.4012 290.457 78.4012 290.214C78.4012 289.971 78.4852 289.766 78.6532 289.598C78.8212 289.43 79.0265 289.346 79.2692 289.346C79.5025 289.346 79.6985 289.43 79.8572 289.598C80.0252 289.766 80.1092 289.971 80.1092 290.214C80.1092 290.457 80.0252 290.662 79.8572 290.83C79.6985 290.998 79.5025 291.082 79.2692 291.082ZM79.8852 292.328V300H78.6112V292.328H79.8852ZM84.9125 298.824L87.2925 292.328H88.6505L85.6405 300H84.1565L81.1465 292.328H82.5185L84.9125 298.824ZM90.5622 291.082C90.3195 291.082 90.1142 290.998 89.9462 290.83C89.7782 290.662 89.6942 290.457 89.6942 290.214C89.6942 289.971 89.7782 289.766 89.9462 289.598C90.1142 289.43 90.3195 289.346 90.5622 289.346C90.7955 289.346 90.9915 289.43 91.1502 289.598C91.3182 289.766 91.4022 289.971 91.4022 290.214C91.4022 290.457 91.3182 290.662 91.1502 290.83C90.9915 290.998 90.7955 291.082 90.5622 291.082ZM91.1782 292.328V300H89.9042V292.328H91.1782ZM92.8735 296.136C92.8735 295.352 93.0322 294.666 93.3495 294.078C93.6668 293.481 94.1008 293.019 94.6515 292.692C95.2115 292.365 95.8368 292.202 96.5275 292.202C97.1248 292.202 97.6802 292.342 98.1935 292.622C98.7068 292.893 99.0988 293.252 99.3695 293.7V289.64H100.657V300H99.3695V298.558C99.1175 299.015 98.7442 299.393 98.2495 299.692C97.7548 299.981 97.1762 300.126 96.5135 300.126C95.8322 300.126 95.2115 299.958 94.6515 299.622C94.1008 299.286 93.6668 298.815 93.3495 298.208C93.0322 297.601 92.8735 296.911 92.8735 296.136ZM99.3695 296.15C99.3695 295.571 99.2528 295.067 99.0195 294.638C98.7862 294.209 98.4688 293.882 98.0675 293.658C97.6755 293.425 97.2415 293.308 96.7655 293.308C96.2895 293.308 95.8555 293.42 95.4635 293.644C95.0715 293.868 94.7588 294.195 94.5255 294.624C94.2922 295.053 94.1755 295.557 94.1755 296.136C94.1755 296.724 94.2922 297.237 94.5255 297.676C94.7588 298.105 95.0715 298.437 95.4635 298.67C95.8555 298.894 96.2895 299.006 96.7655 299.006C97.2415 299.006 97.6755 298.894 98.0675 298.67C98.4688 298.437 98.7862 298.105 99.0195 297.676C99.2528 297.237 99.3695 296.729 99.3695 296.15ZM102.334 296.136C102.334 295.352 102.493 294.666 102.81 294.078C103.128 293.481 103.562 293.019 104.112 292.692C104.672 292.365 105.293 292.202 105.974 292.202C106.646 292.202 107.23 292.347 107.724 292.636C108.219 292.925 108.588 293.289 108.83 293.728V292.328H110.118V300H108.83V298.572C108.578 299.02 108.2 299.393 107.696 299.692C107.202 299.981 106.623 300.126 105.96 300.126C105.279 300.126 104.663 299.958 104.112 299.622C103.562 299.286 103.128 298.815 102.81 298.208C102.493 297.601 102.334 296.911 102.334 296.136ZM108.83 296.15C108.83 295.571 108.714 295.067 108.48 294.638C108.247 294.209 107.93 293.882 107.528 293.658C107.136 293.425 106.702 293.308 106.226 293.308C105.75 293.308 105.316 293.42 104.924 293.644C104.532 293.868 104.22 294.195 103.986 294.624C103.753 295.053 103.636 295.557 103.636 296.136C103.636 296.724 103.753 297.237 103.986 297.676C104.22 298.105 104.532 298.437 104.924 298.67C105.316 298.894 105.75 299.006 106.226 299.006C106.702 299.006 107.136 298.894 107.528 298.67C107.93 298.437 108.247 298.105 108.48 297.676C108.714 297.237 108.83 296.729 108.83 296.15ZM111.795 296.136C111.795 295.352 111.954 294.666 112.271 294.078C112.589 293.481 113.023 293.019 113.573 292.692C114.133 292.365 114.759 292.202 115.449 292.202C116.047 292.202 116.602 292.342 117.115 292.622C117.629 292.893 118.021 293.252 118.291 293.7V289.64H119.579V300H118.291V298.558C118.039 299.015 117.666 299.393 117.171 299.692C116.677 299.981 116.098 300.126 115.435 300.126C114.754 300.126 114.133 299.958 113.573 299.622C113.023 299.286 112.589 298.815 112.271 298.208C111.954 297.601 111.795 296.911 111.795 296.136ZM118.291 296.15C118.291 295.571 118.175 295.067 117.941 294.638C117.708 294.209 117.391 293.882 116.989 293.658C116.597 293.425 116.163 293.308 115.687 293.308C115.211 293.308 114.777 293.42 114.385 293.644C113.993 293.868 113.681 294.195 113.447 294.624C113.214 295.053 113.097 295.557 113.097 296.136C113.097 296.724 113.214 297.237 113.447 297.676C113.681 298.105 113.993 298.437 114.385 298.67C114.777 298.894 115.211 299.006 115.687 299.006C116.163 299.006 116.597 298.894 116.989 298.67C117.391 298.437 117.708 298.105 117.941 297.676C118.175 297.237 118.291 296.729 118.291 296.15ZM128.732 295.87C128.732 296.113 128.718 296.369 128.69 296.64H122.558C122.605 297.396 122.862 297.989 123.328 298.418C123.804 298.838 124.378 299.048 125.05 299.048C125.601 299.048 126.058 298.922 126.422 298.67C126.796 298.409 127.057 298.063 127.206 297.634H128.578C128.373 298.371 127.962 298.973 127.346 299.44C126.73 299.897 125.965 300.126 125.05 300.126C124.322 300.126 123.669 299.963 123.09 299.636C122.521 299.309 122.073 298.847 121.746 298.25C121.42 297.643 121.256 296.943 121.256 296.15C121.256 295.357 121.415 294.661 121.732 294.064C122.05 293.467 122.493 293.009 123.062 292.692C123.641 292.365 124.304 292.202 125.05 292.202C125.778 292.202 126.422 292.361 126.982 292.678C127.542 292.995 127.972 293.434 128.27 293.994C128.578 294.545 128.732 295.17 128.732 295.87ZM127.416 295.604C127.416 295.119 127.309 294.703 127.094 294.358C126.88 294.003 126.586 293.737 126.212 293.56C125.848 293.373 125.442 293.28 124.994 293.28C124.35 293.28 123.8 293.485 123.342 293.896C122.894 294.307 122.638 294.876 122.572 295.604H127.416Z" fill="#EEEFF4"/>
</svg>
