<?xml version="1.0" encoding="UTF-8"?>
<!DOCTYPE svg PUBLIC "-//W3C//DTD SVG 1.1//EN" "http://www.w3.org/Graphics/SVG/1.1/DTD/svg11.dtd">
<!-- Creator: CorelDRAW 2020 (64 Bit) -->
<svg xmlns="http://www.w3.org/2000/svg" xml:space="preserve" width="230.207mm" height="373.846mm" version="1.1" style="shape-rendering:geometricPrecision; text-rendering:geometricPrecision; image-rendering:optimizeQuality; fill-rule:evenodd; clip-rule:evenodd"
viewBox="0 0 23007.27 37362.76"
 xmlns:xlink="http://www.w3.org/1999/xlink"
 xmlns:xodm="http://www.corel.com/coreldraw/odm/2003">
 <defs>
  <style type="text/css">
   <![CDATA[
    .fil0 {fill:#FFFFFF}
   ]]>
  </style>
 </defs>
 <g id="Camada_x0020_1">
  <metadata id="CorelCorpID_0Corel-Layer"/>
  <path class="fil0" d="M7288.77 13656.44c-214.13,-221.91 -584.76,-685.4 -862.18,-767.97 -510.84,-152.27 -951,85.48 -1055.41,543.92 -163.39,716.94 958.3,1551.46 1324.94,1916.5 1112.47,1107.82 2138.41,2149.44 3247.81,3259.72 1001.51,1002.23 758.01,747.27 756.27,2592.92 -1.04,1100.66 0.7,2201.23 -3.47,3301.89 -5.14,375.44 1.65,502.01 0.93,526.99 -48.93,-34.98 -97.56,-71.17 -243.83,-208.61 -292.78,-360.63 -3039.6,-3153.41 -3504.75,-3621.85 -437.7,-440.77 -1371.37,-746.57 -1577.22,136.96 -167.93,720.81 540.88,1107.44 879.52,1461.61 659.4,689.76 3481.87,3500.5 3845.82,3890.68 599.44,796.44 694.65,313.42 605.51,3317.26 -1.82,1467.49 -1.9,2935.01 -2.76,4402.52 -0.56,1099.65 -378.59,3711.33 1394.29,2742.12 966.21,-528.19 1876.55,-1144.09 2668.42,-1738.79 1585.02,-1190.5 3126.32,-2773.47 4290.34,-4421.31 2464.22,-3488.42 4376.28,-7805.05 3873.48,-14349.4 -93.54,-1432.91 -398.16,-2761.73 -766.11,-4029.23 -396.5,-1366.02 -921.9,-2254.81 -1330.77,-3417.57 10.95,-22.35 23.14,-45.75 36.18,-69.94 450.3,-471.93 726.82,-1111.11 726.82,-1814.82 0,-1452.04 -1177.32,-2629.39 -2629.42,-2629.39 -1452.1,0 -2629.43,1177.35 -2629.43,2629.39 0,1452.07 1177.33,2629.43 2629.43,2629.43 143.24,0 283.72,-11.63 420.73,-33.68 205.07,601.02 620.84,1414.58 880.53,2100.22 1384.76,3656.28 1502.5,8397.17 371.59,12163.54 -214.45,714.27 -442.6,1317.95 -716.38,1986.17 -964.32,2353.98 -2658.89,4852.17 -4424.06,6485.96 -548.61,507.77 -2351.2,2142.45 -3176.83,2418.52l-12.53 -6755.25c-3.23,-360.18 -57.14,-750.21 106.02,-1032.73 84.87,-146.82 1006.77,-1033.42 1201.06,-1215.01l3205.58 -3200.4c312.72,-313.98 1104.82,-910.09 1025.61,-1532.13 -106.71,-837.67 -1009.39,-790.7 -1544.51,-286.39 -579.33,545.93 -3503.71,3625.49 -3992.87,3992.66 66.03,-1130.78 -371.83,-5183.91 74.56,-5780.63 368.05,-492 629.63,-618.3 1458.91,-1369.79 660.5,-661.35 3885.09,-3795.39 3976.98,-4134.56 223.81,-826.43 -671.32,-1336.95 -1305.09,-802.86l-4205.93 4127.11c16.01,-324.61 -2.67,-357.08 3.72,-969.9l4.25 -7105.65c-1.01,-2578.49 152.89,-5680.99 -5.67,-8193.61 -94.11,-1492.02 -1645.31,-529.28 -2406.55,-64.05 -4228.44,2584.32 -7558.63,6981.52 -9003.84,11717.9 -541.57,1774.46 -990.64,5229.4 -882.19,7344.5 99.3,2617.27 819.93,5412.8 1943.38,7786.08 177.53,375.14 226.35,573.19 204.99,714.72 -366,451.79 -585.46,1027.17 -585.46,1653.83 0,392.22 86,764.31 240.03,1098.63 47.22,105.02 101.15,204.78 161.77,298.56 465.23,740.16 1288.95,1232.24 2227.64,1232.24 818.72,0 1550.06,-374.31 2032.29,-961.08 75.28,-89.48 144.6,-185.62 206.62,-289.23 247.55,-400.96 390.51,-873.35 390.51,-1379.11 0,-1452.05 -1177.32,-2629.4 -2629.42,-2629.4 -108.08,0 -214.59,6.69 -319.24,19.35 -79.18,-7.33 -161.52,-15.53 -247.62,-25.2 -668.09,-1328.66 -1190.9,-2735.74 -1534.19,-4187.08 -258.18,-1091.68 -365.21,-2064.2 -489.41,-3231.43 -74.94,-2512.7 93.24,-4387.66 712.04,-6616.16 259.92,-936.01 577.52,-1765.03 966.77,-2634.13 862.63,-1926.59 1375.93,-2558.02 2548.78,-4158.09 983.31,-1265.75 3523.88,-3824.14 4849.23,-4264.22l2.54 14371.23c-33.19,490.51 -6.71,289.47 -28.22,471.61 -7.89,-1.74 -3110.85,-3134.49 -3380.54,-3414.13zm11674.58 -7358.61c560.31,0 1014.61,454.29 1014.61,1014.61 0,560.31 -454.29,1014.59 -1014.61,1014.59 -560.31,0 -1014.61,-454.27 -1014.61,-1014.59 0,-560.31 454.29,-1014.61 1014.61,-1014.61zm-14754.72 22614.93c560.31,0 1014.61,454.3 1014.61,1014.62 0,560.3 -454.29,1014.58 -1014.61,1014.58 -560.31,0 -1014.61,-454.27 -1014.61,-1014.58 0,-560.31 454.29,-1014.62 1014.61,-1014.62z"/>
 </g>
</svg>
