<svg width="21" height="21" viewBox="0 0 21 21" fill="none" xmlns="http://www.w3.org/2000/svg">
<path d="M3.66699 8.05197H6.44477V17.4964H3.66699V8.05197ZM5.04755 6.94086H5.03199C4.2031 6.94086 3.66699 6.32309 3.66699 5.55142C3.66699 4.76309 4.21977 4.16309 5.06366 4.16309C5.90866 4.16309 6.42921 4.76309 6.44477 5.55142C6.44477 6.32253 5.90866 6.94086 5.04755 6.94086ZM17.0003 17.4964H14.2225V12.4414C14.2225 11.2203 13.542 10.387 12.4492 10.387C11.6153 10.387 11.1642 10.9492 10.9453 11.4925C10.8653 11.687 10.8892 12.2248 10.8892 12.4964V17.4964H8.11144V8.05197H10.8892V9.50531C11.2898 8.88531 11.917 8.05197 13.5214 8.05197C15.5092 8.05197 16.9998 9.30197 16.9998 12.0931L17.0003 17.4964Z" fill="#EEEFF4"/>
</svg>
