<svg width="656" height="816" viewBox="0 0 656 816" fill="none" xmlns="http://www.w3.org/2000/svg">
<g clip-path="url(#clip0_90_436)">
<path d="M0 11C0 5.47714 4.47715 1 10 1H481C486.523 1 491 5.47715 491 11V805C491 810.523 486.523 815 481 815H10C4.47716 815 0 810.523 0 805V11Z" fill="#102D58"/>
<circle cx="445.854" cy="599.094" r="134.5" fill="#EEEFF4" fill-opacity="0.13"/>
<circle cx="352.354" cy="507.594" r="69" fill="#EEEFF4" fill-opacity="0.13"/>
<path d="M46.2055 52.0497V71.5937H42.2855V52.0497H46.2055ZM58.6745 55.8577C60.5225 55.8577 62.0158 56.4457 63.1545 57.6217C64.2932 58.779 64.8625 60.403 64.8625 62.4937V71.5937H60.9425V63.0257C60.9425 61.7937 60.6345 60.851 60.0185 60.1977C59.4025 59.5257 58.5625 59.1897 57.4985 59.1897C56.4158 59.1897 55.5572 59.5257 54.9225 60.1977C54.3065 60.851 53.9985 61.7937 53.9985 63.0257V71.5937H50.0785V56.0817H53.9985V58.0137C54.5212 57.3417 55.1838 56.819 55.9865 56.4457C56.8078 56.0537 57.7038 55.8577 58.6745 55.8577ZM75.7022 59.3017H72.9862V71.5937H69.0102V59.3017H67.2462V56.0817H69.0102V55.2977C69.0102 53.3937 69.5515 51.9937 70.6342 51.0977C71.7169 50.2017 73.3502 49.7817 75.5342 49.8377V53.1417C74.5822 53.123 73.9195 53.2817 73.5462 53.6177C73.1729 53.9537 72.9862 54.5604 72.9862 55.4377V56.0817H75.7022V59.3017ZM85.1305 71.8457C83.6372 71.8457 82.2932 71.519 81.0985 70.8657C79.9039 70.1937 78.9612 69.251 78.2705 68.0377C77.5985 66.8244 77.2625 65.4244 77.2625 63.8377C77.2625 62.251 77.6079 60.851 78.2985 59.6377C79.0079 58.4244 79.9692 57.491 81.1825 56.8377C82.3959 56.1657 83.7492 55.8297 85.2425 55.8297C86.7359 55.8297 88.0892 56.1657 89.3025 56.8377C90.5159 57.491 91.4679 58.4244 92.1585 59.6377C92.8679 60.851 93.2225 62.251 93.2225 63.8377C93.2225 65.4244 92.8585 66.8244 92.1305 68.0377C91.4212 69.251 90.4505 70.1937 89.2185 70.8657C88.0052 71.519 86.6425 71.8457 85.1305 71.8457ZM85.1305 68.4297C85.8399 68.4297 86.5025 68.2617 87.1185 67.9257C87.7532 67.571 88.2572 67.0484 88.6305 66.3577C89.0039 65.667 89.1905 64.827 89.1905 63.8377C89.1905 62.363 88.7985 61.2337 88.0145 60.4497C87.2492 59.647 86.3065 59.2457 85.1865 59.2457C84.0665 59.2457 83.1239 59.647 82.3585 60.4497C81.6119 61.2337 81.2385 62.363 81.2385 63.8377C81.2385 65.3124 81.6025 66.451 82.3305 67.2537C83.0772 68.0377 84.0105 68.4297 85.1305 68.4297ZM100.018 58.4897C100.522 57.6684 101.175 57.0244 101.978 56.5577C102.799 56.091 103.733 55.8577 104.778 55.8577V59.9737H103.742C102.51 59.9737 101.577 60.263 100.942 60.8417C100.326 61.4204 100.018 62.4284 100.018 63.8657V71.5937H96.098V56.0817H100.018V58.4897ZM126.682 55.8577C128.586 55.8577 130.117 56.4457 131.274 57.6217C132.45 58.779 133.038 60.403 133.038 62.4937V71.5937H129.118V63.0257C129.118 61.8124 128.81 60.8884 128.194 60.2537C127.578 59.6004 126.738 59.2737 125.674 59.2737C124.61 59.2737 123.761 59.6004 123.126 60.2537C122.51 60.8884 122.202 61.8124 122.202 63.0257V71.5937H118.282V63.0257C118.282 61.8124 117.974 60.8884 117.358 60.2537C116.742 59.6004 115.902 59.2737 114.838 59.2737C113.756 59.2737 112.897 59.6004 112.262 60.2537C111.646 60.8884 111.338 61.8124 111.338 63.0257V71.5937H107.418V56.0817H111.338V57.9577C111.842 57.3044 112.486 56.791 113.27 56.4177C114.073 56.0444 114.95 55.8577 115.902 55.8577C117.116 55.8577 118.198 56.119 119.15 56.6417C120.102 57.1457 120.84 57.8737 121.362 58.8257C121.866 57.9297 122.594 57.211 123.546 56.6697C124.517 56.1284 125.562 55.8577 126.682 55.8577ZM135.75 63.7817C135.75 62.2137 136.058 60.823 136.674 59.6097C137.309 58.3964 138.158 57.463 139.222 56.8097C140.305 56.1564 141.509 55.8297 142.834 55.8297C143.992 55.8297 145 56.063 145.858 56.5297C146.736 56.9964 147.436 57.5844 147.958 58.2937V56.0817H151.906V71.5937H147.958V69.3257C147.454 70.0537 146.754 70.6604 145.858 71.1457C144.981 71.6124 143.964 71.8457 142.806 71.8457C141.5 71.8457 140.305 71.5097 139.222 70.8377C138.158 70.1657 137.309 69.223 136.674 68.0097C136.058 66.7777 135.75 65.3684 135.75 63.7817ZM147.958 63.8377C147.958 62.8857 147.772 62.0737 147.398 61.4017C147.025 60.711 146.521 60.1884 145.886 59.8337C145.252 59.4604 144.57 59.2737 143.842 59.2737C143.114 59.2737 142.442 59.451 141.826 59.8057C141.21 60.1604 140.706 60.683 140.314 61.3737C139.941 62.0457 139.754 62.8484 139.754 63.7817C139.754 64.715 139.941 65.5364 140.314 66.2457C140.706 66.9364 141.21 67.4684 141.826 67.8417C142.461 68.215 143.133 68.4017 143.842 68.4017C144.57 68.4017 145.252 68.2244 145.886 67.8697C146.521 67.4964 147.025 66.9737 147.398 66.3017C147.772 65.611 147.958 64.7897 147.958 63.8377ZM162.371 68.4857C163.957 68.4857 164.993 67.7764 165.479 66.3577H169.707C169.315 67.8697 168.587 69.1017 167.523 70.0537C166.477 71.0057 165.161 71.575 163.575 71.7617V72.8537C164.601 72.8537 165.46 73.115 166.151 73.6377C166.86 74.1604 167.215 74.9164 167.215 75.9057C167.215 76.9137 166.851 77.6884 166.123 78.2297C165.413 78.771 164.536 79.0417 163.491 79.0417H159.515V76.7457H162.847C163.295 76.7457 163.631 76.6804 163.855 76.5497C164.097 76.419 164.219 76.1857 164.219 75.8497C164.219 75.5137 164.097 75.2804 163.855 75.1497C163.631 75.0377 163.295 74.9817 162.847 74.9817H161.111V71.7617C159.841 71.575 158.721 71.1364 157.751 70.4457C156.799 69.7364 156.052 68.8217 155.511 67.7017C154.988 66.563 154.727 65.275 154.727 63.8377C154.727 62.2324 155.053 60.8324 155.707 59.6377C156.36 58.4244 157.265 57.491 158.423 56.8377C159.58 56.1657 160.905 55.8297 162.399 55.8297C164.321 55.8297 165.908 56.315 167.159 57.2857C168.428 58.2377 169.277 59.5817 169.707 61.3177H165.479C165.255 60.6457 164.872 60.123 164.331 59.7497C163.808 59.3577 163.155 59.1617 162.371 59.1617C161.251 59.1617 160.364 59.5724 159.711 60.3937C159.057 61.1964 158.731 62.3444 158.731 63.8377C158.731 65.3124 159.057 66.4604 159.711 67.2817C160.364 68.0844 161.251 68.4857 162.371 68.4857ZM179.466 71.8457C177.973 71.8457 176.629 71.519 175.434 70.8657C174.24 70.1937 173.297 69.251 172.606 68.0377C171.934 66.8244 171.598 65.4244 171.598 63.8377C171.598 62.251 171.944 60.851 172.634 59.6377C173.344 58.4244 174.305 57.491 175.518 56.8377C176.732 56.1657 178.085 55.8297 179.578 55.8297C181.072 55.8297 182.425 56.1657 183.638 56.8377C184.852 57.491 185.804 58.4244 186.494 59.6377C187.204 60.851 187.558 62.251 187.558 63.8377C187.558 65.4244 187.194 66.8244 186.466 68.0377C185.757 69.251 184.786 70.1937 183.554 70.8657C182.341 71.519 180.978 71.8457 179.466 71.8457ZM179.466 68.4297C180.176 68.4297 180.838 68.2617 181.454 67.9257C182.089 67.571 182.593 67.0484 182.966 66.3577C183.34 65.667 183.526 64.827 183.526 63.8377C183.526 62.363 183.134 61.2337 182.35 60.4497C181.585 59.647 180.642 59.2457 179.522 59.2457C178.402 59.2457 177.46 59.647 176.694 60.4497C175.948 61.2337 175.574 62.363 175.574 63.8377C175.574 65.3124 175.938 66.451 176.666 67.2537C177.413 68.0377 178.346 68.4297 179.466 68.4297ZM174.706 54.4017C174.874 53.1697 175.257 52.255 175.854 51.6577C176.47 51.0417 177.245 50.7337 178.178 50.7337C178.57 50.7337 178.916 50.799 179.214 50.9297C179.513 51.0417 179.849 51.2097 180.222 51.4337C180.782 51.7884 181.249 51.9657 181.622 51.9657C182.313 51.9657 182.714 51.5644 182.826 50.7617H184.926C184.758 51.9937 184.366 52.9177 183.75 53.5337C183.153 54.131 182.388 54.4297 181.454 54.4297C181.062 54.4297 180.717 54.3737 180.418 54.2617C180.12 54.131 179.784 53.9537 179.41 53.7297C178.869 53.3564 178.402 53.1697 178.01 53.1697C177.32 53.1697 176.909 53.5804 176.778 54.4017H174.706ZM204.854 63.5017C204.854 64.0617 204.817 64.5657 204.742 65.0137H193.402C193.495 66.1337 193.887 67.011 194.578 67.6457C195.269 68.2804 196.118 68.5977 197.126 68.5977C198.582 68.5977 199.618 67.9724 200.234 66.7217H204.462C204.014 68.215 203.155 69.447 201.886 70.4177C200.617 71.3697 199.058 71.8457 197.21 71.8457C195.717 71.8457 194.373 71.519 193.178 70.8657C192.002 70.1937 191.078 69.251 190.406 68.0377C189.753 66.8244 189.426 65.4244 189.426 63.8377C189.426 62.2324 189.753 60.823 190.406 59.6097C191.059 58.3964 191.974 57.463 193.15 56.8097C194.326 56.1564 195.679 55.8297 197.21 55.8297C198.685 55.8297 200.001 56.147 201.158 56.7817C202.334 57.4164 203.239 58.3217 203.874 59.4977C204.527 60.655 204.854 61.9897 204.854 63.5017ZM200.794 62.3817C200.775 61.3737 200.411 60.571 199.702 59.9737C198.993 59.3577 198.125 59.0497 197.098 59.0497C196.127 59.0497 195.306 59.3484 194.634 59.9457C193.981 60.5244 193.579 61.3364 193.43 62.3817H200.794ZM213.651 71.8457C212.382 71.8457 211.243 71.6217 210.235 71.1737C209.227 70.707 208.425 70.0817 207.827 69.2977C207.249 68.5137 206.931 67.6457 206.875 66.6937H210.823C210.898 67.291 211.187 67.7857 211.691 68.1777C212.214 68.5697 212.858 68.7657 213.623 68.7657C214.37 68.7657 214.949 68.6164 215.359 68.3177C215.789 68.019 216.003 67.6364 216.003 67.1697C216.003 66.6657 215.742 66.2924 215.219 66.0497C214.715 65.7884 213.903 65.5084 212.783 65.2097C211.626 64.9297 210.674 64.6404 209.927 64.3417C209.199 64.043 208.565 63.5857 208.023 62.9697C207.501 62.3537 207.239 61.523 207.239 60.4777C207.239 59.619 207.482 58.835 207.967 58.1257C208.471 57.4164 209.181 56.8564 210.095 56.4457C211.029 56.035 212.121 55.8297 213.371 55.8297C215.219 55.8297 216.694 56.2964 217.795 57.2297C218.897 58.1444 219.503 59.3857 219.615 60.9537H215.863C215.807 60.3377 215.546 59.8524 215.079 59.4977C214.631 59.1244 214.025 58.9377 213.259 58.9377C212.55 58.9377 211.999 59.0684 211.607 59.3297C211.234 59.591 211.047 59.955 211.047 60.4217C211.047 60.9444 211.309 61.3457 211.831 61.6257C212.354 61.887 213.166 62.1577 214.267 62.4377C215.387 62.7177 216.311 63.007 217.039 63.3057C217.767 63.6044 218.393 64.071 218.915 64.7057C219.457 65.3217 219.737 66.143 219.755 67.1697C219.755 68.0657 219.503 68.8684 218.999 69.5777C218.514 70.287 217.805 70.847 216.871 71.2577C215.957 71.6497 214.883 71.8457 213.651 71.8457ZM228.637 63.7817C228.637 62.2137 228.945 60.823 229.561 59.6097C230.196 58.3964 231.054 57.463 232.137 56.8097C233.22 56.1564 234.424 55.8297 235.749 55.8297C236.757 55.8297 237.718 56.0537 238.633 56.5017C239.548 56.931 240.276 57.5097 240.817 58.2377V50.8737H244.793V71.5937H240.817V69.2977C240.332 70.063 239.65 70.679 238.773 71.1457C237.896 71.6124 236.878 71.8457 235.721 71.8457C234.414 71.8457 233.22 71.5097 232.137 70.8377C231.054 70.1657 230.196 69.223 229.561 68.0097C228.945 66.7777 228.637 65.3684 228.637 63.7817ZM240.845 63.8377C240.845 62.8857 240.658 62.0737 240.285 61.4017C239.912 60.711 239.408 60.1884 238.773 59.8337C238.138 59.4604 237.457 59.2737 236.729 59.2737C236.001 59.2737 235.329 59.451 234.713 59.8057C234.097 60.1604 233.593 60.683 233.201 61.3737C232.828 62.0457 232.641 62.8484 232.641 63.7817C232.641 64.715 232.828 65.5364 233.201 66.2457C233.593 66.9364 234.097 67.4684 234.713 67.8417C235.348 68.215 236.02 68.4017 236.729 68.4017C237.457 68.4017 238.138 68.2244 238.773 67.8697C239.408 67.4964 239.912 66.9737 240.285 66.3017C240.658 65.611 240.845 64.7897 240.845 63.8377ZM263.041 63.5017C263.041 64.0617 263.004 64.5657 262.929 65.0137H251.589C251.683 66.1337 252.075 67.011 252.765 67.6457C253.456 68.2804 254.305 68.5977 255.313 68.5977C256.769 68.5977 257.805 67.9724 258.421 66.7217H262.649C262.201 68.215 261.343 69.447 260.073 70.4177C258.804 71.3697 257.245 71.8457 255.397 71.8457C253.904 71.8457 252.56 71.519 251.365 70.8657C250.189 70.1937 249.265 69.251 248.593 68.0377C247.94 66.8244 247.613 65.4244 247.613 63.8377C247.613 62.2324 247.94 60.823 248.593 59.6097C249.247 58.3964 250.161 57.463 251.337 56.8097C252.513 56.1564 253.867 55.8297 255.397 55.8297C256.872 55.8297 258.188 56.147 259.345 56.7817C260.521 57.4164 261.427 58.3217 262.061 59.4977C262.715 60.655 263.041 61.9897 263.041 63.5017ZM258.981 62.3817C258.963 61.3737 258.599 60.571 257.889 59.9737C257.18 59.3577 256.312 59.0497 255.285 59.0497C254.315 59.0497 253.493 59.3484 252.821 59.9457C252.168 60.5244 251.767 61.3364 251.617 62.3817H258.981ZM271.567 63.8377C271.567 62.2324 271.893 60.8324 272.547 59.6377C273.2 58.4244 274.105 57.491 275.263 56.8377C276.42 56.1657 277.745 55.8297 279.239 55.8297C281.161 55.8297 282.748 56.315 283.999 57.2857C285.268 58.2377 286.117 59.5817 286.547 61.3177H282.319C282.095 60.6457 281.712 60.123 281.171 59.7497C280.648 59.3577 279.995 59.1617 279.211 59.1617C278.091 59.1617 277.204 59.5724 276.551 60.3937C275.897 61.1964 275.571 62.3444 275.571 63.8377C275.571 65.3124 275.897 66.4604 276.551 67.2817C277.204 68.0844 278.091 68.4857 279.211 68.4857C280.797 68.4857 281.833 67.7764 282.319 66.3577H286.547C286.117 68.0377 285.268 69.3724 283.999 70.3617C282.729 71.351 281.143 71.8457 279.239 71.8457C277.745 71.8457 276.42 71.519 275.263 70.8657C274.105 70.1937 273.2 69.2604 272.547 68.0657C271.893 66.8524 271.567 65.443 271.567 63.8377ZM296.306 71.8457C294.813 71.8457 293.469 71.519 292.274 70.8657C291.08 70.1937 290.137 69.251 289.446 68.0377C288.774 66.8244 288.438 65.4244 288.438 63.8377C288.438 62.251 288.784 60.851 289.474 59.6377C290.184 58.4244 291.145 57.491 292.358 56.8377C293.572 56.1657 294.925 55.8297 296.418 55.8297C297.912 55.8297 299.265 56.1657 300.478 56.8377C301.692 57.491 302.644 58.4244 303.334 59.6377C304.044 60.851 304.398 62.251 304.398 63.8377C304.398 65.4244 304.034 66.8244 303.306 68.0377C302.597 69.251 301.626 70.1937 300.394 70.8657C299.181 71.519 297.818 71.8457 296.306 71.8457ZM296.306 68.4297C297.016 68.4297 297.678 68.2617 298.294 67.9257C298.929 67.571 299.433 67.0484 299.806 66.3577C300.18 65.667 300.366 64.827 300.366 63.8377C300.366 62.363 299.974 61.2337 299.19 60.4497C298.425 59.647 297.482 59.2457 296.362 59.2457C295.242 59.2457 294.3 59.647 293.534 60.4497C292.788 61.2337 292.414 62.363 292.414 63.8377C292.414 65.3124 292.778 66.451 293.506 67.2537C294.253 68.0377 295.186 68.4297 296.306 68.4297ZM315.87 55.8577C317.718 55.8577 319.211 56.4457 320.35 57.6217C321.488 58.779 322.058 60.403 322.058 62.4937V71.5937H318.138V63.0257C318.138 61.7937 317.83 60.851 317.214 60.1977C316.598 59.5257 315.758 59.1897 314.694 59.1897C313.611 59.1897 312.752 59.5257 312.118 60.1977C311.502 60.851 311.194 61.7937 311.194 63.0257V71.5937H307.274V56.0817H311.194V58.0137C311.716 57.3417 312.379 56.819 313.182 56.4457C314.003 56.0537 314.899 55.8577 315.87 55.8577ZM330.35 59.3017V66.8057C330.35 67.3284 330.471 67.711 330.714 67.9537C330.975 68.1777 331.404 68.2897 332.002 68.2897H333.822V71.5937H331.358C328.054 71.5937 326.402 69.9884 326.402 66.7777V59.3017H324.554V56.0817H326.402V52.2457H330.35V56.0817H333.822V59.3017H330.35ZM335.633 63.7817C335.633 62.2137 335.941 60.823 336.557 59.6097C337.192 58.3964 338.041 57.463 339.105 56.8097C340.188 56.1564 341.392 55.8297 342.717 55.8297C343.874 55.8297 344.882 56.063 345.741 56.5297C346.618 56.9964 347.318 57.5844 347.841 58.2937V56.0817H351.789V71.5937H347.841V69.3257C347.337 70.0537 346.637 70.6604 345.741 71.1457C344.864 71.6124 343.846 71.8457 342.689 71.8457C341.382 71.8457 340.188 71.5097 339.105 70.8377C338.041 70.1657 337.192 69.223 336.557 68.0097C335.941 66.7777 335.633 65.3684 335.633 63.7817ZM347.841 63.8377C347.841 62.8857 347.654 62.0737 347.281 61.4017C346.908 60.711 346.404 60.1884 345.769 59.8337C345.134 59.4604 344.453 59.2737 343.725 59.2737C342.997 59.2737 342.325 59.451 341.709 59.8057C341.093 60.1604 340.589 60.683 340.197 61.3737C339.824 62.0457 339.637 62.8484 339.637 63.7817C339.637 64.715 339.824 65.5364 340.197 66.2457C340.589 66.9364 341.093 67.4684 341.709 67.8417C342.344 68.215 343.016 68.4017 343.725 68.4017C344.453 68.4017 345.134 68.2244 345.769 67.8697C346.404 67.4964 346.908 66.9737 347.281 66.3017C347.654 65.611 347.841 64.7897 347.841 63.8377ZM360.182 59.3017V66.8057C360.182 67.3284 360.303 67.711 360.546 67.9537C360.807 68.1777 361.236 68.2897 361.834 68.2897H363.654V71.5937H361.19C357.886 71.5937 356.234 69.9884 356.234 66.7777V59.3017H354.386V56.0817H356.234V52.2457H360.182V56.0817H363.654V59.3017H360.182ZM373.361 71.8457C371.868 71.8457 370.524 71.519 369.329 70.8657C368.134 70.1937 367.192 69.251 366.501 68.0377C365.829 66.8244 365.493 65.4244 365.493 63.8377C365.493 62.251 365.838 60.851 366.529 59.6377C367.238 58.4244 368.2 57.491 369.413 56.8377C370.626 56.1657 371.98 55.8297 373.473 55.8297C374.966 55.8297 376.32 56.1657 377.533 56.8377C378.746 57.491 379.698 58.4244 380.389 59.6377C381.098 60.851 381.453 62.251 381.453 63.8377C381.453 65.4244 381.089 66.8244 380.361 68.0377C379.652 69.251 378.681 70.1937 377.449 70.8657C376.236 71.519 374.873 71.8457 373.361 71.8457ZM373.361 68.4297C374.07 68.4297 374.733 68.2617 375.349 67.9257C375.984 67.571 376.488 67.0484 376.861 66.3577C377.234 65.667 377.421 64.827 377.421 63.8377C377.421 62.363 377.029 61.2337 376.245 60.4497C375.48 59.647 374.537 59.2457 373.417 59.2457C372.297 59.2457 371.354 59.647 370.589 60.4497C369.842 61.2337 369.469 62.363 369.469 63.8377C369.469 65.3124 369.833 66.451 370.561 67.2537C371.308 68.0377 372.241 68.4297 373.361 68.4297Z" fill="white"/>
<path d="M60.3538 237.593H62.3538C62.3538 232.463 58.4808 228.594 53.3438 228.594V230.594C57.4057 230.594 60.3538 233.537 60.3538 237.593Z" fill="white"/>
<path d="M53.3538 234.594C55.4568 234.594 56.3538 235.491 56.3538 237.594H58.3538C58.3538 234.369 56.5788 232.594 53.3538 232.594V234.594ZM56.7758 240.037C56.5836 239.862 56.3311 239.769 56.0716 239.777C55.8121 239.785 55.5658 239.894 55.3848 240.08L52.9918 242.541C52.4158 242.431 51.2578 242.07 50.0658 240.881C48.8738 239.688 48.5128 238.527 48.4058 237.955L50.8648 235.561C51.0512 235.38 51.1599 235.134 51.168 234.874C51.176 234.614 51.0827 234.362 50.9078 234.17L47.2128 230.107C47.0378 229.914 46.7947 229.797 46.535 229.781C46.2752 229.765 46.0194 229.85 45.8218 230.02L43.6518 231.881C43.4789 232.054 43.3757 232.285 43.3618 232.53C43.3468 232.78 43.0608 238.702 47.6528 243.296C51.6588 247.301 56.6768 247.594 58.0588 247.594C58.2608 247.594 58.3848 247.588 58.4178 247.586C58.6623 247.572 58.8931 247.468 59.0658 247.295L60.9258 245.124C61.0953 244.926 61.1811 244.67 61.165 244.411C61.149 244.151 61.0323 243.908 60.8398 243.733L56.7758 240.037Z" fill="white"/>
<path d="M98.9055 239.362H95.4975V242.818H94.1375V239.362H90.7455V238.13H94.1375V234.658H95.4975V238.13H98.9055V239.362ZM107.645 238.578C107.048 238.343 106.589 238.002 106.269 237.554C105.949 237.106 105.789 236.562 105.789 235.922C105.789 235.346 105.933 234.828 106.221 234.37C106.509 233.9 106.936 233.532 107.501 233.266C108.077 232.988 108.77 232.85 109.581 232.85C110.392 232.85 111.08 232.988 111.645 233.266C112.221 233.532 112.653 233.9 112.941 234.37C113.24 234.828 113.389 235.346 113.389 235.922C113.389 236.54 113.224 237.084 112.893 237.554C112.562 238.012 112.109 238.354 111.533 238.578C112.194 238.78 112.717 239.138 113.101 239.65C113.496 240.151 113.693 240.759 113.693 241.474C113.693 242.167 113.522 242.775 113.181 243.298C112.84 243.81 112.354 244.21 111.725 244.498C111.106 244.775 110.392 244.914 109.581 244.914C108.77 244.914 108.056 244.775 107.437 244.498C106.829 244.21 106.354 243.81 106.013 243.298C105.672 242.775 105.501 242.167 105.501 241.474C105.501 240.759 105.693 240.146 106.077 239.634C106.461 239.122 106.984 238.77 107.645 238.578ZM111.981 236.098C111.981 235.447 111.768 234.946 111.341 234.594C110.914 234.242 110.328 234.066 109.581 234.066C108.845 234.066 108.264 234.242 107.837 234.594C107.41 234.946 107.197 235.452 107.197 236.114C107.197 236.711 107.416 237.191 107.853 237.554C108.301 237.916 108.877 238.098 109.581 238.098C110.296 238.098 110.872 237.916 111.309 237.554C111.757 237.18 111.981 236.695 111.981 236.098ZM109.581 239.218C108.792 239.218 108.146 239.404 107.645 239.778C107.144 240.14 106.893 240.69 106.893 241.426C106.893 242.108 107.133 242.658 107.613 243.074C108.104 243.49 108.76 243.698 109.581 243.698C110.402 243.698 111.053 243.49 111.533 243.074C112.013 242.658 112.253 242.108 112.253 241.426C112.253 240.711 112.008 240.167 111.517 239.794C111.026 239.41 110.381 239.218 109.581 239.218ZM115.451 243.426C116.805 242.338 117.867 241.447 118.635 240.754C119.403 240.05 120.048 239.319 120.571 238.562C121.104 237.794 121.371 237.042 121.371 236.306C121.371 235.612 121.2 235.068 120.859 234.674C120.528 234.268 119.989 234.066 119.243 234.066C118.517 234.066 117.952 234.295 117.547 234.754C117.152 235.202 116.939 235.804 116.907 236.562H115.499C115.541 235.367 115.904 234.444 116.587 233.794C117.269 233.143 118.149 232.818 119.227 232.818C120.325 232.818 121.195 233.122 121.835 233.73C122.485 234.338 122.811 235.175 122.811 236.242C122.811 237.127 122.544 237.991 122.011 238.834C121.488 239.666 120.891 240.402 120.219 241.042C119.547 241.671 118.688 242.407 117.643 243.25H123.147V244.466H115.451V243.426ZM130.968 241.49C131.074 242.098 131.32 242.567 131.704 242.898C132.098 243.228 132.626 243.394 133.288 243.394C134.173 243.394 134.824 243.047 135.24 242.354C135.666 241.66 135.869 240.492 135.848 238.85C135.624 239.33 135.25 239.708 134.728 239.986C134.205 240.252 133.624 240.386 132.984 240.386C132.269 240.386 131.629 240.242 131.064 239.954C130.509 239.655 130.072 239.223 129.752 238.658C129.432 238.092 129.272 237.41 129.272 236.61C129.272 235.468 129.602 234.551 130.264 233.858C130.925 233.154 131.864 232.802 133.08 232.802C134.573 232.802 135.618 233.287 136.216 234.258C136.824 235.228 137.128 236.674 137.128 238.594C137.128 239.938 137.005 241.047 136.76 241.922C136.525 242.796 136.12 243.463 135.544 243.922C134.978 244.38 134.2 244.61 133.208 244.61C132.12 244.61 131.272 244.316 130.664 243.73C130.056 243.143 129.709 242.396 129.624 241.49H130.968ZM133.224 239.154C133.938 239.154 134.525 238.935 134.984 238.498C135.442 238.05 135.672 237.447 135.672 236.69C135.672 235.89 135.448 235.244 135 234.754C134.552 234.263 133.922 234.018 133.112 234.018C132.365 234.018 131.768 234.252 131.32 234.722C130.882 235.191 130.664 235.81 130.664 236.578C130.664 237.356 130.882 237.98 131.32 238.45C131.757 238.919 132.392 239.154 133.224 239.154ZM145.551 238.578C144.954 238.343 144.495 238.002 144.175 237.554C143.855 237.106 143.695 236.562 143.695 235.922C143.695 235.346 143.839 234.828 144.127 234.37C144.415 233.9 144.842 233.532 145.407 233.266C145.983 232.988 146.677 232.85 147.487 232.85C148.298 232.85 148.986 232.988 149.551 233.266C150.127 233.532 150.559 233.9 150.847 234.37C151.146 234.828 151.295 235.346 151.295 235.922C151.295 236.54 151.13 237.084 150.799 237.554C150.469 238.012 150.015 238.354 149.439 238.578C150.101 238.78 150.623 239.138 151.007 239.65C151.402 240.151 151.599 240.759 151.599 241.474C151.599 242.167 151.429 242.775 151.087 243.298C150.746 243.81 150.261 244.21 149.631 244.498C149.013 244.775 148.298 244.914 147.487 244.914C146.677 244.914 145.962 244.775 145.343 244.498C144.735 244.21 144.261 243.81 143.919 243.298C143.578 242.775 143.407 242.167 143.407 241.474C143.407 240.759 143.599 240.146 143.983 239.634C144.367 239.122 144.89 238.77 145.551 238.578ZM149.887 236.098C149.887 235.447 149.674 234.946 149.247 234.594C148.821 234.242 148.234 234.066 147.487 234.066C146.751 234.066 146.17 234.242 145.743 234.594C145.317 234.946 145.103 235.452 145.103 236.114C145.103 236.711 145.322 237.191 145.759 237.554C146.207 237.916 146.783 238.098 147.487 238.098C148.202 238.098 148.778 237.916 149.215 237.554C149.663 237.18 149.887 236.695 149.887 236.098ZM147.487 239.218C146.698 239.218 146.053 239.404 145.551 239.778C145.05 240.14 144.799 240.69 144.799 241.426C144.799 242.108 145.039 242.658 145.519 243.074C146.01 243.49 146.666 243.698 147.487 243.698C148.309 243.698 148.959 243.49 149.439 243.074C149.919 242.658 150.159 242.108 150.159 241.426C150.159 240.711 149.914 240.167 149.423 239.794C148.933 239.41 148.287 239.218 147.487 239.218ZM153.149 234.354V233.026H156.157V244.594H154.685V234.354H153.149ZM158.658 238.69C158.658 236.855 158.957 235.426 159.554 234.402C160.151 233.367 161.197 232.85 162.69 232.85C164.173 232.85 165.213 233.367 165.81 234.402C166.407 235.426 166.706 236.855 166.706 238.69C166.706 240.556 166.407 242.007 165.81 243.042C165.213 244.076 164.173 244.594 162.69 244.594C161.197 244.594 160.151 244.076 159.554 243.042C158.957 242.007 158.658 240.556 158.658 238.69ZM165.266 238.69C165.266 237.762 165.202 236.978 165.074 236.338C164.957 235.687 164.706 235.164 164.322 234.77C163.949 234.375 163.405 234.178 162.69 234.178C161.965 234.178 161.41 234.375 161.026 234.77C160.653 235.164 160.402 235.687 160.274 236.338C160.157 236.978 160.098 237.762 160.098 238.69C160.098 239.65 160.157 240.455 160.274 241.106C160.402 241.756 160.653 242.279 161.026 242.674C161.41 243.068 161.965 243.266 162.69 243.266C163.405 243.266 163.949 243.068 164.322 242.674C164.706 242.279 164.957 241.756 165.074 241.106C165.202 240.455 165.266 239.65 165.266 238.69ZM175.153 235.778C174.918 234.594 174.188 234.002 172.961 234.002C172.012 234.002 171.302 234.37 170.833 235.106C170.364 235.831 170.134 237.031 170.145 238.706C170.39 238.151 170.796 237.719 171.361 237.41C171.937 237.09 172.577 236.93 173.281 236.93C174.38 236.93 175.254 237.271 175.905 237.954C176.566 238.636 176.897 239.58 176.897 240.786C176.897 241.511 176.753 242.162 176.465 242.738C176.188 243.314 175.761 243.772 175.185 244.114C174.62 244.455 173.932 244.626 173.121 244.626C172.022 244.626 171.164 244.38 170.545 243.89C169.926 243.399 169.494 242.722 169.249 241.858C169.004 240.994 168.881 239.927 168.881 238.658C168.881 234.743 170.246 232.786 172.977 232.786C174.022 232.786 174.844 233.068 175.441 233.634C176.038 234.199 176.39 234.914 176.497 235.778H175.153ZM172.977 238.162C172.518 238.162 172.086 238.258 171.681 238.45C171.276 238.631 170.945 238.914 170.689 239.298C170.444 239.671 170.321 240.13 170.321 240.674C170.321 241.484 170.556 242.146 171.025 242.658C171.494 243.159 172.166 243.41 173.041 243.41C173.788 243.41 174.38 243.18 174.817 242.722C175.265 242.252 175.489 241.623 175.489 240.834C175.489 240.002 175.276 239.351 174.849 238.882C174.422 238.402 173.798 238.162 172.977 238.162ZM185.181 238.114V239.346H178.797V238.114H185.181ZM189.546 241.49C189.652 242.098 189.898 242.567 190.282 242.898C190.676 243.228 191.204 243.394 191.866 243.394C192.751 243.394 193.402 243.047 193.818 242.354C194.244 241.66 194.447 240.492 194.426 238.85C194.202 239.33 193.828 239.708 193.306 239.986C192.783 240.252 192.202 240.386 191.562 240.386C190.847 240.386 190.207 240.242 189.642 239.954C189.087 239.655 188.65 239.223 188.33 238.658C188.01 238.092 187.85 237.41 187.85 236.61C187.85 235.468 188.18 234.551 188.842 233.858C189.503 233.154 190.442 232.802 191.658 232.802C193.151 232.802 194.196 233.287 194.794 234.258C195.402 235.228 195.706 236.674 195.706 238.594C195.706 239.938 195.583 241.047 195.338 241.922C195.103 242.796 194.698 243.463 194.122 243.922C193.556 244.38 192.778 244.61 191.786 244.61C190.698 244.61 189.85 244.316 189.242 243.73C188.634 243.143 188.287 242.396 188.202 241.49H189.546ZM191.802 239.154C192.516 239.154 193.103 238.935 193.562 238.498C194.02 238.05 194.25 237.447 194.25 236.69C194.25 235.89 194.026 235.244 193.578 234.754C193.13 234.263 192.5 234.018 191.69 234.018C190.943 234.018 190.346 234.252 189.898 234.722C189.46 235.191 189.242 235.81 189.242 236.578C189.242 237.356 189.46 237.98 189.898 238.45C190.335 238.919 190.97 239.154 191.802 239.154ZM197.4 242.018V240.914L203.016 233.138H204.76V240.754H206.36V242.018H204.76V244.594H203.32V242.018H197.4ZM203.384 234.658L199.08 240.754H203.384V234.658ZM214.262 235.778C214.028 234.594 213.297 234.002 212.07 234.002C211.121 234.002 210.412 234.37 209.942 235.106C209.473 235.831 209.244 237.031 209.254 238.706C209.5 238.151 209.905 237.719 210.47 237.41C211.046 237.09 211.686 236.93 212.39 236.93C213.489 236.93 214.364 237.271 215.014 237.954C215.676 238.636 216.006 239.58 216.006 240.786C216.006 241.511 215.862 242.162 215.574 242.738C215.297 243.314 214.87 243.772 214.294 244.114C213.729 244.455 213.041 244.626 212.23 244.626C211.132 244.626 210.273 244.38 209.654 243.89C209.036 243.399 208.604 242.722 208.358 241.858C208.113 240.994 207.99 239.927 207.99 238.658C207.99 234.743 209.356 232.786 212.086 232.786C213.132 232.786 213.953 233.068 214.55 233.634C215.148 234.199 215.5 234.914 215.606 235.778H214.262ZM212.086 238.162C211.628 238.162 211.196 238.258 210.79 238.45C210.385 238.631 210.054 238.914 209.798 239.298C209.553 239.671 209.43 240.13 209.43 240.674C209.43 241.484 209.665 242.146 210.134 242.658C210.604 243.159 211.276 243.41 212.15 243.41C212.897 243.41 213.489 243.18 213.926 242.722C214.374 242.252 214.598 241.623 214.598 240.834C214.598 240.002 214.385 239.351 213.958 238.882C213.532 238.402 212.908 238.162 212.086 238.162ZM224.419 235.778C224.184 234.594 223.453 234.002 222.227 234.002C221.277 234.002 220.568 234.37 220.099 235.106C219.629 235.831 219.4 237.031 219.411 238.706C219.656 238.151 220.061 237.719 220.627 237.41C221.203 237.09 221.843 236.93 222.547 236.93C223.645 236.93 224.52 237.271 225.171 237.954C225.832 238.636 226.163 239.58 226.163 240.786C226.163 241.511 226.019 242.162 225.731 242.738C225.453 243.314 225.027 243.772 224.451 244.114C223.885 244.455 223.197 244.626 222.387 244.626C221.288 244.626 220.429 244.38 219.811 243.89C219.192 243.399 218.76 242.722 218.515 241.858C218.269 240.994 218.147 239.927 218.147 238.658C218.147 234.743 219.512 232.786 222.243 232.786C223.288 232.786 224.109 233.068 224.707 233.634C225.304 234.199 225.656 234.914 225.763 235.778H224.419ZM222.243 238.162C221.784 238.162 221.352 238.258 220.947 238.45C220.541 238.631 220.211 238.914 219.955 239.298C219.709 239.671 219.587 240.13 219.587 240.674C219.587 241.484 219.821 242.146 220.291 242.658C220.76 243.159 221.432 243.41 222.307 243.41C223.053 243.41 223.645 243.18 224.083 242.722C224.531 242.252 224.755 241.623 224.755 240.834C224.755 240.002 224.541 239.351 224.115 238.882C223.688 238.402 223.064 238.162 222.243 238.162Z" fill="white"/>
<path d="M65 264.594H45V280.594H65V264.594ZM63 268.594L55 273.594L47 268.594V266.594L55 271.594L63 266.594V268.594Z" fill="white"/>
<path d="M96.496 277.25L99.216 269.826H100.768L97.328 278.594H95.632L92.192 269.826H93.76L96.496 277.25ZM102.953 268.402C102.675 268.402 102.441 268.306 102.249 268.114C102.057 267.922 101.961 267.687 101.961 267.41C101.961 267.132 102.057 266.898 102.249 266.706C102.441 266.514 102.675 266.418 102.953 266.418C103.219 266.418 103.443 266.514 103.625 266.706C103.817 266.898 103.913 267.132 103.913 267.41C103.913 267.687 103.817 267.922 103.625 268.114C103.443 268.306 103.219 268.402 102.953 268.402ZM103.657 269.826V278.594H102.201V269.826H103.657ZM109.402 277.25L112.122 269.826H113.674L110.234 278.594H108.538L105.098 269.826H106.666L109.402 277.25ZM114.563 274.178C114.563 273.282 114.744 272.498 115.107 271.826C115.47 271.143 115.966 270.615 116.595 270.242C117.235 269.868 117.944 269.682 118.723 269.682C119.491 269.682 120.158 269.847 120.723 270.178C121.288 270.508 121.71 270.924 121.987 271.426V269.826H123.459V278.594H121.987V276.962C121.699 277.474 121.267 277.9 120.691 278.242C120.126 278.572 119.464 278.738 118.707 278.738C117.928 278.738 117.224 278.546 116.595 278.162C115.966 277.778 115.47 277.239 115.107 276.546C114.744 275.852 114.563 275.063 114.563 274.178ZM121.987 274.194C121.987 273.532 121.854 272.956 121.587 272.466C121.32 271.975 120.958 271.602 120.499 271.346C120.051 271.079 119.555 270.946 119.011 270.946C118.467 270.946 117.971 271.074 117.523 271.33C117.075 271.586 116.718 271.959 116.451 272.45C116.184 272.94 116.051 273.516 116.051 274.178C116.051 274.85 116.184 275.436 116.451 275.938C116.718 276.428 117.075 276.807 117.523 277.074C117.971 277.33 118.467 277.458 119.011 277.458C119.555 277.458 120.051 277.33 120.499 277.074C120.958 276.807 121.32 276.428 121.587 275.938C121.854 275.436 121.987 274.855 121.987 274.194ZM127.376 271.458C127.674 270.935 128.112 270.508 128.688 270.178C129.264 269.847 129.92 269.682 130.656 269.682C131.445 269.682 132.154 269.868 132.784 270.242C133.413 270.615 133.909 271.143 134.272 271.826C134.634 272.498 134.816 273.282 134.816 274.178C134.816 275.063 134.634 275.852 134.272 276.546C133.909 277.239 133.407 277.778 132.767 278.162C132.138 278.546 131.434 278.738 130.656 278.738C129.898 278.738 129.232 278.572 128.656 278.242C128.09 277.911 127.664 277.49 127.376 276.978V278.594H125.92V266.754H127.376V271.458ZM133.328 274.178C133.328 273.516 133.194 272.94 132.928 272.45C132.661 271.959 132.298 271.586 131.84 271.33C131.392 271.074 130.896 270.946 130.352 270.946C129.818 270.946 129.322 271.079 128.864 271.346C128.416 271.602 128.053 271.98 127.776 272.482C127.509 272.972 127.376 273.543 127.376 274.194C127.376 274.855 127.509 275.436 127.776 275.938C128.053 276.428 128.416 276.807 128.864 277.074C129.322 277.33 129.818 277.458 130.352 277.458C130.896 277.458 131.392 277.33 131.84 277.074C132.298 276.807 132.661 276.428 132.928 275.938C133.194 275.436 133.328 274.85 133.328 274.178ZM144.284 269.826L139.004 282.722H137.5L139.228 278.498L135.692 269.826H137.308L140.06 276.93L142.78 269.826H144.284ZM147.524 271.026V276.194C147.524 276.62 147.614 276.924 147.796 277.106C147.977 277.276 148.292 277.362 148.74 277.362H149.812V278.594H148.5C147.689 278.594 147.081 278.407 146.676 278.034C146.27 277.66 146.068 277.047 146.068 276.194V271.026H144.932V269.826H146.068V267.618H147.524V269.826H149.812V271.026H147.524ZM159.576 273.874C159.576 274.151 159.56 274.444 159.528 274.754H152.52C152.573 275.618 152.866 276.295 153.4 276.786C153.944 277.266 154.6 277.506 155.368 277.506C155.997 277.506 156.52 277.362 156.936 277.074C157.362 276.775 157.661 276.38 157.832 275.89H159.4C159.165 276.732 158.696 277.42 157.992 277.954C157.288 278.476 156.413 278.738 155.368 278.738C154.536 278.738 153.789 278.551 153.128 278.178C152.477 277.804 151.965 277.276 151.592 276.594C151.218 275.9 151.032 275.1 151.032 274.194C151.032 273.287 151.213 272.492 151.576 271.81C151.938 271.127 152.445 270.604 153.096 270.242C153.757 269.868 154.514 269.682 155.368 269.682C156.2 269.682 156.936 269.863 157.576 270.226C158.216 270.588 158.706 271.09 159.048 271.73C159.4 272.359 159.576 273.074 159.576 273.874ZM158.072 273.57C158.072 273.015 157.949 272.54 157.704 272.146C157.458 271.74 157.122 271.436 156.696 271.234C156.28 271.02 155.816 270.914 155.304 270.914C154.568 270.914 153.938 271.148 153.416 271.618C152.904 272.087 152.61 272.738 152.536 273.57H158.072ZM161.962 278.69C161.684 278.69 161.45 278.594 161.258 278.402C161.066 278.21 160.97 277.975 160.97 277.698C160.97 277.42 161.066 277.186 161.258 276.994C161.45 276.802 161.684 276.706 161.962 276.706C162.228 276.706 162.452 276.802 162.634 276.994C162.826 277.186 162.922 277.42 162.922 277.698C162.922 277.975 162.826 278.21 162.634 278.402C162.452 278.594 162.228 278.69 161.962 278.69ZM166.633 271.026V276.194C166.633 276.62 166.724 276.924 166.905 277.106C167.086 277.276 167.401 277.362 167.849 277.362H168.921V278.594H167.609C166.798 278.594 166.19 278.407 165.785 278.034C165.38 277.66 165.177 277.047 165.177 276.194V271.026H164.041V269.826H165.177V267.618H166.633V269.826H168.921V271.026H166.633ZM171.437 268.402C171.16 268.402 170.925 268.306 170.733 268.114C170.541 267.922 170.445 267.687 170.445 267.41C170.445 267.132 170.541 266.898 170.733 266.706C170.925 266.514 171.16 266.418 171.437 266.418C171.704 266.418 171.928 266.514 172.109 266.706C172.301 266.898 172.397 267.132 172.397 267.41C172.397 267.687 172.301 267.922 172.109 268.114C171.928 268.306 171.704 268.402 171.437 268.402ZM172.141 269.826V278.594H170.685V269.826H172.141ZM182.623 268.338C183.807 268.338 184.836 268.562 185.711 269.01C186.585 269.458 187.257 270.087 187.727 270.898C188.196 271.698 188.431 272.626 188.431 273.682C188.431 274.524 188.292 275.335 188.015 276.114C187.737 276.882 187.332 277.506 186.799 277.986C186.276 278.466 185.663 278.706 184.959 278.706C184.425 278.706 184.015 278.572 183.727 278.306C183.439 278.039 183.273 277.676 183.231 277.218C182.9 277.676 182.479 278.039 181.967 278.306C181.465 278.572 180.932 278.706 180.367 278.706C179.556 278.706 178.916 278.46 178.447 277.97C177.988 277.468 177.759 276.796 177.759 275.954C177.759 275.154 177.924 274.407 178.255 273.714C178.596 273.02 179.065 272.466 179.663 272.05C180.26 271.623 180.937 271.41 181.695 271.41C182.708 271.41 183.391 271.794 183.743 272.562L183.919 271.57H185.183L184.383 276.194C184.351 276.396 184.335 276.583 184.335 276.754C184.335 277.394 184.617 277.714 185.183 277.714C185.609 277.714 185.977 277.511 186.287 277.106C186.607 276.7 186.847 276.194 187.007 275.586C187.167 274.967 187.247 274.359 187.247 273.762C187.247 272.364 186.825 271.282 185.983 270.514C185.151 269.746 183.972 269.362 182.447 269.362C181.177 269.362 180.031 269.671 179.007 270.29C177.993 270.898 177.199 271.735 176.623 272.802C176.047 273.868 175.759 275.047 175.759 276.338C175.748 277.746 176.169 278.828 177.023 279.586C177.876 280.354 179.06 280.738 180.575 280.738C181.577 280.738 182.463 280.556 183.231 280.194L183.423 281.186C182.473 281.58 181.428 281.778 180.287 281.778C179.145 281.778 178.137 281.559 177.263 281.122C176.399 280.695 175.727 280.076 175.247 279.266C174.777 278.466 174.543 277.532 174.543 276.466C174.543 274.962 174.889 273.591 175.583 272.354C176.276 271.106 177.236 270.124 178.463 269.41C179.7 268.695 181.087 268.338 182.623 268.338ZM180.799 277.57C181.279 277.57 181.721 277.431 182.127 277.154C182.532 276.866 182.852 276.482 183.087 276.002C183.321 275.511 183.439 274.978 183.439 274.402C183.439 273.847 183.284 273.399 182.975 273.058C182.676 272.706 182.249 272.53 181.695 272.53C181.183 272.53 180.729 272.684 180.335 272.994C179.951 273.292 179.652 273.692 179.439 274.194C179.225 274.684 179.119 275.196 179.119 275.73C179.119 276.295 179.263 276.743 179.551 277.074C179.839 277.404 180.255 277.57 180.799 277.57ZM194.442 269.682C195.199 269.682 195.86 269.847 196.426 270.178C197.002 270.508 197.428 270.924 197.706 271.426V269.826H199.178V278.786C199.178 279.586 199.007 280.295 198.666 280.914C198.324 281.543 197.834 282.034 197.194 282.386C196.564 282.738 195.828 282.914 194.986 282.914C193.834 282.914 192.874 282.642 192.106 282.098C191.338 281.554 190.884 280.812 190.746 279.874H192.186C192.346 280.407 192.676 280.834 193.178 281.154C193.679 281.484 194.282 281.65 194.986 281.65C195.786 281.65 196.436 281.399 196.938 280.898C197.45 280.396 197.706 279.692 197.706 278.786V276.946C197.418 277.458 196.991 277.884 196.426 278.226C195.86 278.567 195.199 278.738 194.442 278.738C193.663 278.738 192.954 278.546 192.314 278.162C191.684 277.778 191.188 277.239 190.826 276.546C190.463 275.852 190.282 275.063 190.282 274.178C190.282 273.282 190.463 272.498 190.826 271.826C191.188 271.143 191.684 270.615 192.314 270.242C192.954 269.868 193.663 269.682 194.442 269.682ZM197.706 274.194C197.706 273.532 197.572 272.956 197.306 272.466C197.039 271.975 196.676 271.602 196.218 271.346C195.77 271.079 195.274 270.946 194.73 270.946C194.186 270.946 193.69 271.074 193.242 271.33C192.794 271.586 192.436 271.959 192.17 272.45C191.903 272.94 191.77 273.516 191.77 274.178C191.77 274.85 191.903 275.436 192.17 275.938C192.436 276.428 192.794 276.807 193.242 277.074C193.69 277.33 194.186 277.458 194.73 277.458C195.274 277.458 195.77 277.33 196.218 277.074C196.676 276.807 197.039 276.428 197.306 275.938C197.572 275.436 197.706 274.855 197.706 274.194ZM212.182 269.666C212.865 269.666 213.473 269.81 214.006 270.098C214.54 270.375 214.961 270.796 215.27 271.362C215.58 271.927 215.734 272.615 215.734 273.426V278.594H214.294V273.634C214.294 272.759 214.076 272.092 213.638 271.634C213.212 271.164 212.63 270.93 211.894 270.93C211.137 270.93 210.534 271.175 210.086 271.666C209.638 272.146 209.414 272.844 209.414 273.762V278.594H207.974V273.634C207.974 272.759 207.756 272.092 207.318 271.634C206.892 271.164 206.31 270.93 205.574 270.93C204.817 270.93 204.214 271.175 203.766 271.666C203.318 272.146 203.094 272.844 203.094 273.762V278.594H201.638V269.826H203.094V271.09C203.382 270.631 203.766 270.279 204.246 270.034C204.737 269.788 205.276 269.666 205.862 269.666C206.598 269.666 207.249 269.831 207.814 270.162C208.38 270.492 208.801 270.978 209.078 271.618C209.324 270.999 209.729 270.519 210.294 270.178C210.86 269.836 211.489 269.666 212.182 269.666ZM217.579 274.178C217.579 273.282 217.76 272.498 218.123 271.826C218.485 271.143 218.981 270.615 219.611 270.242C220.251 269.868 220.96 269.682 221.739 269.682C222.507 269.682 223.173 269.847 223.739 270.178C224.304 270.508 224.725 270.924 225.003 271.426V269.826H226.475V278.594H225.003V276.962C224.715 277.474 224.283 277.9 223.707 278.242C223.141 278.572 222.48 278.738 221.723 278.738C220.944 278.738 220.24 278.546 219.611 278.162C218.981 277.778 218.485 277.239 218.123 276.546C217.76 275.852 217.579 275.063 217.579 274.178ZM225.003 274.194C225.003 273.532 224.869 272.956 224.603 272.466C224.336 271.975 223.973 271.602 223.515 271.346C223.067 271.079 222.571 270.946 222.027 270.946C221.483 270.946 220.987 271.074 220.539 271.33C220.091 271.586 219.733 271.959 219.467 272.45C219.2 272.94 219.067 273.516 219.067 274.178C219.067 274.85 219.2 275.436 219.467 275.938C219.733 276.428 220.091 276.807 220.539 277.074C220.987 277.33 221.483 277.458 222.027 277.458C222.571 277.458 223.067 277.33 223.515 277.074C223.973 276.807 224.336 276.428 224.603 275.938C224.869 275.436 225.003 274.855 225.003 274.194ZM229.687 268.402C229.41 268.402 229.175 268.306 228.983 268.114C228.791 267.922 228.695 267.687 228.695 267.41C228.695 267.132 228.791 266.898 228.983 266.706C229.175 266.514 229.41 266.418 229.687 266.418C229.954 266.418 230.178 266.514 230.359 266.706C230.551 266.898 230.647 267.132 230.647 267.41C230.647 267.687 230.551 267.922 230.359 268.114C230.178 268.306 229.954 268.402 229.687 268.402ZM230.391 269.826V278.594H228.935V269.826H230.391ZM234.329 266.754V278.594H232.873V266.754H234.329ZM237.274 278.69C236.997 278.69 236.762 278.594 236.57 278.402C236.378 278.21 236.282 277.975 236.282 277.698C236.282 277.42 236.378 277.186 236.57 276.994C236.762 276.802 236.997 276.706 237.274 276.706C237.541 276.706 237.765 276.802 237.946 276.994C238.138 277.186 238.234 277.42 238.234 277.698C238.234 277.975 238.138 278.21 237.946 278.402C237.765 278.594 237.541 278.69 237.274 278.69ZM239.626 274.194C239.626 273.287 239.807 272.498 240.17 271.826C240.532 271.143 241.034 270.615 241.674 270.242C242.324 269.868 243.066 269.682 243.898 269.682C244.975 269.682 245.86 269.943 246.554 270.466C247.258 270.988 247.722 271.714 247.946 272.642H246.378C246.228 272.108 245.935 271.687 245.498 271.378C245.071 271.068 244.538 270.914 243.898 270.914C243.066 270.914 242.394 271.202 241.882 271.778C241.37 272.343 241.114 273.148 241.114 274.194C241.114 275.25 241.37 276.066 241.882 276.642C242.394 277.218 243.066 277.506 243.898 277.506C244.538 277.506 245.071 277.356 245.498 277.058C245.924 276.759 246.218 276.332 246.378 275.778H247.946C247.711 276.674 247.242 277.394 246.538 277.938C245.834 278.471 244.954 278.738 243.898 278.738C243.066 278.738 242.324 278.551 241.674 278.178C241.034 277.804 240.532 277.276 240.17 276.594C239.807 275.911 239.626 275.111 239.626 274.194ZM253.712 278.738C252.891 278.738 252.144 278.551 251.472 278.178C250.811 277.804 250.288 277.276 249.904 276.594C249.531 275.9 249.344 275.1 249.344 274.194C249.344 273.298 249.536 272.508 249.92 271.826C250.315 271.132 250.848 270.604 251.52 270.242C252.192 269.868 252.944 269.682 253.776 269.682C254.608 269.682 255.36 269.868 256.032 270.242C256.704 270.604 257.232 271.127 257.616 271.81C258.011 272.492 258.208 273.287 258.208 274.194C258.208 275.1 258.006 275.9 257.6 276.594C257.206 277.276 256.667 277.804 255.984 278.178C255.302 278.551 254.544 278.738 253.712 278.738ZM253.712 277.458C254.235 277.458 254.726 277.335 255.184 277.09C255.643 276.844 256.011 276.476 256.288 275.986C256.576 275.495 256.72 274.898 256.72 274.194C256.72 273.49 256.582 272.892 256.304 272.402C256.027 271.911 255.664 271.548 255.216 271.314C254.768 271.068 254.283 270.946 253.76 270.946C253.227 270.946 252.736 271.068 252.288 271.314C251.851 271.548 251.499 271.911 251.232 272.402C250.966 272.892 250.832 273.49 250.832 274.194C250.832 274.908 250.96 275.511 251.216 276.002C251.483 276.492 251.835 276.86 252.272 277.106C252.71 277.34 253.19 277.458 253.712 277.458ZM270.667 269.666C271.349 269.666 271.957 269.81 272.491 270.098C273.024 270.375 273.445 270.796 273.755 271.362C274.064 271.927 274.219 272.615 274.219 273.426V278.594H272.779V273.634C272.779 272.759 272.56 272.092 272.123 271.634C271.696 271.164 271.115 270.93 270.379 270.93C269.621 270.93 269.019 271.175 268.571 271.666C268.123 272.146 267.899 272.844 267.899 273.762V278.594H266.459V273.634C266.459 272.759 266.24 272.092 265.803 271.634C265.376 271.164 264.795 270.93 264.059 270.93C263.301 270.93 262.699 271.175 262.251 271.666C261.803 272.146 261.579 272.844 261.579 273.762V278.594H260.123V269.826H261.579V271.09C261.867 270.631 262.251 270.279 262.731 270.034C263.221 269.788 263.76 269.666 264.347 269.666C265.083 269.666 265.733 269.831 266.299 270.162C266.864 270.492 267.285 270.978 267.563 271.618C267.808 270.999 268.213 270.519 268.779 270.178C269.344 269.836 269.973 269.666 270.667 269.666Z" fill="white"/>
</g>
<defs>
<clipPath id="clip0_90_436">
<rect width="655.625" height="814.813" fill="white" transform="translate(0.353516 0.593689)"/>
</clipPath>
</defs>
</svg>
