<svg width="793" height="326" viewBox="0 0 793 326" fill="none" xmlns="http://www.w3.org/2000/svg">
<mask id="path-1-inside-1_189_4" fill="white">
<path d="M0 0H793V55.23H0V0Z"/>
</mask>
<path d="M793 54.23H0V56.23H793V54.23Z" fill="#EEEFF4" mask="url(#path-1-inside-1_189_4)"/>
<path d="M2.1824 20.0112C2.1824 15.9749 2.83947 12.8304 4.1536 10.5776C5.46773 8.30133 7.76747 7.1632 11.0528 7.1632C14.3147 7.1632 16.6027 8.30133 17.9168 10.5776C19.2309 12.8304 19.888 15.9749 19.888 20.0112C19.888 24.1179 19.2309 27.3093 17.9168 29.5856C16.6027 31.8619 14.3147 33 11.0528 33C7.76747 33 5.46773 31.8619 4.1536 29.5856C2.83947 27.3093 2.1824 24.1179 2.1824 20.0112ZM16.72 20.0112C16.72 17.9696 16.5792 16.2448 16.2976 14.8368C16.0395 13.4053 15.488 12.2555 14.6432 11.3872C13.8219 10.5189 12.6251 10.0848 11.0528 10.0848C9.45707 10.0848 8.2368 10.5189 7.392 11.3872C6.57067 12.2555 6.0192 13.4053 5.7376 14.8368C5.47947 16.2448 5.3504 17.9696 5.3504 20.0112C5.3504 22.1232 5.47947 23.8949 5.7376 25.3264C6.0192 26.7579 6.57067 27.9077 7.392 28.776C8.2368 29.6443 9.45707 30.0784 11.0528 30.0784C12.6251 30.0784 13.8219 29.6443 14.6432 28.776C15.488 27.9077 16.0395 26.7579 16.2976 25.3264C16.5792 23.8949 16.72 22.1232 16.72 20.0112ZM25.8343 33.2112C25.2242 33.2112 24.7079 33 24.2855 32.5776C23.8631 32.1552 23.6519 31.6389 23.6519 31.0288C23.6519 30.4187 23.8631 29.9024 24.2855 29.48C24.7079 29.0576 25.2242 28.8464 25.8343 28.8464C26.421 28.8464 26.9138 29.0576 27.3127 29.48C27.7351 29.9024 27.9463 30.4187 27.9463 31.0288C27.9463 31.6389 27.7351 32.1552 27.3127 32.5776C26.9138 33 26.421 33.2112 25.8343 33.2112Z" fill="#EEEFF4"/>
<path d="M54.7448 33.1232C53.9352 33.1232 53.2077 32.9824 52.5624 32.7008C51.9288 32.4075 51.4301 32.0085 51.0664 31.504C50.7027 30.9877 50.5149 30.3952 50.5032 29.7264H52.2104C52.2691 30.3013 52.5037 30.7883 52.9144 31.1872C53.3368 31.5744 53.9469 31.768 54.7448 31.768C55.5075 31.768 56.1059 31.5803 56.54 31.2048C56.9859 30.8176 57.2088 30.3248 57.2088 29.7264C57.2088 29.2571 57.0797 28.8757 56.8216 28.5824C56.5635 28.2891 56.2408 28.0661 55.8536 27.9136C55.4664 27.7611 54.9443 27.5968 54.2872 27.4208C53.4776 27.2096 52.8264 26.9984 52.3336 26.7872C51.8525 26.576 51.436 26.2475 51.084 25.8016C50.7437 25.344 50.5736 24.7339 50.5736 23.9712C50.5736 23.3024 50.7437 22.7099 51.084 22.1936C51.4243 21.6773 51.8995 21.2784 52.5096 20.9968C53.1315 20.7152 53.8413 20.5744 54.6392 20.5744C55.7891 20.5744 56.7277 20.8619 57.4552 21.4368C58.1944 22.0117 58.6109 22.7744 58.7048 23.7248H56.9448C56.8861 23.2555 56.6397 22.8448 56.2056 22.4928C55.7715 22.1291 55.1965 21.9472 54.4808 21.9472C53.812 21.9472 53.2664 22.1232 52.844 22.4752C52.4216 22.8155 52.2104 23.2965 52.2104 23.9184C52.2104 24.3643 52.3336 24.728 52.58 25.0096C52.8381 25.2912 53.1491 25.5083 53.5128 25.6608C53.8883 25.8016 54.4104 25.9659 55.0792 26.1536C55.8888 26.3765 56.54 26.5995 57.0328 26.8224C57.5256 27.0336 57.948 27.368 58.3 27.8256C58.652 28.2715 58.828 28.8816 58.828 29.656C58.828 30.2544 58.6696 30.8176 58.3528 31.3456C58.036 31.8736 57.5667 32.3019 56.9448 32.6304C56.3229 32.9589 55.5896 33.1232 54.7448 33.1232ZM65.3913 33.1584C64.4878 33.1584 63.6665 32.9531 62.9273 32.5424C62.1998 32.1317 61.6249 31.5509 61.2025 30.8C60.7918 30.0373 60.5865 29.1573 60.5865 28.16C60.5865 27.1744 60.7977 26.3061 61.2201 25.5552C61.6542 24.7925 62.2409 24.2117 62.9801 23.8128C63.7193 23.4021 64.5465 23.1968 65.4617 23.1968C66.3769 23.1968 67.2041 23.4021 67.9433 23.8128C68.6825 24.2117 69.2633 24.7867 69.6857 25.5376C70.1198 26.2885 70.3369 27.1627 70.3369 28.16C70.3369 29.1573 70.114 30.0373 69.6681 30.8C69.234 31.5509 68.6414 32.1317 67.8905 32.5424C67.1396 32.9531 66.3065 33.1584 65.3913 33.1584ZM65.3913 31.7504C65.9662 31.7504 66.506 31.6155 67.0105 31.3456C67.515 31.0757 67.9198 30.6709 68.2249 30.1312C68.5417 29.5915 68.7001 28.9344 68.7001 28.16C68.7001 27.3856 68.5476 26.7285 68.2425 26.1888C67.9374 25.6491 67.5385 25.2501 67.0457 24.992C66.5529 24.7221 66.019 24.5872 65.4441 24.5872C64.8574 24.5872 64.3177 24.7221 63.8249 24.992C63.3438 25.2501 62.9566 25.6491 62.6633 26.1888C62.37 26.7285 62.2233 27.3856 62.2233 28.16C62.2233 28.9461 62.3641 29.6091 62.6457 30.1488C62.939 30.6885 63.3262 31.0933 63.8073 31.3632C64.2884 31.6213 64.8164 31.7504 65.3913 31.7504ZM74.0443 19.976V33H72.4427V19.976H74.0443ZM85.3276 23.3552V33H83.726V31.5744C83.4209 32.0672 82.9926 32.4544 82.4412 32.736C81.9014 33.0059 81.303 33.1408 80.646 33.1408C79.895 33.1408 79.2204 32.9883 78.622 32.6832C78.0236 32.3664 77.5484 31.8971 77.1964 31.2752C76.8561 30.6533 76.686 29.8965 76.686 29.0048V23.3552H78.27V28.7936C78.27 29.744 78.5105 30.4773 78.9916 30.9936C79.4726 31.4981 80.1297 31.7504 80.9628 31.7504C81.8193 31.7504 82.494 31.4864 82.9868 30.9584C83.4796 30.4304 83.726 29.6619 83.726 28.6528V23.3552H85.3276ZM92.1326 31.8032C92.8366 31.8032 93.4232 31.6389 93.8926 31.3104C94.3619 30.9819 94.6846 30.5125 94.8606 29.9024H96.5854C96.3507 30.8176 95.8872 31.5685 95.195 32.1552C94.5144 32.7301 93.6579 33.0587 92.6254 33.1408V34.0208C93.3176 34.0091 93.8691 34.1557 94.2798 34.4608C94.6904 34.7659 94.8958 35.2 94.8958 35.7632C94.8958 36.3147 94.6963 36.7547 94.2974 37.0832C93.8984 37.4117 93.3822 37.576 92.7486 37.576H90.7246V36.5376H92.4318C92.819 36.5376 93.1006 36.4789 93.2766 36.3616C93.4643 36.2443 93.5582 36.0448 93.5582 35.7632C93.5582 35.4933 93.4643 35.2997 93.2766 35.1824C93.1006 35.0651 92.819 35.0064 92.4318 35.0064H91.5518V33.1232C90.7422 33.0411 90.0264 32.7888 89.4046 32.3664C88.7827 31.9323 88.2958 31.3573 87.9438 30.6416C87.6035 29.9141 87.4334 29.0869 87.4334 28.16C87.4334 27.1627 87.6328 26.2944 88.0318 25.5552C88.4307 24.8043 88.9822 24.2235 89.6862 23.8128C90.4019 23.4021 91.2174 23.1968 92.1326 23.1968C93.3176 23.1968 94.2915 23.4843 95.0542 24.0592C95.8286 24.6341 96.339 25.432 96.5854 26.4528H94.8606C94.6963 25.8661 94.3736 25.4027 93.8926 25.0624C93.4232 24.7221 92.8366 24.552 92.1326 24.552C91.2174 24.552 90.4782 24.8688 89.915 25.5024C89.3518 26.1243 89.0702 27.0101 89.0702 28.16C89.0702 29.3216 89.3518 30.2192 89.915 30.8528C90.4782 31.4864 91.2174 31.8032 92.1326 31.8032ZM102.929 33.1584C102.025 33.1584 101.204 32.9531 100.465 32.5424C99.7373 32.1317 99.1624 31.5509 98.74 30.8C98.3293 30.0373 98.124 29.1573 98.124 28.16C98.124 27.1744 98.3352 26.3061 98.7576 25.5552C99.1917 24.7925 99.7784 24.2117 100.518 23.8128C101.257 23.4021 102.084 23.1968 102.999 23.1968C103.914 23.1968 104.742 23.4021 105.481 23.8128C106.22 24.2117 106.801 24.7867 107.223 25.5376C107.657 26.2885 107.874 27.1627 107.874 28.16C107.874 29.1573 107.651 30.0373 107.206 30.8C106.771 31.5509 106.179 32.1317 105.428 32.5424C104.677 32.9531 103.844 33.1584 102.929 33.1584ZM102.929 31.7504C103.504 31.7504 104.043 31.6155 104.548 31.3456C105.053 31.0757 105.457 30.6709 105.762 30.1312C106.079 29.5915 106.238 28.9344 106.238 28.16C106.238 27.3856 106.085 26.7285 105.78 26.1888C105.475 25.6491 105.076 25.2501 104.583 24.992C104.09 24.7221 103.557 24.5872 102.982 24.5872C102.395 24.5872 101.855 24.7221 101.362 24.992C100.881 25.2501 100.494 25.6491 100.201 26.1888C99.9075 26.7285 99.7608 27.3856 99.7608 28.16C99.7608 28.9461 99.9016 29.6091 100.183 30.1488C100.477 30.6885 100.864 31.0933 101.345 31.3632C101.826 31.6213 102.354 31.7504 102.929 31.7504ZM100.43 22.1936C100.512 21.5952 100.705 21.1376 101.01 20.8208C101.327 20.504 101.72 20.3456 102.19 20.3456C102.413 20.3456 102.6 20.3867 102.753 20.4688C102.917 20.5392 103.111 20.6448 103.334 20.7856C103.498 20.9029 103.645 20.9968 103.774 21.0672C103.903 21.1259 104.043 21.1552 104.196 21.1552C104.395 21.1552 104.566 21.0907 104.706 20.9616C104.847 20.8325 104.935 20.6448 104.97 20.3984H105.886C105.815 20.9851 105.622 21.4368 105.305 21.7536C104.988 22.0704 104.595 22.2288 104.126 22.2288C103.903 22.2288 103.703 22.1936 103.527 22.1232C103.363 22.0411 103.175 21.9237 102.964 21.7712C102.776 21.6539 102.624 21.5659 102.506 21.5072C102.401 21.4485 102.272 21.4192 102.119 21.4192C101.92 21.4192 101.75 21.4837 101.609 21.6128C101.48 21.7419 101.398 21.9355 101.362 22.1936H100.43ZM118.78 27.808C118.78 28.1131 118.763 28.4357 118.727 28.776H111.019C111.077 29.7264 111.4 30.4715 111.987 31.0112C112.585 31.5392 113.307 31.8032 114.151 31.8032C114.844 31.8032 115.419 31.6448 115.876 31.328C116.346 30.9995 116.674 30.5653 116.862 30.0256H118.587C118.328 30.9525 117.812 31.7093 117.038 32.296C116.263 32.8709 115.301 33.1584 114.151 33.1584C113.236 33.1584 112.415 32.9531 111.687 32.5424C110.972 32.1317 110.408 31.5509 109.998 30.8C109.587 30.0373 109.382 29.1573 109.382 28.16C109.382 27.1627 109.581 26.2885 109.98 25.5376C110.379 24.7867 110.936 24.2117 111.652 23.8128C112.38 23.4021 113.213 23.1968 114.151 23.1968C115.067 23.1968 115.876 23.3963 116.58 23.7952C117.284 24.1941 117.824 24.7456 118.199 25.4496C118.587 26.1419 118.78 26.928 118.78 27.808ZM117.126 27.4736C117.126 26.8635 116.991 26.3413 116.721 25.9072C116.451 25.4613 116.082 25.1269 115.612 24.904C115.155 24.6693 114.644 24.552 114.081 24.552C113.271 24.552 112.579 24.8101 112.004 25.3264C111.441 25.8427 111.118 26.5584 111.036 27.4736H117.126ZM124.309 33.1584C123.569 33.1584 122.907 33.0352 122.32 32.7888C121.733 32.5307 121.27 32.1787 120.929 31.7328C120.589 31.2752 120.401 30.7531 120.366 30.1664H122.021C122.068 30.6475 122.291 31.0405 122.689 31.3456C123.1 31.6507 123.634 31.8032 124.291 31.8032C124.901 31.8032 125.382 31.6683 125.734 31.3984C126.086 31.1285 126.262 30.7883 126.262 30.3776C126.262 29.9552 126.075 29.6443 125.699 29.4448C125.324 29.2336 124.743 29.0283 123.957 28.8288C123.241 28.6411 122.654 28.4533 122.197 28.2656C121.751 28.0661 121.364 27.7787 121.035 27.4032C120.718 27.016 120.56 26.5115 120.56 25.8896C120.56 25.3968 120.707 24.9451 121 24.5344C121.293 24.1237 121.71 23.8011 122.249 23.5664C122.789 23.32 123.405 23.1968 124.097 23.1968C125.165 23.1968 126.028 23.4667 126.685 24.0064C127.342 24.5461 127.694 25.2853 127.741 26.224H126.139C126.104 25.7195 125.899 25.3147 125.523 25.0096C125.159 24.7045 124.667 24.552 124.045 24.552C123.47 24.552 123.012 24.6752 122.672 24.9216C122.332 25.168 122.161 25.4907 122.161 25.8896C122.161 26.2064 122.261 26.4704 122.461 26.6816C122.672 26.8811 122.93 27.0453 123.235 27.1744C123.552 27.2917 123.986 27.4267 124.537 27.5792C125.23 27.7669 125.793 27.9547 126.227 28.1424C126.661 28.3184 127.031 28.5883 127.336 28.952C127.653 29.3157 127.817 29.7909 127.829 30.3776C127.829 30.9056 127.682 31.3808 127.389 31.8032C127.095 32.2256 126.679 32.56 126.139 32.8064C125.611 33.0411 125.001 33.1584 124.309 33.1584ZM142.983 24.3232C142.983 25.344 142.631 26.1947 141.927 26.8752C141.235 27.544 140.173 27.8784 138.742 27.8784H136.383V33H134.782V20.7328H138.742C140.126 20.7328 141.176 21.0672 141.892 21.736C142.62 22.4048 142.983 23.2672 142.983 24.3232ZM138.742 26.5584C139.634 26.5584 140.291 26.3648 140.713 25.9776C141.135 25.5904 141.347 25.0389 141.347 24.3232C141.347 22.8096 140.478 22.0528 138.742 22.0528H136.383V26.5584H138.742ZM153.774 27.808C153.774 28.1131 153.756 28.4357 153.721 28.776H146.012C146.071 29.7264 146.394 30.4715 146.98 31.0112C147.579 31.5392 148.3 31.8032 149.145 31.8032C149.837 31.8032 150.412 31.6448 150.87 31.328C151.339 30.9995 151.668 30.5653 151.856 30.0256H153.58C153.322 30.9525 152.806 31.7093 152.032 32.296C151.257 32.8709 150.295 33.1584 149.145 33.1584C148.23 33.1584 147.409 32.9531 146.681 32.5424C145.965 32.1317 145.402 31.5509 144.992 30.8C144.581 30.0373 144.376 29.1573 144.376 28.16C144.376 27.1627 144.575 26.2885 144.974 25.5376C145.373 24.7867 145.93 24.2117 146.646 23.8128C147.373 23.4021 148.206 23.1968 149.145 23.1968C150.06 23.1968 150.87 23.3963 151.574 23.7952C152.278 24.1941 152.818 24.7456 153.193 25.4496C153.58 26.1419 153.774 26.928 153.774 27.808ZM152.12 27.4736C152.12 26.8635 151.985 26.3413 151.715 25.9072C151.445 25.4613 151.075 25.1269 150.606 24.904C150.148 24.6693 149.638 24.552 149.075 24.552C148.265 24.552 147.573 24.8101 146.998 25.3264C146.435 25.8427 146.112 26.5584 146.03 27.4736H152.12ZM157.49 24.9216C157.771 24.3701 158.17 23.9419 158.686 23.6368C159.214 23.3317 159.854 23.1792 160.605 23.1792V24.8336H160.182C158.387 24.8336 157.49 25.8075 157.49 27.7552V33H155.888V23.3552H157.49V24.9216ZM165.868 33.1584C165.129 33.1584 164.466 33.0352 163.879 32.7888C163.293 32.5307 162.829 32.1787 162.489 31.7328C162.149 31.2752 161.961 30.7531 161.926 30.1664H163.58C163.627 30.6475 163.85 31.0405 164.249 31.3456C164.66 31.6507 165.193 31.8032 165.85 31.8032C166.461 31.8032 166.942 31.6683 167.294 31.3984C167.646 31.1285 167.822 30.7883 167.822 30.3776C167.822 29.9552 167.634 29.6443 167.258 29.4448C166.883 29.2336 166.302 29.0283 165.516 28.8288C164.8 28.6411 164.214 28.4533 163.756 28.2656C163.31 28.0661 162.923 27.7787 162.594 27.4032C162.278 27.016 162.119 26.5115 162.119 25.8896C162.119 25.3968 162.266 24.9451 162.559 24.5344C162.853 24.1237 163.269 23.8011 163.809 23.5664C164.349 23.32 164.965 23.1968 165.657 23.1968C166.725 23.1968 167.587 23.4667 168.244 24.0064C168.901 24.5461 169.253 25.2853 169.3 26.224H167.698C167.663 25.7195 167.458 25.3147 167.082 25.0096C166.719 24.7045 166.226 24.552 165.604 24.552C165.029 24.552 164.572 24.6752 164.231 24.9216C163.891 25.168 163.721 25.4907 163.721 25.8896C163.721 26.2064 163.821 26.4704 164.02 26.6816C164.231 26.8811 164.489 27.0453 164.794 27.1744C165.111 27.2917 165.545 27.4267 166.097 27.5792C166.789 27.7669 167.352 27.9547 167.786 28.1424C168.221 28.3184 168.59 28.5883 168.895 28.952C169.212 29.3157 169.376 29.7909 169.388 30.3776C169.388 30.9056 169.241 31.3808 168.948 31.8032C168.655 32.2256 168.238 32.56 167.698 32.8064C167.17 33.0411 166.56 33.1584 165.868 33.1584ZM175.855 33.1584C174.952 33.1584 174.131 32.9531 173.391 32.5424C172.664 32.1317 172.089 31.5509 171.667 30.8C171.256 30.0373 171.051 29.1573 171.051 28.16C171.051 27.1744 171.262 26.3061 171.684 25.5552C172.118 24.7925 172.705 24.2117 173.444 23.8128C174.183 23.4021 175.011 23.1968 175.926 23.1968C176.841 23.1968 177.668 23.4021 178.407 23.8128C179.147 24.2117 179.727 24.7867 180.15 25.5376C180.584 26.2885 180.801 27.1627 180.801 28.16C180.801 29.1573 180.578 30.0373 180.132 30.8C179.698 31.5509 179.105 32.1317 178.355 32.5424C177.604 32.9531 176.771 33.1584 175.855 33.1584ZM175.855 31.7504C176.43 31.7504 176.97 31.6155 177.475 31.3456C177.979 31.0757 178.384 30.6709 178.689 30.1312C179.006 29.5915 179.164 28.9344 179.164 28.16C179.164 27.3856 179.012 26.7285 178.707 26.1888C178.401 25.6491 178.003 25.2501 177.51 24.992C177.017 24.7221 176.483 24.5872 175.908 24.5872C175.321 24.5872 174.782 24.7221 174.289 24.992C173.808 25.2501 173.421 25.6491 173.127 26.1888C172.834 26.7285 172.687 27.3856 172.687 28.16C172.687 28.9461 172.828 29.6091 173.11 30.1488C173.403 30.6885 173.79 31.0933 174.271 31.3632C174.752 31.6213 175.28 31.7504 175.855 31.7504ZM187.606 23.1792C188.779 23.1792 189.73 23.5371 190.457 24.2528C191.185 24.9568 191.548 25.9776 191.548 27.3152V33H189.964V27.544C189.964 26.5819 189.724 25.8485 189.243 25.344C188.762 24.8277 188.105 24.5696 187.272 24.5696C186.427 24.5696 185.752 24.8336 185.248 25.3616C184.755 25.8896 184.508 26.6581 184.508 27.6672V33H182.907V23.3552H184.508V24.728C184.825 24.2352 185.253 23.8539 185.793 23.584C186.345 23.3141 186.949 23.1792 187.606 23.1792ZM193.566 28.1424C193.566 27.1568 193.766 26.2944 194.165 25.5552C194.564 24.8043 195.109 24.2235 195.801 23.8128C196.505 23.4021 197.286 23.1968 198.142 23.1968C198.987 23.1968 199.72 23.3787 200.342 23.7424C200.964 24.1061 201.428 24.5637 201.733 25.1152V23.3552H203.352V33H201.733V31.2048C201.416 31.768 200.941 32.2373 200.307 32.6128C199.685 32.9765 198.958 33.1584 198.125 33.1584C197.268 33.1584 196.494 32.9472 195.801 32.5248C195.109 32.1024 194.564 31.5099 194.165 30.7472C193.766 29.9845 193.566 29.1163 193.566 28.1424ZM201.733 28.16C201.733 27.4325 201.586 26.7989 201.293 26.2592C200.999 25.7195 200.6 25.3088 200.096 25.0272C199.603 24.7339 199.057 24.5872 198.459 24.5872C197.861 24.5872 197.315 24.728 196.822 25.0096C196.329 25.2912 195.936 25.7019 195.643 26.2416C195.35 26.7813 195.203 27.4149 195.203 28.1424C195.203 28.8816 195.35 29.5269 195.643 30.0784C195.936 30.6181 196.329 31.0347 196.822 31.328C197.315 31.6096 197.861 31.7504 198.459 31.7504C199.057 31.7504 199.603 31.6096 200.096 31.328C200.6 31.0347 200.999 30.6181 201.293 30.0784C201.586 29.5269 201.733 28.8875 201.733 28.16ZM207.66 19.976V33H206.058V19.976H207.66ZM211.217 21.7888C210.912 21.7888 210.654 21.6832 210.442 21.472C210.231 21.2608 210.126 21.0027 210.126 20.6976C210.126 20.3925 210.231 20.1344 210.442 19.9232C210.654 19.712 210.912 19.6064 211.217 19.6064C211.51 19.6064 211.757 19.712 211.956 19.9232C212.167 20.1344 212.273 20.3925 212.273 20.6976C212.273 21.0027 212.167 21.2608 211.956 21.472C211.757 21.6832 211.51 21.7888 211.217 21.7888ZM211.991 23.3552V33H210.39V23.3552H211.991ZM215.918 31.68H220.652V33H214.087V31.68L218.769 24.6576H214.122V23.3552H220.617V24.6576L215.918 31.68ZM222.132 28.1424C222.132 27.1568 222.331 26.2944 222.73 25.5552C223.129 24.8043 223.675 24.2235 224.367 23.8128C225.071 23.4021 225.851 23.1968 226.708 23.1968C227.553 23.1968 228.286 23.3787 228.908 23.7424C229.53 24.1061 229.993 24.5637 230.298 25.1152V23.3552H231.917V33H230.298V31.2048C229.981 31.768 229.506 32.2373 228.873 32.6128C228.251 32.9765 227.523 33.1584 226.69 33.1584C225.834 33.1584 225.059 32.9472 224.367 32.5248C223.675 32.1024 223.129 31.5099 222.73 30.7472C222.331 29.9845 222.132 29.1163 222.132 28.1424ZM230.298 28.16C230.298 27.4325 230.152 26.7989 229.858 26.2592C229.565 25.7195 229.166 25.3088 228.661 25.0272C228.169 24.7339 227.623 24.5872 227.025 24.5872C226.426 24.5872 225.881 24.728 225.388 25.0096C224.895 25.2912 224.502 25.7019 224.209 26.2416C223.915 26.7813 223.769 27.4149 223.769 28.1424C223.769 28.8816 223.915 29.5269 224.209 30.0784C224.502 30.6181 224.895 31.0347 225.388 31.328C225.881 31.6096 226.426 31.7504 227.025 31.7504C227.623 31.7504 228.169 31.6096 228.661 31.328C229.166 31.0347 229.565 30.6181 229.858 30.0784C230.152 29.5269 230.298 28.8875 230.298 28.16ZM234.026 28.1424C234.026 27.1568 234.225 26.2944 234.624 25.5552C235.023 24.8043 235.568 24.2235 236.261 23.8128C236.965 23.4021 237.751 23.1968 238.619 23.1968C239.37 23.1968 240.068 23.3728 240.714 23.7248C241.359 24.0651 241.852 24.5168 242.192 25.08V19.976H243.811V33H242.192V31.1872C241.875 31.7621 241.406 32.2373 240.784 32.6128C240.162 32.9765 239.435 33.1584 238.602 33.1584C237.745 33.1584 236.965 32.9472 236.261 32.5248C235.568 32.1024 235.023 31.5099 234.624 30.7472C234.225 29.9845 234.026 29.1163 234.026 28.1424ZM242.192 28.16C242.192 27.4325 242.045 26.7989 241.752 26.2592C241.459 25.7195 241.06 25.3088 240.555 25.0272C240.062 24.7339 239.517 24.5872 238.918 24.5872C238.32 24.5872 237.774 24.728 237.282 25.0096C236.789 25.2912 236.396 25.7019 236.102 26.2416C235.809 26.7813 235.662 27.4149 235.662 28.1424C235.662 28.8816 235.809 29.5269 236.102 30.0784C236.396 30.6181 236.789 31.0347 237.282 31.328C237.774 31.6096 238.32 31.7504 238.918 31.7504C239.517 31.7504 240.062 31.6096 240.555 31.328C241.06 31.0347 241.459 30.6181 241.752 30.0784C242.045 29.5269 242.192 28.8875 242.192 28.16ZM245.919 28.1424C245.919 27.1568 246.119 26.2944 246.518 25.5552C246.917 24.8043 247.462 24.2235 248.155 23.8128C248.859 23.4021 249.639 23.1968 250.495 23.1968C251.34 23.1968 252.073 23.3787 252.695 23.7424C253.317 24.1061 253.781 24.5637 254.086 25.1152V23.3552H255.705V33H254.086V31.2048C253.769 31.768 253.294 32.2373 252.66 32.6128C252.038 32.9765 251.311 33.1584 250.478 33.1584C249.621 33.1584 248.847 32.9472 248.155 32.5248C247.462 32.1024 246.917 31.5099 246.518 30.7472C246.119 29.9845 245.919 29.1163 245.919 28.1424ZM254.086 28.16C254.086 27.4325 253.939 26.7989 253.646 26.2592C253.352 25.7195 252.953 25.3088 252.449 25.0272C251.956 24.7339 251.411 24.5872 250.812 24.5872C250.214 24.5872 249.668 24.728 249.175 25.0096C248.683 25.2912 248.289 25.7019 247.996 26.2416C247.703 26.7813 247.556 27.4149 247.556 28.1424C247.556 28.8816 247.703 29.5269 247.996 30.0784C248.289 30.6181 248.683 31.0347 249.175 31.328C249.668 31.6096 250.214 31.7504 250.812 31.7504C251.411 31.7504 251.956 31.6096 252.449 31.328C252.953 31.0347 253.352 30.6181 253.646 30.0784C253.939 29.5269 254.086 28.8875 254.086 28.16ZM261.826 33.1584C261.087 33.1584 260.424 33.0352 259.837 32.7888C259.25 32.5307 258.787 32.1787 258.447 31.7328C258.106 31.2752 257.919 30.7531 257.883 30.1664H259.538C259.585 30.6475 259.808 31.0405 260.207 31.3456C260.617 31.6507 261.151 31.8032 261.808 31.8032C262.418 31.8032 262.899 31.6683 263.251 31.3984C263.603 31.1285 263.779 30.7883 263.779 30.3776C263.779 29.9552 263.592 29.6443 263.216 29.4448C262.841 29.2336 262.26 29.0283 261.474 28.8288C260.758 28.6411 260.171 28.4533 259.714 28.2656C259.268 28.0661 258.881 27.7787 258.552 27.4032C258.235 27.016 258.077 26.5115 258.077 25.8896C258.077 25.3968 258.224 24.9451 258.517 24.5344C258.81 24.1237 259.227 23.8011 259.767 23.5664C260.306 23.32 260.922 23.1968 261.615 23.1968C262.682 23.1968 263.545 23.4667 264.202 24.0064C264.859 24.5461 265.211 25.2853 265.258 26.224H263.656C263.621 25.7195 263.416 25.3147 263.04 25.0096C262.677 24.7045 262.184 24.552 261.562 24.552C260.987 24.552 260.529 24.6752 260.189 24.9216C259.849 25.168 259.679 25.4907 259.679 25.8896C259.679 26.2064 259.778 26.4704 259.978 26.6816C260.189 26.8811 260.447 27.0453 260.752 27.1744C261.069 27.2917 261.503 27.4267 262.055 27.5792C262.747 27.7669 263.31 27.9547 263.744 28.1424C264.178 28.3184 264.548 28.5883 264.853 28.952C265.17 29.3157 265.334 29.7909 265.346 30.3776C265.346 30.9056 265.199 31.3808 264.906 31.8032C264.613 32.2256 264.196 32.56 263.656 32.8064C263.128 33.0411 262.518 33.1584 261.826 33.1584Z" fill="#EEEFF4"/>
<mask id="path-5-inside-2_189_4" fill="white">
<path d="M0 90.23H793V145.46H0V90.23Z"/>
</mask>
<path d="M793 144.46H0V146.46H793V144.46Z" fill="#EEEFF4" mask="url(#path-5-inside-2_189_4)"/>
<path d="M1.3376 100.702V97.7804H7.9552V123.23H4.7168V100.702H1.3376ZM15.0062 123.441C14.3961 123.441 13.8798 123.23 13.4574 122.808C13.035 122.385 12.8238 121.869 12.8238 121.259C12.8238 120.649 13.035 120.132 13.4574 119.71C13.8798 119.288 14.3961 119.076 15.0062 119.076C15.5929 119.076 16.0857 119.288 16.4846 119.71C16.907 120.132 17.1182 120.649 17.1182 121.259C17.1182 121.869 16.907 122.385 16.4846 122.808C16.0857 123.23 15.5929 123.441 15.0062 123.441Z" fill="#EEEFF4"/>
<path d="M41.9568 112.035V116.136H46.4272V117.456H41.9568V121.68H46.9552V123H40.3552V110.715H46.9552V112.035H41.9568ZM54.4122 123L52.1242 119.41L49.9242 123H48.2522L51.3674 118.213L48.2522 113.355H50.065L52.353 116.928L54.5354 113.355H56.2074L53.1098 118.125L56.225 123H54.4122ZM59.4021 115.133C59.7189 114.581 60.1882 114.124 60.8101 113.76C61.4437 113.385 62.177 113.197 63.0101 113.197C63.8666 113.197 64.641 113.402 65.3333 113.813C66.0373 114.223 66.5888 114.804 66.9877 115.555C67.3866 116.294 67.5861 117.157 67.5861 118.142C67.5861 119.116 67.3866 119.985 66.9877 120.747C66.5888 121.51 66.0373 122.102 65.3333 122.525C64.641 122.947 63.8666 123.158 63.0101 123.158C62.1888 123.158 61.4613 122.977 60.8277 122.613C60.2058 122.237 59.7306 121.774 59.4021 121.222V127.576H57.8005V113.355H59.4021V115.133ZM65.9493 118.142C65.9493 117.415 65.8026 116.781 65.5093 116.242C65.216 115.702 64.817 115.291 64.3125 115.01C63.8197 114.728 63.2741 114.587 62.6757 114.587C62.089 114.587 61.5434 114.734 61.0389 115.027C60.5461 115.309 60.1472 115.725 59.8421 116.277C59.5488 116.817 59.4021 117.444 59.4021 118.16C59.4021 118.887 59.5488 119.527 59.8421 120.078C60.1472 120.618 60.5461 121.035 61.0389 121.328C61.5434 121.61 62.089 121.75 62.6757 121.75C63.2741 121.75 63.8197 121.61 64.3125 121.328C64.817 121.035 65.216 120.618 65.5093 120.078C65.8026 119.527 65.9493 118.882 65.9493 118.142ZM78.4943 117.808C78.4943 118.113 78.4767 118.436 78.4415 118.776H70.7327C70.7913 119.726 71.114 120.471 71.7007 121.011C72.2991 121.539 73.0207 121.803 73.8655 121.803C74.5577 121.803 75.1327 121.645 75.5903 121.328C76.0596 120.999 76.3881 120.565 76.5759 120.026H78.3007C78.0425 120.953 77.5263 121.709 76.7519 122.296C75.9775 122.871 75.0153 123.158 73.8655 123.158C72.9503 123.158 72.1289 122.953 71.4015 122.542C70.6857 122.132 70.1225 121.551 69.7119 120.8C69.3012 120.037 69.0959 119.157 69.0959 118.16C69.0959 117.163 69.2953 116.289 69.6943 115.538C70.0932 114.787 70.6505 114.212 71.3663 113.813C72.0937 113.402 72.9268 113.197 73.8655 113.197C74.7807 113.197 75.5903 113.396 76.2943 113.795C76.9983 114.194 77.538 114.746 77.9135 115.45C78.3007 116.142 78.4943 116.928 78.4943 117.808ZM76.8399 117.474C76.8399 116.863 76.7049 116.341 76.4351 115.907C76.1652 115.461 75.7956 115.127 75.3263 114.904C74.8687 114.669 74.3583 114.552 73.7951 114.552C72.9855 114.552 72.2932 114.81 71.7183 115.326C71.1551 115.843 70.8324 116.558 70.7503 117.474H76.8399ZM82.2099 114.922C82.4915 114.37 82.8905 113.942 83.4067 113.637C83.9347 113.332 84.5742 113.179 85.3251 113.179V114.834H84.9027C83.1075 114.834 82.2099 115.807 82.2099 117.755V123H80.6083V113.355H82.2099V114.922ZM88.0011 111.789C87.6961 111.789 87.4379 111.683 87.2267 111.472C87.0155 111.261 86.9099 111.003 86.9099 110.698C86.9099 110.393 87.0155 110.134 87.2267 109.923C87.4379 109.712 87.6961 109.606 88.0011 109.606C88.2945 109.606 88.5409 109.712 88.7403 109.923C88.9515 110.134 89.0571 110.393 89.0571 110.698C89.0571 111.003 88.9515 111.261 88.7403 111.472C88.5409 111.683 88.2945 111.789 88.0011 111.789ZM88.7755 113.355V123H87.1739V113.355H88.7755ZM100.305 117.808C100.305 118.113 100.288 118.436 100.252 118.776H92.5436C92.6023 119.726 92.9249 120.471 93.5116 121.011C94.11 121.539 94.8316 121.803 95.6764 121.803C96.3687 121.803 96.9436 121.645 97.4012 121.328C97.8705 120.999 98.1991 120.565 98.3868 120.026H100.112C99.8535 120.953 99.3372 121.709 98.5628 122.296C97.7884 122.871 96.8263 123.158 95.6764 123.158C94.7612 123.158 93.9399 122.953 93.2124 122.542C92.4967 122.132 91.9335 121.551 91.5228 120.8C91.1121 120.037 90.9068 119.157 90.9068 118.16C90.9068 117.163 91.1063 116.289 91.5052 115.538C91.9041 114.787 92.4615 114.212 93.1772 113.813C93.9047 113.402 94.7377 113.197 95.6764 113.197C96.5916 113.197 97.4012 113.396 98.1052 113.795C98.8092 114.194 99.3489 114.746 99.7244 115.45C100.112 116.142 100.305 116.928 100.305 117.808ZM98.6508 117.474C98.6508 116.863 98.5159 116.341 98.246 115.907C97.9761 115.461 97.6065 115.127 97.1372 114.904C96.6796 114.669 96.1692 114.552 95.606 114.552C94.7964 114.552 94.1041 114.81 93.5292 115.326C92.966 115.843 92.6433 116.558 92.5612 117.474H98.6508ZM95.6236 110.997L93.1772 112.493V111.226L95.6236 109.765L98.0524 111.226V112.493L95.6236 110.997ZM107.118 113.179C108.292 113.179 109.242 113.537 109.97 114.253C110.697 114.957 111.061 115.978 111.061 117.315V123H109.477V117.544C109.477 116.582 109.236 115.849 108.755 115.344C108.274 114.828 107.617 114.57 106.784 114.57C105.939 114.57 105.265 114.834 104.76 115.362C104.267 115.89 104.021 116.658 104.021 117.667V123H102.419V113.355H104.021V114.728C104.338 114.235 104.766 113.854 105.306 113.584C105.857 113.314 106.461 113.179 107.118 113.179ZM113.079 118.16C113.079 117.163 113.278 116.294 113.677 115.555C114.076 114.804 114.627 114.223 115.331 113.813C116.047 113.402 116.863 113.197 117.778 113.197C118.963 113.197 119.937 113.484 120.699 114.059C121.474 114.634 121.984 115.432 122.231 116.453H120.506C120.342 115.866 120.019 115.403 119.538 115.062C119.069 114.722 118.482 114.552 117.778 114.552C116.863 114.552 116.123 114.869 115.56 115.502C114.997 116.124 114.715 117.01 114.715 118.16C114.715 119.322 114.997 120.219 115.56 120.853C116.123 121.486 116.863 121.803 117.778 121.803C118.482 121.803 119.069 121.639 119.538 121.31C120.007 120.982 120.33 120.513 120.506 119.902H122.231C121.973 120.888 121.456 121.68 120.682 122.278C119.907 122.865 118.939 123.158 117.778 123.158C116.863 123.158 116.047 122.953 115.331 122.542C114.627 122.132 114.076 121.551 113.677 120.8C113.278 120.049 113.079 119.169 113.079 118.16ZM125.195 111.789C124.89 111.789 124.632 111.683 124.42 111.472C124.209 111.261 124.104 111.003 124.104 110.698C124.104 110.393 124.209 110.134 124.42 109.923C124.632 109.712 124.89 109.606 125.195 109.606C125.488 109.606 125.735 109.712 125.934 109.923C126.145 110.134 126.251 110.393 126.251 110.698C126.251 111.003 126.145 111.261 125.934 111.472C125.735 111.683 125.488 111.789 125.195 111.789ZM125.969 113.355V123H124.368V113.355H125.969ZM128.101 118.142C128.101 117.157 128.3 116.294 128.699 115.555C129.098 114.804 129.643 114.223 130.336 113.813C131.04 113.402 131.82 113.197 132.677 113.197C133.521 113.197 134.255 113.379 134.877 113.742C135.498 114.106 135.962 114.564 136.267 115.115V113.355H137.886V123H136.267V121.205C135.95 121.768 135.475 122.237 134.841 122.613C134.219 122.977 133.492 123.158 132.659 123.158C131.802 123.158 131.028 122.947 130.336 122.525C129.643 122.102 129.098 121.51 128.699 120.747C128.3 119.985 128.101 119.116 128.101 118.142ZM136.267 118.16C136.267 117.433 136.12 116.799 135.827 116.259C135.534 115.719 135.135 115.309 134.63 115.027C134.137 114.734 133.592 114.587 132.993 114.587C132.395 114.587 131.849 114.728 131.357 115.01C130.864 115.291 130.471 115.702 130.177 116.242C129.884 116.781 129.737 117.415 129.737 118.142C129.737 118.882 129.884 119.527 130.177 120.078C130.471 120.618 130.864 121.035 131.357 121.328C131.849 121.61 132.395 121.75 132.993 121.75C133.592 121.75 134.137 121.61 134.63 121.328C135.135 121.035 135.534 120.618 135.827 120.078C136.12 119.527 136.267 118.887 136.267 118.16ZM144.686 118.142C144.686 117.157 144.886 116.294 145.285 115.555C145.684 114.804 146.229 114.223 146.922 113.813C147.626 113.402 148.412 113.197 149.28 113.197C150.031 113.197 150.729 113.373 151.374 113.725C152.02 114.065 152.513 114.517 152.853 115.08V109.976H154.472V123H152.853V121.187C152.536 121.762 152.067 122.237 151.445 122.613C150.823 122.977 150.096 123.158 149.262 123.158C148.406 123.158 147.626 122.947 146.922 122.525C146.229 122.102 145.684 121.51 145.285 120.747C144.886 119.985 144.686 119.116 144.686 118.142ZM152.853 118.16C152.853 117.433 152.706 116.799 152.413 116.259C152.12 115.719 151.721 115.309 151.216 115.027C150.723 114.734 150.178 114.587 149.579 114.587C148.981 114.587 148.435 114.728 147.942 115.01C147.45 115.291 147.057 115.702 146.763 116.242C146.47 116.781 146.323 117.415 146.323 118.142C146.323 118.882 146.47 119.527 146.763 120.078C147.057 120.618 147.45 121.035 147.942 121.328C148.435 121.61 148.981 121.75 149.579 121.75C150.178 121.75 150.723 121.61 151.216 121.328C151.721 121.035 152.12 120.618 152.413 120.078C152.706 119.527 152.853 118.887 152.853 118.16ZM161.385 123.158C160.482 123.158 159.66 122.953 158.921 122.542C158.194 122.132 157.619 121.551 157.196 120.8C156.786 120.037 156.58 119.157 156.58 118.16C156.58 117.174 156.791 116.306 157.214 115.555C157.648 114.793 158.235 114.212 158.974 113.813C159.713 113.402 160.54 113.197 161.455 113.197C162.371 113.197 163.198 113.402 163.937 113.813C164.676 114.212 165.257 114.787 165.679 115.538C166.114 116.289 166.331 117.163 166.331 118.16C166.331 119.157 166.108 120.037 165.662 120.8C165.228 121.551 164.635 122.132 163.884 122.542C163.133 122.953 162.3 123.158 161.385 123.158ZM161.385 121.75C161.96 121.75 162.5 121.615 163.004 121.346C163.509 121.076 163.914 120.671 164.219 120.131C164.535 119.591 164.694 118.934 164.694 118.16C164.694 117.386 164.541 116.729 164.236 116.189C163.931 115.649 163.532 115.25 163.039 114.992C162.547 114.722 162.013 114.587 161.438 114.587C160.851 114.587 160.311 114.722 159.819 114.992C159.338 115.25 158.95 115.649 158.657 116.189C158.364 116.729 158.217 117.386 158.217 118.16C158.217 118.946 158.358 119.609 158.639 120.149C158.933 120.689 159.32 121.093 159.801 121.363C160.282 121.621 160.81 121.75 161.385 121.75ZM172.53 116.858C172.53 115.661 172.8 114.587 173.34 113.637C173.88 112.675 174.613 111.924 175.54 111.384C176.479 110.844 177.517 110.574 178.655 110.574C179.993 110.574 181.16 110.897 182.157 111.542C183.155 112.188 183.882 113.103 184.34 114.288H182.421C182.081 113.549 181.588 112.98 180.943 112.581C180.309 112.182 179.547 111.982 178.655 111.982C177.799 111.982 177.03 112.182 176.349 112.581C175.669 112.98 175.135 113.549 174.748 114.288C174.361 115.015 174.167 115.872 174.167 116.858C174.167 117.831 174.361 118.688 174.748 119.427C175.135 120.155 175.669 120.718 176.349 121.117C177.03 121.516 177.799 121.715 178.655 121.715C179.547 121.715 180.309 121.522 180.943 121.134C181.588 120.735 182.081 120.166 182.421 119.427H184.34C183.882 120.601 183.155 121.51 182.157 122.155C181.16 122.789 179.993 123.106 178.655 123.106C177.517 123.106 176.479 122.842 175.54 122.314C174.613 121.774 173.88 121.029 173.34 120.078C172.8 119.128 172.53 118.054 172.53 116.858ZM188.326 109.976V123H186.724V109.976H188.326ZM191.882 111.789C191.577 111.789 191.319 111.683 191.108 111.472C190.897 111.261 190.791 111.003 190.791 110.698C190.791 110.393 190.897 110.134 191.108 109.923C191.319 109.712 191.577 109.606 191.882 109.606C192.176 109.606 192.422 109.712 192.622 109.923C192.833 110.134 192.938 110.393 192.938 110.698C192.938 111.003 192.833 111.261 192.622 111.472C192.422 111.683 192.176 111.789 191.882 111.789ZM192.657 113.355V123H191.055V113.355H192.657ZM204.186 117.808C204.186 118.113 204.169 118.436 204.134 118.776H196.425C196.484 119.726 196.806 120.471 197.393 121.011C197.991 121.539 198.713 121.803 199.558 121.803C200.25 121.803 200.825 121.645 201.282 121.328C201.752 120.999 202.08 120.565 202.268 120.026H203.993C203.735 120.953 203.218 121.709 202.444 122.296C201.67 122.871 200.708 123.158 199.558 123.158C198.642 123.158 197.821 122.953 197.094 122.542C196.378 122.132 195.815 121.551 195.404 120.8C194.993 120.037 194.788 119.157 194.788 118.16C194.788 117.163 194.988 116.289 195.386 115.538C195.785 114.787 196.343 114.212 197.058 113.813C197.786 113.402 198.619 113.197 199.558 113.197C200.473 113.197 201.282 113.396 201.986 113.795C202.69 114.194 203.23 114.746 203.606 115.45C203.993 116.142 204.186 116.928 204.186 117.808ZM202.532 117.474C202.532 116.863 202.397 116.341 202.127 115.907C201.857 115.461 201.488 115.127 201.018 114.904C200.561 114.669 200.05 114.552 199.487 114.552C198.678 114.552 197.985 114.81 197.41 115.326C196.847 115.843 196.525 116.558 196.442 117.474H202.532ZM211 113.179C212.173 113.179 213.123 113.537 213.851 114.253C214.578 114.957 214.942 115.978 214.942 117.315V123H213.358V117.544C213.358 116.582 213.118 115.849 212.637 115.344C212.155 114.828 211.498 114.57 210.665 114.57C209.821 114.57 209.146 114.834 208.641 115.362C208.149 115.89 207.902 116.658 207.902 117.667V123H206.301V113.355H207.902V114.728C208.219 114.235 208.647 113.854 209.187 113.584C209.738 113.314 210.343 113.179 211 113.179ZM219.512 114.675V120.36C219.512 120.829 219.612 121.164 219.811 121.363C220.011 121.551 220.357 121.645 220.85 121.645H222.029V123H220.586C219.694 123 219.025 122.795 218.579 122.384C218.133 121.973 217.91 121.299 217.91 120.36V114.675H216.661V113.355H217.91V110.926H219.512V113.355H222.029V114.675H219.512ZM232.769 117.808C232.769 118.113 232.752 118.436 232.716 118.776H225.008C225.066 119.726 225.389 120.471 225.976 121.011C226.574 121.539 227.296 121.803 228.14 121.803C228.833 121.803 229.408 121.645 229.865 121.328C230.335 120.999 230.663 120.565 230.851 120.026H232.576C232.318 120.953 231.801 121.709 231.027 122.296C230.252 122.871 229.29 123.158 228.14 123.158C227.225 123.158 226.404 122.953 225.676 122.542C224.961 122.132 224.398 121.551 223.987 120.8C223.576 120.037 223.371 119.157 223.371 118.16C223.371 117.163 223.57 116.289 223.969 115.538C224.368 114.787 224.926 114.212 225.641 113.813C226.369 113.402 227.202 113.197 228.14 113.197C229.056 113.197 229.865 113.396 230.569 113.795C231.273 114.194 231.813 114.746 232.188 115.45C232.576 116.142 232.769 116.928 232.769 117.808ZM231.115 117.474C231.115 116.863 230.98 116.341 230.71 115.907C230.44 115.461 230.071 115.127 229.601 114.904C229.144 114.669 228.633 114.552 228.07 114.552C227.26 114.552 226.568 114.81 225.993 115.326C225.43 115.843 225.107 116.558 225.025 117.474H231.115ZM247.777 114.323C247.777 115.344 247.425 116.195 246.721 116.875C246.029 117.544 244.967 117.878 243.536 117.878H241.177V123H239.576V110.733H243.536C244.92 110.733 245.97 111.067 246.686 111.736C247.413 112.405 247.777 113.267 247.777 114.323ZM243.536 116.558C244.427 116.558 245.084 116.365 245.507 115.978C245.929 115.59 246.14 115.039 246.14 114.323C246.14 112.81 245.272 112.053 243.536 112.053H241.177V116.558H243.536ZM251.369 114.922C251.651 114.37 252.05 113.942 252.566 113.637C253.094 113.332 253.734 113.179 254.485 113.179V114.834H254.062C252.267 114.834 251.369 115.807 251.369 117.755V123H249.768V113.355H251.369V114.922ZM257.161 111.789C256.855 111.789 256.597 111.683 256.386 111.472C256.175 111.261 256.069 111.003 256.069 110.698C256.069 110.393 256.175 110.134 256.386 109.923C256.597 109.712 256.855 109.606 257.161 109.606C257.454 109.606 257.7 109.712 257.9 109.923C258.111 110.134 258.217 110.393 258.217 110.698C258.217 111.003 258.111 111.261 257.9 111.472C257.7 111.683 257.454 111.789 257.161 111.789ZM257.935 113.355V123H256.333V113.355H257.935ZM264.871 123.158C263.968 123.158 263.146 122.953 262.407 122.542C261.68 122.132 261.105 121.551 260.682 120.8C260.272 120.037 260.066 119.157 260.066 118.16C260.066 117.174 260.277 116.306 260.7 115.555C261.134 114.793 261.721 114.212 262.46 113.813C263.199 113.402 264.026 113.197 264.941 113.197C265.857 113.197 266.684 113.402 267.423 113.813C268.162 114.212 268.743 114.787 269.165 115.538C269.6 116.289 269.817 117.163 269.817 118.16C269.817 119.157 269.594 120.037 269.148 120.8C268.714 121.551 268.121 122.132 267.37 122.542C266.619 122.953 265.786 123.158 264.871 123.158ZM264.871 121.75C265.446 121.75 265.986 121.615 266.49 121.346C266.995 121.076 267.4 120.671 267.705 120.131C268.021 119.591 268.18 118.934 268.18 118.16C268.18 117.386 268.027 116.729 267.722 116.189C267.417 115.649 267.018 115.25 266.525 114.992C266.033 114.722 265.499 114.587 264.924 114.587C264.337 114.587 263.797 114.722 263.305 114.992C262.824 115.25 262.436 115.649 262.143 116.189C261.85 116.729 261.703 117.386 261.703 118.16C261.703 118.946 261.844 119.609 262.125 120.149C262.419 120.689 262.806 121.093 263.287 121.363C263.768 121.621 264.296 121.75 264.871 121.75ZM273.524 114.922C273.806 114.37 274.205 113.942 274.721 113.637C275.249 113.332 275.888 113.179 276.639 113.179V114.834H276.217C274.422 114.834 273.524 115.807 273.524 117.755V123H271.922V113.355H273.524V114.922ZM279.315 111.789C279.01 111.789 278.752 111.683 278.541 111.472C278.33 111.261 278.224 111.003 278.224 110.698C278.224 110.393 278.33 110.134 278.541 109.923C278.752 109.712 279.01 109.606 279.315 109.606C279.609 109.606 279.855 109.712 280.054 109.923C280.266 110.134 280.371 110.393 280.371 110.698C280.371 111.003 280.266 111.261 280.054 111.472C279.855 111.683 279.609 111.789 279.315 111.789ZM280.09 113.355V123H278.488V113.355H280.09ZM284.773 114.675V120.36C284.773 120.829 284.873 121.164 285.072 121.363C285.272 121.551 285.618 121.645 286.11 121.645H287.29V123H285.846C284.955 123 284.286 122.795 283.84 122.384C283.394 121.973 283.171 121.299 283.171 120.36V114.675H281.922V113.355H283.171V110.926H284.773V113.355H287.29V114.675H284.773ZM288.632 118.142C288.632 117.157 288.831 116.294 289.23 115.555C289.629 114.804 290.175 114.223 290.867 113.813C291.571 113.402 292.351 113.197 293.208 113.197C294.053 113.197 294.786 113.379 295.408 113.742C296.03 114.106 296.493 114.564 296.798 115.115V113.355H298.417V123H296.798V121.205C296.481 121.768 296.006 122.237 295.373 122.613C294.751 122.977 294.023 123.158 293.19 123.158C292.334 123.158 291.559 122.947 290.867 122.525C290.175 122.102 289.629 121.51 289.23 120.747C288.831 119.985 288.632 119.116 288.632 118.142ZM296.798 118.16C296.798 117.433 296.652 116.799 296.358 116.259C296.065 115.719 295.666 115.309 295.161 115.027C294.669 114.734 294.123 114.587 293.525 114.587C292.926 114.587 292.381 114.728 291.888 115.01C291.395 115.291 291.002 115.702 290.709 116.242C290.415 116.781 290.269 117.415 290.269 118.142C290.269 118.882 290.415 119.527 290.709 120.078C291.002 120.618 291.395 121.035 291.888 121.328C292.381 121.61 292.926 121.75 293.525 121.75C294.123 121.75 294.669 121.61 295.161 121.328C295.666 121.035 296.065 120.618 296.358 120.078C296.652 119.527 296.798 118.887 296.798 118.16ZM295.549 110.627L291.8 112.634V111.437L295.549 109.237V110.627ZM302.726 114.922C303.007 114.37 303.406 113.942 303.922 113.637C304.45 113.332 305.09 113.179 305.841 113.179V114.834H305.418C303.623 114.834 302.726 115.807 302.726 117.755V123H301.124V113.355H302.726V114.922ZM308.517 111.789C308.212 111.789 307.954 111.683 307.742 111.472C307.531 111.261 307.426 111.003 307.426 110.698C307.426 110.393 307.531 110.134 307.742 109.923C307.954 109.712 308.212 109.606 308.517 109.606C308.81 109.606 309.057 109.712 309.256 109.923C309.467 110.134 309.573 110.393 309.573 110.698C309.573 111.003 309.467 111.261 309.256 111.472C309.057 111.683 308.81 111.789 308.517 111.789ZM309.291 113.355V123H307.69V113.355H309.291ZM311.422 118.142C311.422 117.157 311.622 116.294 312.021 115.555C312.42 114.804 312.965 114.223 313.658 113.813C314.362 113.402 315.142 113.197 315.998 113.197C316.843 113.197 317.577 113.379 318.198 113.742C318.82 114.106 319.284 114.564 319.589 115.115V113.355H321.208V123H319.589V121.205C319.272 121.768 318.797 122.237 318.163 122.613C317.541 122.977 316.814 123.158 315.981 123.158C315.124 123.158 314.35 122.947 313.658 122.525C312.965 122.102 312.42 121.51 312.021 120.747C311.622 119.985 311.422 119.116 311.422 118.142ZM319.589 118.16C319.589 117.433 319.442 116.799 319.149 116.259C318.855 115.719 318.457 115.309 317.952 115.027C317.459 114.734 316.914 114.587 316.315 114.587C315.717 114.587 315.171 114.728 314.678 115.01C314.186 115.291 313.793 115.702 313.499 116.242C313.206 116.781 313.059 117.415 313.059 118.142C313.059 118.882 313.206 119.527 313.499 120.078C313.793 120.618 314.186 121.035 314.678 121.328C315.171 121.61 315.717 121.75 316.315 121.75C316.914 121.75 317.459 121.61 317.952 121.328C318.457 121.035 318.855 120.618 319.149 120.078C319.442 119.527 319.589 118.887 319.589 118.16Z" fill="#EEEFF4"/>
<mask id="path-9-inside-3_189_4" fill="white">
<path d="M0 180.47H793V235.7H0V180.47Z"/>
</mask>
<path d="M793 234.7H0V236.7H793V234.7Z" fill="#EEEFF4" mask="url(#path-9-inside-3_189_4)"/>
<path d="M1.7952 210.9C4.77547 208.507 7.1104 206.547 8.8 205.022C10.4896 203.473 11.9093 201.866 13.0592 200.2C14.2325 198.51 14.8192 196.856 14.8192 195.236C14.8192 193.711 14.4437 192.514 13.6928 191.646C12.9653 190.754 11.7803 190.308 10.1376 190.308C8.54187 190.308 7.29813 190.813 6.4064 191.822C5.53813 192.808 5.0688 194.133 4.9984 195.8H1.9008C1.99467 193.171 2.79253 191.141 4.2944 189.71C5.79627 188.279 7.73227 187.563 10.1024 187.563C12.5195 187.563 14.432 188.232 15.84 189.569C17.2715 190.907 17.9872 192.749 17.9872 195.096C17.9872 197.043 17.4005 198.944 16.2272 200.798C15.0773 202.628 13.7632 204.248 12.2848 205.656C10.8064 207.04 8.91733 208.659 6.6176 210.513H18.7264V213.188H1.7952V210.9ZM23.9781 213.681C23.3679 213.681 22.8517 213.47 22.4293 213.048C22.0069 212.625 21.7957 212.109 21.7957 211.499C21.7957 210.889 22.0069 210.372 22.4293 209.95C22.8517 209.528 23.3679 209.316 23.9781 209.316C24.5647 209.316 25.0575 209.528 25.4565 209.95C25.8789 210.372 26.0901 210.889 26.0901 211.499C26.0901 212.109 25.8789 212.625 25.4565 213.048C25.0575 213.47 24.5647 213.681 23.9781 213.681Z" fill="#EEEFF4"/>
<path d="M53.0789 207.328C53.0789 206.131 53.3487 205.057 53.8885 204.107C54.4282 203.145 55.1615 202.394 56.0885 201.854C57.0271 201.314 58.0655 201.044 59.2037 201.044C60.5413 201.044 61.7087 201.367 62.7061 202.012C63.7034 202.658 64.4309 203.573 64.8885 204.758H62.9701C62.6298 204.019 62.137 203.45 61.4917 203.051C60.8581 202.652 60.0954 202.452 59.2037 202.452C58.3471 202.452 57.5786 202.652 56.8981 203.051C56.2175 203.45 55.6837 204.019 55.2965 204.758C54.9093 205.485 54.7157 206.342 54.7157 207.328C54.7157 208.301 54.9093 209.158 55.2965 209.897C55.6837 210.625 56.2175 211.188 56.8981 211.587C57.5786 211.986 58.3471 212.185 59.2037 212.185C60.0954 212.185 60.8581 211.992 61.4917 211.604C62.137 211.205 62.6298 210.636 62.9701 209.897H64.8885C64.4309 211.071 63.7034 211.98 62.7061 212.625C61.7087 213.259 60.5413 213.576 59.2037 213.576C58.0655 213.576 57.0271 213.312 56.0885 212.784C55.1615 212.244 54.4282 211.499 53.8885 210.548C53.3487 209.598 53.0789 208.524 53.0789 207.328ZM71.479 213.628C70.5755 213.628 69.7542 213.423 69.015 213.012C68.2875 212.602 67.7126 212.021 67.2902 211.27C66.8795 210.507 66.6742 209.627 66.6742 208.63C66.6742 207.644 66.8854 206.776 67.3078 206.025C67.7419 205.263 68.3286 204.682 69.0678 204.283C69.807 203.872 70.6342 203.667 71.5494 203.667C72.4646 203.667 73.2918 203.872 74.031 204.283C74.7702 204.682 75.351 205.257 75.7734 206.008C76.2075 206.759 76.4246 207.633 76.4246 208.63C76.4246 209.627 76.2017 210.507 75.7558 211.27C75.3217 212.021 74.7291 212.602 73.9782 213.012C73.2273 213.423 72.3942 213.628 71.479 213.628ZM71.479 212.22C72.0539 212.22 72.5937 212.085 73.0982 211.816C73.6027 211.546 74.0075 211.141 74.3126 210.601C74.6294 210.061 74.7878 209.404 74.7878 208.63C74.7878 207.856 74.6353 207.199 74.3302 206.659C74.0251 206.119 73.6262 205.72 73.1334 205.462C72.6406 205.192 72.1067 205.057 71.5318 205.057C70.9451 205.057 70.4054 205.192 69.9126 205.462C69.4315 205.72 69.0443 206.119 68.751 206.659C68.4577 207.199 68.311 207.856 68.311 208.63C68.311 209.416 68.4518 210.079 68.7334 210.619C69.0267 211.159 69.4139 211.563 69.895 211.833C70.3761 212.091 70.9041 212.22 71.479 212.22ZM90.1288 203.649C90.8797 203.649 91.5485 203.808 92.1352 204.124C92.7219 204.429 93.1853 204.893 93.5256 205.515C93.8659 206.137 94.036 206.893 94.036 207.785V213.47H92.452V208.014C92.452 207.052 92.2115 206.319 91.7304 205.814C91.2611 205.298 90.6216 205.04 89.812 205.04C88.9789 205.04 88.316 205.309 87.8232 205.849C87.3304 206.377 87.084 207.146 87.084 208.155V213.47H85.5V208.014C85.5 207.052 85.2595 206.319 84.7784 205.814C84.3091 205.298 83.6696 205.04 82.86 205.04C82.0269 205.04 81.364 205.309 80.8712 205.849C80.3784 206.377 80.132 207.146 80.132 208.155V213.47H78.5304V203.825H80.132V205.216C80.4488 204.711 80.8712 204.324 81.3992 204.054C81.9389 203.784 82.5315 203.649 83.1768 203.649C83.9864 203.649 84.7021 203.831 85.324 204.195C85.9459 204.559 86.4093 205.092 86.7144 205.796C86.9843 205.116 87.4301 204.588 88.052 204.212C88.6739 203.837 89.3661 203.649 90.1288 203.649ZM105.217 203.825V213.47H103.615V212.044C103.31 212.537 102.882 212.924 102.33 213.206C101.791 213.476 101.192 213.611 100.535 213.611C99.7843 213.611 99.1096 213.458 98.5112 213.153C97.9128 212.836 97.4376 212.367 97.0856 211.745C96.7453 211.123 96.5752 210.367 96.5752 209.475V203.825H98.1592V209.264C98.1592 210.214 98.3997 210.947 98.8808 211.464C99.3619 211.968 100.019 212.22 100.852 212.22C101.709 212.22 102.383 211.956 102.876 211.428C103.369 210.9 103.615 210.132 103.615 209.123V203.825H105.217ZM112.62 203.649C113.794 203.649 114.744 204.007 115.471 204.723C116.199 205.427 116.563 206.448 116.563 207.785V213.47H114.979V208.014C114.979 207.052 114.738 206.319 114.257 205.814C113.776 205.298 113.119 205.04 112.286 205.04C111.441 205.04 110.766 205.304 110.262 205.832C109.769 206.36 109.523 207.128 109.523 208.137V213.47H107.921V203.825H109.523V205.198C109.839 204.705 110.268 204.324 110.807 204.054C111.359 203.784 111.963 203.649 112.62 203.649ZM120.006 202.259C119.701 202.259 119.443 202.153 119.232 201.942C119.02 201.731 118.915 201.473 118.915 201.168C118.915 200.863 119.02 200.604 119.232 200.393C119.443 200.182 119.701 200.076 120.006 200.076C120.299 200.076 120.546 200.182 120.745 200.393C120.956 200.604 121.062 200.863 121.062 201.168C121.062 201.473 120.956 201.731 120.745 201.942C120.546 202.153 120.299 202.259 120.006 202.259ZM120.78 203.825V213.47H119.179V203.825H120.78ZM122.912 208.63C122.912 207.633 123.111 206.764 123.51 206.025C123.909 205.274 124.46 204.693 125.164 204.283C125.88 203.872 126.696 203.667 127.611 203.667C128.796 203.667 129.77 203.954 130.532 204.529C131.307 205.104 131.817 205.902 132.064 206.923H130.339C130.175 206.336 129.852 205.873 129.371 205.532C128.902 205.192 128.315 205.022 127.611 205.022C126.696 205.022 125.956 205.339 125.393 205.972C124.83 206.594 124.548 207.48 124.548 208.63C124.548 209.792 124.83 210.689 125.393 211.323C125.956 211.956 126.696 212.273 127.611 212.273C128.315 212.273 128.902 212.109 129.371 211.78C129.84 211.452 130.163 210.983 130.339 210.372H132.064C131.806 211.358 131.289 212.15 130.515 212.748C129.74 213.335 128.772 213.628 127.611 213.628C126.696 213.628 125.88 213.423 125.164 213.012C124.46 212.602 123.909 212.021 123.51 211.27C123.111 210.519 122.912 209.639 122.912 208.63ZM133.602 208.612C133.602 207.627 133.802 206.764 134.201 206.025C134.6 205.274 135.145 204.693 135.838 204.283C136.542 203.872 137.322 203.667 138.178 203.667C139.023 203.667 139.756 203.849 140.378 204.212C141 204.576 141.464 205.034 141.769 205.585V203.825H143.388V213.47H141.769V211.675C141.452 212.238 140.977 212.707 140.343 213.083C139.721 213.447 138.994 213.628 138.161 213.628C137.304 213.628 136.53 213.417 135.838 212.995C135.145 212.572 134.6 211.98 134.201 211.217C133.802 210.455 133.602 209.586 133.602 208.612ZM141.769 208.63C141.769 207.903 141.622 207.269 141.329 206.729C141.035 206.189 140.636 205.779 140.132 205.497C139.639 205.204 139.094 205.057 138.495 205.057C137.897 205.057 137.351 205.198 136.858 205.48C136.366 205.761 135.972 206.172 135.679 206.712C135.386 207.251 135.239 207.885 135.239 208.612C135.239 209.352 135.386 209.997 135.679 210.548C135.972 211.088 136.366 211.505 136.858 211.798C137.351 212.08 137.897 212.22 138.495 212.22C139.094 212.22 139.639 212.08 140.132 211.798C140.636 211.505 141.035 211.088 141.329 210.548C141.622 209.997 141.769 209.357 141.769 208.63ZM150.195 212.273C150.899 212.273 151.486 212.109 151.955 211.78C152.425 211.452 152.747 210.983 152.923 210.372H154.648C154.413 211.288 153.95 212.039 153.258 212.625C152.577 213.2 151.721 213.529 150.688 213.611V214.491C151.38 214.479 151.932 214.626 152.342 214.931C152.753 215.236 152.958 215.67 152.958 216.233C152.958 216.785 152.759 217.225 152.36 217.553C151.961 217.882 151.445 218.046 150.811 218.046H148.787V217.008H150.494C150.882 217.008 151.163 216.949 151.339 216.832C151.527 216.714 151.621 216.515 151.621 216.233C151.621 215.963 151.527 215.77 151.339 215.652C151.163 215.535 150.882 215.476 150.494 215.476H149.614V213.593C148.805 213.511 148.089 213.259 147.467 212.836C146.845 212.402 146.358 211.827 146.006 211.112C145.666 210.384 145.496 209.557 145.496 208.63C145.496 207.633 145.696 206.764 146.094 206.025C146.493 205.274 147.045 204.693 147.749 204.283C148.465 203.872 149.28 203.667 150.195 203.667C151.38 203.667 152.354 203.954 153.117 204.529C153.891 205.104 154.402 205.902 154.648 206.923H152.923C152.759 206.336 152.436 205.873 151.955 205.532C151.486 205.192 150.899 205.022 150.195 205.022C149.28 205.022 148.541 205.339 147.978 205.972C147.414 206.594 147.133 207.48 147.133 208.63C147.133 209.792 147.414 210.689 147.978 211.323C148.541 211.956 149.28 212.273 150.195 212.273ZM156.187 208.612C156.187 207.627 156.386 206.764 156.785 206.025C157.184 205.274 157.73 204.693 158.422 204.283C159.126 203.872 159.906 203.667 160.763 203.667C161.607 203.667 162.341 203.849 162.963 204.212C163.585 204.576 164.048 205.034 164.353 205.585V203.825H165.972V213.47H164.353V211.675C164.036 212.238 163.561 212.707 162.927 213.083C162.306 213.447 161.578 213.628 160.745 213.628C159.889 213.628 159.114 213.417 158.422 212.995C157.73 212.572 157.184 211.98 156.785 211.217C156.386 210.455 156.187 209.586 156.187 208.612ZM164.353 208.63C164.353 207.903 164.206 207.269 163.913 206.729C163.62 206.189 163.221 205.779 162.716 205.497C162.223 205.204 161.678 205.057 161.079 205.057C160.481 205.057 159.935 205.198 159.443 205.48C158.95 205.761 158.557 206.172 158.263 206.712C157.97 207.251 157.823 207.885 157.823 208.612C157.823 209.352 157.97 209.997 158.263 210.548C158.557 211.088 158.95 211.505 159.443 211.798C159.935 212.08 160.481 212.22 161.079 212.22C161.678 212.22 162.223 212.08 162.716 211.798C163.221 211.505 163.62 211.088 163.913 210.548C164.206 209.997 164.353 209.357 164.353 208.63ZM158.809 202.787C158.891 202.188 159.085 201.731 159.39 201.414C159.707 201.097 160.1 200.939 160.569 200.939C160.792 200.939 160.98 200.98 161.132 201.062C161.297 201.132 161.49 201.238 161.713 201.379C161.877 201.496 162.024 201.59 162.153 201.66C162.282 201.719 162.423 201.748 162.575 201.748C162.775 201.748 162.945 201.684 163.086 201.555C163.227 201.426 163.315 201.238 163.35 200.992H164.265C164.195 201.578 164.001 202.03 163.684 202.347C163.367 202.664 162.974 202.822 162.505 202.822C162.282 202.822 162.083 202.787 161.907 202.716C161.742 202.634 161.555 202.517 161.343 202.364C161.156 202.247 161.003 202.159 160.886 202.1C160.78 202.042 160.651 202.012 160.499 202.012C160.299 202.012 160.129 202.077 159.988 202.206C159.859 202.335 159.777 202.529 159.742 202.787H158.809ZM172.885 213.628C171.982 213.628 171.16 213.423 170.421 213.012C169.694 212.602 169.119 212.021 168.696 211.27C168.286 210.507 168.08 209.627 168.08 208.63C168.08 207.644 168.292 206.776 168.714 206.025C169.148 205.263 169.735 204.682 170.474 204.283C171.213 203.872 172.04 203.667 172.956 203.667C173.871 203.667 174.698 203.872 175.437 204.283C176.176 204.682 176.757 205.257 177.18 206.008C177.614 206.759 177.831 207.633 177.831 208.63C177.831 209.627 177.608 210.507 177.162 211.27C176.728 212.021 176.135 212.602 175.384 213.012C174.633 213.423 173.8 213.628 172.885 213.628ZM172.885 212.22C173.46 212.22 174 212.085 174.504 211.816C175.009 211.546 175.414 211.141 175.719 210.601C176.036 210.061 176.194 209.404 176.194 208.63C176.194 207.856 176.041 207.199 175.736 206.659C175.431 206.119 175.032 205.72 174.54 205.462C174.047 205.192 173.513 205.057 172.938 205.057C172.351 205.057 171.812 205.192 171.319 205.462C170.838 205.72 170.451 206.119 170.157 206.659C169.864 207.199 169.717 207.856 169.717 208.63C169.717 209.416 169.858 210.079 170.14 210.619C170.433 211.159 170.82 211.563 171.301 211.833C171.782 212.091 172.31 212.22 172.885 212.22ZM184.03 207.328C184.03 206.131 184.3 205.057 184.84 204.107C185.38 203.145 186.113 202.394 187.04 201.854C187.979 201.314 189.017 201.044 190.155 201.044C191.493 201.044 192.66 201.367 193.658 202.012C194.655 202.658 195.382 203.573 195.84 204.758H193.922C193.581 204.019 193.089 203.45 192.443 203.051C191.81 202.652 191.047 202.452 190.155 202.452C189.299 202.452 188.53 202.652 187.85 203.051C187.169 203.45 186.635 204.019 186.248 204.758C185.861 205.485 185.667 206.342 185.667 207.328C185.667 208.301 185.861 209.158 186.248 209.897C186.635 210.625 187.169 211.188 187.85 211.587C188.53 211.986 189.299 212.185 190.155 212.185C191.047 212.185 191.81 211.992 192.443 211.604C193.089 211.205 193.581 210.636 193.922 209.897H195.84C195.382 211.071 194.655 211.98 193.658 212.625C192.66 213.259 191.493 213.576 190.155 213.576C189.017 213.576 187.979 213.312 187.04 212.784C186.113 212.244 185.38 211.499 184.84 210.548C184.3 209.598 184.03 208.524 184.03 207.328ZM199.826 200.446V213.47H198.224V200.446H199.826ZM201.957 208.612C201.957 207.627 202.156 206.764 202.555 206.025C202.954 205.274 203.5 204.693 204.192 204.283C204.896 203.872 205.676 203.667 206.533 203.667C207.378 203.667 208.111 203.849 208.733 204.212C209.355 204.576 209.818 205.034 210.123 205.585V203.825H211.743V213.47H210.123V211.675C209.807 212.238 209.331 212.707 208.698 213.083C208.076 213.447 207.348 213.628 206.515 213.628C205.659 213.628 204.884 213.417 204.192 212.995C203.5 212.572 202.954 211.98 202.555 211.217C202.156 210.455 201.957 209.586 201.957 208.612ZM210.123 208.63C210.123 207.903 209.977 207.269 209.683 206.729C209.39 206.189 208.991 205.779 208.487 205.497C207.994 205.204 207.448 205.057 206.85 205.057C206.251 205.057 205.706 205.198 205.213 205.48C204.72 205.761 204.327 206.172 204.034 206.712C203.74 207.251 203.594 207.885 203.594 208.612C203.594 209.352 203.74 209.997 204.034 210.548C204.327 211.088 204.72 211.505 205.213 211.798C205.706 212.08 206.251 212.22 206.85 212.22C207.448 212.22 207.994 212.08 208.487 211.798C208.991 211.505 209.39 211.088 209.683 210.548C209.977 209.997 210.123 209.357 210.123 208.63ZM216.051 205.392C216.332 204.84 216.731 204.412 217.248 204.107C217.776 203.802 218.415 203.649 219.166 203.649V205.304H218.744C216.948 205.304 216.051 206.277 216.051 208.225V213.47H214.449V203.825H216.051V205.392ZM220.416 208.612C220.416 207.627 220.616 206.764 221.015 206.025C221.414 205.274 221.959 204.693 222.652 204.283C223.356 203.872 224.136 203.667 224.992 203.667C225.837 203.667 226.571 203.849 227.192 204.212C227.814 204.576 228.278 205.034 228.583 205.585V203.825H230.202V213.47H228.583V211.675C228.266 212.238 227.791 212.707 227.157 213.083C226.535 213.447 225.808 213.628 224.975 213.628C224.118 213.628 223.344 213.417 222.652 212.995C221.959 212.572 221.414 211.98 221.015 211.217C220.616 210.455 220.416 209.586 220.416 208.612ZM228.583 208.63C228.583 207.903 228.436 207.269 228.143 206.729C227.849 206.189 227.451 205.779 226.946 205.497C226.453 205.204 225.908 205.057 225.309 205.057C224.711 205.057 224.165 205.198 223.672 205.48C223.18 205.761 222.787 206.172 222.493 206.712C222.2 207.251 222.053 207.885 222.053 208.612C222.053 209.352 222.2 209.997 222.493 210.548C222.787 211.088 223.18 211.505 223.672 211.798C224.165 212.08 224.711 212.22 225.309 212.22C225.908 212.22 226.453 212.08 226.946 211.798C227.451 211.505 227.849 211.088 228.143 210.548C228.436 209.997 228.583 209.357 228.583 208.63ZM246.401 208.278C246.401 208.583 246.383 208.906 246.348 209.246H238.639C238.698 210.196 239.02 210.941 239.607 211.481C240.206 212.009 240.927 212.273 241.772 212.273C242.464 212.273 243.039 212.115 243.497 211.798C243.966 211.469 244.295 211.035 244.482 210.496H246.207C245.949 211.423 245.433 212.179 244.658 212.766C243.884 213.341 242.922 213.628 241.772 213.628C240.857 213.628 240.035 213.423 239.308 213.012C238.592 212.602 238.029 212.021 237.618 211.27C237.208 210.507 237.002 209.627 237.002 208.63C237.002 207.633 237.202 206.759 237.601 206.008C238 205.257 238.557 204.682 239.273 204.283C240 203.872 240.833 203.667 241.772 203.667C242.687 203.667 243.497 203.866 244.201 204.265C244.905 204.664 245.444 205.216 245.82 205.92C246.207 206.612 246.401 207.398 246.401 208.278ZM244.746 207.944C244.746 207.333 244.611 206.811 244.342 206.377C244.072 205.931 243.702 205.597 243.233 205.374C242.775 205.139 242.265 205.022 241.702 205.022C240.892 205.022 240.2 205.28 239.625 205.796C239.062 206.313 238.739 207.028 238.657 207.944H244.746ZM258.769 213.593C257.63 213.593 256.592 213.329 255.653 212.801C254.715 212.261 253.97 211.516 253.418 210.566C252.878 209.604 252.609 208.524 252.609 207.328C252.609 206.131 252.878 205.057 253.418 204.107C253.97 203.145 254.715 202.4 255.653 201.872C256.592 201.332 257.63 201.062 258.769 201.062C259.918 201.062 260.963 201.332 261.901 201.872C262.84 202.4 263.579 203.139 264.119 204.089C264.659 205.04 264.929 206.119 264.929 207.328C264.929 208.536 264.659 209.616 264.119 210.566C263.579 211.516 262.84 212.261 261.901 212.801C260.963 213.329 259.918 213.593 258.769 213.593ZM258.769 212.203C259.625 212.203 260.394 212.003 261.074 211.604C261.766 211.205 262.306 210.636 262.693 209.897C263.092 209.158 263.292 208.301 263.292 207.328C263.292 206.342 263.092 205.485 262.693 204.758C262.306 204.019 261.772 203.45 261.092 203.051C260.411 202.652 259.637 202.452 258.769 202.452C257.9 202.452 257.126 202.652 256.445 203.051C255.765 203.45 255.225 204.019 254.826 204.758C254.439 205.485 254.245 206.342 254.245 207.328C254.245 208.301 254.439 209.158 254.826 209.897C255.225 210.636 255.765 211.205 256.445 211.604C257.138 212.003 257.912 212.203 258.769 212.203ZM268.644 205.62C268.973 205.045 269.454 204.576 270.088 204.212C270.721 203.849 271.443 203.667 272.252 203.667C273.121 203.667 273.901 203.872 274.593 204.283C275.286 204.693 275.831 205.274 276.23 206.025C276.629 206.764 276.828 207.627 276.828 208.612C276.828 209.586 276.629 210.455 276.23 211.217C275.831 211.98 275.28 212.572 274.576 212.995C273.883 213.417 273.109 213.628 272.252 213.628C271.419 213.628 270.686 213.447 270.052 213.083C269.431 212.719 268.961 212.256 268.644 211.692V213.47H267.043V200.446H268.644V205.62ZM275.192 208.612C275.192 207.885 275.045 207.251 274.752 206.712C274.458 206.172 274.059 205.761 273.555 205.48C273.062 205.198 272.516 205.057 271.918 205.057C271.331 205.057 270.786 205.204 270.281 205.497C269.788 205.779 269.39 206.195 269.084 206.747C268.791 207.287 268.644 207.914 268.644 208.63C268.644 209.357 268.791 209.997 269.084 210.548C269.39 211.088 269.788 211.505 270.281 211.798C270.786 212.08 271.331 212.22 271.918 212.22C272.516 212.22 273.062 212.08 273.555 211.798C274.059 211.505 274.458 211.088 274.752 210.548C275.045 209.997 275.192 209.352 275.192 208.612ZM279.799 202.259C279.494 202.259 279.236 202.153 279.025 201.942C278.825 201.731 278.725 201.473 278.725 201.168C278.725 200.863 278.825 200.604 279.025 200.393C279.236 200.182 279.494 200.076 279.799 200.076C280.104 200.076 280.356 200.182 280.556 200.393C280.767 200.604 280.873 200.863 280.873 201.168C280.873 201.473 280.767 201.731 280.556 201.942C280.356 202.153 280.104 202.259 279.799 202.259ZM280.591 215.564C280.591 216.421 280.374 217.049 279.94 217.448C279.506 217.847 278.872 218.046 278.039 218.046H277.106V216.691H277.775C278.221 216.691 278.532 216.603 278.708 216.427C278.896 216.251 278.989 215.952 278.989 215.529V203.825H280.591V215.564ZM292.102 208.278C292.102 208.583 292.085 208.906 292.049 209.246H284.341C284.399 210.196 284.722 210.941 285.309 211.481C285.907 212.009 286.629 212.273 287.473 212.273C288.166 212.273 288.741 212.115 289.198 211.798C289.668 211.469 289.996 211.035 290.184 210.496H291.909C291.651 211.423 291.134 212.179 290.36 212.766C289.585 213.341 288.623 213.628 287.473 213.628C286.558 213.628 285.737 213.423 285.009 213.012C284.294 212.602 283.731 212.021 283.32 211.27C282.909 210.507 282.704 209.627 282.704 208.63C282.704 207.633 282.903 206.759 283.302 206.008C283.701 205.257 284.259 204.682 284.974 204.283C285.702 203.872 286.535 203.667 287.473 203.667C288.389 203.667 289.198 203.866 289.902 204.265C290.606 204.664 291.146 205.216 291.521 205.92C291.909 206.612 292.102 207.398 292.102 208.278ZM290.448 207.944C290.448 207.333 290.313 206.811 290.043 206.377C289.773 205.931 289.404 205.597 288.934 205.374C288.477 205.139 287.966 205.022 287.403 205.022C286.593 205.022 285.901 205.28 285.326 205.796C284.763 206.313 284.44 207.028 284.358 207.944H290.448ZM296.17 205.145V210.83C296.17 211.299 296.27 211.634 296.469 211.833C296.669 212.021 297.015 212.115 297.508 212.115H298.687V213.47H297.244C296.352 213.47 295.683 213.265 295.237 212.854C294.791 212.443 294.568 211.769 294.568 210.83V205.145H293.319V203.825H294.568V201.396H296.17V203.825H298.687V205.145H296.17ZM301.454 202.259C301.149 202.259 300.891 202.153 300.68 201.942C300.469 201.731 300.363 201.473 300.363 201.168C300.363 200.863 300.469 200.604 300.68 200.393C300.891 200.182 301.149 200.076 301.454 200.076C301.748 200.076 301.994 200.182 302.194 200.393C302.405 200.604 302.51 200.863 302.51 201.168C302.51 201.473 302.405 201.731 302.194 201.942C301.994 202.153 301.748 202.259 301.454 202.259ZM302.229 203.825V213.47H300.627V203.825H302.229ZM308.549 211.992L311.541 203.825H313.248L309.464 213.47H307.599L303.815 203.825H305.539L308.549 211.992ZM314.226 208.612C314.226 207.627 314.425 206.764 314.824 206.025C315.223 205.274 315.769 204.693 316.461 204.283C317.165 203.872 317.945 203.667 318.802 203.667C319.647 203.667 320.38 203.849 321.002 204.212C321.624 204.576 322.087 205.034 322.392 205.585V203.825H324.011V213.47H322.392V211.675C322.075 212.238 321.6 212.707 320.967 213.083C320.345 213.447 319.617 213.628 318.784 213.628C317.928 213.628 317.153 213.417 316.461 212.995C315.769 212.572 315.223 211.98 314.824 211.217C314.425 210.455 314.226 209.586 314.226 208.612ZM322.392 208.63C322.392 207.903 322.245 207.269 321.952 206.729C321.659 206.189 321.26 205.779 320.755 205.497C320.263 205.204 319.717 205.057 319.119 205.057C318.52 205.057 317.975 205.198 317.482 205.48C316.989 205.761 316.596 206.172 316.303 206.712C316.009 207.251 315.863 207.885 315.863 208.612C315.863 209.352 316.009 209.997 316.303 210.548C316.596 211.088 316.989 211.505 317.482 211.798C317.975 212.08 318.52 212.22 319.119 212.22C319.717 212.22 320.263 212.08 320.755 211.798C321.26 211.505 321.659 211.088 321.952 210.548C322.245 209.997 322.392 209.357 322.392 208.63Z" fill="#EEEFF4"/>
<mask id="path-13-inside-4_189_4" fill="white">
<path d="M0 271H793V326H0V271Z"/>
</mask>
<path d="M793 325H0V327H793V325Z" fill="#EEEFF4" mask="url(#path-13-inside-4_189_4)"/>
<path d="M2.112 284.957C2.27627 282.798 3.10933 281.108 4.6112 279.888C6.11307 278.668 8.0608 278.058 10.4544 278.058C12.0501 278.058 13.4229 278.351 14.5728 278.938C15.7461 279.501 16.6261 280.275 17.2128 281.261C17.8229 282.246 18.128 283.361 18.128 284.605C18.128 286.06 17.7056 287.315 16.8608 288.371C16.0395 289.427 14.96 290.108 13.6224 290.413V290.589C15.1477 290.964 16.3563 291.703 17.248 292.806C18.1397 293.909 18.5856 295.353 18.5856 297.136C18.5856 298.474 18.2805 299.682 17.6704 300.762C17.0603 301.818 16.1451 302.651 14.9248 303.261C13.7045 303.871 12.2379 304.176 10.5248 304.176C8.03733 304.176 5.99573 303.531 4.4 302.24C2.80427 300.926 1.91253 299.072 1.7248 296.678H4.8224C4.98667 298.086 5.5616 299.236 6.5472 300.128C7.5328 301.02 8.84693 301.466 10.4896 301.466C12.1323 301.466 13.376 301.043 14.2208 300.198C15.0891 299.33 15.5232 298.215 15.5232 296.854C15.5232 295.094 14.9365 293.827 13.7632 293.053C12.5899 292.278 10.8181 291.891 8.448 291.891H7.6384V289.216H8.4832C10.6421 289.193 12.2731 288.841 13.376 288.16C14.4789 287.456 15.0304 286.377 15.0304 284.922C15.0304 283.678 14.6197 282.681 13.7984 281.93C13.0005 281.179 11.8507 280.803 10.3488 280.803C8.89387 280.803 7.72053 281.179 6.8288 281.93C5.93707 282.681 5.40907 283.69 5.2448 284.957H2.112ZM24.4593 304.211C23.8492 304.211 23.3329 304 22.9105 303.578C22.4881 303.155 22.2769 302.639 22.2769 302.029C22.2769 301.419 22.4881 300.902 22.9105 300.48C23.3329 300.058 23.8492 299.846 24.4593 299.846C25.046 299.846 25.5388 300.058 25.9377 300.48C26.3601 300.902 26.5713 301.419 26.5713 302.029C26.5713 302.639 26.3601 303.155 25.9377 303.578C25.5388 304 25.046 304.211 24.4593 304.211Z" fill="#EEEFF4"/>
<path d="M62.3789 295.323C62.3789 296.344 62.0269 297.195 61.3229 297.875C60.6306 298.544 59.5687 298.878 58.1373 298.878H55.7789V304H54.1773V291.733H58.1373C59.5218 291.733 60.5719 292.067 61.2877 292.736C62.0151 293.405 62.3789 294.267 62.3789 295.323ZM58.1373 297.558C59.029 297.558 59.6861 297.365 60.1085 296.978C60.5309 296.59 60.7421 296.039 60.7421 295.323C60.7421 293.81 59.8738 293.053 58.1373 293.053H55.7789V297.558H58.1373ZM65.9711 295.922C66.2527 295.37 66.6516 294.942 67.1679 294.637C67.6959 294.332 68.3353 294.179 69.0863 294.179V295.834H68.6639C66.8687 295.834 65.9711 296.807 65.9711 298.755V304H64.3695V294.355H65.9711V295.922ZM75.1415 304.158C74.238 304.158 73.4167 303.953 72.6775 303.542C71.95 303.132 71.3751 302.551 70.9527 301.8C70.542 301.037 70.3367 300.157 70.3367 299.16C70.3367 298.174 70.5479 297.306 70.9703 296.555C71.4044 295.793 71.9911 295.212 72.7303 294.813C73.4695 294.402 74.2967 294.197 75.2119 294.197C76.1271 294.197 76.9543 294.402 77.6935 294.813C78.4327 295.212 79.0135 295.787 79.4359 296.538C79.87 297.289 80.0871 298.163 80.0871 299.16C80.0871 300.157 79.8642 301.037 79.4183 301.8C78.9842 302.551 78.3916 303.132 77.6407 303.542C76.8898 303.953 76.0567 304.158 75.1415 304.158ZM75.1415 302.75C75.7164 302.75 76.2562 302.615 76.7607 302.346C77.2652 302.076 77.67 301.671 77.9751 301.131C78.2919 300.591 78.4503 299.934 78.4503 299.16C78.4503 298.386 78.2978 297.729 77.9927 297.189C77.6876 296.649 77.2887 296.25 76.7959 295.992C76.3031 295.722 75.7692 295.587 75.1943 295.587C74.6076 295.587 74.0679 295.722 73.5751 295.992C73.094 296.25 72.7068 296.649 72.4135 297.189C72.1202 297.729 71.9735 298.386 71.9735 299.16C71.9735 299.946 72.1143 300.609 72.3959 301.149C72.6892 301.689 73.0764 302.093 73.5575 302.363C74.0386 302.621 74.5666 302.75 75.1415 302.75ZM81.5945 299.142C81.5945 298.157 81.794 297.294 82.1929 296.555C82.5918 295.804 83.1374 295.223 83.8297 294.813C84.5337 294.402 85.3198 294.197 86.1881 294.197C86.939 294.197 87.6372 294.373 88.2825 294.725C88.9278 295.065 89.4206 295.517 89.7609 296.08V290.976H91.3801V304H89.7609V302.187C89.4441 302.762 88.9748 303.237 88.3529 303.613C87.731 303.977 87.0036 304.158 86.1705 304.158C85.314 304.158 84.5337 303.947 83.8297 303.525C83.1374 303.102 82.5918 302.51 82.1929 301.747C81.794 300.985 81.5945 300.116 81.5945 299.142ZM89.7609 299.16C89.7609 298.433 89.6142 297.799 89.3209 297.259C89.0276 296.719 88.6286 296.309 88.1241 296.027C87.6313 295.734 87.0857 295.587 86.4873 295.587C85.8889 295.587 85.3433 295.728 84.8505 296.01C84.3577 296.291 83.9646 296.702 83.6713 297.242C83.378 297.781 83.2313 298.415 83.2313 299.142C83.2313 299.882 83.378 300.527 83.6713 301.078C83.9646 301.618 84.3577 302.035 84.8505 302.328C85.3433 302.61 85.8889 302.75 86.4873 302.75C87.0857 302.75 87.6313 302.61 88.1241 302.328C88.6286 302.035 89.0276 301.618 89.3209 301.078C89.6142 300.527 89.7609 299.887 89.7609 299.16ZM102.64 294.355V304H101.039V302.574C100.734 303.067 100.305 303.454 99.7538 303.736C99.2141 304.006 98.6157 304.141 97.9586 304.141C97.2077 304.141 96.533 303.988 95.9346 303.683C95.3362 303.366 94.861 302.897 94.509 302.275C94.1688 301.653 93.9986 300.897 93.9986 300.005V294.355H95.5826V299.794C95.5826 300.744 95.8232 301.477 96.3042 301.994C96.7853 302.498 97.4424 302.75 98.2754 302.75C99.132 302.75 99.8066 302.486 100.299 301.958C100.792 301.43 101.039 300.662 101.039 299.653V294.355H102.64ZM107.298 295.675V301.36C107.298 301.829 107.398 302.164 107.597 302.363C107.797 302.551 108.143 302.645 108.636 302.645H109.815V304H108.372C107.48 304 106.811 303.795 106.365 303.384C105.919 302.973 105.696 302.299 105.696 301.36V295.675H104.447V294.355H105.696V291.926H107.298V294.355H109.815V295.675H107.298ZM112.583 292.789C112.278 292.789 112.019 292.683 111.808 292.472C111.597 292.261 111.491 292.003 111.491 291.698C111.491 291.393 111.597 291.134 111.808 290.923C112.019 290.712 112.278 290.606 112.583 290.606C112.876 290.606 113.122 290.712 113.322 290.923C113.533 291.134 113.639 291.393 113.639 291.698C113.639 292.003 113.533 292.261 113.322 292.472C113.122 292.683 112.876 292.789 112.583 292.789ZM113.357 294.355V304H111.755V294.355H113.357ZM119.677 302.522L122.669 294.355H124.376L120.592 304H118.727L114.943 294.355H116.667L119.677 302.522ZM126.779 292.789C126.474 292.789 126.216 292.683 126.005 292.472C125.794 292.261 125.688 292.003 125.688 291.698C125.688 291.393 125.794 291.134 126.005 290.923C126.216 290.712 126.474 290.606 126.779 290.606C127.073 290.606 127.319 290.712 127.519 290.923C127.73 291.134 127.835 291.393 127.835 291.698C127.835 292.003 127.73 292.261 127.519 292.472C127.319 292.683 127.073 292.789 126.779 292.789ZM127.554 294.355V304H125.952V294.355H127.554ZM129.685 299.142C129.685 298.157 129.885 297.294 130.284 296.555C130.682 295.804 131.228 295.223 131.92 294.813C132.624 294.402 133.41 294.197 134.279 294.197C135.03 294.197 135.728 294.373 136.373 294.725C137.018 295.065 137.511 295.517 137.852 296.08V290.976H139.471V304H137.852V302.187C137.535 302.762 137.065 303.237 136.444 303.613C135.822 303.977 135.094 304.158 134.261 304.158C133.405 304.158 132.624 303.947 131.92 303.525C131.228 303.102 130.682 302.51 130.284 301.747C129.885 300.985 129.685 300.116 129.685 299.142ZM137.852 299.16C137.852 298.433 137.705 297.799 137.412 297.259C137.118 296.719 136.719 296.309 136.215 296.027C135.722 295.734 135.176 295.587 134.578 295.587C133.98 295.587 133.434 295.728 132.941 296.01C132.448 296.291 132.055 296.702 131.762 297.242C131.469 297.781 131.322 298.415 131.322 299.142C131.322 299.882 131.469 300.527 131.762 301.078C132.055 301.618 132.448 302.035 132.941 302.328C133.434 302.61 133.98 302.75 134.578 302.75C135.176 302.75 135.722 302.61 136.215 302.328C136.719 302.035 137.118 301.618 137.412 301.078C137.705 300.527 137.852 299.887 137.852 299.16ZM141.579 299.142C141.579 298.157 141.778 297.294 142.177 296.555C142.576 295.804 143.122 295.223 143.814 294.813C144.518 294.402 145.298 294.197 146.155 294.197C147 294.197 147.733 294.379 148.355 294.742C148.977 295.106 149.44 295.564 149.745 296.115V294.355H151.364V304H149.745V302.205C149.428 302.768 148.953 303.237 148.32 303.613C147.698 303.977 146.97 304.158 146.137 304.158C145.281 304.158 144.506 303.947 143.814 303.525C143.122 303.102 142.576 302.51 142.177 301.747C141.778 300.985 141.579 300.116 141.579 299.142ZM149.745 299.16C149.745 298.433 149.599 297.799 149.305 297.259C149.012 296.719 148.613 296.309 148.108 296.027C147.616 295.734 147.07 295.587 146.472 295.587C145.873 295.587 145.328 295.728 144.835 296.01C144.342 296.291 143.949 296.702 143.656 297.242C143.362 297.781 143.216 298.415 143.216 299.142C143.216 299.882 143.362 300.527 143.656 301.078C143.949 301.618 144.342 302.035 144.835 302.328C145.328 302.61 145.873 302.75 146.472 302.75C147.07 302.75 147.616 302.61 148.108 302.328C148.613 302.035 149.012 301.618 149.305 301.078C149.599 300.527 149.745 299.887 149.745 299.16ZM153.473 299.142C153.473 298.157 153.672 297.294 154.071 296.555C154.47 295.804 155.016 295.223 155.708 294.813C156.412 294.402 157.198 294.197 158.066 294.197C158.817 294.197 159.515 294.373 160.161 294.725C160.806 295.065 161.299 295.517 161.639 296.08V290.976H163.258V304H161.639V302.187C161.322 302.762 160.853 303.237 160.231 303.613C159.609 303.977 158.882 304.158 158.049 304.158C157.192 304.158 156.412 303.947 155.708 303.525C155.016 303.102 154.47 302.51 154.071 301.747C153.672 300.985 153.473 300.116 153.473 299.142ZM161.639 299.16C161.639 298.433 161.492 297.799 161.199 297.259C160.906 296.719 160.507 296.309 160.002 296.027C159.509 295.734 158.964 295.587 158.365 295.587C157.767 295.587 157.221 295.728 156.729 296.01C156.236 296.291 155.843 296.702 155.549 297.242C155.256 297.781 155.109 298.415 155.109 299.142C155.109 299.882 155.256 300.527 155.549 301.078C155.843 301.618 156.236 302.035 156.729 302.328C157.221 302.61 157.767 302.75 158.365 302.75C158.964 302.75 159.509 302.61 160.002 302.328C160.507 302.035 160.906 301.618 161.199 301.078C161.492 300.527 161.639 299.887 161.639 299.16ZM174.765 298.808C174.765 299.113 174.747 299.436 174.712 299.776H167.003C167.062 300.726 167.385 301.471 167.971 302.011C168.57 302.539 169.291 302.803 170.136 302.803C170.828 302.803 171.403 302.645 171.861 302.328C172.33 301.999 172.659 301.565 172.846 301.026H174.571C174.313 301.953 173.797 302.709 173.022 303.296C172.248 303.871 171.286 304.158 170.136 304.158C169.221 304.158 168.399 303.953 167.672 303.542C166.956 303.132 166.393 302.551 165.982 301.8C165.572 301.037 165.366 300.157 165.366 299.16C165.366 298.163 165.566 297.289 165.965 296.538C166.364 295.787 166.921 295.212 167.637 294.813C168.364 294.402 169.197 294.197 170.136 294.197C171.051 294.197 171.861 294.396 172.565 294.795C173.269 295.194 173.809 295.746 174.184 296.45C174.571 297.142 174.765 297.928 174.765 298.808ZM173.11 298.474C173.11 297.863 172.975 297.341 172.706 296.907C172.436 296.461 172.066 296.127 171.597 295.904C171.139 295.669 170.629 295.552 170.066 295.552C169.256 295.552 168.564 295.81 167.989 296.326C167.426 296.843 167.103 297.558 167.021 298.474H173.11Z" fill="#EEEFF4"/>
</svg>
